<svg width="108" height="78" viewBox="0 0 108 78" fill="none" xmlns="http://www.w3.org/2000/svg">
<path d="M34.5351 51.7429H34.54C34.5441 51.7429 34.5482 51.7422 34.5523 51.7422H91.4873C92.889 51.7422 94.1214 50.9762 94.5066 49.8658L107.068 13.6463C107.338 12.8655 107.149 12.026 106.556 11.3779C105.962 10.7298 105.034 10.3484 104.049 10.3484H27.2928L25.048 2.02589C24.7282 0.842158 23.4541 0 21.9821 0H3.1403C1.40577 0 0 1.15814 0 2.58711C0 4.01608 1.40577 5.17422 3.1403 5.17422H19.4633C19.8607 6.649 30.2057 45.0015 30.8011 47.208C27.4637 48.4032 25.1224 51.1446 25.1224 54.3293C25.1224 58.6088 29.3487 62.0906 34.5433 62.0906H91.4873C93.2219 62.0906 94.6276 60.9325 94.6276 59.5035C94.6276 58.0745 93.2219 56.9164 91.4873 56.9164H34.5433C32.812 56.9164 31.403 55.7556 31.403 54.3293C31.403 52.905 32.8071 51.7462 34.5351 51.7429ZM99.8852 15.5227L89.1182 46.568H37.0621L28.6879 15.5227H99.8852Z" fill="#303030"/>
<path d="M31.4033 69.8521C31.4033 74.1317 35.6296 77.6135 40.8242 77.6135C46.0188 77.6135 50.2451 74.1317 50.2451 69.8521C50.2451 65.5726 46.0188 62.0908 40.8242 62.0908C35.6296 62.0908 31.4033 65.5726 31.4033 69.8521ZM40.8242 67.265C42.5555 67.265 43.9645 68.4259 43.9645 69.8521C43.9645 71.2784 42.5555 72.4393 40.8242 72.4393C39.093 72.4393 37.6839 71.2784 37.6839 69.8521C37.6839 68.4259 39.093 67.265 40.8242 67.265Z" fill="#303030"/>
<path d="M75.7861 69.8521C75.7861 74.1317 80.0124 77.6135 85.207 77.6135C90.4016 77.6135 94.6279 74.1317 94.6279 69.8521C94.6279 65.5726 90.4016 62.0908 85.207 62.0908C80.0124 62.0908 75.7861 65.5726 75.7861 69.8521ZM85.207 67.265C86.9383 67.265 88.3473 68.4259 88.3473 69.8521C88.3473 71.2784 86.9383 72.4393 85.207 72.4393C83.4758 72.4393 82.0667 71.2784 82.0667 69.8521C82.0667 68.4259 83.4758 67.265 85.207 67.265Z" fill="#303030"/>
</svg>
