<svg id="Capa_1" data-name="Capa 1" xmlns="http://www.w3.org/2000/svg" viewBox="0 0 200 200"><defs><style>.cls-1{fill:#303030;fill-rule:evenodd;}</style></defs><path class="cls-1" d="M197.5,76.55C186.7,31.39,147.74.61,100.76,0a143.07,143.07,0,0,0-19,1.9C15.92,15.2-18,87.88,13.87,146.41a6.38,6.38,0,0,1,.91,4.94c-4.64,15.2-8.89,30.79-13,46.15-.68,2.66-.68,2.66,1.87,2,16.07-4.41,32-8.51,48-12.47a4.18,4.18,0,0,1,3.57.16c20.6,10.48,42.34,13.45,65.15,9.19C174.8,185.87,210.5,130.37,197.5,76.55ZM114.71,180.46c-4.75.84-9.2,1.3-11.44,1-17.52,0-31.63-3.94-44.74-11.47-1.86-1.15-3.27-1.45-5.06-.76-9,2.13-17.71,4.56-26.6,6.84-1.83.53-2,.15-1.6-1.6,2.36-8.21,4.56-16.57,7.15-25.09.57-2.28.42-4.1-1-5.85-18-29.34-17.18-65.3,2.93-92.51C55.26,23,84,11.4,118.2,18.78c33.72,7.06,55.31,29,63,62.56C192.09,127.33,161.08,172.94,114.71,180.46Z"/><path class="cls-1" d="M126.72,146.41a26.58,26.58,0,0,1-10.3-1.29c-22.69-6.69-39.87-20.6-53.67-39.46-5.13-7-10-14.51-11.52-23.41C49.14,72,52.37,62.79,60.16,55.8c2.59-2.51,10.15-3.65,13.23-2a10.72,10.72,0,0,1,2.21,2.59c2.81,7.06,5.81,13.6,8.66,20.29A5.35,5.35,0,0,1,83.84,81c-1.52,3.12-3.83,5.55-6.08,8.21-1.9,1.6-1.9,3.42-.61,5.39C85.29,108.17,96.27,118,111,123.68c2.13.84,3.77.53,5.1-1.14,2.54-3,5-6.23,7.41-9.35A4.15,4.15,0,0,1,129,111.9c4.87,2.12,9.65,4.41,14.29,6.54,1.29.68,2.21,1.13,3.34,1.66,4.91,2.44,4.91,2.74,4.34,8-.65,10.34-8.6,15.58-17.68,18.17A16.29,16.29,0,0,1,126.72,146.41Z"/></svg>