<?xml version="1.0" encoding="utf-8"?>
<!-- Generator: Adobe Illustrator 25.2.3, SVG Export Plug-In . SVG Version: 6.00 Build 0)  -->
<svg version="1.1" id="Capa_1" xmlns="http://www.w3.org/2000/svg" xmlns:xlink="http://www.w3.org/1999/xlink" x="0px" y="0px"
	 viewBox="0 0 200 200" style="enable-background:new 0 0 200 200;" xml:space="preserve">
<style type="text/css">
	.st0{fill:#FFFFFF;stroke:#FFFFFF;stroke-width:0.66;stroke-miterlimit:10;}
	.st1{fill:none;stroke:#FFFFFF;stroke-width:17;stroke-miterlimit:10;}
</style>
<path class="st0" d="M111.9,71.3c1.6-1.8,4.7-3.1,9.2-3.1c4.7,0,9.4,0.7,13.9,2l3.8-21.2c-8.1-2.9-16.3-3.6-25.1-3.6
	c-8.5,0-15.2,1.3-20.8,4.5c-5.4,2.9-9.2,6.5-11.2,11.4c-2,4.5-3.1,11.9-3.1,21.5V91H61.8v24.2h16.8v76.1H109v-76.1h22.2V91H109v-7.8
	C109,77.1,109.9,73.6,111.9,71.3z"/>
<circle class="st1" cx="100.3" cy="100" r="91.3"/>
</svg>
