<?xml version="1.0" encoding="utf-8"?>
<!-- Generator: Adobe Illustrator 25.2.3, SVG Export Plug-In . SVG Version: 6.00 Build 0)  -->
<svg version="1.1" id="Capa_1" xmlns="http://www.w3.org/2000/svg" xmlns:xlink="http://www.w3.org/1999/xlink" x="0px" y="0px"
	 viewBox="0 0 200 200" style="enable-background:new 0 0 200 200;" xml:space="preserve">
<style type="text/css">
	.st0{fill:#303030;stroke:#303030;stroke-width:4.5;stroke-miterlimit:10;}
</style>
<path class="st0" d="M191.5,12.2h-23.2c-2.7,0-5.1,1.9-5.8,4.5l-5.6,14.6H8.6c-3.4,0.1-6.1,2.8-6.1,6.2c0,0.6,0.1,1.2,0.3,1.8v0l0,0
	l25.6,78.3c0.8,2.5,3.1,4.3,5.8,4.3h101.6c0.4,0,0.8,0,1.2,0c7.6,0.9,13,7.8,12.1,15.4c-0.8,6.6-6.2,11.7-12.8,12.2l0,0h-93
	c-10.3,0-18.6,8.4-18.6,18.6s8.4,18.6,18.6,18.6S62,178.5,62,168.2c0-2.2-0.4-4.3-1.1-6.4h47.4c-3.6,9.7,1.4,20.4,11.1,23.9
	c9.7,3.6,20.4-1.4,23.9-11.1c1.7-4.6,1.5-9.6-0.5-14c13.7-4.2,21.5-18.7,17.3-32.4c-2.4-7.8-8.2-14-15.8-16.8l22.6-72l0,0v0v-0.1
	l5.7-14.8h18.9c3.4,0,6.1-2.7,6.1-6.1S194.9,12.2,191.5,12.2C191.6,12.2,191.5,12.2,191.5,12.2z M43.4,174.8c-3.6,0-6.4-2.9-6.4-6.4
	s2.9-6.4,6.4-6.4s6.4,2.9,6.4,6.4C49.8,171.9,47,174.8,43.4,174.8C43.4,174.8,43.4,174.8,43.4,174.8z M125.8,174.8
	c-3.6,0-6.4-2.9-6.4-6.4c0-3.6,2.9-6.4,6.4-6.4s6.4,2.9,6.4,6.4l0,0C132.3,171.9,129.4,174.8,125.8,174.8
	C125.8,174.8,125.8,174.8,125.8,174.8z M132,109.9H38.7L17,43.6h135.8L132,109.9z"/>
</svg>
