<svg id="Capa_1" data-name="Capa 1" xmlns="http://www.w3.org/2000/svg" viewBox="0 0 200 200"><defs><style>.cls-1{fill:#303030;stroke-width:0.66px;}.cls-1,.cls-2{stroke:#303030;stroke-miterlimit:10;}.cls-2{fill:none;stroke-width:17px;}</style></defs><path class="cls-1" d="M111.92,71.32c1.57-1.79,4.7-3.13,9.18-3.13a51.7,51.7,0,0,1,13.87,2L138.77,49c-8.05-2.91-16.33-3.58-25.05-3.58-8.51,0-15.22,1.34-20.81,4.47-5.37,2.91-9.18,6.49-11.19,11.41-2,4.48-3.13,11.86-3.13,21.48V91H61.81v24.16H78.59v76.08H109V115.17h22.16V91H109V83.18C109,77.14,109.91,73.56,111.92,71.32Z"/><circle class="cls-2" cx="100.29" cy="99.96" r="91.29"/></svg>