<svg id="Capa_1" data-name="Capa 1" xmlns="http://www.w3.org/2000/svg" viewBox="0 0 200 200"><defs><style>.cls-1{fill:#303030;stroke:#303030;stroke-miterlimit:10;stroke-width:9px;}</style></defs><path class="cls-1" d="M179,26.81H21A15.8,15.8,0,0,0,5.24,42.6V153.16A15.8,15.8,0,0,0,21,169H179a15.8,15.8,0,0,0,15.79-15.79V42.6A15.8,15.8,0,0,0,179,26.81ZM21,34.71H179a7.57,7.57,0,0,1,1.64.33c-13.68,12.51-59,54-74.88,68.28a7.9,7.9,0,0,1-11.46,0C78.4,89,33.06,47.55,19.39,35A7.57,7.57,0,0,1,21,34.71ZM13.14,153.16V42.6a7.61,7.61,0,0,1,.44-2.18C24,50,55.68,78.94,76.19,97.59c-20.44,17.57-52.09,47.57-62.64,57.62A7.77,7.77,0,0,1,13.14,153.16ZM179,161.05H21a7.6,7.6,0,0,1-1.78-.36C30.15,150.3,62,120.13,82.08,103l6.9,6.24a15.79,15.79,0,0,0,22,0l6.9-6.24c20.08,17.18,51.92,47.35,62.83,57.74A7.6,7.6,0,0,1,179,161.05Zm7.89-7.89a7.77,7.77,0,0,1-.41,2.05c-10.56-10.06-42.2-40.06-62.64-57.62C144.32,78.94,176,50,186.42,40.42a7.61,7.61,0,0,1,.44,2.18Z"/></svg>