<?xml version="1.0" encoding="utf-8"?>
<!-- Generator: Adobe Illustrator 25.2.3, SVG Export Plug-In . SVG Version: 6.00 Build 0)  -->
<svg version="1.1" id="Capa_1" xmlns="http://www.w3.org/2000/svg" xmlns:xlink="http://www.w3.org/1999/xlink" x="0px" y="0px"
	 viewBox="0 0 200 200" style="enable-background:new 0 0 200 200;" xml:space="preserve">
<style type="text/css">
	.st0{fill:#FFFFFF;stroke:#FFFFFF;stroke-width:9;stroke-miterlimit:10;}
</style>
<path class="st0" d="M179,26.8H21c-8.7,0-15.8,7.1-15.8,15.8v110.6c0,8.7,7,15.8,15.8,15.8c0,0,0,0,0,0h158
	c8.7,0,15.8-7.1,15.8-15.8V42.6C194.8,33.9,187.7,26.8,179,26.8z M21,34.7h158c0.6,0,1.1,0.2,1.6,0.3c-13.7,12.5-59,54-74.9,68.3
	c-3,3.2-8,3.3-11.2,0.3c-0.1-0.1-0.2-0.2-0.3-0.3C78.4,89,33.1,47.6,19.4,35C19.9,34.8,20.5,34.7,21,34.7z M13.1,153.2V42.6
	c0-0.7,0.2-1.5,0.4-2.2C24,50,55.7,78.9,76.2,97.6c-20.4,17.6-52.1,47.6-62.6,57.6C13.3,154.5,13.2,153.9,13.1,153.2z M179,161.1H21
	c-0.6,0-1.2-0.2-1.8-0.4C30.1,150.3,62,120.1,82.1,103l6.9,6.2c6.1,5.9,15.9,5.9,22,0l6.9-6.2c20.1,17.2,51.9,47.4,62.8,57.7
	C180.2,160.9,179.6,161,179,161.1z M186.9,153.2c0,0.7-0.2,1.4-0.4,2.1c-10.6-10.1-42.2-40.1-62.6-57.6
	C144.3,78.9,176,50,186.4,40.4c0.3,0.7,0.4,1.4,0.4,2.2L186.9,153.2z"/>
</svg>
