<?xml version="1.0" encoding="utf-8"?>
<!-- Generator: Adobe Illustrator 25.2.3, SVG Export Plug-In . SVG Version: 6.00 Build 0)  -->
<svg version="1.1" id="Capa_1" xmlns="http://www.w3.org/2000/svg" xmlns:xlink="http://www.w3.org/1999/xlink" x="0px" y="0px"
	 viewBox="0 0 200 200" style="enable-background:new 0 0 200 200;" xml:space="preserve">
<style type="text/css">
	.st0{fill-rule:evenodd;clip-rule:evenodd;fill:#FFFFFF;}
</style>
<path class="st0" d="M197.5,76.6C186.7,31.4,147.7,0.6,100.8,0c-6.4,0.2-12.7,0.8-19,1.9C15.9,15.2-18,87.9,13.9,146.4
	c1,1.5,1.3,3.2,0.9,4.9c-4.6,15.2-8.9,30.8-13,46.1c-0.7,2.7-0.7,2.7,1.9,2c16.1-4.4,32-8.5,48-12.5c1.2-0.5,2.5-0.4,3.6,0.2
	c20.6,10.5,42.3,13.4,65.2,9.2C174.8,185.9,210.5,130.4,197.5,76.6z M114.7,180.5c-4.8,0.8-9.2,1.3-11.4,1
	c-17.5,0-31.6-3.9-44.7-11.5c-1.9-1.1-3.3-1.4-5.1-0.8c-9,2.1-17.7,4.6-26.6,6.8c-1.8,0.5-2,0.1-1.6-1.6c2.4-8.2,4.6-16.6,7.2-25.1
	c0.6-2.3,0.4-4.1-1-5.9c-18-29.3-17.2-65.3,2.9-92.5C55.3,23,84,11.4,118.2,18.8c33.7,7.1,55.3,29,63,62.6
	C192.1,127.3,161.1,172.9,114.7,180.5z"/>
<path class="st0" d="M126.7,146.4c-3.5,0.3-7-0.2-10.3-1.3c-22.7-6.7-39.9-20.6-53.7-39.5c-5.1-7-10-14.5-11.5-23.4
	c-2.1-10.3,1.1-19.5,8.9-26.5c2.6-2.5,10.1-3.7,13.2-2c0.9,0.7,1.6,1.6,2.2,2.6c2.8,7.1,5.8,13.6,8.7,20.3c0.5,1.4,0.3,3-0.4,4.3
	c-1.5,3.1-3.8,5.6-6.1,8.2c-1.9,1.6-1.9,3.4-0.6,5.4c8.1,13.6,19.1,23.4,33.9,29.1c2.1,0.8,3.8,0.5,5.1-1.1c2.5-3,5-6.2,7.4-9.3
	c1.2-1.8,3.6-2.4,5.5-1.3c4.9,2.1,9.6,4.4,14.3,6.5c1.3,0.7,2.2,1.1,3.3,1.7c4.9,2.4,4.9,2.7,4.3,8c-0.6,10.3-8.6,15.6-17.7,18.2
	C131.1,146.8,128.9,146.8,126.7,146.4z"/>
</svg>
