<?xml version="1.0" encoding="utf-8"?>
<!-- Generator: Adobe Illustrator 25.2.3, SVG Export Plug-In . SVG Version: 6.00 Build 0)  -->
<svg version="1.1" id="Capa_1" xmlns="http://www.w3.org/2000/svg" xmlns:xlink="http://www.w3.org/1999/xlink" x="0px" y="0px"
	 viewBox="0 0 650.6 356.5" style="enable-background:new 0 0 650.6 356.5;" xml:space="preserve">
<style type="text/css">
	.st0{fill:#25C4C7;}
	.st1{fill:#848484;}
	.st2{fill:#303030;}
</style>
<path class="st0" d="M0,156V5.8h69c7-0.1,14,1.5,20.3,4.5c6,2.9,11.5,6.9,16,11.9c4.4,4.9,8,10.6,10.4,16.7c2.5,6,3.8,12.4,3.8,18.9
	c0.1,8.5-1.9,16.9-5.7,24.4c-3.7,7.4-9.1,13.7-15.9,18.5l31.7,55.2H83.1l-26.4-46.1H41.2V156H0z M41.2,73.9h26
	c2.5,0,4.9-1.4,7.1-4.2s3.3-6.8,3.3-11.8c0-5.2-1.3-9.2-3.8-12c-2.5-2.7-5.1-4.1-7.6-4.1h-25L41.2,73.9z"/>
<path class="st0" d="M181.7,5.8h37.6l52,150.2h-41.8l-9.1-29.4h-40l-8.9,29.4h-42.1L181.7,5.8z M213.8,99.1l-13.3-46.5l-14,46.5
	H213.8z"/>
<path class="st0" d="M435.3,156V5.8h41.2V156H435.3z"/>
<path class="st0" d="M641.2,53.4c-3.5-9.1-8.7-17.4-15.3-24.5c-6.8-7.3-14.9-13.2-23.9-17.3C592.2,7,581.6,4.8,570.9,5
	c-10.6-0.1-21.1,2-30.8,6.2c-9.1,4-17.3,9.6-24.3,16.7c-6.8,7-12.3,15.2-16,24.2c-3.8,9-5.7,18.8-5.7,28.6c0,9.7,1.9,19.3,5.5,28.3
	c3.6,9,8.8,17.3,15.4,24.4c6.8,7.2,14.9,13.1,23.9,17.2c9.8,4.5,20.4,6.7,31.1,6.6c10.6,0.1,21.1-2.1,30.8-6.3
	c9.1-4,17.3-9.7,24.2-16.8c6.8-7,12.1-15.1,15.9-24.1c3.8-9,5.7-18.7,5.7-28.5C646.6,71.9,644.7,62.3,641.2,53.4z M570.8,69.7
	c6.2,0,11.2,5,11.2,11.3c0,6.2-5,11.2-11.3,11.2c-6.2,0-11.2-5-11.2-11.3c0,0,0,0,0,0C559.6,74.7,564.6,69.7,570.8,69.7
	C570.8,69.7,570.8,69.7,570.8,69.7z M514.7,81c0-20,10.7-38.5,28-48.5l19.7,34c-5.2,3-8.4,8.5-8.3,14.5H514.7z M570.7,137
	c-9.8,0-19.5-2.6-28-7.5l19.7-34.1c5.1,3,11.5,3,16.7,0l19.7,34.1C590.2,134.4,580.6,137,570.7,137L570.7,137z M587.4,81
	c0-6-3.2-11.5-8.3-14.4l19.7-34.1c17.3,10,28,28.5,28,48.6H587.4z"/>
<path class="st1" d="M476.4,218.5c0.1,1.4-0.5,2.7-1.6,3.5c-1.3,0.9-2.9,1.3-4.4,1.3c-1.6,0.1-3.2-0.2-4.7-0.8v-1.9
	c0.7,0.3,1.5,0.5,2.3,0.7c0.8,0.2,1.6,0.3,2.4,0.2c1.1,0.1,2.1-0.2,3-0.8c0.7-0.5,1-1.3,1-2.1c0-0.5-0.1-1-0.4-1.5
	c-0.3-0.4-0.7-0.8-1.2-1c-0.8-0.4-1.7-0.8-2.5-1.1c-1.3-0.4-2.5-1.1-3.4-2c-0.7-0.8-1-1.9-1-3c0-1.2,0.5-2.4,1.5-3.1
	c1.1-0.8,2.5-1.2,3.9-1.2c1.6,0,3.2,0.3,4.7,0.9l-0.6,1.7c-1.3-0.6-2.7-0.9-4.1-0.9c-0.9-0.1-1.7,0.2-2.5,0.7
	c-0.6,0.4-0.9,1.1-0.9,1.9c0,0.5,0.1,1,0.3,1.4c0.3,0.4,0.7,0.8,1.1,1c0.8,0.4,1.5,0.8,2.4,1.1c1.4,0.4,2.6,1.1,3.7,2
	C476.1,216.4,476.4,217.4,476.4,218.5z"/>
<path class="st1" d="M492.8,223h-9.5v-17h9.5v1.8h-7.5v5.5h7.1v1.7h-7.1v6.3h7.5V223z"/>
<path class="st1" d="M507.4,214.1h5.8v8.3c-0.9,0.3-1.8,0.5-2.8,0.6c-1.1,0.2-2.2,0.2-3.2,0.2c-2.2,0.1-4.4-0.7-6-2.3
	c-1.5-1.8-2.3-4.1-2.2-6.5c0-1.6,0.3-3.2,1.1-4.7c0.7-1.3,1.8-2.3,3.1-3c1.5-0.7,3.1-1.1,4.7-1.1c1.7,0,3.5,0.3,5.1,1l-0.8,1.8
	c-1.4-0.6-2.9-1-4.5-1c-1.8-0.1-3.6,0.6-4.9,1.9c-1.2,1.4-1.9,3.3-1.8,5.1c-0.1,1.9,0.5,3.8,1.7,5.2c1.3,1.3,3.2,1.9,5,1.8
	c1.2,0,2.3-0.1,3.5-0.4v-5.3h-3.8L507.4,214.1z"/>
<path class="st1" d="M533.6,206v11c0.1,1.7-0.5,3.4-1.8,4.6c-1.3,1.2-3.1,1.8-4.8,1.7c-1.8,0.1-3.5-0.5-4.8-1.7
	c-1.2-1.2-1.8-2.9-1.7-4.6v-11h2v11.1c-0.1,1.2,0.3,2.4,1.2,3.3c0.9,0.8,2.2,1.2,3.4,1.1c1.2,0.1,2.4-0.3,3.3-1.1
	c0.8-0.9,1.2-2.1,1.2-3.3V206H533.6z"/>
<path class="st1" d="M543.5,215.9v7.1h-2v-17h4.7c1.6-0.1,3.3,0.3,4.6,1.2c1,0.9,1.6,2.2,1.5,3.6c0.1,2.1-1.3,4.1-3.4,4.6l4.6,7.7
	h-2.3l-4.1-7.1L543.5,215.9z M543.5,214.2h2.7c1.1,0.1,2.2-0.2,3.1-0.8c0.7-0.6,1.1-1.6,1-2.5c0.1-0.9-0.3-1.8-1-2.4
	c-1-0.6-2.1-0.8-3.2-0.7h-2.6L543.5,214.2z"/>
<path class="st1" d="M559.7,223v-17h2v17H559.7z"/>
<path class="st1" d="M583.4,214.3c0,2.8-0.8,5-2.3,6.5s-3.7,2.2-6.6,2.2h-4.7v-17h5.2c4.2-0.4,8,2.6,8.4,6.8
	C583.4,213.3,583.4,213.9,583.4,214.3L583.4,214.3z M581.3,214.4c0.1-1.8-0.5-3.6-1.7-5c-1.4-1.2-3.2-1.8-5-1.7h-2.9v13.6h2.4
	c1.9,0.1,3.9-0.5,5.3-1.8C580.8,218.2,581.4,216.3,581.3,214.4L581.3,214.4z"/>
<path class="st1" d="M601.3,223l-2.1-5.4h-6.8l-2.1,5.4h-2l6.8-17.1h1.7l6.7,17.1H601.3z M598.6,215.8l-2-5.3
	c-0.2-0.7-0.5-1.5-0.8-2.5c-0.2,0.8-0.4,1.7-0.7,2.5l-2,5.3H598.6z"/>
<path class="st1" d="M622.7,214.3c0.2,2.4-0.7,4.7-2.3,6.5c-1.5,1.5-3.7,2.2-6.6,2.2h-4.7v-17h5.2c4.2-0.4,8,2.6,8.4,6.8
	C622.8,213.4,622.8,213.9,622.7,214.3L622.7,214.3z M620.6,214.4c0.1-1.8-0.5-3.6-1.7-5c-1.4-1.2-3.2-1.8-5-1.7h-2.9v13.6h2.4
	c1.9,0.1,3.9-0.5,5.3-1.8C620.1,218.2,620.8,216.3,620.6,214.4L620.6,214.4z"/>
<path class="st1" d="M643.9,214.5l4.5-8.5h2.2l-5.7,10.4v6.6h-2v-6.5l-5.7-10.5h2.2L643.9,214.5z"/>
<path class="st1" d="M477.6,244.2c0.1,1.5-0.6,3-1.8,4c-1.5,1-3.3,1.5-5.1,1.4h-2v6.7h-2v-17.1h4.4
	C475.4,239.2,477.6,240.9,477.6,244.2z M468.7,247.9h1.8c1.3,0.1,2.7-0.2,3.8-0.9c0.8-0.7,1.3-1.7,1.2-2.7c0.1-1-0.3-1.9-1.1-2.5
	c-1-0.6-2.2-0.9-3.5-0.8h-2.2V247.9z"/>
<path class="st1" d="M487.6,249.2v7.1h-2v-17.1h4.7c1.6-0.1,3.3,0.3,4.6,1.2c1,0.9,1.6,2.2,1.5,3.6c0.1,2.1-1.3,4.1-3.4,4.6l4.6,7.7
	h-2.4l-4.1-7.1L487.6,249.2z M487.6,247.5h2.7c1.1,0.1,2.2-0.2,3.1-0.8c0.7-0.6,1.1-1.6,1-2.5c0.1-0.9-0.3-1.8-1-2.4
	c-1-0.6-2.1-0.8-3.2-0.8h-2.6L487.6,247.5z"/>
<path class="st1" d="M519.6,247.7c0.1,2.3-0.6,4.6-2.1,6.4c-1.5,1.6-3.6,2.5-5.8,2.3c-2.2,0.1-4.3-0.7-5.8-2.3
	c-2.7-3.9-2.7-9.1,0-13c1.5-1.6,3.7-2.4,5.8-2.2c2.2-0.1,4.3,0.7,5.7,2.3C519,243.1,519.7,245.4,519.6,247.7z M506,247.7
	c-0.1,1.9,0.4,3.7,1.5,5.3c2.3,2.4,6.1,2.4,8.5,0.1c0,0,0.1-0.1,0.1-0.1c1.1-1.5,1.6-3.4,1.5-5.3c0.1-1.9-0.4-3.7-1.4-5.2
	c-1.1-1.2-2.6-1.9-4.3-1.8c-1.6-0.1-3.2,0.6-4.3,1.8C506.4,244,505.9,245.9,506,247.7L506,247.7z"/>
<path class="st1" d="M533.1,256.3h-2V241h-5.4v-1.8h12.8v1.8h-5.4L533.1,256.3z"/>
<path class="st1" d="M555,256.3h-9.5v-17.1h9.5v1.8h-7.5v5.5h7.1v1.8h-7.1v6.3h7.5V256.3z"/>
<path class="st1" d="M570.6,240.7c-1.7-0.1-3.3,0.6-4.5,1.9c-1.1,1.5-1.7,3.3-1.6,5.1c-0.1,1.9,0.4,3.7,1.6,5.2
	c1.1,1.3,2.8,1.9,4.5,1.8c1.4,0,2.8-0.2,4.1-0.6v1.7c-1.4,0.5-2.9,0.7-4.4,0.7c-2.2,0.1-4.3-0.7-5.8-2.3c-1.5-1.8-2.2-4.2-2-6.5
	c0-1.6,0.3-3.2,1-4.6c0.6-1.3,1.6-2.3,2.8-3.1c1.3-0.7,2.8-1.1,4.3-1c1.6,0,3.2,0.3,4.7,1l-0.8,1.7
	C573.2,241.1,571.9,240.8,570.6,240.7z"/>
<path class="st1" d="M590.1,240.7c-1.7-0.1-3.3,0.6-4.4,1.9c-1.2,1.5-1.7,3.3-1.6,5.1c-0.1,1.9,0.4,3.7,1.6,5.2
	c1.1,1.3,2.8,1.9,4.5,1.8c1.4,0,2.7-0.2,4.1-0.6v1.7c-1.4,0.5-2.9,0.7-4.4,0.7c-2.2,0.1-4.3-0.7-5.8-2.3c-1.5-1.8-2.2-4.2-2-6.5
	c0-1.6,0.3-3.2,1-4.6c0.6-1.3,1.6-2.3,2.8-3.1c1.3-0.7,2.9-1.1,4.4-1.1c1.6,0,3.2,0.3,4.7,1l-0.8,1.7
	C592.8,241.1,591.4,240.8,590.1,240.7z"/>
<path class="st1" d="M602.3,256.3v-17.1h2v17.1H602.3z"/>
<path class="st1" d="M628.2,247.7c0.1,2.3-0.6,4.6-2.1,6.4c-1.5,1.6-3.6,2.5-5.8,2.3c-2.2,0.1-4.3-0.7-5.8-2.3
	c-1.5-1.8-2.2-4.2-2-6.5c-0.1-2.3,0.6-4.6,2-6.5c1.5-1.6,3.7-2.4,5.8-2.3c2.2-0.1,4.3,0.7,5.7,2.3
	C627.6,243.1,628.4,245.4,628.2,247.7z M614.7,247.7c-0.1,1.9,0.4,3.7,1.5,5.3c2.3,2.4,6.1,2.4,8.5,0.1c0,0,0.1-0.1,0.1-0.1
	c1.1-1.5,1.6-3.4,1.4-5.3c0.1-1.9-0.4-3.7-1.4-5.2c-1.1-1.2-2.6-1.9-4.3-1.8c-1.6-0.1-3.2,0.6-4.3,1.8
	C615,244,614.5,245.9,614.7,247.7z M618.8,237.6c0.4-0.5,0.8-1.1,1.2-1.8s0.8-1.3,1-1.8h2.4v0.2c-0.5,0.7-1,1.3-1.5,1.9
	c-0.6,0.6-1.1,1.2-1.8,1.7h-1.3L618.8,237.6z"/>
<path class="st1" d="M649.8,256.3h-2.3l-9.3-14.3h-0.1c0.1,1.7,0.2,3.2,0.2,4.6v9.7h-1.8v-17.1h2.2l9.3,14.3h0.1c0-0.2,0-0.9-0.1-2
	s0-2,0-2.5v-9.8h1.9L649.8,256.3z"/>
<path class="st1" d="M468.7,282.4v7.1h-2v-17.1h4.7c1.6-0.1,3.3,0.3,4.6,1.2c1,0.9,1.6,2.2,1.5,3.6c0.1,2.1-1.4,4.1-3.4,4.6l4.6,7.7
	h-2.4l-4.1-7.1H468.7z M468.7,280.7h2.7c1.1,0.1,2.2-0.2,3.1-0.8c0.7-0.6,1.1-1.6,1-2.5c0.1-0.9-0.3-1.8-1-2.4
	c-1-0.6-2.1-0.8-3.2-0.8h-2.6L468.7,280.7z"/>
<path class="st1" d="M491.6,289.5l-2.1-5.4h-6.8l-2.1,5.4h-2l6.8-17.1h1.7l6.7,17.1L491.6,289.5z M488.9,282.3l-2-5.3
	c-0.3-0.8-0.6-1.6-0.8-2.5c-0.2,0.8-0.4,1.7-0.7,2.5l-2,5.3H488.9z"/>
<path class="st1" d="M509.1,280.8c0.2,2.4-0.7,4.7-2.3,6.5c-1.5,1.5-3.7,2.2-6.6,2.2h-4.7v-17.1h5.2c4.2-0.4,8,2.7,8.4,6.9
	C509.1,279.8,509.1,280.3,509.1,280.8z M507,280.9c0.1-1.8-0.5-3.6-1.7-5c-1.4-1.2-3.2-1.8-5-1.7h-2.9v13.6h2.4
	c1.9,0.1,3.9-0.5,5.3-1.7C506.5,284.7,507.1,282.8,507,280.9L507,280.9z"/>
<path class="st1" d="M512.3,289.5v-17.1h2v17.1H512.3z"/>
<path class="st1" d="M533.2,281c0.1,2.3-0.6,4.6-2.1,6.4c-1.5,1.6-3.6,2.5-5.8,2.4c-2.2,0.1-4.3-0.7-5.8-2.3c-2.8-3.9-2.8-9.1,0-13
	c1.5-1.6,3.6-2.4,5.8-2.3c2.2-0.1,4.3,0.7,5.7,2.3C532.6,276.3,533.3,278.7,533.2,281z M519.6,281c-0.1,1.9,0.4,3.7,1.5,5.3
	c2.3,2.4,6.1,2.4,8.5,0.1c0,0,0.1-0.1,0.1-0.1c1.9-3.2,1.9-7.3,0-10.5c-1.1-1.2-2.6-1.9-4.3-1.8c-1.6-0.1-3.2,0.6-4.3,1.8
	C519.9,277.3,519.4,279.1,519.6,281L519.6,281z"/>
<path class="st1" d="M536.4,289.5v-17.1h2v15.3h7.5v1.8L536.4,289.5z"/>
<path class="st1" d="M563,281c0.1,2.3-0.6,4.6-2.1,6.4c-1.5,1.6-3.6,2.5-5.8,2.4c-2.2,0.1-4.3-0.7-5.8-2.3c-2.8-3.9-2.8-9.1,0-13
	c1.5-1.6,3.6-2.4,5.8-2.3c2.2-0.1,4.3,0.7,5.7,2.3C562.4,276.3,563.1,278.7,563,281z M549.4,281c-0.1,1.9,0.4,3.7,1.5,5.3
	c2.3,2.4,6.1,2.4,8.5,0.1c0,0,0.1-0.1,0.1-0.1c1.9-3.2,1.9-7.3,0-10.5c-1.1-1.2-2.6-1.9-4.3-1.8c-1.6-0.1-3.2,0.6-4.3,1.8
	C549.8,277.3,549.3,279.1,549.4,281L549.4,281z M553.5,270.8c0.4-0.6,0.8-1.1,1.2-1.8c0.4-0.7,0.8-1.3,1-1.8h2.4v0.2
	c-0.5,0.7-1,1.3-1.5,1.9c-0.5,0.6-1.1,1.2-1.8,1.7h-1.3L553.5,270.8z"/>
<path class="st1" d="M573.7,280.6h5.8v8.3c-0.9,0.3-1.8,0.5-2.8,0.7c-1.1,0.2-2.2,0.2-3.2,0.2c-2.2,0.1-4.4-0.7-6-2.3
	c-1.5-1.8-2.3-4.1-2.2-6.5c0-1.6,0.3-3.2,1.1-4.7c0.7-1.3,1.8-2.4,3.1-3.1c1.5-0.7,3.1-1.1,4.7-1c1.7,0,3.5,0.3,5.1,1l-0.8,1.8
	c-1.4-0.6-2.9-1-4.5-1c-1.8-0.1-3.6,0.6-4.9,1.9c-1.2,1.4-1.9,3.2-1.8,5.1c-0.1,1.9,0.5,3.8,1.7,5.2c1.3,1.2,3.1,1.9,4.9,1.8
	c1.2,0,2.3-0.1,3.5-0.4v-5.2h-3.8L573.7,280.6z"/>
<path class="st1" d="M583,289.5v-17.1h2v17.1H583z"/>
<path class="st1" d="M596.4,274c-1.7-0.1-3.3,0.6-4.5,1.9c-1.1,1.5-1.7,3.3-1.6,5.1c-0.1,1.9,0.4,3.7,1.6,5.2
	c1.1,1.3,2.8,1.9,4.5,1.8c1.4,0,2.7-0.2,4.1-0.6v1.7c-1.4,0.5-2.9,0.7-4.4,0.7c-2.2,0.1-4.3-0.7-5.8-2.3c-1.5-1.8-2.2-4.2-2-6.5
	c0-1.6,0.3-3.2,1-4.6c0.6-1.3,1.6-2.4,2.8-3.1c1.3-0.7,2.9-1.1,4.4-1.1c1.6,0,3.2,0.3,4.7,1l-0.8,1.7C599,274.3,597.7,274,596.4,274
	z"/>
<path class="st1" d="M614.3,289.5l-2.1-5.4h-6.8l-2.1,5.4h-2l6.7-17.1h1.7l6.7,17.1L614.3,289.5z M611.5,282.3l-2-5.3
	c-0.2-0.7-0.5-1.5-0.8-2.5c-0.2,0.8-0.4,1.6-0.7,2.4l-2,5.3L611.5,282.3z"/>
<path class="st1" d="M633.2,289.5h-9.5v-17.1h9.5v1.8h-7.5v5.5h7.1v1.8h-7.1v6.3h7.5V289.5z"/>
<path class="st1" d="M649.7,289.5h-2.3l-9.3-14.3H638c0.1,1.7,0.2,3.2,0.2,4.6v9.7h-1.8v-17.1h2.2l9.3,14.3h0.1c0-0.2-0.1-0.9-0.1-2
	s-0.1-2-0.1-2.5v-9.8h1.9L649.7,289.5z"/>
<path class="st1" d="M480.4,314.1c0.2,2.4-0.7,4.7-2.3,6.5c-1.5,1.5-3.7,2.2-6.6,2.2h-4.7v-17.1h5.3c4.2-0.4,8,2.7,8.4,6.9
	C480.4,313.1,480.4,313.6,480.4,314.1L480.4,314.1z M478.3,314.2c0.1-1.8-0.5-3.6-1.7-5c-1.4-1.2-3.2-1.8-5-1.7h-2.9v13.6h2.4
	c1.9,0.1,3.9-0.5,5.3-1.8C477.7,318,478.4,316.1,478.3,314.2L478.3,314.2z"/>
<path class="st1" d="M486.9,322.8v-17.1h2v17.1H486.9z"/>
<path class="st1" d="M507,322.8l-2.1-5.4H498l-2.1,5.4h-2l6.8-17.1h1.7l6.7,17.1H507z M504.3,315.6l-2-5.3c-0.3-0.7-0.5-1.5-0.8-2.5
	c-0.2,0.8-0.4,1.7-0.7,2.5l-2,5.3H504.3z"/>
<path class="st1" d="M521.6,313.9h5.8v8.3c-0.9,0.3-1.8,0.5-2.8,0.7c-1.1,0.2-2.2,0.2-3.2,0.2c-2.2,0.1-4.4-0.7-6-2.3
	c-1.5-1.8-2.3-4.1-2.2-6.5c0-1.6,0.3-3.2,1.1-4.7c0.7-1.3,1.8-2.4,3.1-3.1c1.5-0.7,3.1-1.1,4.7-1.1c1.7,0,3.5,0.3,5.1,1l-0.8,1.8
	c-1.4-0.6-2.9-1-4.4-1c-1.8-0.1-3.6,0.6-4.9,1.9c-1.2,1.4-1.9,3.3-1.8,5.1c-0.1,1.9,0.5,3.8,1.7,5.3c1.3,1.3,3.1,1.9,5,1.8
	c1.2,0,2.3-0.1,3.5-0.4v-5.2h-3.8L521.6,313.9z"/>
<path class="st1" d="M547.5,322.8h-2.3l-9.3-14.3h-0.1c0.1,1.7,0.2,3.2,0.2,4.6v9.7h-1.8v-17.1h2.2l9.3,14.3h0.1c0-0.2,0-0.9-0.1-2
	s-0.1-2-0.1-2.5v-9.8h1.9V322.8z"/>
<path class="st1" d="M569.7,314.2c0.1,2.3-0.6,4.6-2.1,6.4c-3.2,3.1-8.3,3.1-11.6,0c-2.8-3.9-2.8-9.1,0-13c1.5-1.6,3.6-2.4,5.8-2.3
	c2.2-0.1,4.3,0.7,5.7,2.3C569.1,309.6,569.9,311.9,569.7,314.2z M556.1,314.2c-0.1,1.9,0.4,3.7,1.5,5.3c1.1,1.2,2.7,1.9,4.3,1.8
	c1.6,0.1,3.2-0.6,4.3-1.8c1.1-1.5,1.6-3.4,1.4-5.3c0.1-1.9-0.4-3.7-1.4-5.2c-1.1-1.2-2.6-1.9-4.3-1.8c-1.6-0.1-3.2,0.6-4.3,1.8
	C556.5,310.5,556,312.4,556.1,314.2L556.1,314.2z M560.2,304.1c0.4-0.5,0.8-1.1,1.2-1.8s0.8-1.3,1-1.8h2.4v0.2
	c-0.5,0.7-1,1.3-1.5,1.9c-0.5,0.6-1.1,1.2-1.8,1.7h-1.3L560.2,304.1z"/>
<path class="st1" d="M585.8,318.2c0.1,1.4-0.5,2.7-1.6,3.5c-1.3,0.9-2.9,1.3-4.4,1.3c-1.6,0.1-3.2-0.2-4.7-0.8v-1.9
	c0.7,0.3,1.5,0.5,2.3,0.7c0.8,0.2,1.6,0.3,2.5,0.3c1.1,0.1,2.1-0.2,3-0.8c0.7-0.5,1-1.3,1-2.1c0-0.5-0.1-1-0.3-1.5
	c-0.3-0.4-0.7-0.8-1.2-1c-0.8-0.4-1.7-0.8-2.5-1.1c-1.3-0.4-2.4-1.1-3.4-2c-0.7-0.8-1-1.9-1-3c0-1.2,0.5-2.4,1.5-3.1
	c1.1-0.8,2.5-1.2,3.9-1.2c1.6,0,3.2,0.3,4.7,0.9l-0.6,1.7c-1.3-0.6-2.7-0.9-4.1-0.9c-0.9,0-1.7,0.2-2.5,0.7
	c-0.6,0.4-0.9,1.1-0.9,1.9c0,0.5,0.1,1,0.3,1.5c0.3,0.4,0.7,0.8,1.1,1c0.8,0.4,1.6,0.7,2.4,1c1.4,0.4,2.6,1.1,3.7,2.1
	C585.5,316.2,585.9,317.2,585.8,318.2z"/>
<path class="st1" d="M597.3,322.8h-2v-15.3h-5.4v-1.8h12.8v1.8h-5.4L597.3,322.8z"/>
<path class="st1" d="M608,322.8v-17.1h2v17.1H608z"/>
<path class="st1" d="M624.6,307.3c-1.7-0.1-3.3,0.6-4.4,1.9c-1.2,1.5-1.7,3.3-1.6,5.1c-0.1,1.9,0.4,3.7,1.6,5.2
	c1.1,1.3,2.8,1.9,4.5,1.8c1.4,0,2.8-0.2,4.1-0.6v1.7c-1.4,0.5-2.9,0.7-4.4,0.7c-2.2,0.1-4.3-0.7-5.8-2.3c-1.5-1.8-2.2-4.2-2-6.5
	c0-1.6,0.3-3.2,1-4.6c0.6-1.3,1.6-2.3,2.8-3.1c1.3-0.7,2.8-1.1,4.4-1.1c1.6,0,3.2,0.3,4.7,1l-0.8,1.7
	C627.3,307.6,626,307.3,624.6,307.3z"/>
<path class="st1" d="M649.9,314.2c0.1,2.3-0.6,4.6-2.1,6.4c-3.2,3.1-8.3,3.1-11.6,0c-2.8-3.9-2.8-9.1,0-13c1.5-1.6,3.6-2.4,5.8-2.3
	c2.2-0.1,4.3,0.7,5.7,2.3C649.3,309.6,650.1,311.9,649.9,314.2z M636.3,314.2c-0.1,1.9,0.4,3.7,1.5,5.3c1.1,1.2,2.7,1.9,4.3,1.8
	c1.6,0.1,3.2-0.6,4.3-1.8c1.1-1.5,1.6-3.4,1.4-5.3c0.1-1.9-0.4-3.7-1.4-5.2c-1.1-1.2-2.6-1.9-4.3-1.8c-1.6-0.1-3.2,0.6-4.3,1.8
	C636.7,310.5,636.2,312.4,636.3,314.2z"/>
<path class="st1" d="M474.3,356l-5.8-15.1h-0.1c0.1,1.2,0.2,2.6,0.2,4.3V356h-1.8v-17h3l5.4,14.1h0.1l5.4-14.1h3v17.1h-2v-11
	c0-1.3,0.1-2.6,0.2-4.1h-0.1l-5.8,15.1L474.3,356z"/>
<path class="st1" d="M497.8,356h-9.5v-17h9.5v1.8h-7.5v5.5h7.1v1.7h-7.1v6.3h7.5V356z M491.3,337.3c0.4-0.6,0.8-1.1,1.2-1.8
	c0.4-0.6,0.7-1.2,1-1.8h2.4v0.2c-0.5,0.7-1,1.3-1.5,1.9c-0.5,0.6-1.1,1.2-1.8,1.7h-1.3L491.3,337.3z"/>
<path class="st1" d="M515.2,347.4c0,2.8-0.8,5-2.3,6.5c-1.5,1.5-3.7,2.2-6.6,2.2h-4.7v-17h5.2c4.2-0.4,8,2.6,8.4,6.8
	C515.3,346.3,515.3,346.9,515.2,347.4L515.2,347.4z M513.1,347.4c0.1-1.8-0.5-3.6-1.7-5c-1.4-1.2-3.2-1.8-5-1.7h-2.9v13.6h2.4
	c1.9,0.2,3.9-0.5,5.3-1.8C512.6,351.2,513.3,349.3,513.1,347.4z"/>
<path class="st1" d="M519,356v-17h2v17.1L519,356z"/>
<path class="st1" d="M533,340.5c-1.7-0.1-3.3,0.6-4.4,1.9c-1.2,1.5-1.7,3.3-1.6,5.1c-0.1,1.9,0.4,3.7,1.6,5.2
	c1.1,1.3,2.8,1.9,4.5,1.8c1.4,0,2.7-0.2,4.1-0.6v1.7c-1.4,0.5-2.9,0.7-4.4,0.7c-2.2,0.1-4.3-0.7-5.8-2.3c-1.5-1.8-2.2-4.2-2-6.5
	c0-1.6,0.3-3.2,1-4.6c0.6-1.3,1.6-2.4,2.8-3.1c1.3-0.7,2.8-1.1,4.4-1.1c1.6,0,3.2,0.3,4.7,1l-0.8,1.7
	C535.7,340.8,534.4,340.5,533,340.5z"/>
<path class="st1" d="M555.6,347.5c0.1,2.3-0.6,4.6-2.1,6.4c-1.5,1.6-3.6,2.5-5.8,2.4c-2.2,0.1-4.3-0.7-5.8-2.3
	c-1.4-1.8-2.2-4.2-2-6.5c-0.1-2.3,0.6-4.6,2.1-6.5c1.5-1.6,3.6-2.4,5.8-2.3c2.2-0.1,4.3,0.7,5.8,2.3
	C555,342.9,555.7,345.2,555.6,347.5z M542,347.5c-0.1,1.9,0.4,3.7,1.5,5.3c1.1,1.2,2.7,1.9,4.3,1.8c1.6,0.1,3.2-0.6,4.3-1.8
	c1.9-3.2,1.9-7.3,0-10.5c-1.1-1.2-2.6-1.9-4.3-1.8c-1.6-0.1-3.2,0.6-4.3,1.8C542.4,343.8,541.9,345.6,542,347.5z"/>
<path class="st2" d="M113.8,356.5v-79.3l-25.2,55.8H66.6l-25.2-55.8v79.3H0V205.9h45.2l32.4,70.8l32.7-70.8h44.9v150.5H113.8z"/>
<path class="st2" d="M288.3,320.4v36H181V205.9h105.4v36h-64v21.2h54.7v33.5h-54.7v23.8L288.3,320.4z"/>
<path class="st2" d="M307.6,356.5V205.9h57.9c12.4,0,23.4,2,32.9,5.9c17.9,7.1,31.9,21.7,38.2,40c3.3,9.4,4.9,19.2,4.9,29.1
	c0.2,10.6-1.7,21.1-5.4,31c-3.4,8.9-8.6,17-15.4,23.8c-6.9,6.7-15,11.9-24,15.3c-10,3.7-20.5,5.6-31.2,5.4L307.6,356.5z M399.4,281
	c0.1-5.4-0.7-10.8-2.3-15.9c-1.4-4.5-3.7-8.7-6.7-12.3c-2.9-3.4-6.6-6.1-10.7-7.9c-4.5-2-9.3-2.9-14.2-2.9h-16.5v78.4h16.5
	c5,0.1,9.9-0.9,14.4-3c4.1-1.9,7.8-4.7,10.7-8.3c3-3.7,5.2-7.9,6.6-12.5C398.7,291.6,399.4,286.3,399.4,281z"/>
<path class="st0" d="M283.8,156V5.8h57.7c12.4,0,23.3,2,32.8,5.9c17.9,7.1,31.8,21.7,38.1,39.9c3.3,9.3,4.9,19.2,4.9,29.1
	c0.2,10.6-1.7,21.1-5.4,31c-3.4,8.9-8.6,17-15.3,23.7c-6.8,6.7-15,11.9-23.9,15.2c-9.9,3.7-20.5,5.5-31.1,5.4L283.8,156z
	 M375.4,80.7c0.1-5.4-0.7-10.7-2.3-15.9c-1.4-4.5-3.7-8.7-6.7-12.3c-2.9-3.4-6.6-6.1-10.7-7.9c-4.5-2-9.3-2.9-14.2-2.9h-16.5V120
	h16.5c5,0.1,9.9-0.9,14.4-3c4.1-1.9,7.8-4.7,10.7-8.2c3-3.7,5.2-7.9,6.5-12.5C374.7,91.2,375.5,86,375.4,80.7L375.4,80.7z"/>
</svg>
