<svg id="Capa_1" data-name="Capa 1" xmlns="http://www.w3.org/2000/svg" viewBox="0 0 650.57 356.45"><path d="M0,156V5.8H69a45.69,45.69,0,0,1,20.31,4.54,52.93,52.93,0,0,1,16,11.85A55.27,55.27,0,0,1,115.7,38.9a50.23,50.23,0,0,1,3.8,18.93,53.42,53.42,0,0,1-5.71,24.43,49.78,49.78,0,0,1-15.86,18.5L129.65,156H83.12L56.68,109.86H41.24V156ZM41.24,73.9h26q3.81,0,7.09-4.23t3.27-11.84q0-7.83-3.8-11.95T66.2,41.75h-25Z"/><path d="M181.68,5.8h37.65l52,150.17H229.48l-9.09-29.4h-40L171.53,156H129.44Zm32.15,93.27L200.51,52.54l-14,46.53Z"/><path d="M435.28,156V5.8h41.24V156Z"/><path d="M641.18,53.4a77.75,77.75,0,0,0-15.33-24.54A76.37,76.37,0,0,0,602,11.51a72.27,72.27,0,0,0-31.09-6.57,75.13,75.13,0,0,0-30.78,6.24,78.29,78.29,0,0,0-24.31,16.71,75.69,75.69,0,0,0-16,24.23,74,74,0,0,0-5.71,28.56,75.73,75.73,0,0,0,5.5,28.33A77.94,77.94,0,0,0,515,133.44a76.69,76.69,0,0,0,23.87,17.25A72.65,72.65,0,0,0,570,157.24a74.06,74.06,0,0,0,30.76-6.34A79.11,79.11,0,0,0,625,134.08,76.91,76.91,0,0,0,640.85,110a72.82,72.82,0,0,0,5.73-28.43A76.65,76.65,0,0,0,641.18,53.4ZM570.81,69.65a11.26,11.26,0,1,1-11.26,11.26A11.26,11.26,0,0,1,570.81,69.65ZM514.69,81a56,56,0,0,1,28-48.52l19.68,34.09A16.65,16.65,0,0,0,554.05,81Zm56,56a55.63,55.63,0,0,1-28-7.5l19.68-34.09a16.67,16.67,0,0,0,16.66,0l19.68,34.09A55.65,55.65,0,0,1,570.71,137Zm16.68-56a16.65,16.65,0,0,0-8.34-14.43l19.68-34.09a56.05,56.05,0,0,1,28,48.52Z"/><path d="M476.36,218.48a4.18,4.18,0,0,1-1.63,3.51,7.1,7.1,0,0,1-4.44,1.26,11.1,11.1,0,0,1-4.66-.78v-1.91a12.53,12.53,0,0,0,2.29.7,12,12,0,0,0,2.44.25,5,5,0,0,0,3-.75,2.47,2.47,0,0,0,1-2.09,2.68,2.68,0,0,0-.36-1.46,3.37,3.37,0,0,0-1.19-1,17.05,17.05,0,0,0-2.54-1.09,8,8,0,0,1-3.4-2,4.44,4.44,0,0,1-1-3,3.78,3.78,0,0,1,1.48-3.14,6.16,6.16,0,0,1,3.92-1.17,11.57,11.57,0,0,1,4.68.93l-.61,1.73a10.62,10.62,0,0,0-4.11-.89,4,4,0,0,0-2.47.68,2.23,2.23,0,0,0-.88,1.88,2.94,2.94,0,0,0,.32,1.45,3,3,0,0,0,1.11,1,12.74,12.74,0,0,0,2.37,1.05,9.53,9.53,0,0,1,3.7,2A4,4,0,0,1,476.36,218.48Z"/><path d="M492.76,223h-9.51V206h9.51v1.76h-7.53v5.5h7.08V215h-7.08v6.27h7.53Z"/><path d="M507.44,214.08h5.8v8.3a18.62,18.62,0,0,1-2.75.65,20.62,20.62,0,0,1-3.24.22,7.89,7.89,0,0,1-6-2.3,9.09,9.09,0,0,1-2.16-6.46,9.81,9.81,0,0,1,1.07-4.67,7.2,7.2,0,0,1,3.08-3,9.85,9.85,0,0,1,4.7-1.06,12.84,12.84,0,0,1,5.09,1l-.77,1.76a11.26,11.26,0,0,0-4.45-1,6.37,6.37,0,0,0-4.87,1.86,7.24,7.24,0,0,0-1.75,5.15,7.38,7.38,0,0,0,1.69,5.24,6.47,6.47,0,0,0,5,1.78,14.83,14.83,0,0,0,3.47-.4v-5.26h-3.82Z"/><path d="M533.62,206v11a6,6,0,0,1-1.76,4.58,6.73,6.73,0,0,1-4.84,1.67,6.45,6.45,0,0,1-4.77-1.68,6.21,6.21,0,0,1-1.69-4.62V206h2v11.13a4.38,4.38,0,0,0,1.16,3.28,4.72,4.72,0,0,0,3.43,1.14,4.58,4.58,0,0,0,3.33-1.14,4.43,4.43,0,0,0,1.17-3.3V206Z"/><path d="M543.52,215.92V223h-2V206h4.68a7.38,7.38,0,0,1,4.64,1.2,4.36,4.36,0,0,1,1.5,3.62,4.52,4.52,0,0,1-3.43,4.57l4.63,7.67h-2.34l-4.14-7.1Zm0-1.7h2.72a4.74,4.74,0,0,0,3.08-.83,3.14,3.14,0,0,0,1-2.51,2.87,2.87,0,0,0-1-2.44,5.39,5.39,0,0,0-3.2-.74h-2.58Z"/><path d="M559.7,223V206h2V223Z"/><path d="M583.38,214.33c0,2.81-.76,5-2.29,6.46s-3.73,2.23-6.6,2.23h-4.73V206H575a7.65,7.65,0,0,1,8.39,8.37Zm-2.1.07a6.92,6.92,0,0,0-1.67-5,6.76,6.76,0,0,0-5-1.69h-2.88V221.3h2.41a7.37,7.37,0,0,0,5.34-1.74A6.91,6.91,0,0,0,581.28,214.4Z"/><path d="M601.31,223l-2.12-5.43h-6.84L590.24,223h-2L595,205.89h1.67L603.36,223Zm-2.74-7.21-2-5.29c-.25-.67-.52-1.49-.79-2.46a22.49,22.49,0,0,1-.74,2.46l-2,5.29Z"/><path d="M622.73,214.33a8.62,8.62,0,0,1-2.3,6.46c-1.53,1.48-3.73,2.23-6.6,2.23h-4.72V206h5.22a7.66,7.66,0,0,1,8.4,8.37Zm-2.1.07a6.88,6.88,0,0,0-1.68-5,6.74,6.74,0,0,0-5-1.69h-2.88V221.3h2.42a7.36,7.36,0,0,0,5.33-1.74A6.91,6.91,0,0,0,620.63,214.4Z"/><path d="M643.87,214.49l4.55-8.53h2.15l-5.7,10.44V223h-2v-6.53L637.18,206h2.17Z"/><path d="M477.56,244.19a4.78,4.78,0,0,1-1.77,4,8,8,0,0,1-5.06,1.4h-2v6.71h-2V239.21h4.42C475.42,239.21,477.56,240.87,477.56,244.19Zm-8.84,3.67h1.78a6.62,6.62,0,0,0,3.82-.85,3.13,3.13,0,0,0,1.18-2.73,2.94,2.94,0,0,0-1.11-2.52,5.8,5.8,0,0,0-3.45-.83h-2.22Z"/><path d="M487.56,249.18v7.1h-2V239.21h4.68a7.3,7.3,0,0,1,4.64,1.21,4.35,4.35,0,0,1,1.5,3.62,4.52,4.52,0,0,1-3.43,4.57l4.64,7.67h-2.35l-4.13-7.1Zm0-1.7h2.72a4.66,4.66,0,0,0,3.08-.84,3.1,3.1,0,0,0,1-2.5,2.87,2.87,0,0,0-1-2.44,5.37,5.37,0,0,0-3.2-.75h-2.58Z"/><path d="M519.61,247.72a9.41,9.41,0,0,1-2.07,6.45,7.29,7.29,0,0,1-5.76,2.34,7.38,7.38,0,0,1-5.82-2.3,11.28,11.28,0,0,1,0-13,7.44,7.44,0,0,1,5.84-2.3,7.25,7.25,0,0,1,5.74,2.34A9.37,9.37,0,0,1,519.61,247.72Zm-13.6,0a8.07,8.07,0,0,0,1.48,5.26,6,6,0,0,0,8.57,0,8.26,8.26,0,0,0,1.45-5.27,8.16,8.16,0,0,0-1.44-5.22,5.17,5.17,0,0,0-4.27-1.78,5.27,5.27,0,0,0-4.31,1.79A8,8,0,0,0,506,247.72Z"/><path d="M533.11,256.28h-2V241h-5.41v-1.77h12.8V241h-5.41Z"/><path d="M555,256.28h-9.51V239.21H555V241h-7.53v5.49h7.08v1.75h-7.08v6.28H555Z"/><path d="M570.58,240.74a5.6,5.6,0,0,0-4.45,1.88,7.57,7.57,0,0,0-1.62,5.13,7.68,7.68,0,0,0,1.57,5.17,5.56,5.56,0,0,0,4.47,1.83,15.27,15.27,0,0,0,4.08-.64v1.74a12.7,12.7,0,0,1-4.38.66,7.4,7.4,0,0,1-5.82-2.29,9.44,9.44,0,0,1-2-6.5,10.21,10.21,0,0,1,1-4.62,7.09,7.09,0,0,1,2.85-3.06A8.67,8.67,0,0,1,570.6,239a10.48,10.48,0,0,1,4.69,1l-.84,1.7A9.12,9.12,0,0,0,570.58,240.74Z"/><path d="M590.1,240.74a5.59,5.59,0,0,0-4.44,1.88,7.57,7.57,0,0,0-1.63,5.13,7.73,7.73,0,0,0,1.57,5.17,5.58,5.58,0,0,0,4.48,1.83,15.14,15.14,0,0,0,4.07-.64v1.74a12.6,12.6,0,0,1-4.37.66,7.38,7.38,0,0,1-5.82-2.29,9.39,9.39,0,0,1-2.05-6.5,10.21,10.21,0,0,1,1-4.62,7.07,7.07,0,0,1,2.84-3.06,8.7,8.7,0,0,1,4.39-1.07,10.48,10.48,0,0,1,4.69,1l-.84,1.7A9.13,9.13,0,0,0,590.1,240.74Z"/><path d="M602.32,256.28V239.21h2v17.07Z"/><path d="M628.25,247.72a9.37,9.37,0,0,1-2.08,6.45,7.29,7.29,0,0,1-5.76,2.34,7.37,7.37,0,0,1-5.81-2.3,9.47,9.47,0,0,1-2.05-6.51,9.35,9.35,0,0,1,2.05-6.46,7.43,7.43,0,0,1,5.84-2.3,7.26,7.26,0,0,1,5.74,2.34A9.37,9.37,0,0,1,628.25,247.72Zm-13.6,0a8.12,8.12,0,0,0,1.47,5.26,6,6,0,0,0,8.58,0,8.26,8.26,0,0,0,1.44-5.27,8.16,8.16,0,0,0-1.44-5.22,5.15,5.15,0,0,0-4.26-1.78,5.3,5.3,0,0,0-4.32,1.79A8,8,0,0,0,614.65,247.72Zm4.13-10.16c.37-.49.78-1.07,1.21-1.75s.77-1.28,1-1.79h2.36v.24a16.34,16.34,0,0,1-1.53,1.87,18.06,18.06,0,0,1-1.77,1.72h-1.29Z"/><path d="M649.83,256.28h-2.27L638.24,242h-.1c.13,1.68.19,3.22.19,4.62v9.7H636.5V239.21h2.24l9.3,14.27h.09c0-.21,0-.89-.1-2S648,249.5,648,249v-9.8h1.86Z"/><path d="M468.72,282.44v7.1h-2V272.47h4.68a7.33,7.33,0,0,1,4.63,1.2,4.37,4.37,0,0,1,1.51,3.62,4.54,4.54,0,0,1-3.44,4.58l4.64,7.67h-2.35l-4.13-7.1Zm0-1.71h2.72a4.67,4.67,0,0,0,3.08-.83,3.09,3.09,0,0,0,1-2.5,2.83,2.83,0,0,0-1-2.44,5.37,5.37,0,0,0-3.2-.75h-2.58Z"/><path d="M491.64,289.54l-2.12-5.43h-6.84l-2.1,5.43h-2l6.75-17.14H487l6.7,17.14Zm-2.74-7.22-2-5.29a25.65,25.65,0,0,1-.8-2.46,23.21,23.21,0,0,1-.73,2.46l-2,5.29Z"/><path d="M509.07,280.84a8.61,8.61,0,0,1-2.3,6.46q-2.29,2.24-6.6,2.24h-4.73V272.47h5.23a7.67,7.67,0,0,1,8.4,8.37Zm-2.11.07a6.91,6.91,0,0,0-1.67-5,6.72,6.72,0,0,0-5-1.69h-2.88v13.63h2.41a7.33,7.33,0,0,0,5.34-1.75A6.89,6.89,0,0,0,507,280.91Z"/><path d="M512.27,289.54V272.47h2v17.07Z"/><path d="M533.15,281a9.39,9.39,0,0,1-2.07,6.44,7.26,7.26,0,0,1-5.76,2.35,7.37,7.37,0,0,1-5.82-2.31,11.26,11.26,0,0,1,0-13,7.45,7.45,0,0,1,5.83-2.29,7.25,7.25,0,0,1,5.74,2.34A9.35,9.35,0,0,1,533.15,281Zm-13.6,0a8.07,8.07,0,0,0,1.48,5.26,5.24,5.24,0,0,0,4.29,1.79,5.18,5.18,0,0,0,4.28-1.79,10.22,10.22,0,0,0,0-10.48,5.15,5.15,0,0,0-4.27-1.78,5.24,5.24,0,0,0-4.31,1.79A8,8,0,0,0,519.55,281Z"/><path d="M536.36,289.54V272.47h2v15.27h7.53v1.8Z"/><path d="M563,281a9.39,9.39,0,0,1-2.07,6.44,7.26,7.26,0,0,1-5.76,2.35,7.37,7.37,0,0,1-5.82-2.31,11.26,11.26,0,0,1,0-13,7.45,7.45,0,0,1,5.83-2.29,7.25,7.25,0,0,1,5.74,2.34A9.35,9.35,0,0,1,563,281Zm-13.6,0a8.07,8.07,0,0,0,1.48,5.26,5.24,5.24,0,0,0,4.29,1.79,5.18,5.18,0,0,0,4.28-1.79,10.22,10.22,0,0,0,0-10.48,5.15,5.15,0,0,0-4.27-1.78,5.24,5.24,0,0,0-4.31,1.79A8,8,0,0,0,549.38,281Zm4.13-10.17a19.19,19.19,0,0,0,1.21-1.75c.43-.68.77-1.28,1-1.78h2.36v.24a16.34,16.34,0,0,1-1.53,1.87,17,17,0,0,1-1.76,1.72h-1.3Z"/><path d="M573.69,280.59h5.8v8.3a18.65,18.65,0,0,1-2.75.66,20.62,20.62,0,0,1-3.24.22,7.86,7.86,0,0,1-6-2.31A9.07,9.07,0,0,1,565.3,281a9.8,9.8,0,0,1,1.07-4.66,7.22,7.22,0,0,1,3.08-3.06,10,10,0,0,1,4.7-1,12.84,12.84,0,0,1,5.09,1l-.77,1.75a11.42,11.42,0,0,0-4.45-1,6.37,6.37,0,0,0-4.87,1.86A7.21,7.21,0,0,0,567.4,281a7.37,7.37,0,0,0,1.69,5.24A6.48,6.48,0,0,0,574,288a14.84,14.84,0,0,0,3.47-.41v-5.25h-3.82Z"/><path d="M583,289.54V272.47h2v17.07Z"/><path d="M596.37,274a5.59,5.59,0,0,0-4.45,1.87A7.59,7.59,0,0,0,590.3,281a7.69,7.69,0,0,0,1.57,5.18,5.55,5.55,0,0,0,4.47,1.83,15.19,15.19,0,0,0,4.07-.65v1.74a12.36,12.36,0,0,1-4.37.67,7.4,7.4,0,0,1-5.82-2.29,9.39,9.39,0,0,1-2.05-6.5,10.21,10.21,0,0,1,1-4.62A7,7,0,0,1,592,273.3a8.57,8.57,0,0,1,4.38-1.07,10.48,10.48,0,0,1,4.69,1l-.84,1.7A9,9,0,0,0,596.37,274Z"/><path d="M614.27,289.54l-2.13-5.43h-6.83l-2.11,5.43h-2l6.74-17.14h1.67l6.71,17.14Zm-2.74-7.22-2-5.29c-.25-.66-.52-1.49-.79-2.46A21.25,21.25,0,0,1,608,277l-2,5.29Z"/><path d="M633.2,289.54h-9.52V272.47h9.52v1.76h-7.53v5.5h7.07v1.75h-7.07v6.28h7.53Z"/><path d="M649.71,289.54h-2.27l-9.32-14.33H638c.13,1.68.19,3.23.19,4.63v9.7h-1.83V272.47h2.24l9.3,14.26h.1c0-.21-.06-.88-.11-2s-.07-2-.06-2.45v-9.79h1.86Z"/><path d="M480.36,314.1a8.61,8.61,0,0,1-2.3,6.46q-2.3,2.24-6.6,2.23h-4.72V305.73H472a7.67,7.67,0,0,1,8.4,8.37Zm-2.1.07a6.85,6.85,0,0,0-1.68-5,6.69,6.69,0,0,0-5-1.69h-2.88v13.63h2.42a7.32,7.32,0,0,0,5.33-1.75A6.9,6.9,0,0,0,478.26,314.17Z"/><path d="M486.86,322.79V305.73h2v17.06Z"/><path d="M507,322.79l-2.12-5.42H498l-2.1,5.42h-2l6.75-17.13h1.67L509,322.79Zm-2.74-7.21-2-5.29c-.26-.66-.52-1.49-.8-2.46a21.07,21.07,0,0,1-.73,2.46l-2,5.29Z"/><path d="M521.56,313.85h5.8v8.3a18.65,18.65,0,0,1-2.75.66,22.15,22.15,0,0,1-3.25.22,7.85,7.85,0,0,1-6-2.31,9.07,9.07,0,0,1-2.16-6.46,9.66,9.66,0,0,1,1.07-4.66,7.25,7.25,0,0,1,3.07-3.06,10,10,0,0,1,4.71-1.06,12.88,12.88,0,0,1,5.09,1l-.78,1.75a11.41,11.41,0,0,0-4.44-1,6.37,6.37,0,0,0-4.87,1.86,7.17,7.17,0,0,0-1.75,5.14A7.34,7.34,0,0,0,517,319.5a6.48,6.48,0,0,0,4.95,1.79,14.9,14.9,0,0,0,3.47-.41v-5.25h-3.82Z"/><path d="M547.49,322.79h-2.26l-9.33-14.32h-.1c.13,1.68.19,3.22.19,4.63v9.69h-1.83V305.73h2.24L545.7,320h.1c0-.21,0-.88-.11-2s-.07-2-.06-2.45v-9.79h1.86Z"/><path d="M569.7,314.24a9.34,9.34,0,0,1-2.08,6.44,8.35,8.35,0,0,1-11.57,0,11.27,11.27,0,0,1,0-13,7.43,7.43,0,0,1,5.84-2.3,7.26,7.26,0,0,1,5.74,2.34A9.35,9.35,0,0,1,569.7,314.24Zm-13.6,0a8.14,8.14,0,0,0,1.47,5.26,5.27,5.27,0,0,0,4.29,1.79,5.2,5.2,0,0,0,4.29-1.79,8.23,8.23,0,0,0,1.44-5.26,8.12,8.12,0,0,0-1.44-5.22,5.15,5.15,0,0,0-4.26-1.78,5.27,5.27,0,0,0-4.32,1.79A8,8,0,0,0,556.1,314.24Zm4.13-10.17c.37-.48.78-1.06,1.21-1.75s.77-1.28,1-1.78h2.36v.24a17.49,17.49,0,0,1-1.53,1.87,16.71,16.71,0,0,1-1.77,1.71h-1.29Z"/><path d="M585.83,318.25a4.18,4.18,0,0,1-1.63,3.52,7.1,7.1,0,0,1-4.44,1.26,11,11,0,0,1-4.67-.79v-1.91a11.8,11.8,0,0,0,2.29.7,12.15,12.15,0,0,0,2.45.26,5,5,0,0,0,3-.75,2.48,2.48,0,0,0,1-2.1,2.73,2.73,0,0,0-.35-1.45,3.38,3.38,0,0,0-1.19-1.05,16.2,16.2,0,0,0-2.54-1.08,8.07,8.07,0,0,1-3.4-2,4.48,4.48,0,0,1-1-3,3.79,3.79,0,0,1,1.48-3.14,6.12,6.12,0,0,1,3.92-1.17,11.61,11.61,0,0,1,4.68.94l-.62,1.73a10.62,10.62,0,0,0-4.11-.89,4,4,0,0,0-2.46.68,2.22,2.22,0,0,0-.89,1.87,2.87,2.87,0,0,0,.33,1.46,3.08,3.08,0,0,0,1.1,1,14.1,14.1,0,0,0,2.38,1,9.39,9.39,0,0,1,3.69,2.06A4,4,0,0,1,585.83,318.25Z"/><path d="M597.28,322.79h-2v-15.3h-5.4v-1.76h12.79v1.76h-5.4Z"/><path d="M608,322.79V305.73h2v17.06Z"/><path d="M624.62,307.26a5.56,5.56,0,0,0-4.44,1.87,7.54,7.54,0,0,0-1.63,5.13,7.71,7.71,0,0,0,1.57,5.18,5.58,5.58,0,0,0,4.47,1.83,15.26,15.26,0,0,0,4.08-.65v1.74a12.38,12.38,0,0,1-4.38.67,7.44,7.44,0,0,1-5.82-2.29,9.43,9.43,0,0,1-2-6.5,10.21,10.21,0,0,1,1-4.62,7.09,7.09,0,0,1,2.85-3.06,8.57,8.57,0,0,1,4.38-1.08,10.45,10.45,0,0,1,4.69,1l-.84,1.7A9,9,0,0,0,624.62,307.26Z"/><path d="M649.91,314.24a9.34,9.34,0,0,1-2.08,6.44,8.35,8.35,0,0,1-11.57,0,11.27,11.27,0,0,1,0-13,7.44,7.44,0,0,1,5.84-2.3,7.26,7.26,0,0,1,5.74,2.34A9.35,9.35,0,0,1,649.91,314.24Zm-13.6,0a8.14,8.14,0,0,0,1.47,5.26,5.27,5.27,0,0,0,4.29,1.79,5.2,5.2,0,0,0,4.29-1.79,8.23,8.23,0,0,0,1.44-5.26,8.12,8.12,0,0,0-1.44-5.22,5.15,5.15,0,0,0-4.26-1.78,5.27,5.27,0,0,0-4.32,1.79A8,8,0,0,0,636.31,314.24Z"/><path d="M474.29,356.05l-5.79-15.12h-.09c.1,1.19.16,2.62.16,4.27v10.85h-1.83V339h3l5.41,14.07h.09L480.67,339h3v17.06h-2v-11c0-1.26.06-2.63.16-4.11h-.09l-5.83,15.1Z"/><path d="M497.83,356.05h-9.51V339h9.51v1.76H490.3v5.5h7.07V348H490.3v6.28h7.53Zm-6.54-18.72a19.19,19.19,0,0,0,1.21-1.75,19.46,19.46,0,0,0,1-1.79h2.36V334a17.25,17.25,0,0,1-1.53,1.87,16.76,16.76,0,0,1-1.76,1.71h-1.3Z"/><path d="M515.23,347.36q0,4.23-2.29,6.46t-6.6,2.23h-4.73V339h5.23a7.65,7.65,0,0,1,8.39,8.37Zm-2.1.07a6.89,6.89,0,0,0-1.67-5,6.72,6.72,0,0,0-5-1.7H503.6v13.64H506a7.28,7.28,0,0,0,5.33-1.75A6.86,6.86,0,0,0,513.13,347.43Z"/><path d="M519,356.05V339h2v17.06Z"/><path d="M533,340.52a5.56,5.56,0,0,0-4.44,1.87,7.54,7.54,0,0,0-1.63,5.13,7.71,7.71,0,0,0,1.57,5.18,5.58,5.58,0,0,0,4.48,1.82,15.2,15.2,0,0,0,4.07-.64v1.74a12.38,12.38,0,0,1-4.38.67,7.4,7.4,0,0,1-5.81-2.29,9.4,9.4,0,0,1-2-6.5,10.21,10.21,0,0,1,1-4.62,7,7,0,0,1,2.85-3.06,8.57,8.57,0,0,1,4.38-1.08,10.66,10.66,0,0,1,4.7,1l-.85,1.71A9,9,0,0,0,533,340.52Z"/><path d="M555.59,347.5a9.39,9.39,0,0,1-2.07,6.44,7.3,7.3,0,0,1-5.76,2.35,7.38,7.38,0,0,1-5.82-2.31,9.49,9.49,0,0,1-2-6.51A9.36,9.36,0,0,1,542,341a7.41,7.41,0,0,1,5.83-2.29,7.29,7.29,0,0,1,5.75,2.33A9.44,9.44,0,0,1,555.59,347.5Zm-13.59,0a8.14,8.14,0,0,0,1.47,5.26,5.27,5.27,0,0,0,4.29,1.79,5.21,5.21,0,0,0,4.29-1.79,10.27,10.27,0,0,0,0-10.49,5.18,5.18,0,0,0-4.27-1.78,5.27,5.27,0,0,0-4.31,1.8A8,8,0,0,0,542,347.5Z"/><path d="M113.84,356.45V277.16L88.62,332.91H66.57L41.34,277.16v79.29H0V205.93H45.16l32.43,70.8,32.65-70.8h44.94V356.45Z"/><path d="M288.32,320.41v36H181V205.93H286.41v36h-64v21.2h54.7v33.49h-54.7v23.75Z"/><path d="M307.6,356.45V205.93h57.88q18.66,0,32.86,5.93a66.16,66.16,0,0,1,38.16,40A86.21,86.21,0,0,1,441.38,281,85.06,85.06,0,0,1,436,312a67.29,67.29,0,0,1-15.37,23.75,68.81,68.81,0,0,1-24,15.26,85.87,85.87,0,0,1-31.16,5.41ZM399.4,281a51.62,51.62,0,0,0-2.33-15.9,35.55,35.55,0,0,0-6.68-12.29,30.21,30.21,0,0,0-10.71-7.95,34.18,34.18,0,0,0-14.2-2.86H348.94v78.44h16.54a33.7,33.7,0,0,0,14.42-3,30.18,30.18,0,0,0,10.7-8.27,36.26,36.26,0,0,0,6.57-12.51A52.7,52.7,0,0,0,399.4,281Z"/><path d="M283.84,156V5.8h57.74q18.62,0,32.79,5.92a66,66,0,0,1,38.07,39.87,86,86,0,0,1,4.86,29.08,84.75,84.75,0,0,1-5.39,31,67.32,67.32,0,0,1-15.33,23.69,68.75,68.75,0,0,1-23.91,15.22,85.53,85.53,0,0,1-31.09,5.4Zm91.58-75.3a51.32,51.32,0,0,0-2.32-15.86,35.61,35.61,0,0,0-6.67-12.27,30.05,30.05,0,0,0-10.68-7.93,34,34,0,0,0-14.17-2.86h-16.5V120h16.5a33.52,33.52,0,0,0,14.38-3,30,30,0,0,0,10.69-8.25,36.42,36.42,0,0,0,6.55-12.48A52.8,52.8,0,0,0,375.42,80.67Z"/></svg>