<?xml version="1.0" encoding="utf-8"?>
<!-- Generator: Adobe Illustrator 25.2.3, SVG Export Plug-In . SVG Version: 6.00 Build 0)  -->
<svg version="1.1" id="Capa_1" xmlns="http://www.w3.org/2000/svg" xmlns:xlink="http://www.w3.org/1999/xlink" x="0px" y="0px"
	 viewBox="0 0 1100.1 200.8" style="enable-background:new 0 0 1100.1 200.8;" xml:space="preserve">
<style type="text/css">
	.st0{fill:#25C4C7;}
	.st1{fill:#303030;}
	.st2{fill:#848484;}
</style>
<path class="st0" d="M0,150.6V0.9h68.8c7-0.1,13.9,1.5,20.2,4.5c6,2.9,11.4,6.9,15.9,11.8c4.4,4.9,8,10.5,10.4,16.7
	c2.5,6,3.8,12.4,3.8,18.9c0.1,8.5-1.9,16.8-5.7,24.4c-3.7,7.4-9.1,13.7-15.8,18.5l31.6,55H82.9l-26.4-46H41.1v46H0z M41.1,68.8h25.9
	c2.5,0,4.9-1.4,7.1-4.2c2.2-2.8,3.3-6.8,3.3-11.8c0-5.2-1.3-9.2-3.8-11.9s-5.1-4.1-7.6-4.1H41.1V68.8z"/>
<path class="st0" d="M181.2,0.9h37.5l51.9,149.7h-41.8l-9.1-29.3h-39.9l-8.9,29.3h-42L181.2,0.9z M213.2,93.8l-13.3-46.4L186,93.9
	L213.2,93.8z"/>
<path class="st0" d="M283,150.6V0.9h57.6c12.4,0,23.3,2,32.7,5.9c8.9,3.6,17,9,23.6,16c6.4,6.8,11.3,14.9,14.3,23.7
	c3.3,9.3,4.9,19.1,4.9,29c0.1,10.5-1.7,21-5.4,30.9c-3.4,8.9-8.6,16.9-15.3,23.6c-6.8,6.7-14.9,11.8-23.8,15.2
	c-9.9,3.7-20.4,5.5-31,5.4L283,150.6z M374.3,75.5c0.1-5.4-0.7-10.7-2.3-15.8c-1.4-4.5-3.6-8.6-6.6-12.2c-2.9-3.4-6.6-6.1-10.6-7.9
	c-4.5-1.9-9.3-2.9-14.1-2.8h-16.4v78h16.5c4.9,0.1,9.8-1,14.3-3c4.1-1.9,7.8-4.7,10.6-8.2c3-3.7,5.2-7.9,6.5-12.4
	C373.7,86,374.4,80.8,374.3,75.5L374.3,75.5z"/>
<path class="st0" d="M434,150.6V0.9h41.1v149.7H434z"/>
<path class="st0" d="M639.4,48.3c-3.5-9-8.7-17.4-15.3-24.5c-6.8-7.3-14.9-13.1-23.8-17.3c-9.7-4.5-20.3-6.7-31-6.5
	c-10.6-0.1-21,2-30.7,6.2c-9.1,4-17.3,9.6-24.2,16.7c-6.8,6.9-12.2,15.1-15.9,24.1c-3.8,9-5.7,18.7-5.7,28.5
	c0,9.7,1.9,19.3,5.5,28.2c3.6,9,8.8,17.3,15.4,24.4c6.8,7.2,14.8,13.1,23.8,17.2c9.7,4.4,20.3,6.7,31,6.5c10.6,0.1,21-2,30.7-6.3
	c9-4,17.2-9.7,24.2-16.8c6.7-6.9,12.1-15.1,15.8-24c3.8-9,5.7-18.6,5.7-28.3C644.7,66.8,642.9,57.2,639.4,48.3z M569.2,64.5
	c6.2,0,11.2,5,11.2,11.2c0,6.2-5,11.2-11.2,11.2c-6.2,0-11.2-5-11.2-11.2c0,0,0,0,0,0C558,69.6,563,64.6,569.2,64.5z M513.2,75.8
	c0-20,10.6-38.4,27.9-48.4l19.6,34c-5.1,3-8.3,8.5-8.3,14.4L513.2,75.8z M569,131.7c-9.8,0-19.4-2.6-27.9-7.5l19.6-34
	c5.1,3,11.5,3,16.6,0l19.6,34C588.5,129.1,578.9,131.7,569,131.7L569,131.7z M585.7,75.8c0-5.9-3.2-11.4-8.3-14.4l19.6-34
	c17.3,10,28,28.4,28,48.4H585.7z"/>
<path class="st1" d="M774.2,150.6V71.7l-25.1,55.5h-21.9l-25.1-55.5v78.9h-41.1V0.9h44.9l32.3,70.4l32.5-70.4h44.7v149.7H774.2z"/>
<path class="st1" d="M947.8,114.7v35.8H841V0.9h104.8v35.9h-63.7v21.1h54.4v33.3h-54.4v23.6H947.8z"/>
<path class="st1" d="M967,150.6V0.9h57.6c12.4,0,23.3,2,32.7,5.9c8.9,3.6,17,9,23.6,16c6.4,6.8,11.3,14.9,14.3,23.7
	c3.3,9.3,4.9,19.1,4.8,29c0.2,10.5-1.7,21-5.4,30.9c-3.4,8.9-8.6,16.9-15.3,23.6c-6.8,6.7-14.9,11.8-23.8,15.2
	c-9.9,3.7-20.4,5.5-31,5.4L967,150.6z M1058.3,75.5c0.1-5.4-0.7-10.7-2.3-15.8c-1.4-4.5-3.6-8.6-6.6-12.2c-2.9-3.4-6.6-6.1-10.7-7.9
	c-4.5-1.9-9.3-2.9-14.1-2.8h-16.5v78h16.5c4.9,0.1,9.8-1,14.3-3c4.1-1.9,7.8-4.7,10.7-8.2c3-3.7,5.2-7.9,6.5-12.4
	C1057.6,86,1058.3,80.8,1058.3,75.5L1058.3,75.5z"/>
<path class="st2" d="M15.2,194c0.1,1.9-0.8,3.8-2.3,5c-1.8,1.3-4,1.9-6.3,1.8c-2.3,0.1-4.5-0.3-6.6-1.1V197c1,0.4,2.1,0.8,3.2,1
	c1.1,0.2,2.3,0.4,3.5,0.4c1.5,0.1,3-0.3,4.3-1.1c0.9-0.7,1.5-1.8,1.4-3c0-0.7-0.1-1.4-0.5-2.1c-0.4-0.6-1-1.1-1.7-1.5
	c-1.2-0.6-2.4-1.1-3.6-1.5c-1.8-0.5-3.5-1.5-4.8-2.9c-1-1.2-1.6-2.7-1.5-4.3c-0.1-1.7,0.7-3.4,2.1-4.4c1.6-1.2,3.6-1.8,5.6-1.6
	c2.3,0,4.5,0.4,6.6,1.3l-0.9,2.4c-1.8-0.8-3.8-1.2-5.8-1.2c-1.2-0.1-2.5,0.3-3.5,0.9c-0.8,0.6-1.3,1.6-1.3,2.7
	c0,0.7,0.1,1.4,0.5,2.1c0.4,0.6,0.9,1.1,1.6,1.5c1.1,0.6,2.2,1.1,3.4,1.5c1.9,0.6,3.7,1.6,5.2,2.9C14.8,191.1,15.3,192.5,15.2,194z"
	/>
<path class="st2" d="M33.6,200.4H20.2v-24.2h13.5v2.5H23v7.8h10v2.5H23v8.9h10.6V200.4z"/>
<path class="st2" d="M49.6,187.8h8.2v11.8c-1.3,0.4-2.6,0.7-3.9,0.9c-1.5,0.2-3.1,0.3-4.6,0.3c-3.7,0-6.5-1.1-8.5-3.3
	s-3.1-5.2-3.1-9.1c-0.1-2.3,0.5-4.6,1.5-6.6c1-1.9,2.5-3.4,4.4-4.3c2.1-1,4.4-1.6,6.7-1.5c2.5,0,4.9,0.5,7.2,1.4l-1.1,2.5
	c-2-0.9-4.1-1.4-6.3-1.4c-2.6-0.1-5.1,0.8-6.9,2.6c-1.8,2-2.6,4.6-2.5,7.3c0,3.3,0.8,5.7,2.4,7.4s3.9,2.5,7,2.5
	c1.7,0,3.3-0.2,4.9-0.6v-7.4h-5.4V187.8z"/>
<path class="st2" d="M81.9,176.3v15.6c0.1,2.4-0.8,4.8-2.5,6.5c-1.9,1.7-4.4,2.5-6.9,2.4c-2.5,0.2-4.9-0.7-6.8-2.4
	c-1.7-1.8-2.5-4.1-2.4-6.6v-15.6h2.8V192c-0.1,1.7,0.5,3.4,1.7,4.6c1.3,1.2,3.1,1.8,4.9,1.6c1.7,0.1,3.4-0.5,4.7-1.6
	c1.2-1.3,1.8-2.9,1.7-4.6v-15.7H81.9z"/>
<path class="st2" d="M91.1,190.4v10.1h-2.8v-24.2h6.6c3,0,5.2,0.6,6.6,1.7c1.5,1.3,2.3,3.2,2.1,5.1c0,3.2-1.6,5.4-4.9,6.5l6.6,10.9
	H102l-5.8-10.1L91.1,190.4z M91.1,188H95c1.5,0.1,3.1-0.3,4.4-1.2c1-0.9,1.5-2.2,1.4-3.6c0.1-1.3-0.4-2.6-1.4-3.5
	c-1.4-0.8-3-1.2-4.5-1.1h-3.7V188z"/>
<path class="st2" d="M109.2,200.4v-24.2h2.8v24.2H109.2z"/>
<path class="st2" d="M138,188.1c0,4-1.1,7.1-3.2,9.1c-2.2,2.1-5.3,3.2-9.3,3.2h-6.7v-24.2h7.4c3.8,0,6.7,1,8.8,3.1
	C136.9,181.5,138,184.4,138,188.1z M135,188.2c0-3.2-0.8-5.5-2.4-7.1s-3.9-2.4-7.1-2.4h-4.1V198h3.4c3.4,0,5.9-0.8,7.6-2.5
	S135,191.4,135,188.2z"/>
<path class="st2" d="M158.6,200.4l-3-7.7h-9.7l-3,7.7h-2.8l9.6-24.3h2.4l9.5,24.3H158.6z M154.7,190.2l-2.8-7.5
	c-0.4-0.9-0.7-2.1-1.1-3.5c-0.3,1.2-0.6,2.3-1,3.5l-2.8,7.5H154.7z"/>
<path class="st2" d="M184.1,188.1c0,4-1.1,7.1-3.2,9.1c-2.2,2.1-5.3,3.2-9.4,3.2h-6.7v-24.2h7.4c3.8,0,6.7,1,8.8,3.1
	C183.1,181.5,184.1,184.4,184.1,188.1z M181.1,188.2c0-3.2-0.8-5.5-2.4-7.1s-3.9-2.4-7-2.4h-4.1V198h3.4c3.4,0,5.9-0.8,7.6-2.5
	S181.1,191.4,181.1,188.2L181.1,188.2z"/>
<path class="st2" d="M204.4,188.4l6.4-12.1h3l-8.1,14.8v9.4H203v-9.2l-8-14.9h3.1L204.4,188.4z"/>
<path class="st2" d="M241.4,183.3c0.1,2.2-0.8,4.3-2.5,5.6c-1.7,1.3-4.1,2-7.2,2h-2.8v9.5h-2.8v-24.2h6.3
	C238.4,176.3,241.4,178.6,241.4,183.3z M228.9,188.5h2.5c2.5,0,4.3-0.4,5.4-1.2c1.2-0.9,1.8-2.4,1.7-3.9c0.1-1.4-0.5-2.7-1.6-3.6
	c-1.5-0.9-3.2-1.3-4.9-1.2h-3.1V188.5z"/>
<path class="st2" d="M249.3,190.4v10.1h-2.8v-24.2h6.6c3,0,5.2,0.6,6.6,1.7c1.5,1.3,2.3,3.2,2.1,5.1c0,3.2-1.6,5.4-4.9,6.5l6.6,10.9
	h-3.3l-5.9-10.1L249.3,190.4z M249.3,188h3.9c1.5,0.1,3.1-0.3,4.4-1.2c1-0.9,1.5-2.2,1.4-3.6c0.1-1.3-0.4-2.6-1.4-3.5
	c-1.4-0.8-3-1.2-4.6-1.1h-3.6L249.3,188z"/>
<path class="st2" d="M288.4,188.3c0,3.9-1,6.9-2.9,9.1c-2.1,2.3-5.1,3.5-8.2,3.3c-3.6,0-6.3-1.1-8.2-3.3s-2.9-5.2-2.9-9.2
	s1-7,2.9-9.1s4.7-3.2,8.3-3.2c3.1-0.2,6.1,1,8.1,3.3C287.4,181.4,288.4,184.4,288.4,188.3z M269.1,188.3c0,3.3,0.7,5.8,2.1,7.4
	c1.5,1.7,3.8,2.7,6.1,2.5c2.3,0.2,4.6-0.8,6.1-2.5c1.4-1.7,2.1-4.2,2.1-7.4s-0.7-5.7-2-7.4c-1.5-1.7-3.7-2.7-6-2.5
	c-2.3-0.2-4.6,0.8-6.1,2.5C269.8,182.6,269.1,185.1,269.1,188.3L269.1,188.3z"/>
<path class="st2" d="M301.2,200.4h-2.8v-21.7h-7.6v-2.5h18.1v2.5h-7.7V200.4z"/>
<path class="st2" d="M326,200.4h-13.5v-24.2H326v2.5h-10.7v7.8h10v2.5h-10v8.9H326V200.4z"/>
<path class="st2" d="M341.7,178.4c-2.4-0.1-4.7,0.9-6.3,2.6c-1.6,2.1-2.5,4.6-2.3,7.3c0,3.2,0.7,5.6,2.2,7.3
	c1.6,1.8,3.9,2.7,6.3,2.6c2,0,3.9-0.3,5.8-0.9v2.5c-2,0.7-4.1,1-6.2,0.9c-3.6,0-6.3-1.1-8.2-3.2s-2.9-5.2-2.9-9.2
	c-0.1-2.3,0.4-4.5,1.4-6.6c0.9-1.8,2.3-3.3,4-4.3c1.9-1,4-1.6,6.2-1.5c2.3,0,4.6,0.4,6.6,1.4l-1.2,2.4
	C345.5,178.9,343.6,178.5,341.7,178.4z"/>
<path class="st2" d="M363.1,178.4c-2.4-0.1-4.7,0.9-6.3,2.6c-1.6,2.1-2.5,4.6-2.3,7.3c0,3.2,0.8,5.6,2.2,7.3
	c1.6,1.8,3.9,2.7,6.3,2.6c2,0,3.9-0.3,5.8-0.9v2.5c-2,0.7-4.1,1-6.2,0.9c-3.6,0-6.3-1.1-8.2-3.2s-2.9-5.2-2.9-9.2
	c-0.1-2.3,0.4-4.5,1.4-6.6c0.9-1.8,2.3-3.3,4-4.3c1.9-1,4-1.6,6.2-1.5c2.3,0,4.6,0.4,6.6,1.4l-1.2,2.4
	C366.8,178.9,364.9,178.5,363.1,178.4z"/>
<path class="st2" d="M374.1,200.4v-24.2h2.8v24.2H374.1z"/>
<path class="st2" d="M404.5,188.3c0,3.9-1,6.9-2.9,9.1c-2.1,2.3-5.1,3.5-8.2,3.3c-3.6,0-6.3-1.1-8.2-3.3c-1.9-2.2-2.9-5.3-2.9-9.2
	c0-3.9,1-7,2.9-9.1c1.9-2.2,4.7-3.2,8.3-3.2c3.1-0.2,6.1,1,8.1,3.3C403.5,181.4,404.5,184.4,404.5,188.3z M385.2,188.3
	c0,3.3,0.7,5.8,2.1,7.4c1.5,1.7,3.8,2.7,6.1,2.5c2.3,0.2,4.6-0.8,6.1-2.5c1.4-1.7,2-4.2,2-7.4s-0.7-5.7-2-7.4
	c-1.5-1.8-3.7-2.7-6-2.5c-2.3-0.2-4.6,0.8-6.1,2.5C385.9,182.6,385.2,185.1,385.2,188.3L385.2,188.3z M391.1,173.9
	c0.6-0.8,1.2-1.6,1.7-2.5c0.5-0.8,1-1.7,1.4-2.5h3.4v0.4c-0.7,0.9-1.4,1.8-2.2,2.6c-0.8,0.9-1.6,1.7-2.5,2.4h-1.8V173.9z"/>
<path class="st2" d="M428.8,200.4h-3.2l-13.2-20.3h-0.1c0.2,2.4,0.3,4.6,0.3,6.6v13.7h-2.6v-24.2h3.2l13.2,20.2h0.1
	c0-0.3-0.1-1.2-0.1-2.9s-0.1-2.8-0.1-3.5v-13.9h2.6V200.4z"/>
<path class="st2" d="M447,190.4v10.1h-2.8v-24.2h6.6c3,0,5.2,0.6,6.6,1.7c1.5,1.3,2.3,3.2,2.1,5.1c0,3.2-1.6,5.4-4.9,6.5l6.6,10.9
	h-3.3l-5.9-10.1L447,190.4z M447,188h3.9c1.5,0.1,3.1-0.3,4.4-1.2c1-0.9,1.5-2.2,1.4-3.6c0.1-1.3-0.4-2.6-1.4-3.5
	c-1.4-0.8-3-1.2-4.5-1.1H447V188z"/>
<path class="st2" d="M480.4,200.4l-3-7.7h-9.7l-3,7.7h-2.9l9.6-24.3h2.4l9.5,24.3H480.4z M476.5,190.2l-2.8-7.5
	c-0.4-0.9-0.7-2.1-1.1-3.5c-0.3,1.2-0.6,2.3-1,3.5l-2.8,7.5H476.5z"/>
<path class="st2" d="M505.9,188.1c0,4-1.1,7.1-3.2,9.1c-2.2,2.1-5.3,3.2-9.4,3.2h-6.7v-24.2h7.4c3.8,0,6.7,1,8.8,3.1
	C504.9,181.5,505.9,184.4,505.9,188.1z M502.9,188.2c0-3.2-0.8-5.5-2.4-7.1s-3.9-2.4-7.1-2.4h-4.1V198h3.4c3.4,0,5.9-0.8,7.6-2.5
	S502.9,191.4,502.9,188.2L502.9,188.2z"/>
<path class="st2" d="M511.3,200.4v-24.2h2.8v24.2H511.3z"/>
<path class="st2" d="M541.7,188.3c0,3.9-1,6.9-2.9,9.1c-2.1,2.3-5.1,3.5-8.2,3.3c-3.6,0-6.3-1.1-8.2-3.3c-1.9-2.2-2.9-5.3-2.9-9.2
	c0-3.9,1-7,2.9-9.1c1.9-2.2,4.7-3.2,8.3-3.2c3.1-0.2,6.1,1,8.1,3.3C540.7,181.4,541.7,184.4,541.7,188.3z M522.4,188.3
	c0,3.3,0.7,5.8,2.1,7.4c1.5,1.7,3.8,2.7,6.1,2.5c2.3,0.2,4.6-0.8,6.1-2.5c1.4-1.7,2-4.2,2-7.4s-0.7-5.7-2-7.4
	c-1.5-1.8-3.7-2.7-6-2.5c-2.3-0.2-4.6,0.8-6.1,2.5C523.1,182.6,522.5,185.1,522.4,188.3L522.4,188.3z"/>
<path class="st2" d="M547.1,200.4v-24.2h2.8v21.6h10.7v2.6H547.1z"/>
<path class="st2" d="M585.7,188.3c0,3.9-1,6.9-2.9,9.1c-2.1,2.3-5.1,3.5-8.2,3.3c-3.6,0-6.3-1.1-8.2-3.3c-1.9-2.2-2.9-5.3-2.9-9.2
	c0-3.9,1-7,2.9-9.1c1.9-2.2,4.7-3.2,8.3-3.2c3.1-0.2,6.1,1,8.1,3.3C584.7,181.4,585.7,184.4,585.7,188.3z M566.4,188.3
	c0,3.3,0.7,5.8,2.1,7.4c3.3,3.4,8.8,3.4,12.1,0c0,0,0,0,0,0c1.4-1.7,2-4.2,2-7.4s-0.7-5.7-2-7.4c-1.5-1.7-3.7-2.7-6-2.5
	c-2.3-0.2-4.6,0.8-6.1,2.5C567.1,182.6,566.4,185.1,566.4,188.3z M572.3,173.9c0.5-0.7,1.1-1.5,1.7-2.5c0.5-0.8,1-1.7,1.5-2.5h3.3
	v0.4c-0.7,0.9-1.4,1.8-2.2,2.6c-0.8,0.9-1.6,1.7-2.5,2.4h-1.8L572.3,173.9z"/>
<path class="st2" d="M601.7,187.8h8.2v11.8c-1.3,0.4-2.6,0.7-3.9,0.9c-1.5,0.2-3.1,0.3-4.6,0.3c-3.7,0-6.5-1.1-8.5-3.3
	s-3.1-5.2-3.1-9.1c-0.1-2.3,0.5-4.6,1.5-6.6c1-1.9,2.5-3.4,4.4-4.3c2.1-1,4.4-1.6,6.7-1.5c2.5,0,4.9,0.5,7.2,1.4l-1.1,2.5
	c-2-0.9-4.1-1.4-6.3-1.4c-2.6-0.1-5.1,0.8-6.9,2.6c-1.8,2-2.6,4.6-2.5,7.3c0,3.3,0.8,5.7,2.4,7.4s3.9,2.5,7,2.5
	c1.7,0,3.3-0.2,4.9-0.6v-7.4h-5.4V187.8z"/>
<path class="st2" d="M615.7,200.4v-24.2h2.8v24.2H615.7z"/>
<path class="st2" d="M635.5,178.4c-2.4-0.1-4.7,0.9-6.3,2.6c-1.6,2.1-2.5,4.6-2.3,7.3c0,3.2,0.7,5.6,2.2,7.3
	c1.6,1.8,3.9,2.7,6.3,2.6c2,0,3.9-0.3,5.8-0.9v2.5c-2,0.7-4.1,1-6.2,0.9c-3.6,0-6.3-1.1-8.2-3.2s-2.9-5.2-2.9-9.2
	c-0.1-2.3,0.4-4.5,1.4-6.6c0.9-1.8,2.3-3.3,4-4.3c1.9-1,4-1.6,6.2-1.5c2.3,0,4.6,0.4,6.7,1.4l-1.2,2.4
	C639.3,178.9,637.4,178.4,635.5,178.4z"/>
<path class="st2" d="M661.7,200.4l-3-7.7H649l-3,7.7h-2.8l9.6-24.3h2.4l9.5,24.3H661.7z M657.8,190.2l-2.8-7.5
	c-0.4-0.9-0.7-2.1-1.1-3.5c-0.3,1.2-0.6,2.3-1,3.5l-2.9,7.5H657.8z"/>
<path class="st2" d="M690.2,200.4h-13.5v-24.2h13.5v2.5h-10.7v7.8h10v2.5h-10v8.9h10.7V200.4z"/>
<path class="st2" d="M714.5,200.4h-3.2l-13.2-20.3h-0.1c0.2,2.4,0.3,4.6,0.3,6.6v13.7h-2.6v-24.2h3.2l13.2,20.2h0.1
	c0-0.3-0.1-1.2-0.2-2.9s-0.1-2.8-0.1-3.5v-13.9h2.6L714.5,200.4z"/>
<path class="st2" d="M758,188.1c0,4-1.1,7.1-3.2,9.1c-2.2,2.1-5.3,3.2-9.4,3.2h-6.7v-24.2h7.4c3.8,0,6.7,1,8.8,3.1
	C757,181.5,758,184.4,758,188.1z M755,188.2c0-3.2-0.8-5.5-2.4-7.1s-3.9-2.4-7.1-2.4h-4.1V198h3.5c3.3,0,5.9-0.8,7.6-2.5
	S755,191.4,755,188.2L755,188.2z"/>
<path class="st2" d="M763.4,200.4v-24.2h2.8v24.2H763.4z"/>
<path class="st2" d="M788.1,200.4l-3-7.7h-9.7l-3,7.7h-2.8l9.6-24.3h2.4l9.6,24.3H788.1z M784.2,190.2l-2.8-7.5
	c-0.4-0.9-0.7-2.1-1.1-3.5c-0.3,1.2-0.6,2.3-1,3.5l-2.8,7.5H784.2z"/>
<path class="st2" d="M804.9,187.8h8.2v11.8c-1.3,0.4-2.6,0.7-3.9,0.9c-1.5,0.2-3.1,0.3-4.6,0.3c-3.7,0-6.5-1.1-8.5-3.3
	s-3.1-5.2-3.1-9.1c-0.1-2.3,0.5-4.6,1.5-6.6c1-1.9,2.5-3.4,4.4-4.3c2.1-1,4.4-1.6,6.7-1.5c2.5,0,4.9,0.5,7.2,1.4l-1.1,2.5
	c-2-0.9-4.1-1.4-6.3-1.4c-2.6-0.2-5.1,0.8-6.9,2.6c-1.7,2-2.6,4.6-2.5,7.3c0,3.3,0.8,5.7,2.4,7.4s3.9,2.5,7,2.5
	c1.7,0,3.3-0.2,4.9-0.6v-7.4h-5.4L804.9,187.8z"/>
<path class="st2" d="M837.8,200.4h-3.2l-13.2-20.3h-0.1c0.2,2.4,0.3,4.6,0.3,6.6v13.7H819v-24.2h3.2l13.2,20.2h0.1
	c0-0.3-0.1-1.2-0.2-2.9s-0.1-2.8-0.1-3.5v-13.9h2.6L837.8,200.4z"/>
<path class="st2" d="M865.5,188.3c0,3.9-1,6.9-2.9,9.1c-2.1,2.3-5.1,3.5-8.2,3.3c-3.6,0-6.3-1.1-8.2-3.3s-2.9-5.2-2.9-9.2
	s1-7,2.9-9.1s4.7-3.2,8.3-3.2c3.1-0.2,6.1,1,8.1,3.3C864.5,181.4,865.5,184.4,865.5,188.3z M846.2,188.3c0,3.3,0.7,5.8,2.1,7.4
	c1.5,1.7,3.8,2.7,6.1,2.5c2.3,0.2,4.6-0.8,6.1-2.5c1.4-1.7,2.1-4.2,2.1-7.4s-0.7-5.7-2-7.4c-1.5-1.7-3.7-2.7-6-2.5
	c-2.3-0.2-4.6,0.8-6.1,2.5C846.9,182.6,846.2,185.1,846.2,188.3L846.2,188.3z M852.1,173.9c0.5-0.7,1.1-1.5,1.7-2.5s1.1-1.8,1.5-2.5
	h3.3v0.4c-0.7,0.9-1.4,1.8-2.2,2.6c-0.8,0.9-1.6,1.7-2.5,2.4h-1.8L852.1,173.9z"/>
<path class="st2" d="M884.5,194c0.1,1.9-0.8,3.8-2.3,5c-1.8,1.3-4,1.9-6.3,1.8c-2.3,0.1-4.5-0.3-6.6-1.1V197c1,0.4,2.1,0.8,3.2,1
	c1.1,0.2,2.3,0.4,3.5,0.4c1.5,0.1,3-0.3,4.2-1.1c0.9-0.7,1.5-1.8,1.4-3c0-0.7-0.1-1.4-0.5-2.1c-0.4-0.6-1-1.1-1.7-1.5
	c-1.2-0.6-2.4-1.1-3.6-1.5c-1.8-0.5-3.5-1.5-4.8-2.9c-1-1.2-1.5-2.7-1.4-4.3c-0.1-1.7,0.7-3.4,2.1-4.4c1.6-1.2,3.6-1.8,5.5-1.7
	c2.3,0,4.5,0.4,6.6,1.3l-0.9,2.4c-1.8-0.8-3.8-1.2-5.8-1.2c-1.2-0.1-2.5,0.3-3.5,0.9c-0.8,0.6-1.3,1.6-1.3,2.7
	c0,0.7,0.1,1.4,0.5,2.1c0.4,0.6,0.9,1.1,1.6,1.5c1.1,0.6,2.2,1.1,3.4,1.5c1.9,0.6,3.7,1.6,5.2,2.9C884,191.1,884.6,192.5,884.5,194z
	"/>
<path class="st2" d="M896.9,200.4h-2.8v-21.7h-7.7v-2.5h18.1v2.5h-7.7L896.9,200.4z"/>
<path class="st2" d="M908.2,200.4v-24.2h2.8v24.2H908.2z"/>
<path class="st2" d="M928,178.4c-2.4-0.1-4.7,0.9-6.3,2.6c-1.6,2.1-2.5,4.6-2.3,7.3c0,3.2,0.7,5.6,2.2,7.3c1.6,1.8,3.9,2.7,6.3,2.6
	c2,0,3.9-0.3,5.8-0.9v2.5c-2,0.7-4.1,1-6.2,0.9c-3.6,0-6.3-1.1-8.2-3.2s-2.9-5.2-2.9-9.2c0-2.3,0.4-4.5,1.4-6.6
	c0.9-1.8,2.3-3.3,4-4.3c1.9-1,4-1.6,6.2-1.5c2.3,0,4.6,0.4,6.6,1.4l-1.2,2.4C931.8,178.9,929.9,178.5,928,178.4z"/>
<path class="st2" d="M960,188.3c0,3.9-1,6.9-2.9,9.1c-2.1,2.3-5.1,3.5-8.2,3.3c-3.6,0-6.3-1.1-8.2-3.3s-2.9-5.2-2.9-9.2s1-7,2.9-9.1
	s4.7-3.2,8.3-3.2c3.1-0.2,6.1,1,8.1,3.3C959,181.4,960,184.4,960,188.3z M940.7,188.3c0,3.3,0.7,5.8,2.1,7.4
	c1.5,1.7,3.8,2.7,6.1,2.5c2.3,0.2,4.6-0.8,6.1-2.5c1.4-1.7,2.1-4.2,2.1-7.4s-0.7-5.7-2-7.4c-1.5-1.7-3.7-2.7-6-2.5
	c-2.3-0.2-4.6,0.8-6.1,2.5C941.4,182.6,940.7,185.1,940.7,188.3L940.7,188.3z"/>
<path class="st2" d="M984.9,200.4l-8.2-21.4h-0.1c0.2,1.7,0.2,3.7,0.2,6.1v15.4h-2.6v-24.2h4.2l7.7,20h0.1l7.7-20h4.2v24.2h-2.8
	v-15.6c0-1.8,0.1-3.7,0.2-5.8h-0.1l-8.3,21.4L984.9,200.4z"/>
<path class="st2" d="M1018.2,200.4h-13.5v-24.2h13.5v2.5h-10.7v7.8h10v2.5h-10v8.9h10.7V200.4z M1009,173.9c0.5-0.7,1.1-1.5,1.7-2.5
	c0.5-0.8,1-1.7,1.4-2.5h3.3v0.4c-0.7,0.9-1.4,1.8-2.2,2.6c-0.8,0.9-1.6,1.7-2.5,2.4h-1.8V173.9z"/>
<path class="st2" d="M1042.9,188.1c0,4-1.1,7.1-3.2,9.1c-2.2,2.1-5.3,3.2-9.4,3.2h-6.7v-24.2h7.4c3.8,0,6.7,1,8.8,3.1
	C1041.8,181.5,1042.9,184.4,1042.9,188.1z M1039.9,188.2c0-3.2-0.8-5.5-2.4-7.1s-3.9-2.4-7.1-2.4h-4.1V198h3.4
	c3.3,0,5.9-0.8,7.6-2.5S1039.9,191.4,1039.9,188.2L1039.9,188.2z"/>
<path class="st2" d="M1048.3,200.4v-24.2h2.8v24.2H1048.3z"/>
<path class="st2" d="M1068.1,178.4c-2.4-0.1-4.7,0.9-6.3,2.6c-1.6,2.1-2.5,4.6-2.3,7.3c0,3.2,0.7,5.6,2.2,7.3
	c1.6,1.8,3.9,2.7,6.3,2.6c2,0,3.9-0.3,5.8-0.9v2.5c-2,0.7-4.1,1-6.2,0.9c-3.6,0-6.3-1.1-8.2-3.2s-2.9-5.2-2.9-9.2
	c0-2.3,0.4-4.5,1.4-6.6c0.9-1.8,2.3-3.3,4-4.3c1.9-1,4-1.6,6.2-1.5c2.3-0.1,4.6,0.4,6.7,1.4l-1.2,2.4
	C1071.8,178.9,1070,178.5,1068.1,178.4z"/>
<path class="st2" d="M1100.1,188.3c0,3.9-1,6.9-2.9,9.1c-2.1,2.3-5.1,3.5-8.2,3.3c-3.6,0-6.3-1.1-8.2-3.3s-2.9-5.2-2.9-9.2
	s1-7,2.9-9.1s4.7-3.2,8.3-3.2c3.1-0.2,6.1,1,8.1,3.3C1099.1,181.4,1100.1,184.4,1100.1,188.3z M1080.8,188.3c0,3.3,0.7,5.8,2.1,7.4
	c1.5,1.7,3.8,2.7,6.1,2.5c2.3,0.2,4.6-0.8,6.1-2.5c1.4-1.7,2.1-4.2,2.1-7.4s-0.7-5.7-2-7.4c-1.5-1.7-3.7-2.7-6-2.5
	c-2.3-0.2-4.6,0.8-6.1,2.5C1081.5,182.6,1080.8,185.1,1080.8,188.3L1080.8,188.3z"/>
</svg>
