<svg id="Capa_1" data-name="Capa 1" xmlns="http://www.w3.org/2000/svg" viewBox="0 0 1100.07 200.77"><path d="M0,150.59V.85H68.76A45.48,45.48,0,0,1,89,5.38a52.68,52.68,0,0,1,15.93,11.81,55.19,55.19,0,0,1,10.44,16.66,50,50,0,0,1,3.79,18.88,53.24,53.24,0,0,1-5.69,24.36A49.62,49.62,0,0,1,97.65,95.54l31.64,55.05H82.89l-26.37-46H41.13v46ZM41.13,68.76H67.07q3.8,0,7.06-4.22T77.4,52.73q0-7.8-3.79-11.92T66,36.7H41.13Z"/><path d="M181.17.85h37.54L270.6,150.59H228.84l-9.07-29.31H179.9l-8.85,29.31h-42Zm32.06,93-13.29-46.4L186,93.86Z"/><path d="M283,150.59V.85h57.58q18.56,0,32.69,5.9a67.61,67.61,0,0,1,23.62,16,67.22,67.22,0,0,1,14.34,23.73,85.82,85.82,0,0,1,4.85,29,84.68,84.68,0,0,1-5.37,30.9A67,67,0,0,1,395.45,130a68.41,68.41,0,0,1-23.83,15.18,85.29,85.29,0,0,1-31,5.38Zm91.32-75.08A51.06,51.06,0,0,0,372,59.69a35.36,35.36,0,0,0-6.64-12.23,30,30,0,0,0-10.65-7.91,34,34,0,0,0-14.13-2.85H324.17v78h16.45a33.37,33.37,0,0,0,14.34-3,29.76,29.76,0,0,0,10.65-8.22,36.3,36.3,0,0,0,6.54-12.44A52.91,52.91,0,0,0,374.36,75.51Z"/><path d="M434.05,150.59V.85h41.13V150.59Z"/><path d="M639.36,48.31a77.54,77.54,0,0,0-15.28-24.49A76.31,76.31,0,0,0,600.23,6.53a72,72,0,0,0-31-6.53,74.92,74.92,0,0,0-30.71,6.22,77.29,77.29,0,0,0-24.23,16.66A75.83,75.83,0,0,0,498.36,47a73.82,73.82,0,0,0-5.68,28.48,75.26,75.26,0,0,0,5.48,28.25,78,78,0,0,0,15.4,24.37,76.31,76.31,0,0,0,23.83,17.19,72.21,72.21,0,0,0,31,6.53,73.71,73.71,0,0,0,30.68-6.32,78.14,78.14,0,0,0,24.16-16.77,76.64,76.64,0,0,0,15.81-24,72.82,72.82,0,0,0,5.68-28.35A76.26,76.26,0,0,0,639.36,48.31ZM569.19,64.54A11.22,11.22,0,1,1,558,75.74,11.22,11.22,0,0,1,569.19,64.54Zm-56,11.26a55.8,55.8,0,0,1,27.94-48.37l19.63,34a16.62,16.62,0,0,0-8.31,14.39Zm55.86,55.86a55.55,55.55,0,0,1-27.92-7.48l19.63-34a16.58,16.58,0,0,0,16.61,0l19.63,34A55.58,55.58,0,0,1,569.09,131.66ZM585.73,75.8a16.63,16.63,0,0,0-8.32-14.39l19.63-34A55.75,55.75,0,0,1,625,75.8Z"/><path d="M774.19,150.59V71.71l-25.1,55.47H727.16l-25.1-55.47v78.88H660.93V.85h44.93l32.27,70.44L770.61.85h44.71V150.59Z"/><path d="M947.77,114.74v35.85H841.05V.85H945.87V36.7h-63.7V57.79h54.42V91.11H882.17v23.63Z"/><path d="M967,150.59V.85h57.58q18.56,0,32.69,5.9a67.61,67.61,0,0,1,23.62,16,67.22,67.22,0,0,1,14.34,23.73,85.82,85.82,0,0,1,4.85,29,84.47,84.47,0,0,1-5.38,30.9A66.8,66.8,0,0,1,1079.37,130a68.41,68.41,0,0,1-23.83,15.18,85.29,85.29,0,0,1-31,5.38Zm91.32-75.08A51.06,51.06,0,0,0,1056,59.69a35.36,35.36,0,0,0-6.64-12.23,30,30,0,0,0-10.65-7.91,34,34,0,0,0-14.13-2.85h-16.45v78h16.45a33.37,33.37,0,0,0,14.34-3,29.76,29.76,0,0,0,10.65-8.22,36.25,36.25,0,0,0,6.54-12.45A52.8,52.8,0,0,0,1058.28,75.51Z"/><path d="M15.21,194a5.93,5.93,0,0,1-2.31,5,10,10,0,0,1-6.28,1.79A15.72,15.72,0,0,1,0,199.66V197a17.05,17.05,0,0,0,3.24,1,17.26,17.26,0,0,0,3.47.36A7,7,0,0,0,11,197.24a3.49,3.49,0,0,0,1.42-3,3.88,3.88,0,0,0-.5-2.06,4.74,4.74,0,0,0-1.69-1.48,24.62,24.62,0,0,0-3.6-1.54,11.48,11.48,0,0,1-4.82-2.86A6.33,6.33,0,0,1,.31,182a5.37,5.37,0,0,1,2.11-4.45A8.65,8.65,0,0,1,8,175.91a16.23,16.23,0,0,1,6.63,1.33l-.87,2.44a15.15,15.15,0,0,0-5.82-1.25,5.68,5.68,0,0,0-3.49.95,3.17,3.17,0,0,0-1.26,2.67,4.08,4.08,0,0,0,.46,2.06,4.41,4.41,0,0,0,1.57,1.47,19,19,0,0,0,3.36,1.48A13.15,13.15,0,0,1,13.78,190,5.7,5.7,0,0,1,15.21,194Z"/><path d="M33.64,200.44H20.16V176.26H33.64v2.5H23v7.79H33V189H23v8.89H33.64Z"/><path d="M49.63,187.77h8.22v11.76a26.29,26.29,0,0,1-3.9.92,28.52,28.52,0,0,1-4.6.32q-5.49,0-8.55-3.27t-3.06-9.15a13.81,13.81,0,0,1,1.51-6.61,10.24,10.24,0,0,1,4.36-4.33,14.1,14.1,0,0,1,6.66-1.5,18.16,18.16,0,0,1,7.21,1.43l-1.09,2.48a16,16,0,0,0-6.3-1.39,9,9,0,0,0-6.89,2.63,10.16,10.16,0,0,0-2.48,7.29c0,3.26.79,5.74,2.39,7.42s3.93,2.53,7,2.53a20.68,20.68,0,0,0,4.91-.58v-7.44H49.63Z"/><path d="M81.91,176.26V191.9a8.53,8.53,0,0,1-2.5,6.51,9.59,9.59,0,0,1-6.86,2.36,9.21,9.21,0,0,1-6.76-2.38,8.85,8.85,0,0,1-2.39-6.55V176.26h2.82V192a6.2,6.2,0,0,0,1.65,4.64,6.62,6.62,0,0,0,4.86,1.62,6.44,6.44,0,0,0,4.71-1.62A6.25,6.25,0,0,0,79.1,192V176.26Z"/><path d="M91.12,190.38v10.06H88.31V176.26h6.63q4.45,0,6.58,1.7a6.21,6.21,0,0,1,2.12,5.13q0,4.8-4.86,6.48l6.56,10.87H102l-5.85-10.06Zm0-2.41H95a6.68,6.68,0,0,0,4.36-1.18,4.39,4.39,0,0,0,1.39-3.55,4.05,4.05,0,0,0-1.41-3.46,7.7,7.7,0,0,0-4.54-1.06H91.12Z"/><path d="M109.25,200.44V176.26h2.81v24.18Z"/><path d="M138,188.12q0,6-3.25,9.15t-9.35,3.17h-6.7V176.26h7.41q5.64,0,8.76,3.12T138,188.12Zm-3,.1c0-3.16-.79-5.53-2.37-7.13s-3.94-2.4-7.06-2.4H121.5V198h3.42c3.36,0,5.87-.83,7.56-2.47S135,191.45,135,188.22Z"/><path d="M158.58,200.44l-3-7.69h-9.69l-3,7.69h-2.84l9.56-24.28H152l9.51,24.28Zm-3.89-10.22-2.81-7.49c-.36-.95-.74-2.11-1.12-3.49a31.43,31.43,0,0,1-1,3.49l-2.84,7.49Z"/><path d="M184.11,188.12q0,6-3.25,9.15t-9.35,3.17h-6.7V176.26h7.41q5.64,0,8.77,3.12T184.11,188.12Zm-3,.1c0-3.16-.79-5.53-2.38-7.13s-3.93-2.4-7-2.4h-4.08V198h3.42c3.35,0,5.87-.83,7.56-2.47S181.14,191.45,181.14,188.22Z"/><path d="M204.45,188.35l6.45-12.09h3l-8.07,14.8v9.38H203v-9.25L195,176.26h3.07Z"/><path d="M241.4,183.31a6.76,6.76,0,0,1-2.51,5.64q-2.5,2-7.17,2h-2.84v9.51h-2.81V176.26h6.26Q241.4,176.26,241.4,183.31Zm-12.52,5.21h2.53c2.49,0,4.29-.41,5.41-1.21a4.47,4.47,0,0,0,1.67-3.87,4.18,4.18,0,0,0-1.57-3.57,8.17,8.17,0,0,0-4.9-1.18h-3.14Z"/><path d="M249.27,190.38v10.06h-2.81V176.26h6.63q4.46,0,6.57,1.7a6.18,6.18,0,0,1,2.13,5.13q0,4.8-4.86,6.48l6.56,10.87h-3.32l-5.86-10.06Zm0-2.41h3.85a6.71,6.71,0,0,0,4.37-1.18,4.39,4.39,0,0,0,1.39-3.55,4.05,4.05,0,0,0-1.41-3.46,7.74,7.74,0,0,0-4.55-1.06h-3.65Z"/><path d="M288.38,188.32q0,5.81-2.93,9.13a10.35,10.35,0,0,1-8.17,3.32c-3.56,0-6.3-1.09-8.24-3.27s-2.9-5.25-2.9-9.22,1-7,2.91-9.15,4.7-3.25,8.27-3.25a10.27,10.27,0,0,1,8.13,3.31Q288.39,182.49,288.38,188.32Zm-19.27,0q0,4.91,2.1,7.45a7.41,7.41,0,0,0,6.07,2.53,7.33,7.33,0,0,0,6.07-2.53c1.37-1.68,2.06-4.17,2.06-7.45s-.69-5.72-2.05-7.4a7.28,7.28,0,0,0-6-2.53,7.46,7.46,0,0,0-6.11,2.54Q269.11,183.48,269.11,188.32Z"/><path d="M301.21,200.44H298.4V178.76h-7.65v-2.5h18.12v2.5h-7.66Z"/><path d="M326,200.44H312.51V176.26H326v2.5H315.32v7.79h10V189h-10v8.89H326Z"/><path d="M341.7,178.43a7.88,7.88,0,0,0-6.29,2.65,10.7,10.7,0,0,0-2.31,7.27c0,3.16.74,5.61,2.22,7.33a7.89,7.89,0,0,0,6.34,2.59,21.6,21.6,0,0,0,5.78-.91v2.47a18,18,0,0,1-6.21.94c-3.56,0-6.3-1.08-8.24-3.24s-2.9-5.23-2.9-9.21a14.53,14.53,0,0,1,1.39-6.55,10.1,10.1,0,0,1,4-4.34,12.26,12.26,0,0,1,6.21-1.52,15.07,15.07,0,0,1,6.65,1.39l-1.19,2.42A12.81,12.81,0,0,0,341.7,178.43Z"/><path d="M363.06,178.43a7.91,7.91,0,0,0-6.29,2.65,10.7,10.7,0,0,0-2.31,7.27c0,3.16.75,5.61,2.23,7.33a7.88,7.88,0,0,0,6.34,2.59,21.48,21.48,0,0,0,5.77-.91v2.47a17.94,17.94,0,0,1-6.2.94q-5.34,0-8.24-3.24t-2.9-9.21a14.53,14.53,0,0,1,1.39-6.55,10,10,0,0,1,4-4.34,12.26,12.26,0,0,1,6.21-1.52,15,15,0,0,1,6.64,1.39l-1.19,2.42A12.78,12.78,0,0,0,363.06,178.43Z"/><path d="M374.08,200.44V176.26h2.81v24.18Z"/><path d="M404.51,188.32q0,5.81-2.94,9.13a10.34,10.34,0,0,1-8.16,3.32q-5.34,0-8.24-3.27t-2.91-9.22q0-5.9,2.91-9.15t8.27-3.25a10.28,10.28,0,0,1,8.14,3.31Q404.51,182.49,404.51,188.32Zm-19.27,0q0,4.91,2.09,7.45a7.43,7.43,0,0,0,6.08,2.53,7.35,7.35,0,0,0,6.07-2.53c1.37-1.68,2-4.17,2-7.45s-.68-5.72-2-7.4a7.31,7.31,0,0,0-6.05-2.53,7.47,7.47,0,0,0-6.11,2.54Q385.25,183.48,385.24,188.32Zm5.85-14.41a28.06,28.06,0,0,0,1.72-2.48,27.41,27.41,0,0,0,1.44-2.53h3.35v.35a24,24,0,0,1-2.17,2.64,24.88,24.88,0,0,1-2.5,2.44h-1.84Z"/><path d="M428.78,200.44h-3.21l-13.21-20.29h-.13c.18,2.38.26,4.56.26,6.55v13.74H409.9V176.26h3.17l13.18,20.21h.13c0-.3-.07-1.25-.14-2.87s-.11-2.77-.09-3.46V176.26h2.63Z"/><path d="M447,190.38v10.06h-2.81V176.26h6.63q4.45,0,6.57,1.7a6.18,6.18,0,0,1,2.13,5.13q0,4.8-4.86,6.48l6.56,10.87h-3.32l-5.86-10.06Zm0-2.41h3.85a6.71,6.71,0,0,0,4.37-1.18,4.42,4.42,0,0,0,1.39-3.55,4,4,0,0,0-1.42-3.46,7.68,7.68,0,0,0-4.54-1.06H447Z"/><path d="M480.37,200.44l-3-7.69h-9.69l-3,7.69h-2.85l9.56-24.28h2.37l9.51,24.28Zm-3.89-10.22-2.81-7.49c-.37-.95-.74-2.11-1.13-3.49a31.23,31.23,0,0,1-1,3.49l-2.84,7.49Z"/><path d="M505.9,188.12q0,6-3.25,9.15t-9.36,3.17H486.6V176.26H494q5.64,0,8.76,3.12C504.85,181.47,505.9,184.38,505.9,188.12Zm-3,.1c0-3.16-.79-5.53-2.37-7.13s-3.94-2.4-7.06-2.4h-4.08V198h3.42c3.35,0,5.87-.83,7.56-2.47S502.92,191.45,502.92,188.22Z"/><path d="M511.29,200.44V176.26h2.81v24.18Z"/><path d="M541.72,188.32q0,5.81-2.94,9.13a10.34,10.34,0,0,1-8.16,3.32q-5.34,0-8.24-3.27t-2.91-9.22q0-5.9,2.91-9.15t8.27-3.25a10.28,10.28,0,0,1,8.14,3.31Q541.72,182.49,541.72,188.32Zm-19.27,0q0,4.91,2.09,7.45a7.43,7.43,0,0,0,6.08,2.53,7.35,7.35,0,0,0,6.07-2.53c1.37-1.68,2-4.17,2-7.45s-.68-5.72-2-7.4a7.31,7.31,0,0,0-6.05-2.53,7.47,7.47,0,0,0-6.11,2.54Q522.45,183.48,522.45,188.32Z"/><path d="M547.11,200.44V176.26h2.81v21.63h10.67v2.55Z"/><path d="M585.67,188.32q0,5.81-2.93,9.13a10.34,10.34,0,0,1-8.16,3.32q-5.34,0-8.25-3.27t-2.9-9.22q0-5.9,2.91-9.15t8.27-3.25a10.29,10.29,0,0,1,8.14,3.31Q585.68,182.49,585.67,188.32Zm-19.26,0c0,3.27.69,5.75,2.09,7.45a8.56,8.56,0,0,0,12.15,0c1.36-1.68,2.05-4.17,2.05-7.45s-.69-5.72-2.05-7.4a7.28,7.28,0,0,0-6-2.53,7.46,7.46,0,0,0-6.11,2.54C567.1,182.63,566.41,185.09,566.41,188.32Zm5.85-14.41c.53-.68,1.1-1.51,1.71-2.48a27.79,27.79,0,0,0,1.45-2.53h3.34v.35a23.76,23.76,0,0,1-2.16,2.64,26,26,0,0,1-2.5,2.44h-1.84Z"/><path d="M601.7,187.77h8.22v11.76a26.29,26.29,0,0,1-3.9.92,28.52,28.52,0,0,1-4.6.32q-5.49,0-8.55-3.27t-3.06-9.15a13.81,13.81,0,0,1,1.51-6.61,10.24,10.24,0,0,1,4.36-4.33,14.07,14.07,0,0,1,6.66-1.5,18.16,18.16,0,0,1,7.21,1.43l-1.09,2.48a16,16,0,0,0-6.3-1.39,9,9,0,0,0-6.89,2.63,10.17,10.17,0,0,0-2.49,7.29c0,3.26.8,5.74,2.39,7.42s3.94,2.53,7,2.53a20.68,20.68,0,0,0,4.91-.58v-7.44H601.7Z"/><path d="M615.72,200.44V176.26h2.82v24.18Z"/><path d="M635.52,178.43a7.88,7.88,0,0,0-6.29,2.65,10.7,10.7,0,0,0-2.31,7.27c0,3.16.74,5.61,2.22,7.33a7.91,7.91,0,0,0,6.34,2.59,21.6,21.6,0,0,0,5.78-.91v2.47a18,18,0,0,1-6.21.94c-3.56,0-6.3-1.08-8.24-3.24s-2.9-5.23-2.9-9.21a14.4,14.4,0,0,1,1.4-6.55,10,10,0,0,1,4-4.34,12.26,12.26,0,0,1,6.21-1.52,15.07,15.07,0,0,1,6.65,1.39L641,179.72A12.81,12.81,0,0,0,635.52,178.43Z"/><path d="M661.73,200.44l-3-7.69H649l-3,7.69h-2.84l9.56-24.28h2.36l9.51,24.28Zm-3.89-10.22L655,182.73c-.36-.95-.74-2.11-1.12-3.49a31.23,31.23,0,0,1-1,3.49L650,190.22Z"/><path d="M690.24,200.44H676.76V176.26h13.48v2.5H679.57v7.79h10V189h-10v8.89h10.67Z"/><path d="M714.49,200.44h-3.21l-13.22-20.29h-.13c.18,2.38.26,4.56.26,6.55v13.74H695.6V176.26h3.17L712,196.47h.14c0-.3-.08-1.25-.15-2.87s-.11-2.77-.09-3.46V176.26h2.64Z"/><path d="M758,188.12q0,6-3.25,9.15t-9.36,3.17h-6.69V176.26h7.41q5.64,0,8.76,3.12C757,181.47,758,184.38,758,188.12Zm-3,.1c0-3.16-.79-5.53-2.37-7.13s-3.94-2.4-7.06-2.4h-4.08V198H745c3.35,0,5.87-.83,7.56-2.47S755.05,191.45,755.05,188.22Z"/><path d="M763.42,200.44V176.26h2.81v24.18Z"/><path d="M788.06,200.44l-3-7.69h-9.69l-3,7.69h-2.84l9.56-24.28h2.36L791,200.44Zm-3.89-10.22-2.81-7.49c-.36-.95-.74-2.11-1.12-3.49a31.43,31.43,0,0,1-1,3.49l-2.84,7.49Z"/><path d="M804.93,187.77h8.22v11.76a26.13,26.13,0,0,1-3.91.92,28.3,28.3,0,0,1-4.59.32q-5.49,0-8.55-3.27T793,188.35a13.81,13.81,0,0,1,1.51-6.61,10.24,10.24,0,0,1,4.36-4.33,14.07,14.07,0,0,1,6.66-1.5,18.19,18.19,0,0,1,7.21,1.43l-1.09,2.48a16,16,0,0,0-6.3-1.39,9,9,0,0,0-6.9,2.63,10.21,10.21,0,0,0-2.48,7.29c0,3.26.8,5.74,2.39,7.42s3.94,2.53,7,2.53a20.68,20.68,0,0,0,4.91-.58v-7.44h-5.41Z"/><path d="M837.84,200.44h-3.21l-13.22-20.29h-.13q.27,3.57.27,6.55v13.74H819V176.26h3.17l13.18,20.21h.14c0-.3-.07-1.25-.15-2.87s-.1-2.77-.08-3.46V176.26h2.63Z"/><path d="M865.47,188.32q0,5.81-2.93,9.13a10.35,10.35,0,0,1-8.17,3.32c-3.56,0-6.3-1.09-8.24-3.27s-2.9-5.25-2.9-9.22,1-7,2.91-9.15,4.7-3.25,8.27-3.25a10.27,10.27,0,0,1,8.13,3.31Q865.48,182.49,865.47,188.32Zm-19.27,0q0,4.91,2.1,7.45a7.41,7.41,0,0,0,6.07,2.53,7.33,7.33,0,0,0,6.07-2.53c1.37-1.68,2.06-4.17,2.06-7.45s-.69-5.72-2-7.4a7.28,7.28,0,0,0-6-2.53,7.46,7.46,0,0,0-6.11,2.54Q846.2,183.48,846.2,188.32Zm5.86-14.41c.53-.68,1.1-1.51,1.71-2.48s1.09-1.81,1.45-2.53h3.34v.35a24,24,0,0,1-2.17,2.64,24.88,24.88,0,0,1-2.5,2.44h-1.83Z"/><path d="M884.51,194a5.94,5.94,0,0,1-2.32,5,10,10,0,0,1-6.28,1.79,15.75,15.75,0,0,1-6.62-1.11V197a17.05,17.05,0,0,0,3.24,1,17.28,17.28,0,0,0,3.48.36,7,7,0,0,0,4.23-1.06,3.49,3.49,0,0,0,1.42-3,3.88,3.88,0,0,0-.5-2.06,4.74,4.74,0,0,0-1.69-1.48,24.62,24.62,0,0,0-3.6-1.54,11.48,11.48,0,0,1-4.82-2.86,6.32,6.32,0,0,1-1.44-4.31,5.36,5.36,0,0,1,2.1-4.45,8.67,8.67,0,0,1,5.55-1.66,16.23,16.23,0,0,1,6.63,1.33l-.87,2.44a15.15,15.15,0,0,0-5.82-1.25,5.7,5.7,0,0,0-3.49.95,3.17,3.17,0,0,0-1.26,2.67,4.19,4.19,0,0,0,.46,2.06,4.41,4.41,0,0,0,1.57,1.47,19,19,0,0,0,3.36,1.48,13.28,13.28,0,0,1,5.24,2.91A5.75,5.75,0,0,1,884.51,194Z"/><path d="M896.89,200.44h-2.81V178.76h-7.66v-2.5h18.13v2.5h-7.66Z"/><path d="M908.19,200.44V176.26H911v24.18Z"/><path d="M928,178.43a7.91,7.91,0,0,0-6.29,2.65,10.7,10.7,0,0,0-2.31,7.27c0,3.16.74,5.61,2.23,7.33a7.88,7.88,0,0,0,6.34,2.59,21.48,21.48,0,0,0,5.77-.91v2.47a18,18,0,0,1-6.2.94q-5.34,0-8.24-3.24t-2.91-9.21a14.53,14.53,0,0,1,1.4-6.55,10,10,0,0,1,4-4.34,12.26,12.26,0,0,1,6.21-1.52,15,15,0,0,1,6.64,1.39l-1.19,2.42A12.81,12.81,0,0,0,928,178.43Z"/><path d="M960,188.32q0,5.81-2.93,9.13a10.35,10.35,0,0,1-8.17,3.32c-3.56,0-6.3-1.09-8.24-3.27s-2.9-5.25-2.9-9.22,1-7,2.91-9.15,4.7-3.25,8.27-3.25a10.27,10.27,0,0,1,8.13,3.31Q960,182.49,960,188.32Zm-19.27,0q0,4.91,2.1,7.45a7.41,7.41,0,0,0,6.07,2.53,7.33,7.33,0,0,0,6.07-2.53c1.37-1.68,2.06-4.17,2.06-7.45s-.69-5.72-2-7.4a7.28,7.28,0,0,0-6-2.53,7.46,7.46,0,0,0-6.11,2.54Q940.71,183.48,940.71,188.32Z"/><path d="M984.87,200.44,976.67,179h-.13c.15,1.7.23,3.71.23,6.05v15.38h-2.6V176.26h4.24l7.65,20h.13l7.73-20h4.2v24.18h-2.81V184.86q0-2.69.23-5.82h-.13l-8.27,21.4Z"/><path d="M1018.23,200.44h-13.48V176.26h13.48v2.5h-10.67v7.79h10V189h-10v8.89h10.67ZM1009,173.91c.52-.68,1.1-1.51,1.71-2.48a27.41,27.41,0,0,0,1.44-2.53h3.35v.35a24,24,0,0,1-2.17,2.64,24.88,24.88,0,0,1-2.5,2.44H1009Z"/><path d="M1042.89,188.12q0,6-3.25,9.15t-9.36,3.17h-6.69V176.26h7.4q5.65,0,8.77,3.12C1041.84,181.47,1042.89,184.38,1042.89,188.12Zm-3,.1c0-3.16-.79-5.53-2.37-7.13s-3.94-2.4-7.06-2.4h-4.08V198h3.42c3.35,0,5.87-.83,7.56-2.47S1039.91,191.45,1039.91,188.22Z"/><path d="M1048.28,200.44V176.26h2.81v24.18Z"/><path d="M1068.07,178.43a7.88,7.88,0,0,0-6.29,2.65,10.7,10.7,0,0,0-2.31,7.27c0,3.16.74,5.61,2.22,7.33a7.91,7.91,0,0,0,6.35,2.59,21.54,21.54,0,0,0,5.77-.91v2.47a18,18,0,0,1-6.2.94q-5.34,0-8.25-3.24t-2.9-9.21a14.53,14.53,0,0,1,1.4-6.55,10.08,10.08,0,0,1,4-4.34,12.26,12.26,0,0,1,6.21-1.52,15,15,0,0,1,6.65,1.39l-1.19,2.42A12.81,12.81,0,0,0,1068.07,178.43Z"/><path d="M1100.07,188.32q0,5.81-2.93,9.13a10.35,10.35,0,0,1-8.17,3.32c-3.56,0-6.3-1.09-8.24-3.27s-2.9-5.25-2.9-9.22,1-7,2.91-9.15,4.7-3.25,8.27-3.25a10.27,10.27,0,0,1,8.13,3.31Q1100.08,182.49,1100.07,188.32Zm-19.27,0q0,4.91,2.1,7.45a7.41,7.41,0,0,0,6.07,2.53,7.33,7.33,0,0,0,6.07-2.53c1.37-1.68,2.06-4.17,2.06-7.45s-.69-5.72-2-7.4a7.28,7.28,0,0,0-6-2.53,7.46,7.46,0,0,0-6.11,2.54Q1080.8,183.48,1080.8,188.32Z"/></svg>