<?xml version="1.0" encoding="utf-8"?>
<!-- Generator: Adobe Illustrator 25.2.3, SVG Export Plug-In . SVG Version: 6.00 Build 0)  -->
<svg version="1.1" id="Capa_1" xmlns="http://www.w3.org/2000/svg" xmlns:xlink="http://www.w3.org/1999/xlink" x="0px" y="0px"
	 viewBox="0 0 442.8 212.7" style="enable-background:new 0 0 442.8 212.7;" xml:space="preserve">
<style type="text/css">
	.st0{fill:#2F2F2F;}
	.st1{fill:#303030;}
	.st2{fill:#4C4D4D;}
	.st3{fill:#303030;stroke:#303030;stroke-width:0.5;stroke-miterlimit:10;}
	.st4{fill:#25C4C7;}
	.st5{fill:#2F2F2F;stroke:#FFFFFF;stroke-width:0.25;stroke-miterlimit:10;}
	.st6{fill:#25C4C7;stroke:#25C4C7;stroke-width:0.5;stroke-miterlimit:10;}
	.st7{fill:#2F2F2F;stroke:#FFFFFF;stroke-miterlimit:10;}
	.st8{fill:#25C4C7;stroke:#25C4C7;stroke-width:1.075;stroke-miterlimit:10;}
	.st9{fill-rule:evenodd;clip-rule:evenodd;fill:#303030;stroke:#FFFFFF;stroke-width:0.1;stroke-miterlimit:10;}
	.st10{fill-rule:evenodd;clip-rule:evenodd;fill:#25C4C7;stroke:#25C4C7;stroke-width:0.1003;stroke-miterlimit:10;}
	.st11{fill-rule:evenodd;clip-rule:evenodd;fill:#303030;}
	.st12{fill:#303030;stroke:#FFFDFE;stroke-width:0.5349;stroke-miterlimit:10;}
	.st13{fill:#25C4C7;stroke:#25C4C7;stroke-width:0.3292;stroke-miterlimit:10;}
	.st14{fill:#303030;stroke:#25C4C7;stroke-width:0.2675;stroke-miterlimit:10;}
</style>
<g>
	<g>
		<path class="st0" d="M32.7,31.5c0,0.4,0,0.8-0.1,1.2c0,0.4-0.1,0.7-0.3,1.1c-0.1,0.3-0.4,0.7-0.7,1c-0.3,0.3-0.7,0.6-1.2,0.9
			c-0.2,0.1-0.5,0.3-0.9,0.4c-0.4,0.2-0.8,0.4-1.1,0.7c-0.4,0.3-0.7,0.6-1,0.9C27.1,38,27,38.4,27,38.8c0,0.4,0.2,0.8,0.5,1
			c0.3,0.3,0.7,0.4,1.2,0.4c0.3,0,0.6-0.1,0.9-0.2c0.2-0.1,0.5-0.3,0.6-0.5c0.2-0.2,0.3-0.4,0.4-0.6c0.1-0.2,0.2-0.4,0.4-0.5
			l3.4,2.4c-0.5,1.1-1.3,2-2.3,2.7c-1,0.6-2.2,1-3.6,1c-0.7,0-1.4-0.1-2.2-0.3s-1.4-0.5-2-1c-0.6-0.4-1.1-1-1.4-1.8
			c-0.4-0.7-0.5-1.6-0.5-2.7c0-0.9,0.2-1.7,0.5-2.5c0.3-0.7,0.9-1.4,1.8-1.9c0.4-0.3,0.8-0.5,1.3-0.7c0.4-0.2,0.8-0.4,1.2-0.6
			c0.4-0.2,0.7-0.4,0.9-0.6c0.2-0.2,0.4-0.5,0.4-0.8h4.2V31.5z M32.6,24.2v4.6h-4.3v-4.6H32.6z"/>
		<path class="st0" d="M35.9,28.3c0-1.2,0.2-2.4,0.7-3.6s1.1-2.2,2-3.2c0.9-0.9,1.9-1.7,3.2-2.3c1.3-0.6,2.7-0.9,4.3-0.9
			c1.9,0,3.6,0.4,5,1.2c1.4,0.8,2.5,1.8,3.2,3.1l-4.2,3c-0.2-0.5-0.4-0.9-0.7-1.2c-0.3-0.3-0.6-0.6-1-0.8c-0.4-0.2-0.8-0.3-1.2-0.4
			s-0.8-0.1-1.2-0.1c-0.8,0-1.5,0.2-2,0.5c-0.6,0.3-1,0.7-1.4,1.2s-0.6,1.1-0.8,1.7s-0.3,1.2-0.3,1.9c0,0.7,0.1,1.4,0.3,2
			s0.5,1.2,0.9,1.7s0.9,0.9,1.4,1.2c0.6,0.3,1.2,0.4,1.9,0.4c0.4,0,0.8,0,1.1-0.1c0.4-0.1,0.8-0.2,1.1-0.4c0.4-0.2,0.7-0.4,1-0.8
			s0.5-0.7,0.7-1.1l4.5,2.7c-0.3,0.7-0.8,1.4-1.4,2c-0.6,0.6-1.3,1.1-2.1,1.5s-1.6,0.7-2.5,0.9s-1.8,0.3-2.6,0.3
			c-1.5,0-2.8-0.3-4-0.9s-2.3-1.4-3.2-2.3s-1.6-2.1-2.1-3.3C36.2,30.8,35.9,29.5,35.9,28.3z"/>
		<path class="st0" d="M65,38.6c-1.5,0-2.9-0.3-4.1-0.9c-1.2-0.6-2.3-1.3-3.2-2.3c-0.9-0.9-1.6-2-2-3.2C55.2,31,55,29.7,55,28.4
			c0-1.3,0.3-2.6,0.8-3.8c0.5-1.2,1.2-2.3,2.1-3.2c0.9-0.9,2-1.7,3.2-2.2c1.2-0.6,2.6-0.8,4.1-0.8s2.9,0.3,4.1,0.9s2.3,1.3,3.2,2.3
			c0.9,1,1.6,2,2,3.2c0.5,1.2,0.7,2.5,0.7,3.7c0,1.3-0.3,2.6-0.8,3.8c-0.5,1.2-1.2,2.3-2.1,3.2s-2,1.7-3.2,2.2
			C67.8,38.3,66.5,38.6,65,38.6z M60.5,28.5c0,0.7,0.1,1.3,0.3,1.9s0.5,1.2,0.8,1.7c0.3,0.5,0.8,0.9,1.4,1.2c0.6,0.3,1.2,0.4,2,0.4
			s1.5-0.2,2-0.5c0.6-0.3,1-0.7,1.4-1.2s0.6-1.1,0.8-1.7c0.2-0.6,0.3-1.3,0.3-1.9c0-0.7-0.1-1.3-0.3-1.9c-0.2-0.6-0.5-1.2-0.9-1.7
			s-0.9-0.9-1.4-1.1c-0.6-0.3-1.2-0.4-2-0.4s-1.5,0.1-2,0.4c-0.6,0.3-1,0.7-1.4,1.2s-0.6,1.1-0.8,1.7C60.6,27.2,60.5,27.8,60.5,28.5
			z"/>
		<path class="st0" d="M92.5,38.4V27.9l-3.3,7.4h-2.9L83,27.9v10.5h-5.5V18.5h6l4.3,9.4l4.3-9.4H98v19.9H92.5z"/>
		<path class="st0" d="M110.3,38.6c-1.5,0-2.9-0.3-4.1-0.9c-1.2-0.6-2.3-1.3-3.2-2.3c-0.9-0.9-1.6-2-2-3.2c-0.5-1.2-0.7-2.5-0.7-3.8
			s0.3-2.6,0.8-3.8c0.5-1.2,1.2-2.3,2.1-3.2c0.9-0.9,2-1.7,3.2-2.2c1.2-0.6,2.6-0.8,4.1-0.8s2.9,0.3,4.1,0.9s2.3,1.3,3.2,2.3
			c0.9,1,1.6,2,2,3.2c0.5,1.2,0.7,2.5,0.7,3.7c0,1.3-0.3,2.6-0.8,3.8s-1.2,2.3-2.1,3.2s-2,1.7-3.2,2.2
			C113.2,38.3,111.8,38.6,110.3,38.6z M105.8,28.5c0,0.7,0.1,1.3,0.3,1.9s0.5,1.2,0.8,1.7c0.3,0.5,0.8,0.9,1.4,1.2s1.2,0.4,2,0.4
			s1.5-0.2,2-0.5c0.6-0.3,1-0.7,1.4-1.2s0.6-1.1,0.8-1.7c0.2-0.6,0.3-1.3,0.3-1.9c0-0.7-0.1-1.3-0.3-1.9c-0.2-0.6-0.5-1.2-0.9-1.7
			s-0.9-0.9-1.4-1.1c-0.6-0.3-1.2-0.4-2-0.4s-1.5,0.1-2,0.4c-0.6,0.3-1,0.7-1.4,1.2s-0.6,1.1-0.8,1.7
			C105.9,27.2,105.8,27.8,105.8,28.5z"/>
		<path class="st0" d="M129.1,38.4V18.5h9.1c1,0,1.9,0.2,2.7,0.6s1.5,0.9,2.1,1.6c0.6,0.6,1,1.4,1.4,2.2c0.3,0.8,0.5,1.7,0.5,2.5
			c0,1.2-0.3,2.2-0.8,3.2s-1.2,1.8-2.1,2.4l4.2,7.3H140l-3.5-6.1h-2v6.1L129.1,38.4L129.1,38.4z M134.6,27.5h3.4
			c0.3,0,0.6-0.2,0.9-0.6s0.4-0.9,0.4-1.6s-0.2-1.2-0.5-1.6s-0.7-0.5-1-0.5h-3.3v4.3H134.6z"/>
		<path class="st0" d="M162.2,33.6v4.8H148V18.5h13.9v4.8h-8.5v2.8h7.2v4.4h-7.2v3.1H162.2z"/>
		<path class="st0" d="M169.9,18.5h5l6.9,19.9h-5.5l-1.2-3.9h-5.3l-1.2,3.9H163L169.9,18.5z M174.1,30.9l-1.8-6.2l-1.8,6.2
			C170.5,30.9,174.1,30.9,174.1,30.9z"/>
		<path class="st0" d="M183.4,38.4V18.5h5.5v15.1h9v4.8C197.9,38.4,183.4,38.4,183.4,38.4z"/>
		<path class="st0" d="M199.8,38.4V18.5h5.5v19.9H199.8z"/>
		<path class="st0" d="M207.7,34.3l9.3-11.1h-8.9v-4.8h15.2v4.1l-8.7,11.1h8.9v4.8h-15.8V34.3z"/>
		<path class="st0" d="M234.7,38.6c-1.5,0-2.9-0.3-4.1-0.9c-1.2-0.6-2.3-1.3-3.2-2.3c-0.9-0.9-1.6-2-2-3.2c-0.5-1.2-0.7-2.5-0.7-3.8
			s0.3-2.6,0.8-3.8c0.5-1.2,1.2-2.3,2.1-3.2c0.9-0.9,2-1.7,3.2-2.2c1.2-0.6,2.6-0.8,4.1-0.8s2.9,0.3,4.1,0.9
			c1.2,0.6,2.3,1.3,3.2,2.3s1.6,2,2,3.2c0.5,1.2,0.7,2.5,0.7,3.7c0,1.3-0.3,2.6-0.8,3.8s-1.2,2.3-2.1,3.2s-2,1.7-3.2,2.2
			S236.2,38.6,234.7,38.6z M230.2,28.5c0,0.7,0.1,1.3,0.3,1.9s0.5,1.2,0.8,1.7c0.4,0.5,0.8,0.9,1.4,1.2c0.6,0.3,1.2,0.4,2,0.4
			s1.5-0.2,2-0.5c0.6-0.3,1-0.7,1.4-1.2s0.6-1.1,0.8-1.7s0.3-1.3,0.3-1.9c0-0.7-0.1-1.3-0.3-1.9s-0.5-1.2-0.9-1.7s-0.9-0.9-1.4-1.1
			s-1.2-0.4-2-0.4s-1.5,0.1-2,0.4c-0.6,0.3-1,0.7-1.4,1.2s-0.6,1.1-0.8,1.7C230.3,27.2,230.2,27.8,230.2,28.5z"/>
		<path class="st0" d="M268.5,38.4V27.9l-3.3,7.4h-2.9l-3.3-7.4v10.5h-5.5V18.5h6l4.3,9.4l4.3-9.4h5.9v19.9H268.5z"/>
		<path class="st0" d="M277.4,38.4V18.5h5.5v19.9H277.4z"/>
		<path class="st0" d="M291.5,28.3c0-1.2,0.2-2.4,0.7-3.6s1.1-2.2,2-3.2c0.9-0.9,1.9-1.7,3.2-2.3c1.3-0.6,2.7-0.9,4.3-0.9
			c1.9,0,3.6,0.4,5,1.2c1.4,0.8,2.5,1.8,3.2,3.1l-4.2,3c-0.2-0.5-0.4-0.9-0.7-1.2c-0.3-0.3-0.6-0.6-1-0.8c-0.4-0.2-0.8-0.3-1.2-0.4
			c-0.4-0.1-0.8-0.1-1.2-0.1c-0.8,0-1.5,0.2-2,0.5c-0.6,0.3-1,0.7-1.4,1.2s-0.6,1.1-0.8,1.7c-0.2,0.6-0.3,1.2-0.3,1.9
			c0,0.7,0.1,1.4,0.3,2c0.2,0.6,0.5,1.2,0.9,1.7s0.9,0.9,1.4,1.2c0.6,0.3,1.2,0.4,1.9,0.4c0.4,0,0.8,0,1.1-0.1
			c0.4-0.1,0.8-0.2,1.1-0.4c0.4-0.2,0.7-0.4,1-0.8c0.3-0.3,0.5-0.7,0.7-1.1L310,34c-0.3,0.7-0.8,1.4-1.4,2s-1.3,1.1-2.1,1.5
			c-0.8,0.4-1.6,0.7-2.5,0.9s-1.8,0.3-2.6,0.3c-1.5,0-2.8-0.3-4-0.9s-2.3-1.4-3.2-2.3s-1.6-2.1-2.1-3.3
			C291.7,30.8,291.5,29.5,291.5,28.3z"/>
		<path class="st0" d="M320.6,38.6c-1.5,0-2.9-0.3-4.1-0.9c-1.2-0.6-2.3-1.3-3.2-2.3c-0.9-0.9-1.6-2-2-3.2c-0.5-1.2-0.7-2.5-0.7-3.8
			s0.3-2.6,0.8-3.8c0.5-1.2,1.2-2.3,2.1-3.2c0.9-0.9,2-1.7,3.2-2.2c1.2-0.6,2.6-0.8,4.1-0.8s2.9,0.3,4.1,0.9s2.3,1.3,3.2,2.3
			c0.9,1,1.6,2,2,3.2c0.5,1.2,0.7,2.5,0.7,3.7c0,1.3-0.3,2.6-0.8,3.8s-1.2,2.3-2.1,3.2s-2,1.7-3.2,2.2S322,38.6,320.6,38.6z
			 M316.1,28.5c0,0.7,0.1,1.3,0.3,1.9s0.5,1.2,0.8,1.7c0.4,0.5,0.8,0.9,1.4,1.2s1.2,0.4,2,0.4s1.5-0.2,2-0.5c0.6-0.3,1-0.7,1.4-1.2
			s0.6-1.1,0.8-1.7c0.2-0.6,0.3-1.3,0.3-1.9c0-0.7-0.1-1.3-0.3-1.9c-0.2-0.6-0.5-1.2-0.9-1.7s-0.9-0.9-1.4-1.1s-1.2-0.4-2-0.4
			s-1.5,0.1-2,0.4c-0.6,0.3-1,0.7-1.4,1.2s-0.6,1.1-0.8,1.7S316.1,27.8,316.1,28.5z"/>
		<path class="st0" d="M348.1,38.4V27.9l-3.3,7.4h-2.9l-3.3-7.4v10.5H333V18.5h6l4.3,9.4l4.3-9.4h5.9v19.9H348.1z"/>
		<path class="st0" d="M356.9,38.4V18.5h8.6c1,0,1.9,0.2,2.7,0.6s1.5,0.9,2.1,1.6s1,1.4,1.4,2.2c0.3,0.8,0.5,1.7,0.5,2.5
			c0,0.9-0.2,1.7-0.5,2.6c-0.3,0.8-0.8,1.6-1.3,2.2c-0.6,0.6-1.3,1.2-2.1,1.5c-0.8,0.4-1.7,0.6-2.7,0.6h-3.2v6.1H356.9z M362.4,27.5
			h2.9c0.3,0,0.6-0.2,0.9-0.5s0.4-0.9,0.4-1.7c0-0.8-0.2-1.4-0.5-1.7c-0.3-0.3-0.7-0.4-1-0.4h-2.7L362.4,27.5L362.4,27.5z"/>
		<path class="st0" d="M374.4,38.4V18.5h9.1c1,0,1.9,0.2,2.7,0.6c0.8,0.4,1.5,0.9,2.1,1.6c0.6,0.6,1,1.4,1.4,2.2
			c0.3,0.8,0.5,1.7,0.5,2.5c0,1.2-0.3,2.2-0.8,3.2s-1.2,1.8-2.1,2.4l4.2,7.3h-6.2l-3.5-6.1h-2v6.1L374.4,38.4L374.4,38.4z
			 M379.8,27.5h3.4c0.3,0,0.6-0.2,0.9-0.6s0.4-0.9,0.4-1.6s-0.2-1.2-0.5-1.6s-0.7-0.5-1-0.5h-3.3v4.3H379.8z"/>
		<path class="st0" d="M398.4,18.5h5l6.9,19.9h-5.5l-1.2-3.9h-5.3l-1.2,3.9h-5.6L398.4,18.5z M402.7,30.9l-1.8-6.2l-1.8,6.2
			C399.1,30.9,402.7,30.9,402.7,30.9z"/>
		<path class="st0" d="M412.9,31.1c0-0.4,0-0.8,0.1-1.2c0-0.4,0.1-0.7,0.3-1.1c0.1-0.3,0.4-0.7,0.7-1c0.3-0.3,0.7-0.6,1.2-0.9
			c0.2-0.1,0.5-0.3,0.9-0.4c0.4-0.2,0.8-0.4,1.1-0.7s0.7-0.6,1-0.9s0.4-0.7,0.4-1.1s-0.2-0.8-0.5-1c-0.3-0.3-0.7-0.4-1.2-0.4
			c-0.3,0-0.6,0.1-0.9,0.2c-0.2,0.1-0.5,0.3-0.6,0.5s-0.3,0.4-0.4,0.6s-0.2,0.4-0.3,0.5l-3.4-2.4c0.5-1.1,1.2-2,2.3-2.7
			c1-0.6,2.2-1,3.6-1c0.7,0,1.4,0.1,2.2,0.3c0.7,0.2,1.4,0.5,2,1c0.6,0.4,1.1,1,1.4,1.8s0.5,1.6,0.5,2.7c0,0.9-0.2,1.7-0.5,2.4
			c-0.3,0.7-0.9,1.4-1.8,1.9c-0.4,0.3-0.8,0.5-1.3,0.7c-0.4,0.2-0.8,0.4-1.2,0.6c-0.4,0.2-0.7,0.4-0.9,0.6c-0.2,0.2-0.3,0.5-0.3,0.8
			h-4.4V31.1z M413,38.4v-4.6h4.3v4.6H413z"/>
	</g>
	<g>
		<g>
			<path class="st1" d="M33.4,123.4c0,0.8-0.2,1.4-0.7,1.8s-1.2,0.6-2,0.6H30v2.5h-1.5v-7.1h2.3c0.9,0,1.5,0.2,2,0.6
				C33.2,122.1,33.4,122.7,33.4,123.4z M30,124.6h0.5c0.5,0,0.8-0.1,1-0.3c0.2-0.2,0.3-0.5,0.3-0.8c0-0.4-0.1-0.6-0.3-0.8
				c-0.2-0.2-0.5-0.3-0.9-0.3H30V124.6z"/>
			<path class="st1" d="M39.2,128.3l-0.5-1.7H36l-0.5,1.7h-1.6l2.5-7.2h1.9l2.5,7.2H39.2z M38.3,125.4c-0.5-1.5-0.7-2.4-0.8-2.6
				s-0.1-0.4-0.1-0.5c-0.1,0.4-0.4,1.4-0.9,3.1H38.3z"/>
			<path class="st1" d="M45.9,126.4c0,0.6-0.2,1.2-0.7,1.5c-0.5,0.4-1.1,0.6-1.9,0.6c-0.8,0-1.4-0.1-2-0.4v-1.4
				c0.5,0.2,0.9,0.4,1.2,0.5s0.6,0.1,0.9,0.1c0.3,0,0.6-0.1,0.8-0.2s0.3-0.3,0.3-0.6c0-0.1,0-0.3-0.1-0.4s-0.2-0.2-0.3-0.3
				c-0.2-0.1-0.5-0.3-0.9-0.5s-0.8-0.4-1-0.6s-0.4-0.4-0.5-0.7s-0.2-0.5-0.2-0.9c0-0.6,0.2-1.1,0.6-1.5c0.4-0.4,1-0.5,1.8-0.5
				c0.4,0,0.7,0,1.1,0.1c0.3,0.1,0.7,0.2,1.1,0.4l-0.5,1.2c-0.4-0.2-0.7-0.3-0.9-0.3c-0.2-0.1-0.5-0.1-0.7-0.1
				c-0.3,0-0.5,0.1-0.7,0.2s-0.2,0.3-0.2,0.5c0,0.1,0,0.2,0.1,0.3c0.1,0.1,0.2,0.2,0.3,0.3c0.1,0.1,0.5,0.3,1,0.5
				c0.7,0.3,1.1,0.6,1.4,1C45.8,125.5,45.9,125.9,45.9,126.4z"/>
			<path class="st1" d="M53.7,124.8c0,1.2-0.3,2.1-0.9,2.7c-0.6,0.6-1.4,1-2.5,1s-1.9-0.3-2.5-1s-0.9-1.5-0.9-2.7s0.3-2.1,0.9-2.7
				c0.6-0.6,1.4-0.9,2.5-0.9s1.9,0.3,2.5,0.9C53.4,122.7,53.7,123.6,53.7,124.8z M48.5,124.8c0,0.8,0.2,1.4,0.5,1.8s0.8,0.6,1.4,0.6
				c1.2,0,1.8-0.8,1.8-2.4s-0.6-2.4-1.8-2.4c-0.6,0-1.1,0.2-1.4,0.6C48.6,123.4,48.5,124,48.5,124.8z"/>
			<path class="st1" d="M61,128.3h-1.5v-4.1v-0.7v-0.7c-0.3,0.3-0.4,0.4-0.5,0.5l-0.8,0.7l-0.7-0.9l2.3-1.8H61V128.3z"/>
		</g>
	</g>
	<g>
		<g>
			<path class="st2" d="M25.8,144.7l-0.9-2.3H22l-0.9,2.3h-0.8l2.8-7.2h0.7l2.8,7.2H25.8z M24.6,141.7l-0.8-2.2
				c-0.1-0.3-0.2-0.6-0.3-1c-0.1,0.3-0.2,0.7-0.3,1l-0.8,2.2H24.6z"/>
			<path class="st2" d="M31.9,139.4v0.5l-1,0.1c0.1,0.1,0.2,0.3,0.2,0.4c0.1,0.2,0.1,0.4,0.1,0.6c0,0.5-0.2,0.9-0.5,1.3
				s-0.8,0.5-1.5,0.5c-0.2,0-0.3,0-0.4,0c-0.3,0.2-0.5,0.4-0.5,0.7c0,0.1,0.1,0.3,0.2,0.3c0.1,0.1,0.3,0.1,0.6,0.1H30
				c0.6,0,1,0.1,1.3,0.4c0.3,0.2,0.5,0.6,0.5,1.1c0,0.6-0.2,1-0.7,1.4c-0.5,0.3-1.2,0.5-2.1,0.5c-0.7,0-1.2-0.1-1.6-0.4
				c-0.4-0.3-0.6-0.6-0.6-1.1c0-0.3,0.1-0.6,0.3-0.8s0.5-0.4,0.9-0.5c-0.1-0.1-0.3-0.2-0.3-0.3c-0.1-0.1-0.1-0.3-0.1-0.5
				s0.1-0.4,0.2-0.5s0.3-0.3,0.5-0.4c-0.3-0.1-0.5-0.3-0.7-0.6s-0.3-0.6-0.3-0.9c0-0.6,0.2-1,0.5-1.4c0.4-0.3,0.8-0.5,1.5-0.5
				c0.3,0,0.5,0,0.8,0.1h1.8V139.4z M27.6,145.6c0,0.3,0.1,0.5,0.4,0.7s0.6,0.2,1,0.2c0.7,0,1.2-0.1,1.5-0.3s0.5-0.5,0.5-0.8
				s-0.1-0.5-0.3-0.6c-0.2-0.1-0.5-0.2-1-0.2h-1c-0.4,0-0.7,0.1-0.9,0.3S27.6,145.3,27.6,145.6z M28,141.1c0,0.4,0.1,0.7,0.3,0.8
				s0.5,0.3,0.9,0.3c0.8,0,1.2-0.4,1.2-1.2s-0.4-1.2-1.2-1.2c-0.4,0-0.7,0.1-0.9,0.3S28,140.7,28,141.1z"/>
			<path class="st2" d="M35.4,139.3c0.2,0,0.5,0,0.6,0.1l-0.1,0.8c-0.2,0-0.4-0.1-0.6-0.1c-0.4,0-0.8,0.2-1.1,0.5
				c-0.3,0.4-0.5,0.8-0.5,1.3v2.9H33v-5.4h0.7l0.1,1l0,0c0.2-0.3,0.4-0.6,0.7-0.8S35.1,139.3,35.4,139.3z"/>
			<path class="st2" d="M39.3,144.8c-0.8,0-1.4-0.2-1.9-0.7s-0.7-1.2-0.7-2c0-0.9,0.2-1.5,0.6-2.1c0.4-0.5,1-0.8,1.7-0.8
				s1.2,0.2,1.6,0.7c0.4,0.4,0.6,1,0.6,1.7v0.5h-3.7c0,0.6,0.2,1.1,0.5,1.4c0.3,0.3,0.7,0.5,1.3,0.5s1.1-0.1,1.7-0.4v0.7
				c-0.3,0.1-0.6,0.2-0.8,0.3C40,144.8,39.7,144.8,39.3,144.8z M39.1,140c-0.4,0-0.8,0.1-1,0.4c-0.3,0.3-0.4,0.7-0.5,1.2h2.8
				c0-0.5-0.1-0.9-0.3-1.2C39.8,140.1,39.5,140,39.1,140z"/>
			<path class="st2" d="M47,139.4v0.5l-1,0.1c0.1,0.1,0.2,0.3,0.2,0.4c0.1,0.2,0.1,0.4,0.1,0.6c0,0.5-0.2,0.9-0.5,1.3
				s-0.8,0.5-1.5,0.5c-0.2,0-0.3,0-0.4,0c-0.3,0.2-0.5,0.4-0.5,0.7c0,0.1,0.1,0.3,0.2,0.3c0.1,0.1,0.3,0.1,0.6,0.1h0.9
				c0.6,0,1,0.1,1.3,0.4c0.3,0.2,0.5,0.6,0.5,1.1c0,0.6-0.2,1-0.7,1.4c-0.5,0.3-1.2,0.5-2.1,0.5c-0.7,0-1.2-0.1-1.6-0.4
				c-0.4-0.3-0.6-0.6-0.6-1.1c0-0.3,0.1-0.6,0.3-0.8s0.5-0.4,0.9-0.5c-0.1-0.1-0.3-0.2-0.3-0.3c-0.1-0.1-0.1-0.3-0.1-0.5
				s0.1-0.4,0.2-0.5s0.3-0.3,0.5-0.4c-0.3-0.1-0.5-0.3-0.7-0.6s-0.3-0.6-0.3-0.9c0-0.6,0.2-1,0.5-1.4c0.4-0.3,0.8-0.5,1.5-0.5
				c0.3,0,0.5,0,0.8,0.1H47V139.4z M42.8,145.6c0,0.3,0.1,0.5,0.4,0.7s0.6,0.2,1,0.2c0.7,0,1.2-0.1,1.5-0.3s0.5-0.5,0.5-0.8
				s-0.1-0.5-0.3-0.6s-0.5-0.2-1-0.2h-1c-0.4,0-0.7,0.1-0.9,0.3S42.8,145.3,42.8,145.6z M43.2,141.1c0,0.4,0.1,0.7,0.3,0.8
				s0.5,0.3,0.9,0.3c0.8,0,1.2-0.4,1.2-1.2s-0.4-1.2-1.2-1.2c-0.4,0-0.7,0.1-0.9,0.3S43.2,140.7,43.2,141.1z"/>
			<path class="st2" d="M51.4,144.7l-0.2-0.8l0,0c-0.3,0.3-0.5,0.6-0.8,0.7c-0.3,0.1-0.6,0.2-1,0.2c-0.5,0-0.9-0.1-1.2-0.4
				c-0.3-0.3-0.5-0.7-0.5-1.2c0-1.1,0.9-1.6,2.6-1.7h0.9v-0.3c0-0.4-0.1-0.7-0.3-0.9S50.4,140,50,140s-1,0.1-1.5,0.4l-0.2-0.6
				c0.3-0.1,0.6-0.3,0.9-0.3c0.3-0.1,0.6-0.1,0.9-0.1c0.6,0,1.1,0.1,1.4,0.4c0.3,0.3,0.5,0.7,0.5,1.4v3.7h-0.6V144.7z M49.6,144.2
				c0.5,0,0.9-0.1,1.2-0.4c0.3-0.3,0.4-0.7,0.4-1.2v-0.5h-0.8c-0.6,0-1.1,0.1-1.4,0.3c-0.3,0.2-0.4,0.5-0.4,0.8s0.1,0.5,0.3,0.7
				C49,144.1,49.3,144.2,49.6,144.2z"/>
			<path class="st2" d="M58,144.2c0.1,0,0.3,0,0.4,0c0.1,0,0.2,0,0.3-0.1v0.6c-0.1,0-0.2,0.1-0.4,0.1s-0.3,0-0.5,0
				c-1,0-1.6-0.5-1.6-1.6V140h-0.8v-0.4l0.8-0.3l0.3-1.1H57v1.2h1.6v0.6H57v3.1c0,0.3,0.1,0.6,0.2,0.7S57.8,144.2,58,144.2z"/>
			<path class="st2" d="M60.6,139.4v3.5c0,0.4,0.1,0.8,0.3,1s0.5,0.3,0.9,0.3c0.6,0,1-0.2,1.2-0.5c0.3-0.3,0.4-0.8,0.4-1.5v-2.8h0.8
				v5.4h-0.7l-0.1-0.7l0,0c-0.2,0.3-0.4,0.5-0.7,0.6s-0.6,0.2-1,0.2c-0.7,0-1.1-0.2-1.5-0.5c-0.3-0.3-0.5-0.8-0.5-1.5v-3.5H60.6z"/>
			<path class="st2" d="M69.4,143.3c0,0.5-0.2,0.9-0.6,1.2s-0.9,0.4-1.6,0.4s-1.3-0.1-1.7-0.3v-0.8c0.3,0.1,0.5,0.2,0.8,0.3
				s0.6,0.1,0.9,0.1c0.4,0,0.7-0.1,1-0.2c0.2-0.1,0.3-0.3,0.3-0.6c0-0.2-0.1-0.4-0.3-0.5c-0.2-0.1-0.5-0.3-1.1-0.5
				c-0.5-0.2-0.9-0.3-1.1-0.5c-0.2-0.1-0.4-0.3-0.5-0.5s-0.2-0.4-0.2-0.6c0-0.4,0.2-0.8,0.5-1c0.4-0.3,0.8-0.4,1.5-0.4
				c0.6,0,1.1,0.1,1.7,0.4l-0.3,0.7c-0.5-0.2-1-0.3-1.5-0.3c-0.4,0-0.7,0.1-0.9,0.2s-0.3,0.3-0.3,0.5c0,0.1,0,0.3,0.1,0.4
				c0.1,0.1,0.2,0.2,0.4,0.3s0.5,0.2,0.9,0.4c0.6,0.2,1.1,0.5,1.3,0.7C69.3,142.6,69.4,142.9,69.4,143.3z"/>
			<path class="st2" d="M19.3,156.8c-0.3,0-0.7-0.1-1-0.2c-0.3-0.1-0.5-0.3-0.7-0.6h-0.1c0,0.3,0.1,0.6,0.1,0.9v2.2h-0.8v-7.8h0.7
				l0.1,0.7l0,0c0.2-0.3,0.5-0.5,0.7-0.6s0.6-0.2,1-0.2c0.7,0,1.3,0.2,1.6,0.7c0.4,0.5,0.6,1.2,0.6,2c0,0.9-0.2,1.6-0.6,2
				C20.5,156.6,20,156.8,19.3,156.8z M19.2,152c-0.5,0-0.9,0.2-1.2,0.5s-0.4,0.8-0.4,1.4v0.2c0,0.8,0.1,1.3,0.4,1.6s0.7,0.5,1.2,0.5
				s0.8-0.2,1.1-0.6c0.3-0.4,0.4-0.9,0.4-1.5c0-0.7-0.1-1.2-0.4-1.5C20,152.2,19.6,152,19.2,152z"/>
			<path class="st2" d="M25.4,151.3c0.2,0,0.5,0,0.6,0.1l-0.1,0.8c-0.2,0-0.4-0.1-0.6-0.1c-0.4,0-0.8,0.2-1.1,0.5
				c-0.3,0.4-0.5,0.8-0.5,1.3v2.9h-0.8v-5.4h0.7l0.1,1l0,0c0.2-0.3,0.4-0.6,0.7-0.8S25,151.3,25.4,151.3z"/>
			<path class="st2" d="M31.6,154.1c0,0.9-0.2,1.6-0.7,2c-0.4,0.5-1,0.7-1.8,0.7c-0.5,0-0.9-0.1-1.3-0.3s-0.7-0.5-0.9-1
				s-0.3-0.9-0.3-1.5c0-0.9,0.2-1.6,0.7-2c0.4-0.5,1-0.7,1.8-0.7c0.7,0,1.3,0.2,1.8,0.7C31.4,152.5,31.6,153.2,31.6,154.1z
				 M27.5,154.1c0,0.7,0.1,1.2,0.4,1.6s0.7,0.5,1.2,0.5s0.9-0.2,1.2-0.5c0.3-0.4,0.4-0.9,0.4-1.6c0-0.7-0.1-1.2-0.4-1.5
				c-0.3-0.4-0.7-0.5-1.2-0.5s-0.9,0.2-1.2,0.5S27.5,153.4,27.5,154.1z"/>
			<path class="st2" d="M36.7,156L36.7,156c-0.4,0.5-1,0.8-1.7,0.8s-1.2-0.2-1.6-0.7c-0.4-0.5-0.6-1.2-0.6-2s0.2-1.6,0.6-2.1
				s0.9-0.7,1.6-0.7c0.7,0,1.3,0.3,1.7,0.8h0.1v-0.4v-0.4v-2.2h0.8v7.6h-0.7L36.7,156z M35.1,156.2c0.6,0,1-0.2,1.2-0.5
				s0.4-0.8,0.4-1.5V154c0-0.8-0.1-1.3-0.4-1.6c-0.3-0.3-0.7-0.5-1.2-0.5s-0.8,0.2-1.1,0.6c-0.3,0.4-0.4,0.9-0.4,1.6
				c0,0.7,0.1,1.2,0.4,1.5S34.6,156.2,35.1,156.2z"/>
			<path class="st2" d="M39.9,151.4v3.5c0,0.4,0.1,0.8,0.3,1s0.5,0.3,0.9,0.3c0.6,0,1-0.2,1.2-0.5c0.3-0.3,0.4-0.8,0.4-1.5v-2.8h0.8
				v5.4h-0.7l-0.1-0.7l0,0c-0.2,0.3-0.4,0.5-0.7,0.6s-0.6,0.2-1,0.2c-0.7,0-1.1-0.2-1.5-0.5c-0.3-0.3-0.5-0.8-0.5-1.5v-3.5H39.9z"/>
			<path class="st2" d="M47.4,156.8c-0.8,0-1.4-0.2-1.8-0.7c-0.4-0.5-0.6-1.2-0.6-2c0-0.9,0.2-1.6,0.6-2.1c0.4-0.5,1-0.7,1.8-0.7
				c0.3,0,0.5,0,0.8,0.1s0.5,0.1,0.6,0.2l-0.2,0.7c-0.2-0.1-0.4-0.1-0.6-0.2c-0.2,0-0.4-0.1-0.6-0.1c-1.1,0-1.6,0.7-1.6,2.1
				c0,0.7,0.1,1.2,0.4,1.5c0.3,0.4,0.7,0.5,1.2,0.5c0.4,0,0.9-0.1,1.4-0.3v0.7C48.4,156.8,48,156.8,47.4,156.8z"/>
			<path class="st2" d="M51.8,156.2c0.1,0,0.3,0,0.4,0c0.1,0,0.2,0,0.3-0.1v0.6c-0.1,0-0.2,0.1-0.4,0.1s-0.3,0-0.5,0
				c-1,0-1.6-0.5-1.6-1.6V152h-0.8v-0.4l0.8-0.3l0.3-1.1h0.5v1.2h1.6v0.6h-1.6v3.1c0,0.3,0.1,0.6,0.2,0.7S51.5,156.2,51.8,156.2z"/>
			<path class="st2" d="M58.2,154.1c0,0.9-0.2,1.6-0.7,2c-0.4,0.5-1,0.7-1.8,0.7c-0.5,0-0.9-0.1-1.3-0.3s-0.7-0.5-0.9-1
				s-0.3-0.9-0.3-1.5c0-0.9,0.2-1.6,0.7-2c0.4-0.5,1-0.7,1.8-0.7c0.7,0,1.3,0.2,1.8,0.7S58.2,153.2,58.2,154.1z M54.1,154.1
				c0,0.7,0.1,1.2,0.4,1.6s0.7,0.5,1.2,0.5s0.9-0.2,1.2-0.5c0.3-0.4,0.4-0.9,0.4-1.6c0-0.7-0.1-1.2-0.4-1.5
				c-0.3-0.4-0.7-0.5-1.2-0.5s-0.9,0.2-1.2,0.5S54.1,153.4,54.1,154.1z"/>
			<path class="st2" d="M63.1,155.3c0,0.5-0.2,0.9-0.6,1.2s-0.9,0.4-1.6,0.4c-0.7,0-1.3-0.1-1.7-0.3v-0.8c0.3,0.1,0.5,0.2,0.8,0.3
				s0.6,0.1,0.9,0.1c0.4,0,0.7-0.1,1-0.2c0.2-0.1,0.3-0.3,0.3-0.6c0-0.2-0.1-0.4-0.3-0.5s-0.5-0.3-1.1-0.5c-0.5-0.2-0.9-0.3-1.1-0.5
				c-0.2-0.1-0.4-0.3-0.5-0.5S59,153,59,152.8c0-0.4,0.2-0.8,0.5-1c0.4-0.3,0.8-0.4,1.5-0.4c0.6,0,1.1,0.1,1.7,0.4l-0.3,0.7
				c-0.5-0.2-1-0.3-1.5-0.3c-0.4,0-0.7,0.1-0.9,0.2s-0.3,0.3-0.3,0.5c0,0.1,0,0.3,0.1,0.4c0.1,0.1,0.2,0.2,0.4,0.3s0.5,0.2,0.9,0.4
				c0.6,0.2,1.1,0.5,1.3,0.7C63,154.6,63.1,154.9,63.1,155.3z"/>
			<path class="st2" d="M70.3,156.7l-0.2-0.8l0,0c-0.3,0.3-0.5,0.6-0.8,0.7c-0.3,0.1-0.6,0.2-1,0.2c-0.5,0-0.9-0.1-1.2-0.4
				c-0.3-0.3-0.5-0.7-0.5-1.2c0-1.1,0.9-1.6,2.6-1.7h0.9v-0.3c0-0.4-0.1-0.7-0.3-0.9c-0.2-0.2-0.5-0.3-0.9-0.3s-1,0.1-1.5,0.4
				l-0.2-0.6c0.3-0.1,0.6-0.3,0.9-0.3c0.3-0.1,0.6-0.1,0.9-0.1c0.6,0,1.1,0.1,1.4,0.4c0.3,0.3,0.5,0.7,0.5,1.4v3.7h-0.6V156.7z
				 M68.5,156.2c0.5,0,0.9-0.1,1.2-0.4c0.3-0.3,0.4-0.7,0.4-1.2v-0.5h-0.8c-0.6,0-1.1,0.1-1.4,0.3s-0.4,0.5-0.4,0.8s0.1,0.5,0.3,0.7
				C67.9,156.1,68.1,156.2,68.5,156.2z"/>
			<path class="st2" d="M73.4,156.7h-0.8v-7.6h0.8V156.7z"/>
			<path class="st2" d="M32.8,168.8c-0.8,0-1.4-0.2-1.8-0.7s-0.6-1.2-0.6-2c0-0.9,0.2-1.6,0.6-2.1s1-0.7,1.8-0.7
				c0.3,0,0.5,0,0.8,0.1s0.5,0.1,0.6,0.2l-0.2,0.7c-0.2-0.1-0.4-0.1-0.6-0.2c-0.2,0-0.4-0.1-0.6-0.1c-1.1,0-1.6,0.7-1.6,2.1
				c0,0.7,0.1,1.2,0.4,1.5c0.3,0.4,0.7,0.5,1.2,0.5c0.4,0,0.9-0.1,1.4-0.3v0.7C33.8,168.8,33.3,168.8,32.8,168.8z"/>
			<path class="st2" d="M38.7,168.7l-0.2-0.8l0,0c-0.3,0.3-0.5,0.6-0.8,0.7c-0.3,0.1-0.6,0.2-1,0.2c-0.5,0-0.9-0.1-1.2-0.4
				c-0.3-0.3-0.5-0.7-0.5-1.2c0-1.1,0.9-1.6,2.6-1.7h0.9v-0.3c0-0.4-0.1-0.7-0.3-0.9s-0.5-0.3-0.9-0.3s-1,0.1-1.5,0.4l-0.2-0.6
				c0.3-0.1,0.6-0.3,0.9-0.3c0.3-0.1,0.6-0.1,0.9-0.1c0.6,0,1.1,0.1,1.4,0.4c0.3,0.3,0.5,0.7,0.5,1.4v3.7h-0.6V168.7z M36.9,168.2
				c0.5,0,0.9-0.1,1.2-0.4c0.3-0.3,0.4-0.7,0.4-1.2v-0.5h-0.8c-0.6,0-1.1,0.1-1.4,0.3c-0.3,0.2-0.4,0.5-0.4,0.8s0.1,0.5,0.3,0.7
				C36.3,168.1,36.6,168.2,36.9,168.2z"/>
			<path class="st2" d="M43.4,163.3c0.2,0,0.5,0,0.6,0.1l-0.1,0.8c-0.2,0-0.4-0.1-0.6-0.1c-0.4,0-0.8,0.2-1.1,0.5
				c-0.3,0.4-0.5,0.8-0.5,1.3v2.9H41v-5.4h0.7l0.1,1l0,0c0.2-0.3,0.4-0.6,0.7-0.8S43.1,163.3,43.4,163.3z"/>
			<path class="st2" d="M47.5,163.3c0.2,0,0.5,0,0.6,0.1l-0.1,0.8c-0.2,0-0.4-0.1-0.6-0.1c-0.4,0-0.8,0.2-1.1,0.5
				c-0.3,0.4-0.5,0.8-0.5,1.3v2.9H45v-5.4h0.7l0.1,1l0,0c0.2-0.3,0.4-0.6,0.7-0.8S47.2,163.3,47.5,163.3z"/>
			<path class="st2" d="M49.1,161.9c0-0.2,0-0.3,0.1-0.4c0.1-0.1,0.2-0.1,0.3-0.1s0.2,0,0.3,0.1s0.1,0.2,0.1,0.4s0,0.3-0.1,0.4
				c-0.1,0.1-0.2,0.1-0.3,0.1s-0.3,0-0.3-0.1C49.1,162.3,49.1,162.1,49.1,161.9z M49.9,168.7h-0.8v-5.4h0.8V168.7z"/>
			<path class="st2" d="M53.4,168.2c0.1,0,0.3,0,0.4,0c0.1,0,0.2,0,0.3-0.1v0.6c-0.1,0-0.2,0.1-0.4,0.1s-0.3,0-0.5,0
				c-1,0-1.6-0.5-1.6-1.6V164H51v-0.4l0.8-0.3l0.3-1.1h0.5v1.2h1.6v0.6h-1.6v3.1c0,0.3,0.1,0.6,0.2,0.7S53.1,168.2,53.4,168.2z"/>
			<path class="st2" d="M59.8,166.1c0,0.9-0.2,1.6-0.7,2c-0.4,0.5-1,0.7-1.8,0.7c-0.5,0-0.9-0.1-1.3-0.3s-0.7-0.5-0.9-1
				s-0.3-0.9-0.3-1.5c0-0.9,0.2-1.6,0.7-2c0.4-0.5,1-0.7,1.8-0.7c0.7,0,1.3,0.2,1.8,0.7S59.8,165.2,59.8,166.1z M55.7,166.1
				c0,0.7,0.1,1.2,0.4,1.6s0.7,0.5,1.2,0.5s0.9-0.2,1.2-0.5c0.3-0.4,0.4-0.9,0.4-1.6c0-0.7-0.1-1.2-0.4-1.5
				c-0.3-0.4-0.7-0.5-1.2-0.5s-0.9,0.2-1.2,0.5S55.7,165.4,55.7,166.1z"/>
		</g>
	</g>
	<g>
		<g>
			<path class="st1" d="M121.5,123.4c0,0.8-0.2,1.4-0.7,1.8s-1.2,0.6-2,0.6h-0.6v2.5h-1.5v-7.1h2.3c0.9,0,1.5,0.2,2,0.6
				C121.3,122.1,121.5,122.7,121.5,123.4z M118.1,124.6h0.5c0.5,0,0.8-0.1,1-0.3c0.2-0.2,0.3-0.5,0.3-0.8c0-0.4-0.1-0.6-0.3-0.8
				c-0.2-0.2-0.5-0.3-0.9-0.3H118L118.1,124.6L118.1,124.6z"/>
			<path class="st1" d="M127.2,128.3l-0.5-1.7h-2.6l-0.5,1.7H122l2.5-7.2h1.9l2.5,7.2H127.2z M126.3,125.4c-0.5-1.5-0.7-2.4-0.8-2.6
				c-0.1-0.2-0.1-0.4-0.1-0.5c-0.1,0.4-0.4,1.4-0.9,3.1H126.3z"/>
			<path class="st1" d="M133.9,126.4c0,0.6-0.2,1.2-0.7,1.5c-0.5,0.4-1.1,0.6-1.9,0.6c-0.8,0-1.4-0.1-2-0.4v-1.4
				c0.5,0.2,0.9,0.4,1.2,0.5s0.6,0.1,0.9,0.1c0.3,0,0.6-0.1,0.8-0.2s0.3-0.3,0.3-0.6c0-0.1,0-0.3-0.1-0.4s-0.2-0.2-0.3-0.3
				c-0.2-0.1-0.5-0.3-0.9-0.5s-0.8-0.4-1-0.6s-0.4-0.4-0.5-0.7s-0.2-0.5-0.2-0.9c0-0.6,0.2-1.1,0.6-1.5c0.4-0.4,1-0.5,1.8-0.5
				c0.4,0,0.7,0,1.1,0.1c0.3,0.1,0.7,0.2,1.1,0.4l-0.5,1.2c-0.4-0.2-0.7-0.3-0.9-0.3c-0.2-0.1-0.5-0.1-0.7-0.1
				c-0.3,0-0.5,0.1-0.7,0.2s-0.2,0.3-0.2,0.5c0,0.1,0,0.2,0.1,0.3c0.1,0.1,0.2,0.2,0.3,0.3c0.1,0.1,0.5,0.3,1,0.5
				c0.7,0.3,1.1,0.6,1.4,1C133.8,125.5,133.9,125.9,133.9,126.4z"/>
			<path class="st1" d="M141.7,124.8c0,1.2-0.3,2.1-0.9,2.7c-0.6,0.6-1.4,1-2.5,1s-1.9-0.3-2.5-1s-0.9-1.5-0.9-2.7s0.3-2.1,0.9-2.7
				c0.6-0.6,1.4-0.9,2.5-0.9s1.9,0.3,2.5,0.9C141.4,122.7,141.7,123.6,141.7,124.8z M136.5,124.8c0,0.8,0.2,1.4,0.5,1.8
				s0.8,0.6,1.4,0.6c1.2,0,1.8-0.8,1.8-2.4s-0.6-2.4-1.8-2.4c-0.6,0-1.1,0.2-1.4,0.6C136.7,123.4,136.5,124,136.5,124.8z"/>
			<path class="st1" d="M150.3,128.3h-5v-1l1.8-1.8c0.5-0.5,0.9-0.9,1-1.1c0.2-0.2,0.3-0.4,0.4-0.6s0.1-0.4,0.1-0.6
				c0-0.3-0.1-0.5-0.2-0.6c-0.2-0.1-0.4-0.2-0.6-0.2c-0.3,0-0.5,0.1-0.8,0.2s-0.5,0.3-0.8,0.5l-0.8-1c0.4-0.3,0.6-0.5,0.9-0.6
				s0.5-0.2,0.8-0.3c0.3-0.1,0.6-0.1,0.9-0.1c0.4,0,0.8,0.1,1.2,0.2s0.6,0.4,0.8,0.7s0.3,0.6,0.3,1c0,0.3-0.1,0.6-0.2,0.9
				c-0.1,0.3-0.3,0.6-0.5,0.9s-0.7,0.7-1.3,1.3l-0.9,0.9v0.1h3.1v1.2H150.3z"/>
		</g>
	</g>
	<g>
		<g>
			<path class="st2" d="M112.5,141.8v3h-0.8v-7.1h2c0.9,0,1.5,0.2,1.9,0.5s0.6,0.8,0.6,1.5c0,0.9-0.5,1.6-1.4,1.9l1.9,3.2h-1l-1.7-3
				L112.5,141.8L112.5,141.8z M112.5,141.1h1.1c0.6,0,1-0.1,1.3-0.3s0.4-0.6,0.4-1c0-0.5-0.1-0.8-0.4-1s-0.7-0.3-1.3-0.3h-1.1V141.1
				z"/>
			<path class="st2" d="M120,144.8c-0.8,0-1.4-0.2-1.9-0.7s-0.7-1.2-0.7-2c0-0.9,0.2-1.5,0.6-2.1c0.4-0.5,1-0.8,1.7-0.8
				s1.2,0.2,1.6,0.7c0.4,0.4,0.6,1,0.6,1.7v0.5h-3.7c0,0.6,0.2,1.1,0.5,1.4c0.3,0.3,0.7,0.5,1.3,0.5c0.6,0,1.1-0.1,1.7-0.4v0.7
				c-0.3,0.1-0.6,0.2-0.8,0.3C120.6,144.8,120.3,144.8,120,144.8z M119.7,140c-0.4,0-0.8,0.1-1,0.4c-0.3,0.3-0.4,0.7-0.5,1.2h2.8
				c0-0.5-0.1-0.9-0.3-1.2C120.5,140.1,120.2,140,119.7,140z"/>
			<path class="st2" d="M126.6,144.7l-0.2-0.8l0,0c-0.3,0.3-0.5,0.6-0.8,0.7c-0.3,0.1-0.6,0.2-1,0.2c-0.5,0-0.9-0.1-1.2-0.4
				c-0.3-0.3-0.5-0.7-0.5-1.2c0-1.1,0.9-1.6,2.6-1.7h0.9v-0.3c0-0.4-0.1-0.7-0.3-0.9c-0.2-0.2-0.5-0.3-0.9-0.3s-1,0.1-1.5,0.4
				l-0.2-0.6c0.3-0.1,0.6-0.3,0.9-0.3c0.3-0.1,0.6-0.1,0.9-0.1c0.6,0,1.1,0.1,1.4,0.4c0.3,0.3,0.5,0.7,0.5,1.4v3.7h-0.6V144.7z
				 M124.8,144.2c0.5,0,0.9-0.1,1.2-0.4c0.3-0.3,0.4-0.7,0.4-1.2v-0.5h-0.8c-0.6,0-1.1,0.1-1.4,0.3s-0.4,0.5-0.4,0.8
				s0.1,0.5,0.3,0.7C124.2,144.1,124.5,144.2,124.8,144.2z"/>
			<path class="st2" d="M129.7,144.7h-0.8v-7.6h0.8V144.7z"/>
			<path class="st2" d="M131.3,137.9c0-0.2,0-0.3,0.1-0.4c0.1-0.1,0.2-0.1,0.3-0.1s0.2,0,0.3,0.1s0.1,0.2,0.1,0.4s0,0.3-0.1,0.4
				c-0.1,0.1-0.2,0.1-0.3,0.1s-0.3,0-0.3-0.1C131.4,138.3,131.3,138.1,131.3,137.9z M132.2,144.7h-0.8v-5.4h0.8V144.7z"/>
			<path class="st2" d="M137.4,144.7h-3.9v-0.6l2.9-4.2h-2.7v-0.6h3.6v0.6l-2.9,4.1h3L137.4,144.7L137.4,144.7z"/>
			<path class="st2" d="M141.9,144.7l-0.2-0.8l0,0c-0.3,0.3-0.5,0.6-0.8,0.7c-0.3,0.1-0.6,0.2-1,0.2c-0.5,0-0.9-0.1-1.2-0.4
				c-0.3-0.3-0.5-0.7-0.5-1.2c0-1.1,0.9-1.6,2.6-1.7h0.9v-0.3c0-0.4-0.1-0.7-0.3-0.9s-0.5-0.3-0.9-0.3s-1,0.1-1.5,0.4l-0.2-0.6
				c0.3-0.1,0.6-0.3,0.9-0.3c0.3-0.1,0.6-0.1,0.9-0.1c0.6,0,1.1,0.1,1.4,0.4c0.3,0.3,0.5,0.7,0.5,1.4v3.7h-0.6V144.7z M140.1,144.2
				c0.5,0,0.9-0.1,1.2-0.4c0.3-0.3,0.4-0.7,0.4-1.2v-0.5h-0.8c-0.6,0-1.1,0.1-1.4,0.3c-0.3,0.2-0.4,0.5-0.4,0.8s0.1,0.5,0.3,0.7
				C139.5,144.1,139.8,144.2,140.1,144.2z"/>
			<path class="st2" d="M148.5,144.2c0.1,0,0.3,0,0.4,0c0.1,0,0.2,0,0.3-0.1v0.6c-0.1,0-0.2,0.1-0.4,0.1s-0.3,0-0.5,0
				c-1,0-1.6-0.5-1.6-1.6V140h-0.8v-0.4l0.8-0.3l0.3-1.1h0.5v1.2h1.6v0.6h-1.6v3.1c0,0.3,0.1,0.6,0.2,0.7S148.2,144.2,148.5,144.2z"
				/>
			<path class="st2" d="M151.1,139.4v3.5c0,0.4,0.1,0.8,0.3,1s0.5,0.3,0.9,0.3c0.6,0,1-0.2,1.2-0.5c0.3-0.3,0.4-0.8,0.4-1.5v-2.8
				h0.8v5.4H154l-0.1-0.7l0,0c-0.2,0.3-0.4,0.5-0.7,0.6s-0.6,0.2-1,0.2c-0.7,0-1.1-0.2-1.5-0.5c-0.3-0.3-0.5-0.8-0.5-1.5v-3.5H151.1
				z"/>
			<path class="st2" d="M120.2,156.8c-0.3,0-0.7-0.1-1-0.2c-0.3-0.1-0.5-0.3-0.7-0.6h-0.1c0,0.3,0.1,0.6,0.1,0.9v2.2h-0.8v-7.8h0.7
				l0.1,0.7l0,0c0.2-0.3,0.5-0.5,0.7-0.6s0.6-0.2,1-0.2c0.7,0,1.3,0.2,1.6,0.7c0.4,0.5,0.6,1.2,0.6,2c0,0.9-0.2,1.6-0.6,2
				C121.4,156.6,120.9,156.8,120.2,156.8z M120.1,152c-0.5,0-0.9,0.2-1.2,0.5s-0.4,0.8-0.4,1.4v0.2c0,0.8,0.1,1.3,0.4,1.6
				s0.7,0.5,1.2,0.5s0.8-0.2,1.1-0.6c0.3-0.4,0.4-0.9,0.4-1.5c0-0.7-0.1-1.2-0.4-1.5C120.9,152.2,120.5,152,120.1,152z"/>
			<path class="st2" d="M126.1,156.8c-0.8,0-1.4-0.2-1.9-0.7s-0.7-1.2-0.7-2c0-0.9,0.2-1.5,0.6-2.1c0.4-0.5,1-0.8,1.7-0.8
				s1.2,0.2,1.6,0.7c0.4,0.4,0.6,1,0.6,1.7v0.5h-3.7c0,0.6,0.2,1.1,0.5,1.4c0.3,0.3,0.7,0.5,1.3,0.5c0.6,0,1.1-0.1,1.7-0.4v0.7
				c-0.3,0.1-0.6,0.2-0.8,0.3C126.8,156.8,126.5,156.8,126.1,156.8z M125.9,152c-0.4,0-0.8,0.1-1,0.4c-0.3,0.3-0.4,0.7-0.5,1.2h2.8
				c0-0.5-0.1-0.9-0.3-1.2C126.6,152.1,126.3,152,125.9,152z"/>
			<path class="st2" d="M133.1,156L133.1,156c-0.4,0.5-1,0.8-1.7,0.8s-1.2-0.2-1.6-0.7c-0.4-0.5-0.6-1.2-0.6-2s0.2-1.6,0.6-2.1
				s0.9-0.7,1.6-0.7c0.7,0,1.3,0.3,1.7,0.8h0.1v-0.4v-0.4v-2.2h0.8v7.6h-0.7L133.1,156z M131.5,156.2c0.6,0,1-0.2,1.2-0.5
				s0.4-0.8,0.4-1.5V154c0-0.8-0.1-1.3-0.4-1.6c-0.3-0.3-0.7-0.5-1.2-0.5s-0.8,0.2-1.1,0.6c-0.3,0.4-0.4,0.9-0.4,1.6
				c0,0.7,0.1,1.2,0.4,1.5S131,156.2,131.5,156.2z"/>
			<path class="st2" d="M135.5,149.9c0-0.2,0-0.3,0.1-0.4c0.1-0.1,0.2-0.1,0.3-0.1s0.2,0,0.3,0.1s0.1,0.2,0.1,0.4s0,0.3-0.1,0.4
				c-0.1,0.1-0.2,0.1-0.3,0.1s-0.3,0-0.3-0.1C135.5,150.3,135.5,150.1,135.5,149.9z M136.4,156.7h-0.8v-5.4h0.8V156.7z"/>
			<path class="st2" d="M141.7,156L141.7,156c-0.4,0.5-1,0.8-1.7,0.8s-1.2-0.2-1.6-0.7c-0.4-0.5-0.6-1.2-0.6-2s0.2-1.6,0.6-2.1
				s0.9-0.7,1.6-0.7c0.7,0,1.3,0.3,1.7,0.8h0.1v-0.4v-0.4v-2.2h0.8v7.6h-0.7L141.7,156z M140.1,156.2c0.6,0,1-0.2,1.2-0.5
				s0.4-0.8,0.4-1.5V154c0-0.8-0.1-1.3-0.4-1.6c-0.3-0.3-0.7-0.5-1.2-0.5s-0.8,0.2-1.1,0.6c-0.3,0.4-0.4,0.9-0.4,1.6
				c0,0.7,0.1,1.2,0.4,1.5S139.6,156.2,140.1,156.2z"/>
			<path class="st2" d="M148.8,154.1c0,0.9-0.2,1.6-0.7,2c-0.4,0.5-1,0.7-1.8,0.7c-0.5,0-0.9-0.1-1.3-0.3s-0.7-0.5-0.9-1
				s-0.3-0.9-0.3-1.5c0-0.9,0.2-1.6,0.7-2c0.4-0.5,1-0.7,1.8-0.7c0.7,0,1.3,0.2,1.8,0.7S148.8,153.2,148.8,154.1z M144.8,154.1
				c0,0.7,0.1,1.2,0.4,1.6s0.7,0.5,1.2,0.5s0.9-0.2,1.2-0.5c0.3-0.4,0.4-0.9,0.4-1.6c0-0.7-0.1-1.2-0.4-1.5
				c-0.3-0.4-0.7-0.5-1.2-0.5s-0.9,0.2-1.2,0.5S144.8,153.4,144.8,154.1z"/>
		</g>
	</g>
	<g>
		<g>
			<path class="st1" d="M210.9,123.4c0,0.8-0.2,1.4-0.7,1.8s-1.2,0.6-2,0.6h-0.6v2.5h-1.5v-7.1h2.3c0.9,0,1.5,0.2,2,0.6
				C210.6,122.1,210.9,122.7,210.9,123.4z M207.4,124.6h0.5c0.5,0,0.8-0.1,1-0.3c0.2-0.2,0.3-0.5,0.3-0.8c0-0.4-0.1-0.6-0.3-0.8
				c-0.2-0.2-0.5-0.3-0.9-0.3h-0.7L207.4,124.6L207.4,124.6z"/>
			<path class="st1" d="M216.6,128.3l-0.5-1.7h-2.6l-0.5,1.7h-1.6l2.5-7.2h1.9l2.5,7.2H216.6z M215.7,125.4
				c-0.5-1.5-0.7-2.4-0.8-2.6s-0.1-0.4-0.1-0.5c-0.1,0.4-0.4,1.4-0.9,3.1H215.7z"/>
			<path class="st1" d="M223.3,126.4c0,0.6-0.2,1.2-0.7,1.5c-0.5,0.4-1.1,0.6-1.9,0.6c-0.8,0-1.4-0.1-2-0.4v-1.4
				c0.5,0.2,0.9,0.4,1.2,0.5s0.6,0.1,0.9,0.1c0.3,0,0.6-0.1,0.8-0.2s0.3-0.3,0.3-0.6c0-0.1,0-0.3-0.1-0.4s-0.2-0.2-0.3-0.3
				c-0.2-0.1-0.5-0.3-0.9-0.5s-0.8-0.4-1-0.6s-0.4-0.4-0.5-0.7s-0.2-0.5-0.2-0.9c0-0.6,0.2-1.1,0.6-1.5c0.4-0.4,1-0.5,1.8-0.5
				c0.4,0,0.7,0,1.1,0.1c0.3,0.1,0.7,0.2,1.1,0.4l-0.5,1.2c-0.4-0.2-0.7-0.3-0.9-0.3c-0.2-0.1-0.5-0.1-0.7-0.1
				c-0.3,0-0.5,0.1-0.7,0.2s-0.2,0.3-0.2,0.5c0,0.1,0,0.2,0.1,0.3c0.1,0.1,0.2,0.2,0.3,0.3c0.1,0.1,0.5,0.3,1,0.5
				c0.7,0.3,1.1,0.6,1.4,1C223.2,125.5,223.3,125.9,223.3,126.4z"/>
			<path class="st1" d="M231.1,124.8c0,1.2-0.3,2.1-0.9,2.7c-0.6,0.6-1.4,1-2.5,1s-1.9-0.3-2.5-1s-0.9-1.5-0.9-2.7s0.3-2.1,0.9-2.7
				c0.6-0.6,1.4-0.9,2.5-0.9s1.9,0.3,2.5,0.9C230.8,122.7,231.1,123.6,231.1,124.8z M225.9,124.8c0,0.8,0.2,1.4,0.5,1.8
				s0.8,0.6,1.4,0.6c1.2,0,1.8-0.8,1.8-2.4s-0.6-2.4-1.8-2.4c-0.6,0-1.1,0.2-1.4,0.6C226,123.4,225.9,124,225.9,124.8z"/>
			<path class="st1" d="M239.4,122.8c0,0.4-0.1,0.8-0.4,1.1s-0.6,0.5-1.1,0.6l0,0c0.6,0.1,1,0.2,1.3,0.5s0.4,0.7,0.4,1.1
				c0,0.7-0.2,1.2-0.7,1.6c-0.5,0.4-1.2,0.6-2.1,0.6c-0.8,0-1.5-0.1-2.1-0.4v-1.3c0.3,0.1,0.6,0.3,0.9,0.3s0.7,0.1,1,0.1
				c0.5,0,0.9-0.1,1.1-0.3s0.4-0.4,0.4-0.8c0-0.3-0.1-0.6-0.4-0.7s-0.7-0.2-1.3-0.2h-0.5v-1.2h0.6c0.6,0,1-0.1,1.2-0.2
				c0.3-0.1,0.4-0.4,0.4-0.7c0-0.5-0.3-0.8-1-0.8c-0.2,0-0.5,0-0.7,0.1s-0.5,0.2-0.8,0.4l-0.7-1c0.7-0.5,1.4-0.7,2.3-0.7
				c0.7,0,1.3,0.1,1.8,0.4C239.2,121.9,239.4,122.3,239.4,122.8z"/>
		</g>
	</g>
	<g>
		<g>
			<path class="st2" d="M191.5,144.7h-0.8v-6.4h-2.3v-0.7h5.4v0.7h-2.3L191.5,144.7L191.5,144.7z"/>
			<path class="st2" d="M197,144.8c-0.8,0-1.4-0.2-1.9-0.7s-0.7-1.2-0.7-2c0-0.9,0.2-1.5,0.6-2.1c0.4-0.5,1-0.8,1.7-0.8
				s1.2,0.2,1.6,0.7c0.4,0.4,0.6,1,0.6,1.7v0.5h-3.7c0,0.6,0.2,1.1,0.5,1.4c0.3,0.3,0.7,0.5,1.3,0.5s1.1-0.1,1.7-0.4v0.7
				c-0.3,0.1-0.6,0.2-0.8,0.3C197.6,144.8,197.3,144.8,197,144.8z M196.7,140c-0.4,0-0.8,0.1-1,0.4c-0.3,0.3-0.4,0.7-0.5,1.2h2.8
				c0-0.5-0.1-0.9-0.3-1.2C197.5,140.1,197.2,140,196.7,140z"/>
			<path class="st2" d="M205.2,144.8c-0.8,0-1.4-0.2-1.9-0.7s-0.7-1.2-0.7-2c0-0.9,0.2-1.5,0.6-2.1c0.4-0.5,1-0.8,1.7-0.8
				s1.2,0.2,1.6,0.7c0.4,0.4,0.6,1,0.6,1.7v0.5h-3.7c0,0.6,0.2,1.1,0.5,1.4c0.3,0.3,0.7,0.5,1.3,0.5s1.1-0.1,1.7-0.4v0.7
				c-0.3,0.1-0.6,0.2-0.8,0.3C205.8,144.8,205.5,144.8,205.2,144.8z M205,140c-0.4,0-0.8,0.1-1,0.4c-0.3,0.3-0.4,0.7-0.5,1.2h2.8
				c0-0.5-0.1-0.9-0.3-1.2C205.7,140.1,205.4,140,205,140z"/>
			<path class="st2" d="M212.2,144.7v-3.5c0-0.4-0.1-0.8-0.3-1s-0.5-0.3-0.9-0.3c-0.6,0-1,0.2-1.2,0.5s-0.4,0.8-0.4,1.5v2.8h-0.8
				v-5.4h0.7l0.1,0.7l0,0c0.2-0.3,0.4-0.5,0.7-0.6s0.6-0.2,1-0.2c0.6,0,1.1,0.2,1.5,0.5c0.3,0.3,0.5,0.8,0.5,1.5v3.5H212.2z"/>
			<path class="st2" d="M215.8,144.7l-2-5.4h0.9l1.2,3.2c0.3,0.7,0.4,1.2,0.5,1.4l0,0c0-0.2,0.1-0.5,0.3-1.1
				c0.2-0.5,0.6-1.7,1.3-3.5h0.9l-2,5.4L215.8,144.7L215.8,144.7z"/>
			<path class="st2" d="M219.6,137.9c0-0.2,0-0.3,0.1-0.4c0.1-0.1,0.2-0.1,0.3-0.1s0.2,0,0.3,0.1s0.1,0.2,0.1,0.4s0,0.3-0.1,0.4
				c-0.1,0.1-0.2,0.1-0.3,0.1s-0.3,0-0.3-0.1C219.6,138.3,219.6,138.1,219.6,137.9z M220.5,144.7h-0.8v-5.4h0.8V144.7z"/>
			<path class="st2" d="M225.5,144.7l-0.2-0.8l0,0c-0.3,0.3-0.5,0.6-0.8,0.7c-0.3,0.1-0.6,0.2-1,0.2c-0.5,0-0.9-0.1-1.2-0.4
				c-0.3-0.3-0.5-0.7-0.5-1.2c0-1.1,0.9-1.6,2.6-1.7h0.9v-0.3c0-0.4-0.1-0.7-0.3-0.9s-0.5-0.3-0.9-0.3s-1,0.1-1.5,0.4l-0.2-0.6
				c0.3-0.1,0.6-0.3,0.9-0.3c0.3-0.1,0.6-0.1,0.9-0.1c0.6,0,1.1,0.1,1.4,0.4c0.3,0.3,0.5,0.7,0.5,1.4v3.7h-0.6V144.7z M223.7,144.2
				c0.5,0,0.9-0.1,1.2-0.4c0.3-0.3,0.4-0.7,0.4-1.2v-0.5h-0.8c-0.6,0-1.1,0.1-1.4,0.3c-0.3,0.2-0.4,0.5-0.4,0.8s0.1,0.5,0.3,0.7
				C223.1,144.1,223.3,144.2,223.7,144.2z"/>
			<path class="st2" d="M230.2,139.3c0.2,0,0.5,0,0.6,0.1l-0.1,0.8c-0.2,0-0.4-0.1-0.6-0.1c-0.4,0-0.8,0.2-1.1,0.5
				c-0.3,0.4-0.5,0.8-0.5,1.3v2.9h-0.8v-5.4h0.7l0.1,1l0,0c0.2-0.3,0.4-0.6,0.7-0.8S229.9,139.3,230.2,139.3z"/>
			<path class="st2" d="M234.1,144.8c-0.8,0-1.4-0.2-1.9-0.7s-0.7-1.2-0.7-2c0-0.9,0.2-1.5,0.6-2.1c0.4-0.5,1-0.8,1.7-0.8
				s1.2,0.2,1.6,0.7c0.4,0.4,0.6,1,0.6,1.7v0.5h-3.7c0,0.6,0.2,1.1,0.5,1.4c0.3,0.3,0.7,0.5,1.3,0.5s1.1-0.1,1.7-0.4v0.7
				c-0.3,0.1-0.6,0.2-0.8,0.3C234.8,144.8,234.5,144.8,234.1,144.8z M233.9,140c-0.4,0-0.8,0.1-1,0.4c-0.3,0.3-0.4,0.7-0.5,1.2h2.8
				c0-0.5-0.1-0.9-0.3-1.2C234.6,140.1,234.3,140,233.9,140z"/>
			<path class="st2" d="M244.3,144.7v-3.5c0-0.4-0.1-0.7-0.3-1c-0.2-0.2-0.5-0.3-0.8-0.3c-0.5,0-0.9,0.1-1.1,0.4s-0.4,0.7-0.4,1.3v3
				h-0.8v-3.5c0-0.4-0.1-0.7-0.3-1c-0.2-0.2-0.5-0.3-0.9-0.3c-0.5,0-0.9,0.2-1.1,0.5c-0.2,0.3-0.4,0.8-0.4,1.5v2.8h-0.8v-5.4h0.7
				l0.1,0.7l0,0c0.2-0.3,0.4-0.5,0.6-0.6c0.3-0.1,0.6-0.2,0.9-0.2c0.8,0,1.4,0.3,1.6,0.9l0,0c0.2-0.3,0.4-0.5,0.7-0.7s0.6-0.2,1-0.2
				c0.6,0,1.1,0.2,1.4,0.5c0.3,0.3,0.5,0.8,0.5,1.5v3.5h-0.6V144.7z"/>
			<path class="st2" d="M251.4,142.1c0,0.9-0.2,1.6-0.7,2c-0.4,0.5-1,0.7-1.8,0.7c-0.5,0-0.9-0.1-1.3-0.3s-0.7-0.5-0.9-1
				s-0.3-0.9-0.3-1.5c0-0.9,0.2-1.6,0.7-2c0.4-0.5,1-0.7,1.8-0.7c0.7,0,1.3,0.2,1.8,0.7S251.4,141.2,251.4,142.1z M247.3,142.1
				c0,0.7,0.1,1.2,0.4,1.6s0.7,0.5,1.2,0.5s0.9-0.2,1.2-0.5c0.3-0.4,0.4-0.9,0.4-1.6c0-0.7-0.1-1.2-0.4-1.5
				c-0.3-0.4-0.7-0.5-1.2-0.5s-0.9,0.2-1.2,0.5S247.3,141.4,247.3,142.1z"/>
			<path class="st2" d="M256.2,143.3c0,0.5-0.2,0.9-0.6,1.2s-0.9,0.4-1.6,0.4c-0.7,0-1.3-0.1-1.7-0.3v-0.8c0.3,0.1,0.5,0.2,0.8,0.3
				s0.6,0.1,0.9,0.1c0.4,0,0.7-0.1,1-0.2c0.2-0.1,0.3-0.3,0.3-0.6c0-0.2-0.1-0.4-0.3-0.5s-0.5-0.3-1.1-0.5c-0.5-0.2-0.9-0.3-1.1-0.5
				c-0.2-0.1-0.4-0.3-0.5-0.5s-0.2-0.4-0.2-0.6c0-0.4,0.2-0.8,0.5-1c0.4-0.3,0.8-0.4,1.5-0.4c0.6,0,1.1,0.1,1.7,0.4l-0.3,0.7
				c-0.5-0.2-1-0.3-1.5-0.3c-0.4,0-0.7,0.1-0.9,0.2s-0.3,0.3-0.3,0.5c0,0.1,0,0.3,0.1,0.4c0.1,0.1,0.2,0.2,0.4,0.3s0.5,0.2,0.9,0.4
				c0.6,0.2,1.1,0.5,1.3,0.7C256.1,142.6,256.2,142.9,256.2,143.3z"/>
			<path class="st2" d="M195.5,156.7h-0.8v-7.6h0.8V156.7z"/>
			<path class="st2" d="M200.6,156.7l-0.2-0.8l0,0c-0.3,0.3-0.5,0.6-0.8,0.7c-0.3,0.1-0.6,0.2-1,0.2c-0.5,0-0.9-0.1-1.2-0.4
				c-0.3-0.3-0.5-0.7-0.5-1.2c0-1.1,0.9-1.6,2.6-1.7h0.9v-0.3c0-0.4-0.1-0.7-0.3-0.9s-0.5-0.3-0.9-0.3s-1,0.1-1.5,0.4l-0.2-0.6
				c0.3-0.1,0.6-0.3,0.9-0.3c0.3-0.1,0.6-0.1,0.9-0.1c0.6,0,1.1,0.1,1.4,0.4c0.3,0.3,0.5,0.7,0.5,1.4v3.7h-0.6V156.7z M198.7,156.2
				c0.5,0,0.9-0.1,1.2-0.4c0.3-0.3,0.4-0.7,0.4-1.2v-0.5h-0.8c-0.6,0-1.1,0.1-1.4,0.3c-0.3,0.2-0.4,0.5-0.4,0.8s0.1,0.5,0.3,0.7
				S198.4,156.2,198.7,156.2z"/>
			<path class="st2" d="M207.6,156.8c-0.8,0-1.4-0.2-1.8-0.7c-0.4-0.5-0.6-1.2-0.6-2c0-0.9,0.2-1.6,0.6-2.1c0.4-0.5,1-0.7,1.8-0.7
				c0.3,0,0.5,0,0.8,0.1s0.5,0.1,0.6,0.2l-0.2,0.7c-0.2-0.1-0.4-0.1-0.6-0.2c-0.2,0-0.4-0.1-0.6-0.1c-1.1,0-1.6,0.7-1.6,2.1
				c0,0.7,0.1,1.2,0.4,1.5c0.3,0.4,0.7,0.5,1.2,0.5c0.4,0,0.9-0.1,1.4-0.3v0.7C208.6,156.7,208.1,156.8,207.6,156.8z"/>
			<path class="st2" d="M214.8,154.1c0,0.9-0.2,1.6-0.7,2c-0.4,0.5-1,0.7-1.8,0.7c-0.5,0-0.9-0.1-1.3-0.3s-0.7-0.5-0.9-1
				s-0.3-0.9-0.3-1.5c0-0.9,0.2-1.6,0.7-2c0.4-0.5,1-0.7,1.8-0.7c0.7,0,1.3,0.2,1.8,0.7S214.8,153.2,214.8,154.1z M210.7,154.1
				c0,0.7,0.1,1.2,0.4,1.6s0.7,0.5,1.2,0.5s0.9-0.2,1.2-0.5c0.3-0.4,0.4-0.9,0.4-1.6c0-0.7-0.1-1.2-0.4-1.5
				c-0.3-0.4-0.7-0.5-1.2-0.5s-0.9,0.2-1.2,0.5S210.7,153.4,210.7,154.1z"/>
			<path class="st2" d="M218,156.2c0.1,0,0.3,0,0.4,0c0.1,0,0.2,0,0.3-0.1v0.6c-0.1,0-0.2,0.1-0.4,0.1s-0.3,0-0.5,0
				c-1,0-1.6-0.5-1.6-1.6V152h-0.8v-0.4l0.8-0.3l0.3-1.1h0.5v1.2h1.6v0.6H217v3.1c0,0.3,0.1,0.6,0.2,0.7S217.7,156.2,218,156.2z"/>
			<path class="st2" d="M219.7,149.9c0-0.2,0-0.3,0.1-0.4c0.1-0.1,0.2-0.1,0.3-0.1s0.2,0,0.3,0.1s0.1,0.2,0.1,0.4s0,0.3-0.1,0.4
				c-0.1,0.1-0.2,0.1-0.3,0.1s-0.3,0-0.3-0.1C219.7,150.3,219.7,150.1,219.7,149.9z M220.6,156.7h-0.8v-5.4h0.8V156.7z"/>
			<path class="st2" d="M225.7,156.7h-3.9v-0.6l2.9-4.2H222v-0.6h3.6v0.6l-2.9,4.1h3L225.7,156.7L225.7,156.7z"/>
			<path class="st2" d="M230.3,156.7l-0.2-0.8l0,0c-0.3,0.3-0.5,0.6-0.8,0.7c-0.3,0.1-0.6,0.2-1,0.2c-0.5,0-0.9-0.1-1.2-0.4
				c-0.3-0.3-0.5-0.7-0.5-1.2c0-1.1,0.9-1.6,2.6-1.7h0.9v-0.3c0-0.4-0.1-0.7-0.3-0.9s-0.5-0.3-0.9-0.3s-1,0.1-1.5,0.4l-0.2-0.6
				c0.3-0.1,0.6-0.3,0.9-0.3c0.3-0.1,0.6-0.1,0.9-0.1c0.6,0,1.1,0.1,1.4,0.4c0.3,0.3,0.5,0.7,0.5,1.4v3.7h-0.6V156.7z M228.4,156.2
				c0.5,0,0.9-0.1,1.2-0.4c0.3-0.3,0.4-0.7,0.4-1.2v-0.5h-0.8c-0.6,0-1.1,0.1-1.4,0.3c-0.3,0.2-0.4,0.5-0.4,0.8s0.1,0.5,0.3,0.7
				S228.1,156.2,228.4,156.2z"/>
			<path class="st2" d="M234.7,156.8c-0.8,0-1.4-0.2-1.8-0.7c-0.4-0.5-0.6-1.2-0.6-2c0-0.9,0.2-1.6,0.6-2.1c0.4-0.5,1-0.7,1.8-0.7
				c0.3,0,0.5,0,0.8,0.1s0.5,0.1,0.6,0.2l-0.2,0.7c-0.2-0.1-0.4-0.1-0.6-0.2c-0.2,0-0.4-0.1-0.6-0.1c-1.1,0-1.6,0.7-1.6,2.1
				c0,0.7,0.1,1.2,0.4,1.5c0.3,0.4,0.7,0.5,1.2,0.5c0.4,0,0.9-0.1,1.4-0.3v0.7C235.7,156.7,235.2,156.8,234.7,156.8z"/>
			<path class="st2" d="M237.2,149.9c0-0.2,0-0.3,0.1-0.4c0.1-0.1,0.2-0.1,0.3-0.1s0.2,0,0.3,0.1s0.1,0.2,0.1,0.4s0,0.3-0.1,0.4
				c-0.1,0.1-0.2,0.1-0.3,0.1s-0.3,0-0.3-0.1C237.3,150.3,237.2,150.1,237.2,149.9z M238.1,156.7h-0.8v-5.4h0.8V156.7z"/>
			<path class="st2" d="M244.4,154.1c0,0.9-0.2,1.6-0.7,2c-0.4,0.5-1,0.7-1.8,0.7c-0.5,0-0.9-0.1-1.3-0.3s-0.7-0.5-0.9-1
				s-0.3-0.9-0.3-1.5c0-0.9,0.2-1.6,0.7-2c0.4-0.5,1-0.7,1.8-0.7c0.7,0,1.3,0.2,1.8,0.7S244.4,153.2,244.4,154.1z M240.4,154.1
				c0,0.7,0.1,1.2,0.4,1.6s0.7,0.5,1.2,0.5s0.9-0.2,1.2-0.5c0.3-0.4,0.4-0.9,0.4-1.6c0-0.7-0.1-1.2-0.4-1.5
				c-0.3-0.4-0.7-0.5-1.2-0.5s-0.9,0.2-1.2,0.5S240.4,153.4,240.4,154.1z M241.3,150.6c0.2-0.2,0.3-0.4,0.5-0.7s0.3-0.5,0.4-0.7h1
				v0.1c-0.1,0.2-0.4,0.5-0.6,0.8s-0.5,0.5-0.7,0.7h-0.5L241.3,150.6L241.3,150.6z"/>
			<path class="st2" d="M249.5,156.7v-3.5c0-0.4-0.1-0.8-0.3-1s-0.5-0.3-0.9-0.3c-0.6,0-1,0.2-1.2,0.5s-0.4,0.8-0.4,1.5v2.8h-0.8
				v-5.4h0.7l0.1,0.7l0,0c0.2-0.3,0.4-0.5,0.7-0.6s0.6-0.2,1-0.2c0.6,0,1.1,0.2,1.5,0.5c0.3,0.3,0.5,0.8,0.5,1.5v3.5H249.5z"/>
			<path class="st2" d="M205.9,168.7l-0.2-0.8l0,0c-0.3,0.3-0.5,0.6-0.8,0.7c-0.3,0.1-0.6,0.2-1,0.2c-0.5,0-0.9-0.1-1.2-0.4
				c-0.3-0.3-0.5-0.7-0.5-1.2c0-1.1,0.9-1.6,2.6-1.7h0.9v-0.3c0-0.4-0.1-0.7-0.3-0.9s-0.5-0.3-0.9-0.3s-1,0.1-1.5,0.4l-0.2-0.6
				c0.3-0.1,0.6-0.3,0.9-0.3c0.3-0.1,0.6-0.1,0.9-0.1c0.6,0,1.1,0.1,1.4,0.4c0.3,0.3,0.5,0.7,0.5,1.4v3.7h-0.6V168.7z M204,168.2
				c0.5,0,0.9-0.1,1.2-0.4c0.3-0.3,0.4-0.7,0.4-1.2v-0.5h-0.8c-0.6,0-1.1,0.1-1.4,0.3c-0.3,0.2-0.4,0.5-0.4,0.8s0.1,0.5,0.3,0.7
				S203.7,168.2,204,168.2z"/>
			<path class="st2" d="M211.6,167.3c0,0.5-0.2,0.9-0.6,1.2s-0.9,0.4-1.6,0.4c-0.7,0-1.3-0.1-1.7-0.3v-0.8c0.3,0.1,0.5,0.2,0.8,0.3
				s0.6,0.1,0.9,0.1c0.4,0,0.7-0.1,1-0.2c0.2-0.1,0.3-0.3,0.3-0.6c0-0.2-0.1-0.4-0.3-0.5s-0.5-0.3-1.1-0.5c-0.5-0.2-0.9-0.3-1.1-0.5
				c-0.2-0.1-0.4-0.3-0.5-0.5s-0.2-0.4-0.2-0.6c0-0.4,0.2-0.8,0.5-1c0.4-0.3,0.8-0.4,1.5-0.4c0.6,0,1.1,0.1,1.7,0.4l-0.3,0.7
				c-0.5-0.2-1-0.3-1.5-0.3c-0.4,0-0.7,0.1-0.9,0.2s-0.3,0.3-0.3,0.5c0,0.1,0,0.3,0.1,0.4c0.1,0.1,0.2,0.2,0.4,0.3s0.5,0.2,0.9,0.4
				c0.6,0.2,1.1,0.5,1.3,0.7C211.5,166.6,211.6,166.9,211.6,167.3z"/>
			<path class="st2" d="M212.9,162.6c0.2-0.2,0.3-0.4,0.5-0.7s0.3-0.5,0.4-0.7h1v0.1c-0.1,0.2-0.4,0.5-0.6,0.8s-0.5,0.5-0.7,0.7H213
				L212.9,162.6L212.9,162.6z M213.7,168.7h-0.8v-5.4h0.8V168.7z"/>
			<path class="st2" d="M220.2,168.8c-0.8,0-1.4-0.2-1.8-0.7c-0.4-0.5-0.6-1.2-0.6-2c0-0.9,0.2-1.6,0.6-2.1c0.4-0.5,1-0.7,1.8-0.7
				c0.3,0,0.5,0,0.8,0.1s0.5,0.1,0.6,0.2l-0.2,0.7c-0.2-0.1-0.4-0.1-0.6-0.2c-0.2,0-0.4-0.1-0.6-0.1c-1.1,0-1.6,0.7-1.6,2.1
				c0,0.7,0.1,1.2,0.4,1.5c0.3,0.4,0.7,0.5,1.2,0.5c0.4,0,0.9-0.1,1.4-0.3v0.7C221.2,168.7,220.7,168.8,220.2,168.8z"/>
			<path class="st2" d="M227.4,166.1c0,0.9-0.2,1.6-0.7,2c-0.4,0.5-1,0.7-1.8,0.7c-0.5,0-0.9-0.1-1.3-0.3s-0.7-0.5-0.9-1
				s-0.3-0.9-0.3-1.5c0-0.9,0.2-1.6,0.7-2c0.4-0.5,1-0.7,1.8-0.7c0.7,0,1.3,0.2,1.8,0.7S227.4,165.2,227.4,166.1z M223.3,166.1
				c0,0.7,0.1,1.2,0.4,1.6s0.7,0.5,1.2,0.5s0.9-0.2,1.2-0.5c0.3-0.4,0.4-0.9,0.4-1.6c0-0.7-0.1-1.2-0.4-1.5
				c-0.3-0.4-0.7-0.5-1.2-0.5s-0.9,0.2-1.2,0.5S223.3,165.4,223.3,166.1z"/>
			<path class="st2" d="M235.6,168.7v-3.5c0-0.4-0.1-0.7-0.3-1c-0.2-0.2-0.5-0.3-0.8-0.3c-0.5,0-0.9,0.1-1.1,0.4s-0.4,0.7-0.4,1.3v3
				h-0.8v-3.5c0-0.4-0.1-0.7-0.3-1c-0.2-0.2-0.5-0.3-0.9-0.3c-0.5,0-0.9,0.2-1.1,0.5c-0.2,0.3-0.4,0.8-0.4,1.5v2.8h-0.8v-5.4h0.7
				l0.1,0.7l0,0c0.2-0.3,0.4-0.5,0.6-0.6c0.3-0.1,0.6-0.2,0.9-0.2c0.8,0,1.4,0.3,1.6,0.9l0,0c0.2-0.3,0.4-0.5,0.7-0.7s0.6-0.2,1-0.2
				c0.6,0,1.1,0.2,1.4,0.5c0.3,0.3,0.5,0.8,0.5,1.5v3.5h-0.6V168.7z"/>
			<path class="st2" d="M242.7,166.1c0,0.9-0.2,1.6-0.7,2c-0.4,0.5-1,0.7-1.8,0.7c-0.5,0-0.9-0.1-1.3-0.3s-0.7-0.5-0.9-1
				s-0.3-0.9-0.3-1.5c0-0.9,0.2-1.6,0.7-2c0.4-0.5,1-0.7,1.8-0.7c0.7,0,1.3,0.2,1.8,0.7S242.7,165.2,242.7,166.1z M238.7,166.1
				c0,0.7,0.1,1.2,0.4,1.6s0.7,0.5,1.2,0.5s0.9-0.2,1.2-0.5c0.3-0.4,0.4-0.9,0.4-1.6c0-0.7-0.1-1.2-0.4-1.5
				c-0.3-0.4-0.7-0.5-1.2-0.5s-0.9,0.2-1.2,0.5S238.7,165.4,238.7,166.1z"/>
			<path class="st2" d="M192.4,173.9c0-0.2,0-0.3,0.1-0.4c0.1-0.1,0.2-0.1,0.3-0.1s0.2,0,0.3,0.1s0.1,0.2,0.1,0.4s0,0.3-0.1,0.4
				c-0.1,0.1-0.2,0.1-0.3,0.1s-0.3,0-0.3-0.1C192.4,174.3,192.4,174.1,192.4,173.9z M193.3,180.7h-0.8v-5.4h0.8V180.7z"/>
			<path class="st2" d="M198.7,180.7v-3.5c0-0.4-0.1-0.8-0.3-1s-0.5-0.3-0.9-0.3c-0.6,0-1,0.2-1.2,0.5s-0.4,0.8-0.4,1.5v2.8H195
				v-5.4h0.7l0.1,0.7l0,0c0.2-0.3,0.4-0.5,0.7-0.6s0.6-0.2,1-0.2c0.6,0,1.1,0.2,1.5,0.5c0.3,0.3,0.5,0.8,0.5,1.5v3.5H198.7z"/>
			<path class="st2" d="M204.6,179.3c0,0.5-0.2,0.9-0.6,1.2s-0.9,0.4-1.6,0.4c-0.7,0-1.3-0.1-1.7-0.3v-0.8c0.3,0.1,0.5,0.2,0.8,0.3
				s0.6,0.1,0.9,0.1c0.4,0,0.7-0.1,1-0.2c0.2-0.1,0.3-0.3,0.3-0.6c0-0.2-0.1-0.4-0.3-0.5s-0.5-0.3-1.1-0.5c-0.5-0.2-0.9-0.3-1.1-0.5
				c-0.2-0.1-0.4-0.3-0.5-0.5s-0.2-0.4-0.2-0.6c0-0.4,0.2-0.8,0.5-1c0.4-0.3,0.8-0.4,1.5-0.4c0.6,0,1.1,0.1,1.7,0.4l-0.3,0.7
				c-0.5-0.2-1-0.3-1.5-0.3c-0.4,0-0.7,0.1-0.9,0.2s-0.3,0.3-0.3,0.5c0,0.1,0,0.3,0.1,0.4c0.1,0.1,0.2,0.2,0.4,0.3s0.5,0.2,0.9,0.4
				c0.6,0.2,1.1,0.5,1.3,0.7C204.5,178.6,204.6,178.9,204.6,179.3z"/>
			<path class="st2" d="M207.6,180.2c0.1,0,0.3,0,0.4,0c0.1,0,0.2,0,0.3-0.1v0.6c-0.1,0-0.2,0.1-0.4,0.1s-0.3,0-0.5,0
				c-1,0-1.6-0.5-1.6-1.6V176H205v-0.4l0.8-0.3l0.3-1.1h0.5v1.2h1.6v0.6h-1.6v3.1c0,0.3,0.1,0.6,0.2,0.7S207.4,180.2,207.6,180.2z"
				/>
			<path class="st2" d="M211.9,175.3c0.2,0,0.5,0,0.6,0.1l-0.1,0.8c-0.2,0-0.4-0.1-0.6-0.1c-0.4,0-0.8,0.2-1.1,0.5
				c-0.3,0.4-0.5,0.8-0.5,1.3v2.9h-0.8v-5.4h0.7l0.1,1l0,0c0.2-0.3,0.4-0.6,0.7-0.8S211.5,175.3,211.9,175.3z"/>
			<path class="st2" d="M214.3,175.4v3.5c0,0.4,0.1,0.8,0.3,1s0.5,0.3,0.9,0.3c0.6,0,1-0.2,1.2-0.5c0.3-0.3,0.4-0.8,0.4-1.5v-2.8
				h0.8v5.4h-0.7l-0.1-0.7l0,0c-0.2,0.3-0.4,0.5-0.7,0.6s-0.6,0.2-1,0.2c-0.7,0-1.1-0.2-1.5-0.5c-0.3-0.3-0.5-0.8-0.5-1.5v-3.5
				H214.3z"/>
			<path class="st2" d="M221.8,180.8c-0.8,0-1.4-0.2-1.8-0.7c-0.4-0.5-0.6-1.2-0.6-2c0-0.9,0.2-1.6,0.6-2.1c0.4-0.5,1-0.7,1.8-0.7
				c0.3,0,0.5,0,0.8,0.1s0.5,0.1,0.6,0.2l-0.2,0.7c-0.2-0.1-0.4-0.1-0.6-0.2c-0.2,0-0.4-0.1-0.6-0.1c-1.1,0-1.6,0.7-1.6,2.1
				c0,0.7,0.1,1.2,0.4,1.5c0.3,0.4,0.7,0.5,1.2,0.5c0.4,0,0.9-0.1,1.4-0.3v0.7C222.8,180.7,222.3,180.8,221.8,180.8z"/>
			<path class="st2" d="M226.6,180.8c-0.8,0-1.4-0.2-1.8-0.7c-0.4-0.5-0.6-1.2-0.6-2c0-0.9,0.2-1.6,0.6-2.1c0.4-0.5,1-0.7,1.8-0.7
				c0.3,0,0.5,0,0.8,0.1s0.5,0.1,0.6,0.2l-0.2,0.7c-0.2-0.1-0.4-0.1-0.6-0.2c-0.2,0-0.4-0.1-0.6-0.1c-1.1,0-1.6,0.7-1.6,2.1
				c0,0.7,0.1,1.2,0.4,1.5c0.3,0.4,0.7,0.5,1.2,0.5c0.4,0,0.9-0.1,1.4-0.3v0.7C227.5,180.7,227.1,180.8,226.6,180.8z"/>
			<path class="st2" d="M229.1,173.9c0-0.2,0-0.3,0.1-0.4c0.1-0.1,0.2-0.1,0.3-0.1s0.2,0,0.3,0.1s0.1,0.2,0.1,0.4s0,0.3-0.1,0.4
				c-0.1,0.1-0.2,0.1-0.3,0.1s-0.3,0-0.3-0.1C229.2,174.3,229.1,174.1,229.1,173.9z M230,180.7h-0.8v-5.4h0.8V180.7z"/>
			<path class="st2" d="M236.3,178.1c0,0.9-0.2,1.6-0.7,2c-0.4,0.5-1,0.7-1.8,0.7c-0.5,0-0.9-0.1-1.3-0.3s-0.7-0.5-0.9-1
				s-0.3-0.9-0.3-1.5c0-0.9,0.2-1.6,0.7-2c0.4-0.5,1-0.7,1.8-0.7c0.7,0,1.3,0.2,1.8,0.7S236.3,177.2,236.3,178.1z M232.2,178.1
				c0,0.7,0.1,1.2,0.4,1.6s0.7,0.5,1.2,0.5s0.9-0.2,1.2-0.5c0.3-0.4,0.4-0.9,0.4-1.6c0-0.7-0.1-1.2-0.4-1.5
				c-0.3-0.4-0.7-0.5-1.2-0.5s-0.9,0.2-1.2,0.5S232.2,177.4,232.2,178.1z"/>
			<path class="st2" d="M241.4,180.7v-3.5c0-0.4-0.1-0.8-0.3-1s-0.5-0.3-0.9-0.3c-0.6,0-1,0.2-1.2,0.5s-0.4,0.8-0.4,1.5v2.8h-0.8
				v-5.4h0.7l0.1,0.7l0,0c0.2-0.3,0.4-0.5,0.7-0.6s0.6-0.2,1-0.2c0.6,0,1.1,0.2,1.5,0.5c0.3,0.3,0.5,0.8,0.5,1.5v3.5H241.4z"/>
			<path class="st2" d="M246.1,180.8c-0.8,0-1.4-0.2-1.9-0.7s-0.7-1.2-0.7-2c0-0.9,0.2-1.5,0.6-2.1c0.4-0.5,1-0.8,1.7-0.8
				s1.2,0.2,1.6,0.7c0.4,0.4,0.6,1,0.6,1.7v0.5h-3.7c0,0.6,0.2,1.1,0.5,1.4c0.3,0.3,0.7,0.5,1.3,0.5s1.1-0.1,1.7-0.4v0.7
				c-0.3,0.1-0.6,0.2-0.8,0.3C246.8,180.8,246.5,180.8,246.1,180.8z M245.9,176c-0.4,0-0.8,0.1-1,0.4c-0.3,0.3-0.4,0.7-0.5,1.2h2.8
				c0-0.5-0.1-0.9-0.3-1.2C246.7,176.1,246.3,176,245.9,176z"/>
			<path class="st2" d="M252.9,179.3c0,0.5-0.2,0.9-0.6,1.2s-0.9,0.4-1.6,0.4c-0.7,0-1.3-0.1-1.7-0.3v-0.8c0.3,0.1,0.5,0.2,0.8,0.3
				s0.6,0.1,0.9,0.1c0.4,0,0.7-0.1,1-0.2c0.2-0.1,0.3-0.3,0.3-0.6c0-0.2-0.1-0.4-0.3-0.5s-0.5-0.3-1.1-0.5c-0.5-0.2-0.9-0.3-1.1-0.5
				c-0.2-0.1-0.4-0.3-0.5-0.5s-0.2-0.4-0.2-0.6c0-0.4,0.2-0.8,0.5-1c0.4-0.3,0.8-0.4,1.5-0.4c0.6,0,1.1,0.1,1.7,0.4l-0.3,0.7
				c-0.5-0.2-1-0.3-1.5-0.3c-0.4,0-0.7,0.1-0.9,0.2s-0.3,0.3-0.3,0.5c0,0.1,0,0.3,0.1,0.4c0.1,0.1,0.2,0.2,0.4,0.3s0.5,0.2,0.9,0.4
				c0.6,0.2,1.1,0.5,1.3,0.7C252.8,178.6,252.9,178.9,252.9,179.3z"/>
			<path class="st2" d="M208.2,192L208.2,192c-0.4,0.5-1,0.8-1.7,0.8s-1.2-0.2-1.6-0.7c-0.4-0.5-0.6-1.2-0.6-2s0.2-1.6,0.6-2.1
				s0.9-0.7,1.6-0.7c0.7,0,1.3,0.3,1.7,0.8h0.1v-0.4v-0.4v-2.2h0.8v7.6h-0.7L208.2,192z M206.6,192.2c0.6,0,1-0.2,1.2-0.5
				s0.4-0.8,0.4-1.5V190c0-0.8-0.1-1.3-0.4-1.6c-0.3-0.3-0.7-0.5-1.2-0.5s-0.8,0.2-1.1,0.6c-0.3,0.4-0.4,0.9-0.4,1.6
				c0,0.7,0.1,1.2,0.4,1.5S206.1,192.2,206.6,192.2z"/>
			<path class="st2" d="M213,192.8c-0.8,0-1.4-0.2-1.9-0.7s-0.7-1.2-0.7-2c0-0.9,0.2-1.5,0.6-2.1c0.4-0.5,1-0.8,1.7-0.8
				s1.2,0.2,1.6,0.7c0.4,0.4,0.6,1,0.6,1.7v0.5h-3.7c0,0.6,0.2,1.1,0.5,1.4c0.3,0.3,0.7,0.5,1.3,0.5s1.1-0.1,1.7-0.4v0.7
				c-0.3,0.1-0.6,0.2-0.8,0.3C213.7,192.8,213.3,192.8,213,192.8z M212.8,188c-0.4,0-0.8,0.1-1,0.4c-0.3,0.3-0.4,0.7-0.5,1.2h2.8
				c0-0.5-0.1-0.9-0.3-1.2C213.5,188.1,213.2,188,212.8,188z"/>
			<path class="st2" d="M221.4,192.8c-0.3,0-0.7-0.1-1-0.2c-0.3-0.1-0.5-0.3-0.7-0.6h-0.1c0,0.3,0.1,0.6,0.1,0.9v2.2h-0.8v-7.8h0.7
				l0.1,0.7l0,0c0.2-0.3,0.5-0.5,0.7-0.6s0.6-0.2,1-0.2c0.7,0,1.3,0.2,1.6,0.7c0.4,0.5,0.6,1.2,0.6,2c0,0.9-0.2,1.6-0.6,2
				C222.7,192.6,222.1,192.8,221.4,192.8z M221.3,188c-0.5,0-0.9,0.2-1.2,0.5s-0.4,0.8-0.4,1.4v0.2c0,0.8,0.1,1.3,0.4,1.6
				c0.3,0.3,0.7,0.5,1.2,0.5s0.8-0.2,1.1-0.6c0.3-0.4,0.4-0.9,0.4-1.5c0-0.7-0.1-1.2-0.4-1.5C222.1,188.2,221.8,188,221.3,188z"/>
			<path class="st2" d="M228.3,192.7l-0.2-0.8l0,0c-0.3,0.3-0.5,0.6-0.8,0.7c-0.3,0.1-0.6,0.2-1,0.2c-0.5,0-0.9-0.1-1.2-0.4
				c-0.3-0.3-0.5-0.7-0.5-1.2c0-1.1,0.9-1.6,2.6-1.7h0.9v-0.3c0-0.4-0.1-0.7-0.3-0.9s-0.5-0.3-0.9-0.3s-1,0.1-1.5,0.4l-0.2-0.6
				c0.3-0.1,0.6-0.3,0.9-0.3c0.3-0.1,0.6-0.1,0.9-0.1c0.6,0,1.1,0.1,1.4,0.4c0.3,0.3,0.5,0.7,0.5,1.4v3.7h-0.6V192.7z M226.5,192.2
				c0.5,0,0.9-0.1,1.2-0.4c0.3-0.3,0.4-0.7,0.4-1.2v-0.5h-0.8c-0.6,0-1.1,0.1-1.4,0.3c-0.3,0.2-0.4,0.5-0.4,0.8s0.1,0.5,0.3,0.7
				C225.9,192.1,226.2,192.2,226.5,192.2z"/>
			<path class="st2" d="M235,187.4v0.5l-1,0.1c0.1,0.1,0.2,0.3,0.2,0.4c0.1,0.2,0.1,0.4,0.1,0.6c0,0.5-0.2,0.9-0.5,1.3
				s-0.8,0.5-1.5,0.5c-0.2,0-0.3,0-0.4,0c-0.3,0.2-0.5,0.4-0.5,0.7c0,0.1,0.1,0.3,0.2,0.3c0.1,0.1,0.3,0.1,0.6,0.1h0.9
				c0.6,0,1,0.1,1.3,0.4c0.3,0.2,0.5,0.6,0.5,1.1c0,0.6-0.2,1-0.7,1.4c-0.5,0.3-1.2,0.5-2.1,0.5c-0.7,0-1.2-0.1-1.6-0.4
				c-0.4-0.3-0.6-0.6-0.6-1.1c0-0.3,0.1-0.6,0.3-0.8s0.5-0.4,0.9-0.5c-0.1-0.1-0.3-0.2-0.3-0.3c-0.1-0.1-0.1-0.3-0.1-0.5
				s0.1-0.4,0.2-0.5s0.3-0.3,0.5-0.4c-0.3-0.1-0.5-0.3-0.7-0.6s-0.3-0.6-0.3-0.9c0-0.6,0.2-1,0.5-1.4c0.4-0.3,0.8-0.5,1.5-0.5
				c0.3,0,0.5,0,0.8,0.1h1.8V187.4z M230.7,193.6c0,0.3,0.1,0.5,0.4,0.7s0.6,0.2,1,0.2c0.7,0,1.2-0.1,1.5-0.3s0.5-0.5,0.5-0.8
				s-0.1-0.5-0.3-0.6s-0.5-0.2-1-0.2h-1c-0.4,0-0.7,0.1-0.9,0.3S230.7,193.3,230.7,193.6z M231.2,189.1c0,0.4,0.1,0.7,0.3,0.8
				s0.5,0.3,0.9,0.3c0.8,0,1.2-0.4,1.2-1.2s-0.4-1.2-1.2-1.2c-0.4,0-0.7,0.1-0.9,0.3S231.2,188.7,231.2,189.1z"/>
			<path class="st2" d="M240.7,190.1c0,0.9-0.2,1.6-0.7,2c-0.4,0.5-1,0.7-1.8,0.7c-0.5,0-0.9-0.1-1.3-0.3s-0.7-0.5-0.9-1
				s-0.3-0.9-0.3-1.5c0-0.9,0.2-1.6,0.7-2c0.4-0.5,1-0.7,1.8-0.7c0.7,0,1.3,0.2,1.8,0.7S240.7,189.2,240.7,190.1z M236.6,190.1
				c0,0.7,0.1,1.2,0.4,1.6s0.7,0.5,1.2,0.5s0.9-0.2,1.2-0.5c0.3-0.4,0.4-0.9,0.4-1.6c0-0.7-0.1-1.2-0.4-1.5
				c-0.3-0.4-0.7-0.5-1.2-0.5s-0.9,0.2-1.2,0.5S236.6,189.4,236.6,190.1z"/>
		</g>
	</g>
	<g>
		<g>
			<path class="st1" d="M299,123.4c0,0.8-0.2,1.4-0.7,1.8s-1.2,0.6-2,0.6h-0.6v2.5h-1.5v-7.1h2.3c0.9,0,1.5,0.2,2,0.6
				C298.8,122.1,299,122.7,299,123.4z M295.6,124.6h0.5c0.5,0,0.8-0.1,1-0.3c0.2-0.2,0.3-0.5,0.3-0.8c0-0.4-0.1-0.6-0.3-0.8
				c-0.2-0.2-0.5-0.3-0.9-0.3h-0.7v2.2H295.6z"/>
			<path class="st1" d="M304.7,128.3l-0.5-1.7h-2.6l-0.5,1.7h-1.6l2.5-7.2h1.9l2.5,7.2H304.7z M303.8,125.4
				c-0.5-1.5-0.7-2.4-0.8-2.6c-0.1-0.2-0.1-0.4-0.1-0.5c-0.1,0.4-0.4,1.4-0.9,3.1H303.8z"/>
			<path class="st1" d="M311.5,126.4c0,0.6-0.2,1.2-0.7,1.5c-0.5,0.4-1.1,0.6-1.9,0.6s-1.4-0.1-2-0.4v-1.4c0.5,0.2,0.9,0.4,1.2,0.5
				c0.3,0.1,0.6,0.1,0.9,0.1s0.6-0.1,0.8-0.2c0.2-0.1,0.3-0.3,0.3-0.6c0-0.1,0-0.3-0.1-0.4s-0.2-0.2-0.3-0.3
				c-0.2-0.1-0.5-0.3-0.9-0.5s-0.8-0.4-1-0.6s-0.4-0.4-0.5-0.7s-0.2-0.5-0.2-0.9c0-0.6,0.2-1.1,0.6-1.5s1-0.5,1.8-0.5
				c0.4,0,0.7,0,1.1,0.1c0.3,0.1,0.7,0.2,1.1,0.4l-0.5,1.2c-0.4-0.2-0.7-0.3-0.9-0.3c-0.2-0.1-0.5-0.1-0.7-0.1
				c-0.3,0-0.5,0.1-0.7,0.2s-0.2,0.3-0.2,0.5c0,0.1,0,0.2,0.1,0.3c0.1,0.1,0.2,0.2,0.3,0.3c0.1,0.1,0.5,0.3,1,0.5
				c0.7,0.3,1.1,0.6,1.4,1C311.3,125.5,311.5,125.9,311.5,126.4z"/>
			<path class="st1" d="M319.2,124.8c0,1.2-0.3,2.1-0.9,2.7c-0.6,0.6-1.4,1-2.5,1s-1.9-0.3-2.5-1s-0.9-1.5-0.9-2.7s0.3-2.1,0.9-2.7
				s1.4-0.9,2.5-0.9s1.9,0.3,2.5,0.9C319,122.7,319.2,123.6,319.2,124.8z M314,124.8c0,0.8,0.2,1.4,0.5,1.8s0.8,0.6,1.4,0.6
				c1.2,0,1.8-0.8,1.8-2.4s-0.6-2.4-1.8-2.4c-0.6,0-1.1,0.2-1.4,0.6S314,124,314,124.8z"/>
			<path class="st1" d="M328,126.9h-0.9v1.5h-1.5v-1.5h-3v-1l3.1-4.6h1.4v4.5h0.9V126.9z M325.6,125.7v-1.2c0-0.2,0-0.5,0-0.9
				s0-0.6,0-0.7l0,0c-0.1,0.3-0.3,0.5-0.4,0.8l-1.3,2C323.9,125.7,325.6,125.7,325.6,125.7z"/>
		</g>
	</g>
	<g>
		<g>
			<path class="st2" d="M277.1,141.8v3h-0.8v-7.1h2c0.9,0,1.5,0.2,1.9,0.5s0.6,0.8,0.6,1.5c0,0.9-0.5,1.6-1.4,1.9l1.9,3.2h-1l-1.7-3
				L277.1,141.8L277.1,141.8z M277.1,141.1h1.1c0.6,0,1-0.1,1.3-0.3s0.4-0.6,0.4-1c0-0.5-0.1-0.8-0.4-1s-0.7-0.3-1.3-0.3h-1.1V141.1
				z"/>
			<path class="st2" d="M284.6,144.8c-0.8,0-1.4-0.2-1.9-0.7s-0.7-1.2-0.7-2c0-0.9,0.2-1.5,0.6-2.1c0.4-0.5,1-0.8,1.7-0.8
				s1.2,0.2,1.6,0.7c0.4,0.4,0.6,1,0.6,1.7v0.5h-3.7c0,0.6,0.2,1.1,0.5,1.4c0.3,0.3,0.7,0.5,1.3,0.5c0.6,0,1.1-0.1,1.7-0.4v0.7
				c-0.3,0.1-0.6,0.2-0.8,0.3C285.3,144.8,285,144.8,284.6,144.8z M284.4,140c-0.4,0-0.8,0.1-1,0.4c-0.3,0.3-0.4,0.7-0.5,1.2h2.8
				c0-0.5-0.1-0.9-0.3-1.2C285.1,140.1,284.8,140,284.4,140z"/>
			<path class="st2" d="M291.2,144.7l-0.2-0.8l0,0c-0.3,0.3-0.5,0.6-0.8,0.7c-0.3,0.1-0.6,0.2-1,0.2c-0.5,0-0.9-0.1-1.2-0.4
				c-0.3-0.3-0.5-0.7-0.5-1.2c0-1.1,0.9-1.6,2.6-1.7h0.9v-0.3c0-0.4-0.1-0.7-0.3-0.9c-0.2-0.2-0.5-0.3-0.9-0.3s-1,0.1-1.5,0.4
				l-0.2-0.6c0.3-0.1,0.6-0.3,0.9-0.3c0.3-0.1,0.6-0.1,0.9-0.1c0.6,0,1.1,0.1,1.4,0.4c0.3,0.3,0.5,0.7,0.5,1.4v3.7h-0.6V144.7z
				 M289.4,144.2c0.5,0,0.9-0.1,1.2-0.4c0.3-0.3,0.4-0.7,0.4-1.2v-0.5h-0.8c-0.6,0-1.1,0.1-1.4,0.3s-0.4,0.5-0.4,0.8
				s0.1,0.5,0.3,0.7C288.8,144.1,289.1,144.2,289.4,144.2z"/>
			<path class="st2" d="M294.3,144.7h-0.8v-7.6h0.8V144.7z"/>
			<path class="st2" d="M296,137.9c0-0.2,0-0.3,0.1-0.4c0.1-0.1,0.2-0.1,0.3-0.1c0.1,0,0.2,0,0.3,0.1s0.1,0.2,0.1,0.4s0,0.3-0.1,0.4
				c-0.1,0.1-0.2,0.1-0.3,0.1c-0.1,0-0.3,0-0.3-0.1C296,138.3,296,138.1,296,137.9z M296.8,144.7H296v-5.4h0.8V144.7z"/>
			<path class="st2" d="M302,144.7h-3.9v-0.6l2.9-4.2h-2.7v-0.6h3.6v0.6L299,144h3V144.7z"/>
			<path class="st2" d="M306.5,144.7l-0.2-0.8l0,0c-0.3,0.3-0.5,0.6-0.8,0.7c-0.3,0.1-0.6,0.2-1,0.2c-0.5,0-0.9-0.1-1.2-0.4
				c-0.3-0.3-0.5-0.7-0.5-1.2c0-1.1,0.9-1.6,2.6-1.7h0.9v-0.3c0-0.4-0.1-0.7-0.3-0.9c-0.2-0.2-0.5-0.3-0.9-0.3s-1,0.1-1.5,0.4
				l-0.2-0.6c0.3-0.1,0.6-0.3,0.9-0.3c0.3-0.1,0.6-0.1,0.9-0.1c0.6,0,1.1,0.1,1.4,0.4c0.3,0.3,0.5,0.7,0.5,1.4v3.7h-0.6V144.7z
				 M304.7,144.2c0.5,0,0.9-0.1,1.2-0.4c0.3-0.3,0.4-0.7,0.4-1.2v-0.5h-0.8c-0.6,0-1.1,0.1-1.4,0.3s-0.4,0.5-0.4,0.8
				s0.1,0.5,0.3,0.7C304.1,144.1,304.4,144.2,304.7,144.2z"/>
			<path class="st2" d="M313.1,144.2c0.1,0,0.3,0,0.4,0s0.2,0,0.3-0.1v0.6c-0.1,0-0.2,0.1-0.4,0.1c-0.2,0-0.3,0-0.5,0
				c-1,0-1.6-0.5-1.6-1.6V140h-0.8v-0.4l0.8-0.3l0.3-1.1h0.5v1.2h1.6v0.6h-1.6v3.1c0,0.3,0.1,0.6,0.2,0.7S312.9,144.2,313.1,144.2z"
				/>
			<path class="st2" d="M315.7,139.4v3.5c0,0.4,0.1,0.8,0.3,1s0.5,0.3,0.9,0.3c0.6,0,1-0.2,1.2-0.5c0.3-0.3,0.4-0.8,0.4-1.5v-2.8
				h0.8v5.4h-0.7l-0.1-0.7l0,0c-0.2,0.3-0.4,0.5-0.7,0.6c-0.3,0.1-0.6,0.2-1,0.2c-0.7,0-1.1-0.2-1.5-0.5c-0.3-0.3-0.5-0.8-0.5-1.5
				v-3.5H315.7z"/>
			<path class="st2" d="M326.2,144.8c-0.3,0-0.7-0.1-1-0.2c-0.3-0.1-0.5-0.3-0.7-0.6h-0.1c0,0.3,0.1,0.6,0.1,0.9v2.2h-0.8v-7.8h0.7
				l0.1,0.7l0,0c0.2-0.3,0.5-0.5,0.7-0.6s0.6-0.2,1-0.2c0.7,0,1.3,0.2,1.6,0.7c0.4,0.5,0.6,1.2,0.6,2c0,0.9-0.2,1.6-0.6,2
				C327.4,144.6,326.9,144.8,326.2,144.8z M326,140c-0.5,0-0.9,0.2-1.2,0.5s-0.4,0.8-0.4,1.4v0.2c0,0.8,0.1,1.3,0.4,1.6
				s0.7,0.5,1.2,0.5s0.8-0.2,1.1-0.6c0.3-0.4,0.4-0.9,0.4-1.5c0-0.7-0.1-1.2-0.4-1.5C326.9,140.2,326.5,140,326,140z"/>
			<path class="st2" d="M333.1,144.7l-0.2-0.8l0,0c-0.3,0.3-0.5,0.6-0.8,0.7c-0.3,0.1-0.6,0.2-1,0.2c-0.5,0-0.9-0.1-1.2-0.4
				c-0.3-0.3-0.5-0.7-0.5-1.2c0-1.1,0.9-1.6,2.6-1.7h0.9v-0.3c0-0.4-0.1-0.7-0.3-0.9c-0.2-0.2-0.5-0.3-0.9-0.3s-1,0.1-1.5,0.4
				l-0.2-0.6c0.3-0.1,0.6-0.3,0.9-0.3c0.3-0.1,0.6-0.1,0.9-0.1c0.6,0,1.1,0.1,1.4,0.4c0.3,0.3,0.5,0.7,0.5,1.4v3.7h-0.6V144.7z
				 M331.3,144.2c0.5,0,0.9-0.1,1.2-0.4c0.3-0.3,0.4-0.7,0.4-1.2v-0.5h-0.8c-0.6,0-1.1,0.1-1.4,0.3s-0.4,0.5-0.4,0.8
				s0.1,0.5,0.3,0.7C330.7,144.1,330.9,144.2,331.3,144.2z"/>
			<path class="st2" d="M339.7,139.4v0.5l-1,0.1c0.1,0.1,0.2,0.3,0.2,0.4c0.1,0.2,0.1,0.4,0.1,0.6c0,0.5-0.2,0.9-0.5,1.3
				s-0.8,0.5-1.5,0.5c-0.2,0-0.3,0-0.4,0c-0.3,0.2-0.5,0.4-0.5,0.7c0,0.1,0.1,0.3,0.2,0.3c0.1,0.1,0.3,0.1,0.6,0.1h0.9
				c0.6,0,1,0.1,1.3,0.4c0.3,0.2,0.5,0.6,0.5,1.1c0,0.6-0.2,1-0.7,1.4c-0.5,0.3-1.2,0.5-2.1,0.5c-0.7,0-1.2-0.1-1.6-0.4
				c-0.4-0.3-0.6-0.6-0.6-1.1c0-0.3,0.1-0.6,0.3-0.8s0.5-0.4,0.9-0.5c-0.1-0.1-0.3-0.2-0.3-0.3c-0.1-0.1-0.1-0.3-0.1-0.5
				s0.1-0.4,0.2-0.5s0.3-0.3,0.5-0.4c-0.3-0.1-0.5-0.3-0.7-0.6s-0.3-0.6-0.3-0.9c0-0.6,0.2-1,0.5-1.4c0.4-0.3,0.8-0.5,1.5-0.5
				c0.3,0,0.5,0,0.8,0.1h1.8V139.4z M335.5,145.6c0,0.3,0.1,0.5,0.4,0.7s0.6,0.2,1,0.2c0.7,0,1.2-0.1,1.5-0.3s0.5-0.5,0.5-0.8
				s-0.1-0.5-0.3-0.6c-0.2-0.1-0.5-0.2-1-0.2h-1c-0.4,0-0.7,0.1-0.9,0.3S335.5,145.3,335.5,145.6z M335.9,141.1
				c0,0.4,0.1,0.7,0.3,0.8s0.5,0.3,0.9,0.3c0.8,0,1.2-0.4,1.2-1.2s-0.4-1.2-1.2-1.2c-0.4,0-0.7,0.1-0.9,0.3S335.9,140.7,335.9,141.1
				z"/>
			<path class="st2" d="M345.5,142.1c0,0.9-0.2,1.6-0.7,2c-0.4,0.5-1,0.7-1.8,0.7c-0.5,0-0.9-0.1-1.3-0.3s-0.7-0.5-0.9-1
				s-0.3-0.9-0.3-1.5c0-0.9,0.2-1.6,0.7-2c0.4-0.5,1-0.7,1.8-0.7c0.7,0,1.3,0.2,1.8,0.7C345.2,140.5,345.5,141.2,345.5,142.1z
				 M341.4,142.1c0,0.7,0.1,1.2,0.4,1.6s0.7,0.5,1.2,0.5s0.9-0.2,1.2-0.5c0.3-0.4,0.4-0.9,0.4-1.6c0-0.7-0.1-1.2-0.4-1.5
				c-0.3-0.4-0.7-0.5-1.2-0.5s-0.9,0.2-1.2,0.5S341.4,141.4,341.4,142.1z"/>
			<path class="st2" d="M279.8,151.4h0.9l1.2,3.1c0.3,0.7,0.4,1.2,0.5,1.5l0,0c0-0.2,0.1-0.5,0.3-0.9c0.1-0.4,0.6-1.6,1.3-3.7h0.9
				l-2.3,6.1c-0.2,0.6-0.5,1-0.8,1.3s-0.7,0.4-1.1,0.4c-0.2,0-0.5,0-0.7-0.1v-0.6c0.2,0,0.4,0.1,0.6,0.1c0.6,0,1-0.3,1.2-0.9
				l0.3-0.8L279.8,151.4z"/>
			<path class="st2" d="M290.6,156.8c-0.8,0-1.4-0.2-1.9-0.7s-0.7-1.2-0.7-2c0-0.9,0.2-1.5,0.6-2.1c0.4-0.5,1-0.8,1.7-0.8
				s1.2,0.2,1.6,0.7c0.4,0.4,0.6,1,0.6,1.7v0.5h-3.7c0,0.6,0.2,1.1,0.5,1.4c0.3,0.3,0.7,0.5,1.3,0.5c0.6,0,1.1-0.1,1.7-0.4v0.7
				c-0.3,0.1-0.6,0.2-0.8,0.3C291.2,156.8,290.9,156.8,290.6,156.8z M290.3,152c-0.4,0-0.8,0.1-1,0.4c-0.3,0.3-0.4,0.7-0.5,1.2h2.8
				c0-0.5-0.1-0.9-0.3-1.2C291.1,152.1,290.8,152,290.3,152z"/>
			<path class="st2" d="M297.6,156.7v-3.5c0-0.4-0.1-0.8-0.3-1s-0.5-0.3-0.9-0.3c-0.6,0-1,0.2-1.2,0.5s-0.4,0.8-0.4,1.5v2.8H294
				v-5.4h0.7l0.1,0.7l0,0c0.2-0.3,0.4-0.5,0.7-0.6c0.3-0.1,0.6-0.2,1-0.2c0.6,0,1.1,0.2,1.5,0.5c0.3,0.3,0.5,0.8,0.5,1.5v3.5H297.6z
				"/>
			<path class="st2" d="M301.2,156.7l-2-5.4h0.9l1.2,3.2c0.3,0.7,0.4,1.2,0.5,1.4l0,0c0-0.2,0.1-0.5,0.3-1.1
				c0.2-0.5,0.6-1.7,1.3-3.5h0.9l-2,5.4L301.2,156.7L301.2,156.7z"/>
			<path class="st2" d="M305,149.9c0-0.2,0-0.3,0.1-0.4c0.1-0.1,0.2-0.1,0.3-0.1c0.1,0,0.2,0,0.3,0.1s0.1,0.2,0.1,0.4s0,0.3-0.1,0.4
				c-0.1,0.1-0.2,0.1-0.3,0.1c-0.1,0-0.3,0-0.3-0.1C305,150.3,305,150.1,305,149.9z M305.9,156.7h-0.8v-5.4h0.8V156.7z"/>
			<path class="st2" d="M310.9,156.7l-0.2-0.8l0,0c-0.3,0.3-0.5,0.6-0.8,0.7c-0.3,0.1-0.6,0.2-1,0.2c-0.5,0-0.9-0.1-1.2-0.4
				c-0.3-0.3-0.5-0.7-0.5-1.2c0-1.1,0.9-1.6,2.6-1.7h0.9v-0.3c0-0.4-0.1-0.7-0.3-0.9c-0.2-0.2-0.5-0.3-0.9-0.3s-1,0.1-1.5,0.4
				l-0.2-0.6c0.3-0.1,0.6-0.3,0.9-0.3c0.3-0.1,0.6-0.1,0.9-0.1c0.6,0,1.1,0.1,1.4,0.4c0.3,0.3,0.5,0.7,0.5,1.4v3.7h-0.6V156.7z
				 M309,156.2c0.5,0,0.9-0.1,1.2-0.4c0.3-0.3,0.4-0.7,0.4-1.2v-0.5h-0.8c-0.6,0-1.1,0.1-1.4,0.3s-0.4,0.5-0.4,0.8s0.1,0.5,0.3,0.7
				S308.7,156.2,309,156.2z"/>
			<path class="st2" d="M316.8,156.7v-3.5c0-0.4-0.1-0.8-0.3-1s-0.5-0.3-0.9-0.3c-0.6,0-1,0.2-1.2,0.5s-0.4,0.8-0.4,1.5v2.8h-0.8
				v-5.4h0.7l0.1,0.7l0,0c0.2-0.3,0.4-0.5,0.7-0.6c0.3-0.1,0.6-0.2,1-0.2c0.6,0,1.1,0.2,1.5,0.5c0.3,0.3,0.5,0.8,0.5,1.5v3.5H316.8z
				"/>
			<path class="st2" d="M323.9,154.1c0,0.9-0.2,1.6-0.7,2c-0.4,0.5-1,0.7-1.8,0.7c-0.5,0-0.9-0.1-1.3-0.3s-0.7-0.5-0.9-1
				s-0.3-0.9-0.3-1.5c0-0.9,0.2-1.6,0.7-2c0.4-0.5,1-0.7,1.8-0.7c0.7,0,1.3,0.2,1.8,0.7S323.9,153.2,323.9,154.1z M319.8,154.1
				c0,0.7,0.1,1.2,0.4,1.6s0.7,0.5,1.2,0.5s0.9-0.2,1.2-0.5c0.3-0.4,0.4-0.9,0.4-1.6c0-0.7-0.1-1.2-0.4-1.5
				c-0.3-0.4-0.7-0.5-1.2-0.5s-0.9,0.2-1.2,0.5S319.8,153.4,319.8,154.1z"/>
			<path class="st2" d="M328.8,155.3c0,0.5-0.2,0.9-0.6,1.2s-0.9,0.4-1.6,0.4s-1.3-0.1-1.7-0.3v-0.8c0.3,0.1,0.5,0.2,0.8,0.3
				s0.6,0.1,0.9,0.1c0.4,0,0.7-0.1,1-0.2c0.2-0.1,0.3-0.3,0.3-0.6c0-0.2-0.1-0.4-0.3-0.5c-0.2-0.1-0.5-0.3-1.1-0.5
				c-0.5-0.2-0.9-0.3-1.1-0.5c-0.2-0.1-0.4-0.3-0.5-0.5s-0.2-0.4-0.2-0.6c0-0.4,0.2-0.8,0.5-1c0.4-0.3,0.8-0.4,1.5-0.4
				c0.6,0,1.1,0.1,1.7,0.4l-0.3,0.7c-0.5-0.2-1-0.3-1.5-0.3c-0.4,0-0.7,0.1-0.9,0.2s-0.3,0.3-0.3,0.5c0,0.1,0,0.3,0.1,0.4
				c0.1,0.1,0.2,0.2,0.4,0.3s0.5,0.2,0.9,0.4c0.6,0.2,1.1,0.5,1.3,0.7C328.7,154.6,328.8,154.9,328.8,155.3z"/>
			<path class="st2" d="M334.4,156.2c0.1,0,0.3,0,0.4,0s0.2,0,0.3-0.1v0.6c-0.1,0-0.2,0.1-0.4,0.1c-0.2,0-0.3,0-0.5,0
				c-1,0-1.6-0.5-1.6-1.6V152H332v-0.4l0.8-0.3l0.3-1.1h0.5v1.2h1.6v0.6h-1.6v3.1c0,0.3,0.1,0.6,0.2,0.7S334.2,156.2,334.4,156.2z"
				/>
			<path class="st2" d="M337,151.4v3.5c0,0.4,0.1,0.8,0.3,1s0.5,0.3,0.9,0.3c0.6,0,1-0.2,1.2-0.5c0.3-0.3,0.4-0.8,0.4-1.5v-2.8h0.8
				v5.4H340l-0.1-0.7l0,0c-0.2,0.3-0.4,0.5-0.7,0.6c-0.3,0.1-0.6,0.2-1,0.2c-0.7,0-1.1-0.2-1.5-0.5c-0.3-0.3-0.5-0.8-0.5-1.5v-3.5
				H337z"/>
			<path class="st2" d="M282,168.8c-0.8,0-1.4-0.2-1.8-0.7s-0.6-1.2-0.6-2c0-0.9,0.2-1.6,0.6-2.1s1-0.7,1.8-0.7c0.3,0,0.5,0,0.8,0.1
				s0.5,0.1,0.6,0.2l-0.2,0.7c-0.2-0.1-0.4-0.1-0.6-0.2c-0.2,0-0.4-0.1-0.6-0.1c-1.1,0-1.6,0.7-1.6,2.1c0,0.7,0.1,1.2,0.4,1.5
				c0.3,0.4,0.7,0.5,1.2,0.5c0.4,0,0.9-0.1,1.4-0.3v0.7C283,168.8,282.5,168.8,282,168.8z"/>
			<path class="st2" d="M289.2,166.1c0,0.9-0.2,1.6-0.7,2c-0.4,0.5-1,0.7-1.8,0.7c-0.5,0-0.9-0.1-1.3-0.3s-0.7-0.5-0.9-1
				s-0.3-0.9-0.3-1.5c0-0.9,0.2-1.6,0.7-2c0.4-0.5,1-0.7,1.8-0.7c0.7,0,1.3,0.2,1.8,0.7C289,164.5,289.2,165.2,289.2,166.1z
				 M285.2,166.1c0,0.7,0.1,1.2,0.4,1.6s0.7,0.5,1.2,0.5s0.9-0.2,1.2-0.5c0.3-0.4,0.4-0.9,0.4-1.6c0-0.7-0.1-1.2-0.4-1.5
				c-0.3-0.4-0.7-0.5-1.2-0.5s-0.9,0.2-1.2,0.5S285.2,165.4,285.2,166.1z"/>
			<path class="st2" d="M297.5,168.7v-3.5c0-0.4-0.1-0.7-0.3-1c-0.2-0.2-0.5-0.3-0.8-0.3c-0.5,0-0.9,0.1-1.1,0.4s-0.4,0.7-0.4,1.3v3
				h-0.8v-3.5c0-0.4-0.1-0.7-0.3-1c-0.2-0.2-0.5-0.3-0.9-0.3c-0.5,0-0.9,0.2-1.1,0.5s-0.4,0.8-0.4,1.5v2.8h-0.8v-5.4h0.7l0.1,0.7
				l0,0c0.2-0.3,0.4-0.5,0.6-0.6c0.3-0.1,0.6-0.2,0.9-0.2c0.8,0,1.4,0.3,1.6,0.9l0,0c0.2-0.3,0.4-0.5,0.7-0.7s0.6-0.2,1-0.2
				c0.6,0,1.1,0.2,1.4,0.5s0.5,0.8,0.5,1.5v3.5h-0.6V168.7z"/>
			<path class="st2" d="M302.4,168.8c-0.3,0-0.7-0.1-1-0.2c-0.3-0.1-0.5-0.3-0.7-0.6h-0.1c0,0.3,0.1,0.6,0.1,0.9v2.2H300v-7.8h0.7
				l0.1,0.7l0,0c0.2-0.3,0.5-0.5,0.7-0.6s0.6-0.2,1-0.2c0.7,0,1.3,0.2,1.6,0.7c0.4,0.5,0.6,1.2,0.6,2c0,0.9-0.2,1.6-0.6,2
				C303.7,168.6,303.1,168.8,302.4,168.8z M302.3,164c-0.5,0-0.9,0.2-1.2,0.5s-0.4,0.8-0.4,1.4v0.2c0,0.8,0.1,1.3,0.4,1.6
				s0.7,0.5,1.2,0.5s0.8-0.2,1.1-0.6c0.3-0.4,0.4-0.9,0.4-1.5c0-0.7-0.1-1.2-0.4-1.5C303.2,164.2,302.8,164,302.3,164z"/>
			<path class="st2" d="M308.5,163.3c0.2,0,0.5,0,0.6,0.1l-0.1,0.8c-0.2,0-0.4-0.1-0.6-0.1c-0.4,0-0.8,0.2-1.1,0.5
				c-0.3,0.4-0.5,0.8-0.5,1.3v2.9H306v-5.4h0.7l0.1,1l0,0c0.2-0.3,0.4-0.6,0.7-0.8S308.2,163.3,308.5,163.3z"/>
			<path class="st2" d="M314.8,166.1c0,0.9-0.2,1.6-0.7,2c-0.4,0.5-1,0.7-1.8,0.7c-0.5,0-0.9-0.1-1.3-0.3s-0.7-0.5-0.9-1
				s-0.3-0.9-0.3-1.5c0-0.9,0.2-1.6,0.7-2c0.4-0.5,1-0.7,1.8-0.7c0.7,0,1.3,0.2,1.8,0.7S314.8,165.2,314.8,166.1z M310.7,166.1
				c0,0.7,0.1,1.2,0.4,1.6s0.7,0.5,1.2,0.5s0.9-0.2,1.2-0.5c0.3-0.4,0.4-0.9,0.4-1.6c0-0.7-0.1-1.2-0.4-1.5
				c-0.3-0.4-0.7-0.5-1.2-0.5s-0.9,0.2-1.2,0.5S310.7,165.4,310.7,166.1z"/>
			<path class="st2" d="M318.7,163.3c0.7,0,1.2,0.2,1.6,0.7s0.6,1.2,0.6,2s-0.2,1.6-0.6,2c-0.4,0.5-0.9,0.7-1.6,0.7
				c-0.3,0-0.7-0.1-1-0.2c-0.3-0.1-0.5-0.3-0.7-0.6l0,0l-0.2,0.7h-0.6V161h0.8v1.8c0,0.4,0,0.8,0,1.1l0,0
				C317.4,163.6,318,163.3,318.7,163.3z M318.6,164c-0.6,0-1,0.2-1.2,0.5s-0.4,0.9-0.4,1.6s0.1,1.3,0.4,1.6s0.7,0.5,1.2,0.5
				s0.9-0.2,1.1-0.5c0.2-0.4,0.4-0.9,0.4-1.6c0-0.7-0.1-1.2-0.4-1.6S319.1,164,318.6,164z"/>
			<path class="st2" d="M325.6,168.7l-0.2-0.8l0,0c-0.3,0.3-0.5,0.6-0.8,0.7c-0.3,0.1-0.6,0.2-1,0.2c-0.5,0-0.9-0.1-1.2-0.4
				c-0.3-0.3-0.5-0.7-0.5-1.2c0-1.1,0.9-1.6,2.6-1.7h0.9v-0.3c0-0.4-0.1-0.7-0.3-0.9c-0.2-0.2-0.5-0.3-0.9-0.3s-1,0.1-1.5,0.4
				l-0.2-0.6c0.3-0.1,0.6-0.3,0.9-0.3c0.3-0.1,0.6-0.1,0.9-0.1c0.6,0,1.1,0.1,1.4,0.4c0.3,0.3,0.5,0.7,0.5,1.4v3.7h-0.6V168.7z
				 M323.8,168.2c0.5,0,0.9-0.1,1.2-0.4c0.3-0.3,0.4-0.7,0.4-1.2v-0.5h-0.8c-0.6,0-1.1,0.1-1.4,0.3s-0.4,0.5-0.4,0.8
				s0.1,0.5,0.3,0.7C323.2,168.1,323.5,168.2,323.8,168.2z"/>
			<path class="st2" d="M331.6,168.7v-3.5c0-0.4-0.1-0.8-0.3-1s-0.5-0.3-0.9-0.3c-0.6,0-1,0.2-1.2,0.5s-0.4,0.8-0.4,1.5v2.8H328
				v-5.4h0.7l0.1,0.7l0,0c0.2-0.3,0.4-0.5,0.7-0.6c0.3-0.1,0.6-0.2,1-0.2c0.6,0,1.1,0.2,1.5,0.5c0.3,0.3,0.5,0.8,0.5,1.5v3.5H331.6z
				"/>
			<path class="st2" d="M335.8,168.2c0.1,0,0.3,0,0.4,0s0.2,0,0.3-0.1v0.6c-0.1,0-0.2,0.1-0.4,0.1c-0.2,0-0.3,0-0.5,0
				c-1,0-1.6-0.5-1.6-1.6V164h-0.8v-0.4l0.8-0.3l0.3-1.1h0.5v1.2h1.6v0.6h-1.6v3.1c0,0.3,0.1,0.6,0.2,0.7S335.5,168.2,335.8,168.2z"
				/>
			<path class="st2" d="M339.8,168.8c-0.8,0-1.4-0.2-1.9-0.7s-0.7-1.2-0.7-2c0-0.9,0.2-1.5,0.6-2.1c0.4-0.5,1-0.8,1.7-0.8
				s1.2,0.2,1.6,0.7c0.4,0.4,0.6,1,0.6,1.7v0.5H338c0,0.6,0.2,1.1,0.5,1.4c0.3,0.3,0.7,0.5,1.3,0.5c0.6,0,1.1-0.1,1.7-0.4v0.7
				c-0.3,0.1-0.6,0.2-0.8,0.3C340.5,168.8,340.2,168.8,339.8,168.8z M339.6,164c-0.4,0-0.8,0.1-1,0.4c-0.3,0.3-0.4,0.7-0.5,1.2h2.8
				c0-0.5-0.1-0.9-0.3-1.2C340.4,164.1,340,164,339.6,164z"/>
		</g>
	</g>
	<g>
		<g>
			<path class="st1" d="M386.1,123.4c0,0.8-0.2,1.4-0.7,1.8s-1.2,0.6-2,0.6h-0.6v2.5h-1.5v-7.1h2.3c0.9,0,1.5,0.2,2,0.6
				C385.8,122.1,386.1,122.7,386.1,123.4z M382.7,124.6h0.5c0.5,0,0.8-0.1,1-0.3c0.2-0.2,0.3-0.5,0.3-0.8c0-0.4-0.1-0.6-0.3-0.8
				c-0.2-0.2-0.5-0.3-0.9-0.3h-0.7v2.2H382.7z"/>
			<path class="st1" d="M391.8,128.3l-0.5-1.7h-2.6l-0.5,1.7h-1.6l2.5-7.2h1.9l2.5,7.2H391.8z M390.9,125.4
				c-0.5-1.5-0.7-2.4-0.8-2.6c-0.1-0.2-0.1-0.4-0.1-0.5c-0.1,0.4-0.4,1.4-0.9,3.1H390.9z"/>
			<path class="st1" d="M398.5,126.4c0,0.6-0.2,1.2-0.7,1.5c-0.5,0.4-1.1,0.6-1.9,0.6s-1.4-0.1-2-0.4v-1.4c0.5,0.2,0.9,0.4,1.2,0.5
				c0.3,0.1,0.6,0.1,0.9,0.1s0.6-0.1,0.8-0.2c0.2-0.1,0.3-0.3,0.3-0.6c0-0.1,0-0.3-0.1-0.4s-0.2-0.2-0.3-0.3
				c-0.2-0.1-0.5-0.3-0.9-0.5s-0.8-0.4-1-0.6s-0.4-0.4-0.5-0.7s-0.2-0.5-0.2-0.9c0-0.6,0.2-1.1,0.6-1.5s1-0.5,1.8-0.5
				c0.4,0,0.7,0,1.1,0.1c0.3,0.1,0.7,0.2,1.1,0.4l-0.5,1.2c-0.4-0.2-0.7-0.3-0.9-0.3c-0.2-0.1-0.5-0.1-0.7-0.1
				c-0.3,0-0.5,0.1-0.7,0.2s-0.2,0.3-0.2,0.5c0,0.1,0,0.2,0.1,0.3c0.1,0.1,0.2,0.2,0.3,0.3c0.1,0.1,0.5,0.3,1,0.5
				c0.7,0.3,1.1,0.6,1.4,1C398.4,125.5,398.5,125.9,398.5,126.4z"/>
			<path class="st1" d="M406.3,124.8c0,1.2-0.3,2.1-0.9,2.7c-0.6,0.6-1.4,1-2.5,1s-1.9-0.3-2.5-1s-0.9-1.5-0.9-2.7s0.3-2.1,0.9-2.7
				s1.4-0.9,2.5-0.9s1.9,0.3,2.5,0.9C406,122.7,406.3,123.6,406.3,124.8z M401.1,124.8c0,0.8,0.2,1.4,0.5,1.8s0.8,0.6,1.4,0.6
				c1.2,0,1.8-0.8,1.8-2.4s-0.6-2.4-1.8-2.4c-0.6,0-1.1,0.2-1.4,0.6C401.2,123.4,401.1,124,401.1,124.8z"/>
			<path class="st1" d="M409.8,125.3c0-1.4,0.3-2.5,0.9-3.2s1.5-1,2.7-1c0.4,0,0.7,0,1,0.1v1.2c-0.3-0.1-0.6-0.1-0.9-0.1
				c-0.5,0-0.9,0.1-1.3,0.2c-0.3,0.2-0.6,0.4-0.7,0.7s-0.3,0.7-0.3,1.3h0.1c0.3-0.6,0.8-0.8,1.5-0.8c0.6,0,1.1,0.2,1.5,0.6
				s0.5,1,0.5,1.7c0,0.8-0.2,1.4-0.6,1.8s-1,0.7-1.8,0.7c-0.5,0-1-0.1-1.4-0.4c-0.4-0.2-0.7-0.6-0.9-1.1
				C409.9,126.5,409.8,126,409.8,125.3z M412.4,127.2c0.3,0,0.6-0.1,0.7-0.3c0.2-0.2,0.3-0.5,0.3-0.9c0-0.3-0.1-0.6-0.2-0.8
				c-0.2-0.2-0.4-0.3-0.7-0.3c-0.3,0-0.6,0.1-0.8,0.3c-0.2,0.2-0.3,0.4-0.3,0.7c0,0.4,0.1,0.7,0.3,1
				C411.8,127.1,412.1,127.2,412.4,127.2z"/>
		</g>
	</g>
	<g>
		<g>
			<path class="st2" d="M379.8,144.7H379v-6.4h-2.3v-0.7h5.4v0.7h-2.3L379.8,144.7L379.8,144.7z"/>
			<path class="st2" d="M383.7,139.4v3.5c0,0.4,0.1,0.8,0.3,1s0.5,0.3,0.9,0.3c0.6,0,1-0.2,1.2-0.5c0.3-0.3,0.4-0.8,0.4-1.5v-2.8
				h0.8v5.4h-0.7l-0.1-0.7l0,0c-0.2,0.3-0.4,0.5-0.7,0.6c-0.3,0.1-0.6,0.2-1,0.2c-0.7,0-1.1-0.2-1.5-0.5c-0.3-0.3-0.5-0.8-0.5-1.5
				v-3.5H383.7z"/>
			<path class="st2" d="M396.3,142.1c0,0.9-0.2,1.6-0.7,2c-0.4,0.5-1,0.7-1.8,0.7c-0.5,0-0.9-0.1-1.3-0.3s-0.7-0.5-0.9-1
				s-0.3-0.9-0.3-1.5c0-0.9,0.2-1.6,0.7-2c0.4-0.5,1-0.7,1.8-0.7c0.7,0,1.3,0.2,1.8,0.7S396.3,141.2,396.3,142.1z M392.3,142.1
				c0,0.7,0.1,1.2,0.4,1.6s0.7,0.5,1.2,0.5s0.9-0.2,1.2-0.5c0.3-0.4,0.4-0.9,0.4-1.6c0-0.7-0.1-1.2-0.4-1.5
				c-0.3-0.4-0.7-0.5-1.2-0.5s-0.9,0.2-1.2,0.5S392.3,141.4,392.3,142.1z"/>
			<path class="st2" d="M400.2,139.3c0.2,0,0.5,0,0.6,0.1l-0.1,0.8c-0.2,0-0.4-0.1-0.6-0.1c-0.4,0-0.8,0.2-1.1,0.5
				c-0.3,0.4-0.5,0.8-0.5,1.3v2.9h-0.8v-5.4h0.7l0.1,1l0,0c0.2-0.3,0.4-0.6,0.7-0.8S399.9,139.3,400.2,139.3z"/>
			<path class="st2" d="M405.5,144L405.5,144c-0.4,0.5-1,0.8-1.7,0.8s-1.2-0.2-1.6-0.7s-0.6-1.2-0.6-2s0.2-1.6,0.6-2.1
				s0.9-0.7,1.6-0.7s1.3,0.3,1.7,0.8h0.1v-0.4v-0.4v-2.2h0.8v7.6h-0.7L405.5,144z M403.9,144.2c0.6,0,1-0.2,1.2-0.5s0.4-0.8,0.4-1.5
				V142c0-0.8-0.1-1.3-0.4-1.6s-0.7-0.5-1.2-0.5s-0.8,0.2-1.1,0.6c-0.3,0.4-0.4,0.9-0.4,1.6c0,0.7,0.1,1.2,0.4,1.5
				S403.4,144.2,403.9,144.2z"/>
			<path class="st2" d="M410.2,144.8c-0.8,0-1.4-0.2-1.9-0.7s-0.7-1.2-0.7-2c0-0.9,0.2-1.5,0.6-2.1c0.4-0.5,1-0.8,1.7-0.8
				s1.2,0.2,1.6,0.7c0.4,0.4,0.6,1,0.6,1.7v0.5h-3.7c0,0.6,0.2,1.1,0.5,1.4c0.3,0.3,0.7,0.5,1.3,0.5c0.6,0,1.1-0.1,1.7-0.4v0.7
				c-0.3,0.1-0.6,0.2-0.8,0.3C410.9,144.8,410.6,144.8,410.2,144.8z M410,140c-0.4,0-0.8,0.1-1,0.4c-0.3,0.3-0.4,0.7-0.5,1.2h2.8
				c0-0.5-0.1-0.9-0.3-1.2C410.8,140.1,410.4,140,410,140z"/>
			<path class="st2" d="M417.2,144.7v-3.5c0-0.4-0.1-0.8-0.3-1s-0.5-0.3-0.9-0.3c-0.6,0-1,0.2-1.2,0.5s-0.4,0.8-0.4,1.5v2.8h-0.8
				v-5.4h0.7l0.1,0.7l0,0c0.2-0.3,0.4-0.5,0.7-0.6c0.3-0.1,0.6-0.2,1-0.2c0.6,0,1.1,0.2,1.5,0.5c0.3,0.3,0.5,0.8,0.5,1.5v3.5H417.2z
				"/>
			<path class="st2" d="M373.5,156.7h-0.8v-7.6h0.8V156.7z"/>
			<path class="st2" d="M376,156.7h-0.8v-7.6h0.8V156.7z"/>
			<path class="st2" d="M380,156.8c-0.8,0-1.4-0.2-1.9-0.7s-0.7-1.2-0.7-2c0-0.9,0.2-1.5,0.6-2.1c0.4-0.5,1-0.8,1.7-0.8
				s1.2,0.2,1.6,0.7c0.4,0.4,0.6,1,0.6,1.7v0.5h-3.7c0,0.6,0.2,1.1,0.5,1.4c0.3,0.3,0.7,0.5,1.3,0.5c0.6,0,1.1-0.1,1.7-0.4v0.7
				c-0.3,0.1-0.6,0.2-0.8,0.3C380.7,156.8,380.4,156.8,380,156.8z M379.8,152c-0.4,0-0.8,0.1-1,0.4c-0.3,0.3-0.4,0.7-0.5,1.2h2.8
				c0-0.5-0.1-0.9-0.3-1.2C380.5,152.1,380.2,152,379.8,152z"/>
			<path class="st2" d="M387.7,151.4v0.5l-1,0.1c0.1,0.1,0.2,0.3,0.2,0.4c0.1,0.2,0.1,0.4,0.1,0.6c0,0.5-0.2,0.9-0.5,1.3
				s-0.8,0.5-1.5,0.5c-0.2,0-0.3,0-0.4,0c-0.3,0.2-0.5,0.4-0.5,0.7c0,0.1,0.1,0.3,0.2,0.3c0.1,0.1,0.3,0.1,0.6,0.1h0.9
				c0.6,0,1,0.1,1.3,0.4c0.3,0.2,0.5,0.6,0.5,1.1c0,0.6-0.2,1-0.7,1.4c-0.5,0.3-1.2,0.5-2.1,0.5c-0.7,0-1.2-0.1-1.6-0.4
				c-0.4-0.3-0.6-0.6-0.6-1.1c0-0.3,0.1-0.6,0.3-0.8s0.5-0.4,0.9-0.5c-0.1-0.1-0.3-0.2-0.3-0.3c-0.1-0.1-0.1-0.3-0.1-0.5
				s0.1-0.4,0.2-0.5s0.3-0.3,0.5-0.4c-0.3-0.1-0.5-0.3-0.7-0.6s-0.3-0.6-0.3-0.9c0-0.6,0.2-1,0.5-1.4c0.4-0.3,0.8-0.5,1.5-0.5
				c0.3,0,0.5,0,0.8,0.1h1.8V151.4z M383.5,157.6c0,0.3,0.1,0.5,0.4,0.7s0.6,0.2,1,0.2c0.7,0,1.2-0.1,1.5-0.3s0.5-0.5,0.5-0.8
				s-0.1-0.5-0.3-0.6c-0.2-0.1-0.5-0.2-1-0.2h-1c-0.4,0-0.7,0.1-0.9,0.3S383.5,157.3,383.5,157.6z M383.9,153.1
				c0,0.4,0.1,0.7,0.3,0.8s0.5,0.3,0.9,0.3c0.8,0,1.2-0.4,1.2-1.2s-0.4-1.2-1.2-1.2c-0.4,0-0.7,0.1-0.9,0.3S383.9,152.7,383.9,153.1
				z"/>
			<path class="st2" d="M392.1,156.7L392,156l0,0c-0.3,0.3-0.5,0.6-0.8,0.7c-0.3,0.1-0.6,0.2-1,0.2c-0.5,0-0.9-0.1-1.2-0.4
				c-0.3-0.3-0.5-0.7-0.5-1.2c0-1.1,0.9-1.6,2.6-1.7h0.9v-0.3c0-0.4-0.1-0.7-0.3-0.9c-0.2-0.2-0.5-0.3-0.9-0.3s-1,0.1-1.5,0.4
				l-0.2-0.6c0.3-0.1,0.6-0.3,0.9-0.3c0.3-0.1,0.6-0.1,0.9-0.1c0.6,0,1.1,0.1,1.4,0.4c0.3,0.3,0.5,0.7,0.5,1.4v3.7h-0.7V156.7z
				 M390.3,156.2c0.5,0,0.9-0.1,1.2-0.4c0.3-0.3,0.4-0.7,0.4-1.2v-0.5h-0.8c-0.6,0-1.1,0.1-1.4,0.3s-0.4,0.5-0.4,0.8
				s0.1,0.5,0.3,0.7C389.7,156.1,390,156.2,390.3,156.2z"/>
			<path class="st2" d="M396.8,151.3c0.2,0,0.5,0,0.6,0.1l-0.1,0.8c-0.2,0-0.4-0.1-0.6-0.1c-0.4,0-0.8,0.2-1.1,0.5
				c-0.3,0.4-0.5,0.8-0.5,1.3v2.9h-0.8v-5.4h0.7l0.1,1l0,0c0.2-0.3,0.4-0.6,0.7-0.8S396.5,151.3,396.8,151.3z"/>
			<path class="st2" d="M401.8,156.7l-0.2-0.8l0,0c-0.3,0.3-0.5,0.6-0.8,0.7c-0.3,0.1-0.6,0.2-1,0.2c-0.5,0-0.9-0.1-1.2-0.4
				c-0.3-0.3-0.5-0.7-0.5-1.2c0-1.1,0.9-1.6,2.6-1.7h0.9v-0.3c0-0.4-0.1-0.7-0.3-0.9c-0.2-0.2-0.5-0.3-0.9-0.3s-1,0.1-1.5,0.4
				l-0.2-0.6c0.3-0.1,0.6-0.3,0.9-0.3c0.3-0.1,0.6-0.1,0.9-0.1c0.6,0,1.1,0.1,1.4,0.4c0.3,0.3,0.5,0.7,0.5,1.4v3.7h-0.6V156.7z
				 M399.9,156.2c0.5,0,0.9-0.1,1.2-0.4c0.3-0.3,0.4-0.7,0.4-1.2v-0.5h-0.8c-0.6,0-1.1,0.1-1.4,0.3s-0.4,0.5-0.4,0.8
				s0.1,0.5,0.3,0.7S399.6,156.2,399.9,156.2z M399.7,150.6c0.2-0.2,0.3-0.4,0.5-0.7s0.3-0.5,0.4-0.7h1v0.1
				c-0.1,0.2-0.4,0.5-0.6,0.8s-0.5,0.5-0.7,0.7h-0.5L399.7,150.6L399.7,150.6z"/>
			<path class="st2" d="M409.9,156.7l-0.2-0.8l0,0c-0.3,0.3-0.5,0.6-0.8,0.7c-0.3,0.1-0.6,0.2-1,0.2c-0.5,0-0.9-0.1-1.2-0.4
				c-0.3-0.3-0.5-0.7-0.5-1.2c0-1.1,0.9-1.6,2.6-1.7h0.9v-0.3c0-0.4-0.1-0.7-0.3-0.9c-0.2-0.2-0.5-0.3-0.9-0.3s-1,0.1-1.5,0.4
				l-0.2-0.6c0.3-0.1,0.6-0.3,0.9-0.3c0.3-0.1,0.6-0.1,0.9-0.1c0.6,0,1.1,0.1,1.4,0.4c0.3,0.3,0.5,0.7,0.5,1.4v3.7h-0.6V156.7z
				 M408.1,156.2c0.5,0,0.9-0.1,1.2-0.4c0.3-0.3,0.4-0.7,0.4-1.2v-0.5h-0.8c-0.6,0-1.1,0.1-1.4,0.3s-0.4,0.5-0.4,0.8
				s0.1,0.5,0.3,0.7C407.5,156.1,407.8,156.2,408.1,156.2z"/>
			<path class="st2" d="M416.5,156.2c0.1,0,0.3,0,0.4,0s0.2,0,0.3-0.1v0.6c-0.1,0-0.2,0.1-0.4,0.1c-0.2,0-0.3,0-0.5,0
				c-1,0-1.6-0.5-1.6-1.6V152h-0.8v-0.4l0.8-0.3l0.3-1.1h0.5v1.2h1.6v0.6h-1.6v3.1c0,0.3,0.1,0.6,0.2,0.7S416.3,156.2,416.5,156.2z"
				/>
			<path class="st2" d="M419.1,151.4v3.5c0,0.4,0.1,0.8,0.3,1s0.5,0.3,0.9,0.3c0.6,0,1-0.2,1.2-0.5c0.3-0.3,0.4-0.8,0.4-1.5v-2.8
				h0.8v5.4H422l0-0.8l0,0c-0.2,0.3-0.4,0.5-0.7,0.6c-0.3,0.1-0.6,0.2-1,0.2c-0.7,0-1.1-0.2-1.5-0.5c-0.3-0.3-0.5-0.8-0.5-1.5v-3.5
				L419.1,151.4L419.1,151.4z"/>
			<path class="st2" d="M381,168L381,168c-0.4,0.5-1,0.8-1.7,0.8s-1.2-0.2-1.6-0.7s-0.6-1.2-0.6-2s0.2-1.6,0.6-2.1s0.9-0.7,1.6-0.7
				s1.3,0.3,1.7,0.8h0.1v-0.4v-0.4v-2.2h0.8v7.6h-0.7L381,168z M379.4,168.2c0.6,0,1-0.2,1.2-0.5s0.4-0.8,0.4-1.5V166
				c0-0.8-0.1-1.3-0.4-1.6s-0.7-0.5-1.2-0.5s-0.8,0.2-1.1,0.6c-0.3,0.4-0.4,0.9-0.4,1.6c0,0.7,0.1,1.2,0.4,1.5
				S378.9,168.2,379.4,168.2z"/>
			<path class="st2" d="M388.1,166.1c0,0.9-0.2,1.6-0.7,2c-0.4,0.5-1,0.7-1.8,0.7c-0.5,0-0.9-0.1-1.3-0.3s-0.7-0.5-0.9-1
				s-0.3-0.9-0.3-1.5c0-0.9,0.2-1.6,0.7-2c0.4-0.5,1-0.7,1.8-0.7c0.7,0,1.3,0.2,1.8,0.7C387.9,164.5,388.1,165.2,388.1,166.1z
				 M384.1,166.1c0,0.7,0.1,1.2,0.4,1.6s0.7,0.5,1.2,0.5s0.9-0.2,1.2-0.5c0.3-0.4,0.4-0.9,0.4-1.6c0-0.7-0.1-1.2-0.4-1.5
				c-0.3-0.4-0.7-0.5-1.2-0.5s-0.9,0.2-1.2,0.5S384.1,165.4,384.1,166.1z"/>
			<path class="st2" d="M396.4,168.7v-3.5c0-0.4-0.1-0.7-0.3-1c-0.2-0.2-0.5-0.3-0.8-0.3c-0.5,0-0.9,0.1-1.1,0.4s-0.4,0.7-0.4,1.3v3
				H393v-3.5c0-0.4-0.1-0.7-0.3-1c-0.2-0.2-0.5-0.3-0.9-0.3c-0.5,0-0.9,0.2-1.1,0.5s-0.4,0.8-0.4,1.5v2.8h-0.8v-5.4h0.7l0.1,0.7l0,0
				c0.2-0.3,0.4-0.5,0.6-0.6c0.3-0.1,0.6-0.2,0.9-0.2c0.8,0,1.4,0.3,1.6,0.9l0,0c0.2-0.3,0.4-0.5,0.7-0.7s0.6-0.2,1-0.2
				c0.6,0,1.1,0.2,1.4,0.5s0.5,0.8,0.5,1.5v3.5h-0.6V168.7z"/>
			<path class="st2" d="M398.8,161.9c0-0.2,0-0.3,0.1-0.4c0.1-0.1,0.2-0.1,0.3-0.1c0.1,0,0.2,0,0.3,0.1s0.1,0.2,0.1,0.4
				s0,0.3-0.1,0.4c-0.1,0.1-0.2,0.1-0.3,0.1c-0.1,0-0.3,0-0.3-0.1C398.8,162.3,398.8,162.1,398.8,161.9z M399.7,168.7h-0.8v-5.4h0.8
				V168.7z"/>
			<path class="st2" d="M403.5,168.8c-0.8,0-1.4-0.2-1.8-0.7s-0.6-1.2-0.6-2c0-0.9,0.2-1.6,0.6-2.1s1-0.7,1.8-0.7
				c0.3,0,0.5,0,0.8,0.1s0.5,0.1,0.6,0.2l-0.2,0.7c-0.2-0.1-0.4-0.1-0.6-0.2c-0.2,0-0.4-0.1-0.6-0.1c-1.1,0-1.6,0.7-1.6,2.1
				c0,0.7,0.1,1.2,0.4,1.5c0.3,0.4,0.7,0.5,1.2,0.5c0.4,0,0.9-0.1,1.4-0.3v0.7C404.5,168.8,404.1,168.8,403.5,168.8z"/>
			<path class="st2" d="M406.1,161.9c0-0.2,0-0.3,0.1-0.4c0.1-0.1,0.2-0.1,0.3-0.1c0.1,0,0.2,0,0.3,0.1s0.1,0.2,0.1,0.4
				s0,0.3-0.1,0.4c-0.1,0.1-0.2,0.1-0.3,0.1c-0.1,0-0.3,0-0.3-0.1C406.1,162.3,406.1,162.1,406.1,161.9z M407,168.7h-0.8v-5.4h0.8
				V168.7z"/>
			<path class="st2" d="M409.5,168.7h-0.8v-7.6h0.8V168.7z"/>
			<path class="st2" d="M411.1,161.9c0-0.2,0-0.3,0.1-0.4c0.1-0.1,0.2-0.1,0.3-0.1c0.1,0,0.2,0,0.3,0.1s0.1,0.2,0.1,0.4
				s0,0.3-0.1,0.4c-0.1,0.1-0.2,0.1-0.3,0.1c-0.1,0-0.3,0-0.3-0.1C411.2,162.3,411.1,162.1,411.1,161.9z M412,168.7h-0.8v-5.4h0.8
				V168.7z"/>
			<path class="st2" d="M418.3,166.1c0,0.9-0.2,1.6-0.7,2c-0.4,0.5-1,0.7-1.8,0.7c-0.5,0-0.9-0.1-1.3-0.3s-0.7-0.5-0.9-1
				s-0.3-0.9-0.3-1.5c0-0.9,0.2-1.6,0.7-2c0.4-0.5,1-0.7,1.8-0.7c0.7,0,1.3,0.2,1.8,0.7S418.3,165.2,418.3,166.1z M414.3,166.1
				c0,0.7,0.1,1.2,0.4,1.6s0.7,0.5,1.2,0.5s0.9-0.2,1.2-0.5c0.3-0.4,0.4-0.9,0.4-1.6c0-0.7-0.1-1.2-0.4-1.5
				c-0.3-0.4-0.7-0.5-1.2-0.5s-0.9,0.2-1.2,0.5S414.3,165.4,414.3,166.1z"/>
		</g>
	</g>
	<g>
		<g>
			<g>
				<g>
					<g>
						<path class="st3" d="M405.1,85.7l0.1,5.3l3.7-1.8v-5.4L405.1,85.7z M408.6,89l-3.2,1.5l-0.1-4.7l3.2-1.6L408.6,89L408.6,89z
							 M391.9,75.6l-4.3,2.1l17.4,8l3.8-1.9L391.9,75.6z M388.2,77.7l3.7-1.8l16.3,8l-3.2,1.6L388.2,77.7z"/>
					</g>
				</g>
				<g>
					<g>
						<path class="st3" d="M415,80.7L415,80.7C415,80.7,414.9,80.7,415,80.7c0-0.1-0.1-0.1-0.1-0.1s0,0-0.1,0l0,0l0,0L398,72.4
							c-0.1,0-0.2,0-0.2,0L381,80.6l0,0l0,0c0,0,0,0-0.1,0l0,0c0,0,0,0,0,0.1l0,0c0,0,0,0,0,0.1v16.9c0,0.1,0.1,0.2,0.1,0.2
							l16.8,8.3l0,0h0.1h0.1l0,0l16.8-8.3c0.1,0,0.2-0.1,0.2-0.2V80.7C415,80.8,415,80.7,415,80.7z M398,72.9l16.2,7.9l-5.3,2.7
							l-16.3-7.9L398,72.9z M391.9,75.6l16.9,8.2l-3.8,1.9l-17.4-8L391.9,75.6z M408.8,83.8v5.4l-3.7,1.8l-0.1-5.3L408.8,83.8z
							 M397.7,105.6l-16.2-8.1V81.2l16.2,8.2V105.6z M398,89l-16.2-8.2l5.8-2.8l16.9,7.7L398,89z M414.5,97.6l-16.2,8.1V89.4
							l6.6-3.3L405,91c0,0.1,0.1,0.2,0.1,0.2h0.1h0.1l3.7-1.8c0.1,0,0.1-0.1,0.1-0.2V84l5.4-2.7L414.5,97.6L414.5,97.6z"/>
					</g>
				</g>
			</g>
			<g>
				<g>
					<g>
						<polygon class="st4" points="408.3,83.8 405.1,85.4 388.2,77.7 391.9,75.8 						"/>
					</g>
				</g>
				<g>
					<g>
						<path class="st1" d="M391.9,75.6l-4.3,2.1l17.4,8l3.8-1.9L391.9,75.6z M388.8,77.7l3.1-1.5l15.8,7.7l-2.6,1.3L388.8,77.7z"/>
					</g>
				</g>
			</g>
			<g>
				<g>
					<g>
						<polygon class="st4" points="408.6,84.2 408.6,89 405.4,90.6 405.3,85.9 						"/>
					</g>
				</g>
				<g>
					<g>
						<path class="st1" d="M405.1,85.7l0.1,5.3l3.7-1.8v-5.4L405.1,85.7z M408.3,88.9l-2.7,1.3l-0.1-4.2l2.8-1.4L408.3,88.9
							L408.3,88.9z"/>
					</g>
				</g>
			</g>
		</g>
		<g>
			<path class="st1" d="M388.5,94.3c-0.1,0.2-0.3,0.3-0.5,0.3c-0.1,0-0.2,0-0.2-0.1l-4.7-2.3c-0.2-0.1-0.4-0.4-0.2-0.7
				c0.1-0.2,0.4-0.4,0.7-0.2l4.7,2.4C388.5,93.7,388.6,94,388.5,94.3z"/>
		</g>
		<g>
			<path class="st1" d="M391.6,98.3c-0.1,0.2-0.3,0.3-0.5,0.3c-0.1,0-0.2,0-0.2-0.1l-7.9-4c-0.2-0.1-0.4-0.4-0.2-0.7
				c0.1-0.1,0.2-0.2,0.3-0.3c0.1,0,0.3,0,0.4,0l7.9,4C391.7,97.7,391.8,98,391.6,98.3z"/>
		</g>
		<g>
			<path class="st1" d="M391.5,100.6c-0.1,0.2-0.3,0.3-0.5,0.3c-0.1,0-0.2,0-0.2-0.1l-7.9-4c-0.1-0.1-0.2-0.2-0.3-0.3s0-0.3,0-0.4
				s0.2-0.2,0.3-0.2c0.1,0,0.3,0,0.4,0l7.9,4C391.5,100,391.6,100.4,391.5,100.6z"/>
		</g>
	</g>
	<g>
		<g>
			<g>
				<path class="st0" d="M318.6,86.9c-0.9-4.4-5.1-7.2-9.5-6.3c-4.3,0.9-7.1,5.1-6.3,9.5c0.9,4.3,5.1,7.1,9.5,6.3
					C316.6,95.5,319.4,91.3,318.6,86.9z M312.1,95c-3.6,0.7-7.2-1.6-7.9-5.2c-0.7-3.6,1.6-7.2,5.2-7.9c3.6-0.8,7.1,1.6,7.9,5.2
					C318,90.7,315.7,94.3,312.1,95z"/>
			</g>
		</g>
		<g>
			<path class="st0" d="M298.5,88.7c-1.2,0.2-1.9,1.4-1.7,2.5c0.2,1.2,1.4,1.9,2.5,1.7c1.2-0.2,1.9-1.4,1.7-2.5
				C300.8,89.2,299.7,88.5,298.5,88.7z M299.1,91.9c-0.6,0.1-1.1-0.2-1.2-0.8c-0.1-0.6,0.3-1.1,0.8-1.3c0.6-0.1,1.1,0.3,1.2,0.8
				C300.1,91.2,299.7,91.8,299.1,91.9z"/>
		</g>
		<path class="st0" d="M322.1,83.9c-1.2,0.2-1.9,1.4-1.7,2.5c0.2,1.2,1.4,1.9,2.5,1.7c1.2-0.2,1.9-1.4,1.7-2.5
			C324.4,84.4,323.3,83.7,322.1,83.9z M322.7,87c-0.6,0.1-1.1-0.3-1.2-0.8c-0.1-0.6,0.2-1.1,0.8-1.2c0.6-0.1,1.1,0.3,1.3,0.8
			C323.7,86.4,323.3,86.9,322.7,87z"/>
		<g>
			<g>
				<g>
					<path class="st5" d="M333.7,92.8l-3.5-17.3c-0.3-1.4-1.5-2.2-2.8-1.9l-37.7,7.7c-1.3,0.3-2.1,1.5-1.9,2.8l3.5,17.3
						c0.3,1.3,1.5,2.1,2.8,1.9l37.7-7.7C333.1,95.3,333.9,94,333.7,92.8z M327.8,75.1c1.3-0.4,1.4,4.7,1.8,5.3c-1.4,0.1-2.8-0.3-4-1
						c-1.2-0.8-2.1-1.9-2.5-3.3L327.8,75.1z M289.3,83.8c-0.5-1.5,4.6-1.5,5.3-1.9c0.1,1.4-0.3,2.9-1,4c-0.8,1.2-1.9,2.1-3.3,2.5
						L289.3,83.8z M293.8,101.7c-1.5,0.5-1.5-4.6-1.9-5.3c2.9-0.3,5.7,1.6,6.6,4.3L293.8,101.7z M300.1,100.5
						c-1-3.3-4.3-5.6-7.7-5.6c-0.3,0-0.5,0-0.8,0l-1-4.8c3.6-1.1,6-4.8,5.6-8.5l25.2-5.2c1,3.3,4.3,5.6,7.7,5.6c0.3,0,0.5,0,0.8,0
						l1,4.8c-3.6,1.1-6,4.8-5.6,8.5L300.1,100.5z M326.9,95c-0.1-1.4,0.3-2.8,1-4c0.8-1.2,1.9-2.1,3.3-2.5l1,4.6
						C332.7,94.6,327.6,94.6,326.9,95z"/>
				</g>
			</g>
		</g>
		<g>
			<path class="st6" d="M312.1,95c-3.6,0.7-7.2-1.6-7.9-5.2c-0.7-3.6,1.6-7.2,5.2-7.9c3.6-0.8,7.1,1.6,7.9,5.2
				C318,90.7,315.7,94.3,312.1,95z"/>
		</g>
		<g>
			<path class="st0" d="M313.3,89.1c0.2,1-0.3,1.9-1.2,2.2l0.2,0.8c0.1,0.4-0.2,0.9-0.6,0.9c-0.4,0.1-0.9-0.2-0.9-0.6l-0.2-0.8
				l-0.8,0.2c-0.4,0.1-0.9-0.2-0.9-0.6c-0.1-0.4,0.2-0.9,0.6-0.9l2-0.4c0.2,0,0.4-0.3,0.3-0.5c0-0.2-0.3-0.4-0.5-0.3l-0.8,0.2
				c-1.1,0.2-2.1-0.5-2.4-1.6c-0.2-1,0.3-1.9,1.2-2.2l-0.2-0.8c-0.1-0.4,0.2-0.9,0.6-0.9c0.4-0.1,0.9,0.2,0.9,0.6l0.2,0.8l0.8-0.2
				c0.4-0.1,0.9,0.2,0.9,0.6c0.1,0.4-0.2,0.9-0.6,0.9l-2,0.4c-0.2,0-0.4,0.3-0.3,0.5c0,0.2,0.3,0.4,0.5,0.3l0.8-0.2
				C312,87.3,313.1,88,313.3,89.1z"/>
		</g>
	</g>
	<g>
		<g>
			<g>
				<path class="st7" d="M63.5,72.3H59c-0.5,0-1,0.4-1.1,0.9L56.8,76H28.1c-0.7,0-1.2,0.5-1.2,1.2c0,0.1,0,0.2,0.1,0.3l5,15.1
					c0.2,0.5,0.6,0.8,1.1,0.8H53c1.5,0.2,2.5,1.5,2.3,3c-0.2,1.3-1.2,2.3-2.5,2.4h-18c-2,0-3.6,1.6-3.6,3.6s1.6,3.6,3.6,3.6
					s3.6-1.6,3.6-3.6c0-0.4-0.1-0.8-0.2-1.2h9.2c-0.7,1.9,0.3,3.9,2.2,4.6s3.9-0.3,4.6-2.2c0.3-0.9,0.3-1.8-0.1-2.7
					c2.7-0.8,4.2-3.6,3.4-6.3c-0.5-1.5-1.6-2.7-3-3.2l4.4-13.9l0,0l1.1-2.9h3.7c0.7,0,1.2-0.5,1.2-1.2
					C64.7,72.9,64.1,72.3,63.5,72.3z M34.8,103.8c-0.7,0-1.2-0.6-1.2-1.2c0-0.7,0.6-1.2,1.2-1.2s1.2,0.6,1.2,1.2
					C36.1,103.2,35.5,103.8,34.8,103.8z M52,102.6c0,0.7-0.5,1.2-1.2,1.2s-1.2-0.6-1.2-1.2c0-0.7,0.6-1.2,1.2-1.2
					C51.5,101.3,52,101.9,52,102.6L52,102.6z M52,91.2H34l-4.2-12.8H56L52,91.2z"/>
				<path class="st8" d="M52.1,102.6L52.1,102.6c0,0.8-0.5,1.3-1.3,1.3s-1.3-0.6-1.3-1.3c0-0.8,0.6-1.3,1.3-1.3
					C51.6,101.3,52.1,102,52.1,102.6z"/>
				<path class="st8" d="M36.1,102.6L36.1,102.6c0,0.8-0.5,1.3-1.3,1.3s-1.3-0.6-1.3-1.3c0-0.8,0.6-1.3,1.3-1.3
					C35.6,101.3,36.1,102,36.1,102.6z"/>
			</g>
		</g>
		<g>
			
				<rect x="36.3" y="77" transform="matrix(0.9871 -0.1599 0.1599 0.9871 -13.0491 6.9472)" class="st0" width="0.7" height="15.1"/>
		</g>
		<g>
			
				<rect x="42" y="84.2" transform="matrix(0.1602 -0.9871 0.9871 0.1602 -41.8862 119.9011)" class="st0" width="15.1" height="0.7"/>
		</g>
		<g>
			<polygon class="st0" points="42.9,92 42.8,76.9 43.5,76.9 43.6,92 			"/>
		</g>
		<g>
			<polygon class="st0" points="54.9,87.8 31.7,87.8 31.1,87 54.9,87 			"/>
		</g>
		<g>
			<polygon class="st0" points="55.9,83 30.5,83 30,82.3 56,82.3 			"/>
		</g>
	</g>
	<g transform="matrix(1,0,0,1,-80,-40)">
		<path class="st9" d="M318,121.2c-3.8-2.1-15.2-8.7-15.2-8.7c-0.2-0.1-0.4-0.1-0.6,0c0,0-11.5,6.5-15.2,8.7
			c-0.8,0.5-1.4,1.3-1.5,2.2v17.7c0,1.4,0.6,2.8,1.5,3.7c1,1,2.3,1.5,3.7,1.5h23.4c1.4,0,2.8-0.6,3.7-1.5c1-1,1.5-2.3,1.5-3.7
			c0.2,0,0.2-17.6,0.2-17.7C319.4,122.5,318.9,121.7,318,121.2z M287.6,122.2l14.9-8.5l14.9,8.5c0.4,0.2,0.7,0.7,0.8,1.1l-7.6,6.5
			v-7.4c0-0.8-0.3-1.5-0.9-2.1c-0.6-0.6-1.3-0.9-2.1-0.9H297c-0.8,0-1.5,0.3-2.1,0.9c-0.5,0.5-0.9,1.3-0.9,2.1v7.4l-7.6-6.5
			C286.8,122.8,287.1,122.4,287.6,122.2z M296,121.2c0.3-0.3,0.8-0.5,1.2-0.5h10.6c0.5,0,0.9,0.2,1.2,0.5c0.2,0.1,0.3,0.3,0.4,0.5
			c0,0,0,0.1,0,0.2c0,0.1,0,0.1,0,0.2c0,0.1,0,0.2,0,0.3v8.5l-7,6l-7-6v-8.4C295.5,121.9,295.7,121.5,296,121.2z M318.4,141.1h-0.1
			c0,1.1-0.4,2.1-1.2,2.9c-0.8,0.8-1.8,1.2-2.9,1.2h-23.4c-1.1,0-2.1-0.4-2.9-1.2c-0.8-0.8-1.2-1.8-1.2-2.9v-16.3l15.4,13.2
			c0.2,0.2,0.5,0.2,0.8,0l15.5-13.2V141.1z"/>
		<path class="st10" d="M309,121.1c-0.3-0.3-0.8-0.5-1.2-0.5h-10.6c-0.5,0-0.9,0.2-1.2,0.5c-0.3,0.3-0.5,0.8-0.5,1.2v0.1
			c0-0.5,0.2-0.9,0.5-1.2s0.8-0.5,1.2-0.5h10.6C308.3,120.7,308.7,120.9,309,121.1c0.2,0.2,0.3,0.4,0.4,0.6
			C309.3,121.5,309.2,121.2,309,121.1z"/>
		<path class="st10" d="M309.5,122.3v8.6l-7,5.9l-7-5.9v-8.5c0-0.5,0.2-0.9,0.5-1.2s0.8-0.5,1.2-0.5h10.6c0.5,0,0.9,0.2,1.2,0.5
			c0.2,0.1,0.3,0.3,0.4,0.5c0,0,0,0.1,0,0.2c0,0.1,0,0.1,0,0.2C309.5,122.1,309.5,122.2,309.5,122.3z"/>
		<path class="st11" d="M306,122.9h-7c-0.3,0-0.6,0.3-0.6,0.6c0,0.3,0.3,0.6,0.6,0.6h7c0.3,0,0.6-0.3,0.6-0.6
			C306.6,123.2,306.3,122.9,306,122.9z"/>
		<path class="st11" d="M306,126.5h-7c-0.3,0-0.6,0.3-0.6,0.6c0,0.3,0.3,0.6,0.6,0.6h7c0.3,0,0.6-0.3,0.6-0.6
			C306.6,126.7,306.3,126.5,306,126.5z"/>
		<path class="st11" d="M306,130h-7c-0.3,0-0.6,0.3-0.6,0.6s0.3,0.6,0.6,0.6h7c0.3,0,0.6-0.3,0.6-0.6C306.6,130.2,306.3,130,306,130
			z"/>
	</g>
	<g>
		<path class="st12" d="M143.4,72.5h-21.8c-1.1,0-2,0.9-2,2v28.2c0,1.1,0.9,2,2,2h21.8c1.1,0,2-0.9,2-2V74.4
			C145.4,73.4,144.5,72.5,143.4,72.5z M143.8,102.6L143.8,102.6c0,0.2-0.2,0.4-0.4,0.4h-21.8c-0.2,0-0.4-0.2-0.4-0.4V74.4l0,0
			c0-0.2,0.2-0.4,0.4-0.3h21.8l0,0c0.2,0,0.4,0.2,0.4,0.4V102.6z"/>
	</g>
	<path class="st12" d="M126.3,99.4h-2.6v-2.6h2.6V99.4z M126.3,94.3h-2.6v-2.6h2.6V94.3z M126.3,89.2h-2.6v-2.6h2.6V89.2z
		 M126.3,84.1h-2.6v-2.6h2.6V84.1z M126.3,79h-2.6v-2.6h2.6V79z M140.6,94.4H129v-1.5h11.6V94.4z M140.6,98.8H129v-1.5h11.6V98.8z
		 M140.6,89.3H129v-1.4h11.6V89.3z M140.6,84.2H129v-1.5h11.6V84.2z M140.6,79.1H129v-1.5h11.6V79.1z"/>
	<g>
		<path class="st1" d="M143.8,95.8c-2.9,0-5.3,2.4-5.3,5.3s2.4,5.3,5.3,5.3c2.9,0,5.3-2.4,5.3-5.3C149.2,98.2,146.8,95.8,143.8,95.8
			z M143.8,105.4c-2.3,0-4.3-1.9-4.3-4.3c0-2.3,1.9-4.2,4.3-4.2c2.3,0,4.2,1.9,4.2,4.2C148.1,103.5,146.2,105.4,143.8,105.4z"/>
		<path class="st13" d="M148.2,101.1c0.1,2.4-1.9,4.4-4.4,4.4c-2.4,0-4.4-2-4.4-4.4s2-4.4,4.4-4.4S148.2,98.7,148.2,101.1z"/>
	</g>
	<g>
		<path class="st14" d="M146.9,100.2c0,0.1-0.1,0.1-0.1,0.1c-1.1,1.1-2.3,2.3-3.4,3.4c-0.2,0.2-0.3,0.3-0.6,0.3
			c-0.2,0-0.3-0.2-0.4-0.3c-0.5-0.5-0.9-1-1.3-1.6c-0.1-0.1-0.2-0.2-0.2-0.3c-0.1-0.1-0.2-0.2-0.2-0.3c-0.1-0.2-0.1-0.4,0-0.6
			c0.1-0.2,0.4-0.3,0.6-0.2c0.2,0.1,0.3,0.2,0.4,0.4c0.4,0.5,0.8,1.1,1.3,1.6c1-1,2.1-2,3.1-3.1c0.1-0.1,0.2-0.2,0.5-0.3
			c0,0,0.3,0,0.5,0.2C146.9,99.8,147,100,146.9,100.2z"/>
	</g>
</g>
</svg>
