<svg id="Capa_1" data-name="Capa 1" xmlns="http://www.w3.org/2000/svg" viewBox="0 0 439.36 1007.9"><defs><style>.cls-1,.cls-18,.cls-19,.cls-21,.cls-25,.cls-26,.cls-9{fill:#3ca1aa;}.cls-2{fill:#3ea1aa;}.cls-3{fill:#303030;}.cls-15,.cls-4{fill:#858484;}.cls-14,.cls-16,.cls-24,.cls-27,.cls-28,.cls-29,.cls-5{fill:none;}.cls-5{stroke:#666565;}.cls-11,.cls-14,.cls-16,.cls-17,.cls-18,.cls-19,.cls-20,.cls-21,.cls-26,.cls-28,.cls-29,.cls-5{stroke-miterlimit:10;}.cls-16,.cls-5{stroke-width:1.12px;}.cls-15,.cls-6{font-size:10px;}.cls-6,.cls-8{fill:#4d4d4d;}.cls-12,.cls-15,.cls-6{font-family:OpenSans, Open Sans;}.cls-7{font-size:11.6px;fill:#070508;}.cls-10,.cls-7,.cls-9{font-family:OpenSans-Bold, Open Sans;font-weight:700;}.cls-9{font-size:46.69px;}.cls-10{font-size:10.29px;}.cls-10,.cls-11,.cls-12,.cls-13,.cls-17,.cls-20{fill:#2f2f2f;}.cls-11,.cls-14,.cls-16,.cls-24,.cls-25,.cls-26,.cls-27,.cls-28,.cls-29{stroke:#2f2f2f;}.cls-11{stroke-width:0.18px;}.cls-12{font-size:7.76px;}.cls-14{stroke-width:0.53px;}.cls-17,.cls-20{stroke:#fff;}.cls-17,.cls-18{stroke-width:0.5px;}.cls-18,.cls-19,.cls-21{stroke:#3ca1aa;}.cls-19{stroke-width:0.99px;}.cls-20,.cls-21{stroke-width:0.25px;}.cls-22{fill:#6b6b6a;}.cls-23{fill:#fff;}.cls-24,.cls-25,.cls-27{stroke-linecap:round;stroke-linejoin:round;}.cls-24,.cls-25{stroke-width:0.75px;}.cls-26{stroke-width:0.86px;}.cls-28,.cls-29{stroke-width:1.04px;}.cls-28{fill-rule:evenodd;}</style></defs><polyline class="cls-1" points="343.09 868.92 331.42 854.18 324.03 854.18 343.51 878.79 359.81 854.18 352.86 854.18 343.09 868.92"/><path class="cls-2" d="M24.77,980.32V959.7h9.47a6.2,6.2,0,0,1,2.78.63,7.18,7.18,0,0,1,2.2,1.62,7.48,7.48,0,0,1,1.43,2.3,6.87,6.87,0,0,1,.53,2.6,7.25,7.25,0,0,1-.79,3.35,6.79,6.79,0,0,1-2.18,2.54l4.36,7.58H36.18L32.55,974H30.43v6.33Zm5.66-11.27H34a1.25,1.25,0,0,0,1-.58,2.58,2.58,0,0,0,.45-1.62,2.31,2.31,0,0,0-.53-1.64,1.44,1.44,0,0,0-1-.57H30.43Z"/><path class="cls-2" d="M49.71,959.7h5.17L62,980.32H56.27l-1.24-4H49.54l-1.22,4H42.54Zm4.42,12.81-1.83-6.39-1.92,6.39Z"/><path class="cls-2" d="M63.74,980.32V959.7h7.92a11.4,11.4,0,0,1,4.5.82A9,9,0,0,1,81.39,966a11.93,11.93,0,0,1,.67,4,11.75,11.75,0,0,1-.74,4.26,9.37,9.37,0,0,1-2.11,3.25,9.5,9.5,0,0,1-3.28,2.09,11.85,11.85,0,0,1-4.27.74ZM76.31,970A7.17,7.17,0,0,0,76,967.8a4.79,4.79,0,0,0-.92-1.68A4.09,4.09,0,0,0,73.61,965a4.72,4.72,0,0,0-2-.39H69.4v10.74h2.26a4.64,4.64,0,0,0,2-.4,4,4,0,0,0,1.46-1.14,4.82,4.82,0,0,0,.9-1.71A7,7,0,0,0,76.31,970Z"/><path class="cls-2" d="M84.53,980.32V959.7h5.66v20.62Z"/><path class="cls-2" d="M112.79,966.24a10.43,10.43,0,0,0-5.39-5.75,9.88,9.88,0,0,0-4.26-.9,10.35,10.35,0,0,0-4.23.85,10.64,10.64,0,0,0-3.34,2.3,10.37,10.37,0,0,0-3,7.24,10.43,10.43,0,0,0,.75,3.89,10.49,10.49,0,0,0,5.4,5.72,9.93,9.93,0,0,0,4.27.9,10.12,10.12,0,0,0,4.22-.87,10.68,10.68,0,0,0,3.33-2.31,10.41,10.41,0,0,0,2.18-3.31,10,10,0,0,0,.78-3.9A10.55,10.55,0,0,0,112.79,966.24Zm-9.66,2.23a1.55,1.55,0,1,1-1.54,1.54A1.55,1.55,0,0,1,103.13,968.47ZM95.43,970a7.69,7.69,0,0,1,3.84-6.66L102,968a2.3,2.3,0,0,0-1.14,2Zm7.69,7.69a7.62,7.62,0,0,1-3.85-1L102,972a2.25,2.25,0,0,0,1.15.31,2.19,2.19,0,0,0,1.14-.31l2.7,4.68A7.58,7.58,0,0,1,103.12,977.71Zm2.29-7.69a2.31,2.31,0,0,0-1.15-2l2.7-4.68a7.69,7.69,0,0,1,3.85,6.66Z"/><path class="cls-3" d="M131.35,980.32V969.46l-3.45,7.64h-3l-3.46-7.64v10.86h-5.66V959.7h6.18l4.45,9.7,4.47-9.7H137v20.62Z"/><path class="cls-3" d="M155.25,975.38v4.94H140.56V959.7H155v4.94h-8.77v2.9h7.49v4.59h-7.49v3.25Z"/><path class="cls-3" d="M157.89,980.32V959.7h7.93a11.47,11.47,0,0,1,4.5.82,9,9,0,0,1,5.22,5.47,12.43,12.43,0,0,1-.07,8.25,9.23,9.23,0,0,1-2.11,3.25,9.5,9.5,0,0,1-3.28,2.09,11.79,11.79,0,0,1-4.26.74ZM170.46,970a7.17,7.17,0,0,0-.32-2.18,4.93,4.93,0,0,0-.91-1.68,4.22,4.22,0,0,0-1.47-1.09,4.7,4.7,0,0,0-1.94-.39h-2.27v10.74h2.27a4.62,4.62,0,0,0,2-.4,4.11,4.11,0,0,0,1.47-1.14,5.16,5.16,0,0,0,.9-1.71A7.35,7.35,0,0,0,170.46,970Z"/><path class="cls-4" d="M26.87,986.3a.81.81,0,0,1-.32.68,1.41,1.41,0,0,1-.87.25,2,2,0,0,1-.91-.16v-.37a3,3,0,0,0,.45.14,2.61,2.61,0,0,0,.48,0,1,1,0,0,0,.58-.15.48.48,0,0,0,.19-.41.58.58,0,0,0-.06-.28.72.72,0,0,0-.24-.21,3.71,3.71,0,0,0-.49-.21,1.67,1.67,0,0,1-.67-.39.89.89,0,0,1-.2-.6.75.75,0,0,1,.29-.61,1.24,1.24,0,0,1,.77-.23,2.28,2.28,0,0,1,.91.19l-.12.33a2.13,2.13,0,0,0-.8-.17.76.76,0,0,0-.48.13.43.43,0,0,0-.17.37.58.58,0,0,0,.06.28.56.56,0,0,0,.22.21,3.2,3.2,0,0,0,.46.2,1.79,1.79,0,0,1,.72.4A.8.8,0,0,1,26.87,986.3Z"/><path class="cls-4" d="M29.4,987.18H27.55v-3.33H29.4v.35H27.93v1.07h1.38v.34H27.93v1.22H29.4Z"/><path class="cls-4" d="M31.6,985.44h1.14v1.62a5.23,5.23,0,0,1-.54.12,3.93,3.93,0,0,1-.63.05,1.53,1.53,0,0,1-1.18-.45,1.78,1.78,0,0,1-.42-1.26,1.88,1.88,0,0,1,.21-.91,1.34,1.34,0,0,1,.6-.6,1.88,1.88,0,0,1,.91-.21,2.55,2.55,0,0,1,1,.2l-.15.34a2.21,2.21,0,0,0-.87-.19,1.24,1.24,0,0,0-1,.36,1.4,1.4,0,0,0-.34,1,1.42,1.42,0,0,0,.33,1,1.25,1.25,0,0,0,1,.35,3.08,3.08,0,0,0,.68-.08v-1H31.6Z"/><path class="cls-4" d="M36.05,983.85V986a1.17,1.17,0,0,1-.35.89,1.3,1.3,0,0,1-.94.33,1.26,1.26,0,0,1-.93-.33,1.22,1.22,0,0,1-.33-.9v-2.15h.39V986a.81.81,0,0,0,.23.64.9.9,0,0,0,.66.23.89.89,0,0,0,.65-.23.86.86,0,0,0,.23-.64v-2.17Z"/><path class="cls-4" d="M37.32,985.8v1.38h-.39v-3.33h.91a1.43,1.43,0,0,1,.91.24.85.85,0,0,1,.29.7.87.87,0,0,1-.67.89l.9,1.5h-.45L38,985.8Zm0-.34h.53a.92.92,0,0,0,.6-.16.6.6,0,0,0,.19-.49.54.54,0,0,0-.2-.47,1,1,0,0,0-.62-.15h-.5Z"/><path class="cls-4" d="M39.81,987.18v-3.33h.39v3.33Z"/><path class="cls-4" d="M43.77,985.48a1.67,1.67,0,0,1-.45,1.26,1.74,1.74,0,0,1-1.29.44h-.92v-3.33h1a1.49,1.49,0,0,1,1.64,1.63Zm-.41,0a1.16,1.16,0,0,0-1.3-1.31H41.5v2.66H42a1.46,1.46,0,0,0,1-.34A1.38,1.38,0,0,0,43.36,985.5Z"/><path class="cls-4" d="M46.6,987.18l-.41-1.06H44.85l-.41,1.06h-.39l1.32-3.34h.32L47,987.18Zm-.53-1.41-.39-1a4.68,4.68,0,0,1-.15-.48q-.06.22-.15.48l-.39,1Z"/><path class="cls-4" d="M50.12,985.48a1.67,1.67,0,0,1-.45,1.26,1.74,1.74,0,0,1-1.29.44h-.92v-3.33h1a1.49,1.49,0,0,1,1.64,1.63Zm-.41,0a1.16,1.16,0,0,0-1.3-1.31h-.56v2.66h.47a1.46,1.46,0,0,0,1-.34A1.38,1.38,0,0,0,49.71,985.5Z"/><path class="cls-4" d="M52.92,985.52l.89-1.67h.41l-1.11,2v1.29h-.39v-1.27l-1.11-2.06H52Z"/><path class="cls-4" d="M58,984.82a.93.93,0,0,1-.34.78,1.58,1.58,0,0,1-1,.27h-.39v1.31h-.39v-3.33h.87C57.59,983.85,58,984.18,58,984.82Zm-1.72.72h.35a1.28,1.28,0,0,0,.74-.17.6.6,0,0,0,.23-.53.58.58,0,0,0-.21-.49,1.14,1.14,0,0,0-.68-.16h-.43Z"/><path class="cls-4" d="M59.09,985.8v1.38H58.7v-3.33h.91a1.43,1.43,0,0,1,.91.24.85.85,0,0,1,.29.7.87.87,0,0,1-.67.89l.91,1.5h-.46l-.81-1.38Zm0-.34h.53a.92.92,0,0,0,.6-.16.6.6,0,0,0,.19-.49.53.53,0,0,0-.19-.47,1,1,0,0,0-.63-.15h-.5Z"/><path class="cls-4" d="M64.47,985.51a1.85,1.85,0,0,1-.4,1.26,1.45,1.45,0,0,1-1.13.46,1.43,1.43,0,0,1-1.13-.45,1.84,1.84,0,0,1-.4-1.27,1.82,1.82,0,0,1,.4-1.26A1.45,1.45,0,0,1,63,983.8a1.43,1.43,0,0,1,1.12.45A1.85,1.85,0,0,1,64.47,985.51Zm-2.65,0a1.62,1.62,0,0,0,.29,1,1.17,1.17,0,0,0,1.67,0,1.6,1.6,0,0,0,.28-1,1.57,1.57,0,0,0-.28-1,1.18,1.18,0,0,0-1.67,0A1.56,1.56,0,0,0,61.82,985.51Z"/><path class="cls-4" d="M66.24,987.18h-.39v-3h-1v-.35h2.49v.35H66.24Z"/><path class="cls-4" d="M69.65,987.18H67.79v-3.33h1.86v.35H68.18v1.07h1.38v.34H68.18v1.22h1.47Z"/><path class="cls-4" d="M71.81,984.15a1.06,1.06,0,0,0-.86.37,1.42,1.42,0,0,0-.32,1,1.54,1.54,0,0,0,.3,1,1.13,1.13,0,0,0,.88.35,3.1,3.1,0,0,0,.79-.12v.34a2.58,2.58,0,0,1-.85.13,1.45,1.45,0,0,1-1.14-.45,1.88,1.88,0,0,1-.4-1.27,2,2,0,0,1,.2-.9A1.33,1.33,0,0,1,71,984a1.69,1.69,0,0,1,.86-.21,2,2,0,0,1,.91.2l-.16.33A1.76,1.76,0,0,0,71.81,984.15Z"/><path class="cls-4" d="M74.75,984.15a1.06,1.06,0,0,0-.86.37,1.46,1.46,0,0,0-.32,1,1.49,1.49,0,0,0,.31,1,1.09,1.09,0,0,0,.87.35,3,3,0,0,0,.79-.12v.34a2.58,2.58,0,0,1-.85.13,1.45,1.45,0,0,1-1.14-.45,1.88,1.88,0,0,1-.4-1.27,2,2,0,0,1,.2-.9,1.39,1.39,0,0,1,.55-.6,1.71,1.71,0,0,1,.86-.21,2,2,0,0,1,.91.2l-.16.33A1.73,1.73,0,0,0,74.75,984.15Z"/><path class="cls-4" d="M76.27,987.18v-3.33h.39v3.33Z"/><path class="cls-4" d="M80.46,985.51a1.85,1.85,0,0,1-.41,1.26,1.62,1.62,0,0,1-2.25,0,1.84,1.84,0,0,1-.4-1.27,1.82,1.82,0,0,1,.4-1.26,1.64,1.64,0,0,1,2.26,0A1.9,1.9,0,0,1,80.46,985.51Zm-2.65,0a1.62,1.62,0,0,0,.28,1,1.06,1.06,0,0,0,.84.35,1,1,0,0,0,.84-.35,1.66,1.66,0,0,0,.28-1,1.63,1.63,0,0,0-.28-1,1,1,0,0,0-.83-.34,1,1,0,0,0-.85.35A1.56,1.56,0,0,0,77.81,985.51Zm.8-2,.24-.34c.08-.14.15-.25.2-.35h.46v0a3.53,3.53,0,0,1-.3.36,2.68,2.68,0,0,1-.35.34h-.25Z"/><path class="cls-4" d="M83.8,987.18h-.44l-1.82-2.79h0c0,.33,0,.63,0,.9v1.89H81.2v-3.33h.44l1.81,2.78h0s0-.17,0-.39,0-.38,0-.48v-1.91h.36Z"/><path class="cls-4" d="M86.31,985.8v1.38h-.38v-3.33h.91a1.38,1.38,0,0,1,.9.24.83.83,0,0,1,.3.7.88.88,0,0,1-.67.89l.9,1.5h-.46L87,985.8Zm0-.34h.53a.93.93,0,0,0,.61-.16.63.63,0,0,0,.19-.49.54.54,0,0,0-.2-.47,1,1,0,0,0-.62-.15h-.51Z"/><path class="cls-4" d="M90.9,987.18l-.41-1.06H89.15l-.41,1.06h-.39l1.32-3.34H90l1.31,3.34Zm-.53-1.41-.39-1c0-.13-.1-.29-.16-.48a3.59,3.59,0,0,1-.14.48l-.39,1Z"/><path class="cls-4" d="M94.42,985.48a1.67,1.67,0,0,1-.45,1.26,1.74,1.74,0,0,1-1.29.44h-.92v-3.33h1a1.49,1.49,0,0,1,1.64,1.63Zm-.41,0a1.16,1.16,0,0,0-1.3-1.31h-.56v2.66h.47a1.46,1.46,0,0,0,1-.34A1.38,1.38,0,0,0,94,985.5Z"/><path class="cls-4" d="M95.16,987.18v-3.33h.39v3.33Z"/><path class="cls-4" d="M99.35,985.51a1.85,1.85,0,0,1-.41,1.26,1.62,1.62,0,0,1-2.25,0,1.84,1.84,0,0,1-.4-1.27,1.82,1.82,0,0,1,.4-1.26,1.63,1.63,0,0,1,2.25,0A1.85,1.85,0,0,1,99.35,985.51Zm-2.65,0a1.62,1.62,0,0,0,.28,1,1,1,0,0,0,.84.35,1,1,0,0,0,.84-.35,1.66,1.66,0,0,0,.28-1,1.63,1.63,0,0,0-.28-1,1.2,1.2,0,0,0-1.68,0A1.56,1.56,0,0,0,96.7,985.51Z"/><path class="cls-4" d="M100.09,987.18v-3.33h.39v3H102v.35Z"/><path class="cls-4" d="M105.4,985.51a1.85,1.85,0,0,1-.41,1.26,1.62,1.62,0,0,1-2.25,0,1.84,1.84,0,0,1-.4-1.27,1.82,1.82,0,0,1,.4-1.26,1.64,1.64,0,0,1,2.26,0A1.9,1.9,0,0,1,105.4,985.51Zm-2.65,0a1.62,1.62,0,0,0,.28,1,1.06,1.06,0,0,0,.84.35,1,1,0,0,0,.84-.35,1.66,1.66,0,0,0,.28-1,1.57,1.57,0,0,0-.28-1,1,1,0,0,0-.83-.34,1,1,0,0,0-.85.35A1.56,1.56,0,0,0,102.75,985.51Zm.8-2c.08-.1.15-.21.24-.34s.15-.25.2-.35h.46v0a3.53,3.53,0,0,1-.3.36,3.58,3.58,0,0,1-.34.34h-.26Z"/><path class="cls-4" d="M107.6,985.44h1.14v1.62a5.23,5.23,0,0,1-.54.12,3.83,3.83,0,0,1-.63.05,1.53,1.53,0,0,1-1.18-.45,1.78,1.78,0,0,1-.42-1.26,1.88,1.88,0,0,1,.21-.91,1.45,1.45,0,0,1,.6-.6,1.88,1.88,0,0,1,.91-.21,2.55,2.55,0,0,1,1,.2l-.15.34a2.17,2.17,0,0,0-.87-.19,1.24,1.24,0,0,0-1,.36,1.4,1.4,0,0,0-.34,1,1.42,1.42,0,0,0,.33,1,1.27,1.27,0,0,0,1,.35,3.08,3.08,0,0,0,.68-.08v-1h-.75Z"/><path class="cls-4" d="M109.54,987.18v-3.33h.38v3.33Z"/><path class="cls-4" d="M112.26,984.15a1.08,1.08,0,0,0-.87.37,1.46,1.46,0,0,0-.31,1,1.54,1.54,0,0,0,.3,1,1.13,1.13,0,0,0,.88.35,3.1,3.1,0,0,0,.79-.12v.34a2.58,2.58,0,0,1-.85.13,1.45,1.45,0,0,1-1.14-.45,1.88,1.88,0,0,1-.4-1.27,2.13,2.13,0,0,1,.19-.9,1.41,1.41,0,0,1,.56-.6,1.69,1.69,0,0,1,.86-.21,2,2,0,0,1,.91.2l-.16.33A1.8,1.8,0,0,0,112.26,984.15Z"/><path class="cls-4" d="M115.87,987.18l-.42-1.06h-1.33l-.41,1.06h-.39l1.32-3.34H115l1.31,3.34Zm-.54-1.41-.38-1c0-.13-.1-.29-.16-.48a3.59,3.59,0,0,1-.14.48l-.39,1Z"/><path class="cls-4" d="M119.79,987.18h-1.85v-3.33h1.85v.35h-1.46v1.07h1.38v.34h-1.38v1.22h1.46Z"/><path class="cls-4" d="M123.13,987.18h-.44l-1.82-2.79h0c0,.33,0,.63,0,.9v1.89h-.36v-3.33H121l1.81,2.78h0s0-.17,0-.39,0-.38,0-.48v-1.91h.36Z"/><path class="cls-4" d="M129.13,985.48a1.67,1.67,0,0,1-.45,1.26,1.74,1.74,0,0,1-1.29.44h-.92v-3.33h1a1.49,1.49,0,0,1,1.64,1.63Zm-.41,0a1.16,1.16,0,0,0-1.3-1.31h-.56v2.66h.47a1.46,1.46,0,0,0,1-.34A1.38,1.38,0,0,0,128.72,985.5Z"/><path class="cls-4" d="M129.87,987.18v-3.33h.39v3.33Z"/><path class="cls-4" d="M133.26,987.18l-.41-1.06h-1.34l-.41,1.06h-.39l1.32-3.34h.32l1.31,3.34Zm-.53-1.41-.39-1c-.05-.13-.1-.29-.16-.48a3.59,3.59,0,0,1-.14.48l-.39,1Z"/><path class="cls-4" d="M135.58,985.44h1.13v1.62a4.54,4.54,0,0,1-.53.12,4.06,4.06,0,0,1-.64.05,1.52,1.52,0,0,1-1.17-.45,1.78,1.78,0,0,1-.42-1.26,2,2,0,0,1,.2-.91,1.45,1.45,0,0,1,.6-.6,1.92,1.92,0,0,1,.92-.21,2.47,2.47,0,0,1,1,.2l-.15.34a2.16,2.16,0,0,0-.86-.19,1.23,1.23,0,0,0-1,.36,1.4,1.4,0,0,0-.34,1,1.47,1.47,0,0,0,.32,1,1.29,1.29,0,0,0,1,.35,3.08,3.08,0,0,0,.68-.08v-1h-.75Z"/><path class="cls-4" d="M140.11,987.18h-.44l-1.82-2.79h0c0,.33,0,.63,0,.9v1.89h-.36v-3.33H138l1.81,2.78h0s0-.17,0-.39,0-.38,0-.48v-1.91h.36Z"/><path class="cls-4" d="M143.92,985.51a1.85,1.85,0,0,1-.41,1.26,1.43,1.43,0,0,1-1.12.46,1.45,1.45,0,0,1-1.14-.45,1.89,1.89,0,0,1-.39-1.27,1.82,1.82,0,0,1,.4-1.26,1.63,1.63,0,0,1,2.25,0A1.85,1.85,0,0,1,143.92,985.51Zm-2.65,0a1.62,1.62,0,0,0,.28,1,1,1,0,0,0,.84.35,1,1,0,0,0,.84-.35,1.66,1.66,0,0,0,.28-1,1.63,1.63,0,0,0-.28-1,1.2,1.2,0,0,0-1.68,0A1.56,1.56,0,0,0,141.27,985.51Zm.8-2,.24-.34c.08-.14.15-.25.2-.35H143v0a3.53,3.53,0,0,1-.3.36,2.68,2.68,0,0,1-.35.34h-.25Z"/><path class="cls-4" d="M146.54,986.3a.81.81,0,0,1-.32.68,1.41,1.41,0,0,1-.87.25,2.06,2.06,0,0,1-.91-.16v-.37a3,3,0,0,0,.45.14,2.61,2.61,0,0,0,.48,0,.94.94,0,0,0,.58-.15.48.48,0,0,0,.2-.41.58.58,0,0,0-.07-.28.72.72,0,0,0-.24-.21,3.19,3.19,0,0,0-.49-.21,1.55,1.55,0,0,1-.66-.39.84.84,0,0,1-.2-.6.72.72,0,0,1,.29-.61,1.19,1.19,0,0,1,.76-.23,2.24,2.24,0,0,1,.91.19l-.12.33a2.13,2.13,0,0,0-.8-.17.78.78,0,0,0-.48.13.45.45,0,0,0-.17.37.58.58,0,0,0,.06.28.64.64,0,0,0,.22.21,3.2,3.2,0,0,0,.46.2,1.79,1.79,0,0,1,.72.4A.8.8,0,0,1,146.54,986.3Z"/><path class="cls-4" d="M148.24,987.18h-.38v-3H146.8v-.35h2.5v.35h-1.06Z"/><path class="cls-4" d="M149.8,987.18v-3.33h.38v3.33Z"/><path class="cls-4" d="M152.52,984.15a1.06,1.06,0,0,0-.86.37,1.46,1.46,0,0,0-.32,1,1.49,1.49,0,0,0,.31,1,1.09,1.09,0,0,0,.87.35,3,3,0,0,0,.79-.12v.34a2.58,2.58,0,0,1-.85.13,1.45,1.45,0,0,1-1.14-.45,1.88,1.88,0,0,1-.4-1.27,2,2,0,0,1,.2-.9,1.39,1.39,0,0,1,.55-.6,1.71,1.71,0,0,1,.86-.21,2,2,0,0,1,.91.2l-.16.33A1.73,1.73,0,0,0,152.52,984.15Z"/><path class="cls-4" d="M156.93,985.51a1.85,1.85,0,0,1-.41,1.26,1.62,1.62,0,0,1-2.25,0,1.84,1.84,0,0,1-.4-1.27,1.82,1.82,0,0,1,.4-1.26,1.64,1.64,0,0,1,2.26,0A1.9,1.9,0,0,1,156.93,985.51Zm-2.65,0a1.62,1.62,0,0,0,.28,1,1,1,0,0,0,.84.35,1,1,0,0,0,.84-.35,1.66,1.66,0,0,0,.28-1,1.63,1.63,0,0,0-.28-1,1,1,0,0,0-.83-.34,1,1,0,0,0-.85.35A1.56,1.56,0,0,0,154.28,985.51Z"/><path class="cls-4" d="M160.35,987.18l-1.12-2.95h0c0,.23,0,.51,0,.83v2.12h-.36v-3.33h.58l1.06,2.75h0l1.06-2.75h.58v3.33h-.39V985q0-.37,0-.81h0l-1.13,2.95Z"/><path class="cls-4" d="M165,987.18h-1.86v-3.33H165v.35h-1.47v1.07h1.38v.34h-1.38v1.22H165Zm-1.28-3.65.24-.34c.08-.14.15-.25.2-.35h.46v0a3.53,3.53,0,0,1-.3.36,2.68,2.68,0,0,1-.35.34h-.25Z"/><path class="cls-4" d="M168.34,985.48a1.67,1.67,0,0,1-.45,1.26,1.7,1.7,0,0,1-1.28.44h-.93v-3.33h1a1.67,1.67,0,0,1,1.21.43A1.62,1.62,0,0,1,168.34,985.48Zm-.41,0a1.32,1.32,0,0,0-.33-1,1.29,1.29,0,0,0-1-.33h-.56v2.66h.47a1.46,1.46,0,0,0,1-.34A1.34,1.34,0,0,0,167.93,985.5Z"/><path class="cls-4" d="M169.08,987.18v-3.33h.39v3.33Z"/><path class="cls-4" d="M171.81,984.15a1.07,1.07,0,0,0-.87.37,1.46,1.46,0,0,0-.32,1,1.54,1.54,0,0,0,.31,1,1.11,1.11,0,0,0,.87.35,3.11,3.11,0,0,0,.8-.12v.34a2.64,2.64,0,0,1-.86.13,1.43,1.43,0,0,1-1.13-.45,1.83,1.83,0,0,1-.4-1.27,2,2,0,0,1,.19-.9,1.41,1.41,0,0,1,.56-.6,1.67,1.67,0,0,1,.85-.21,2,2,0,0,1,.92.2l-.17.33A1.72,1.72,0,0,0,171.81,984.15Z"/><path class="cls-4" d="M176.21,985.51a1.85,1.85,0,0,1-.4,1.26,1.43,1.43,0,0,1-1.12.46,1.45,1.45,0,0,1-1.14-.45,1.84,1.84,0,0,1-.4-1.27,1.87,1.87,0,0,1,.4-1.26,1.45,1.45,0,0,1,1.14-.45,1.43,1.43,0,0,1,1.12.45A1.85,1.85,0,0,1,176.21,985.51Zm-2.65,0a1.62,1.62,0,0,0,.29,1,1.17,1.17,0,0,0,1.67,0,1.6,1.6,0,0,0,.28-1,1.57,1.57,0,0,0-.28-1,1,1,0,0,0-.83-.34,1,1,0,0,0-.84.35A1.56,1.56,0,0,0,173.56,985.51Z"/><path class="cls-3" d="M37.12,36.18q0,.68-.06,1.32a4,4,0,0,1-.32,1.24A3.81,3.81,0,0,1,36,39.87a5.21,5.21,0,0,1-1.37,1l-1,.51a8.71,8.71,0,0,0-1.31.76,6.28,6.28,0,0,0-1.11,1,1.86,1.86,0,0,0-.48,1.23,1.36,1.36,0,0,0,.58,1.16A2.12,2.12,0,0,0,32.6,46a2,2,0,0,0,1-.22,3,3,0,0,0,.72-.54,3.7,3.7,0,0,0,.5-.66,6.14,6.14,0,0,1,.4-.55l3.85,2.73a6.34,6.34,0,0,1-2.61,3,7.66,7.66,0,0,1-4.07,1.08,9.12,9.12,0,0,1-2.45-.35,6.62,6.62,0,0,1-2.24-1.11,5.71,5.71,0,0,1-1.63-2,6.74,6.74,0,0,1-.62-3A6.85,6.85,0,0,1,26,41.54a5.3,5.3,0,0,1,2-2.21,11.52,11.52,0,0,1,1.43-.83c.49-.23.94-.46,1.35-.7a5.16,5.16,0,0,0,1-.71,1.18,1.18,0,0,0,.4-.91ZM37,27.94v5.22H32.09V27.94Z"/><path class="cls-3" d="M59.08,44V32.14l-3.79,8.37H52L48.2,32.14V44H42V21.45h6.78l4.87,10.63,4.9-10.63h6.74V44Z"/><path class="cls-3" d="M69.17,44V21.45h6.2V44Z"/><path class="cls-3" d="M100.1,28.83a18.51,18.51,0,0,0-2-1,18.19,18.19,0,0,0-1.92-.71,6.75,6.75,0,0,0-2.08-.34,2.91,2.91,0,0,0-1.33.26.89.89,0,0,0-.49.85,1,1,0,0,0,.29.74,2.64,2.64,0,0,0,.83.52,9.06,9.06,0,0,0,1.32.46l1.76.54a23.93,23.93,0,0,1,2.82,1.05,9.09,9.09,0,0,1,2.15,1.36,5.15,5.15,0,0,1,1.36,1.89,6.81,6.81,0,0,1,.48,2.71,7.14,7.14,0,0,1-.75,3.42,6,6,0,0,1-2,2.21A8.31,8.31,0,0,1,97.82,44a13.07,13.07,0,0,1-3.1.37,18.7,18.7,0,0,1-2.55-.19,22.42,22.42,0,0,1-5.07-1.37,16.21,16.21,0,0,1-2.21-1.08l2.67-5.45a19.89,19.89,0,0,0,2.32,1.25,17,17,0,0,0,2.31.85,9,9,0,0,0,2.63.39,2.66,2.66,0,0,0,1.41-.27.82.82,0,0,0,.4-.72,1,1,0,0,0-.4-.81,3.62,3.62,0,0,0-1.1-.59c-.46-.17-1-.34-1.6-.51s-1.25-.37-1.93-.6A16.79,16.79,0,0,1,89,34.13a7,7,0,0,1-1.78-1.34,4.65,4.65,0,0,1-1-1.7,6.48,6.48,0,0,1-.34-2.2,7.56,7.56,0,0,1,.69-3.31,6.63,6.63,0,0,1,1.86-2.38,8.22,8.22,0,0,1,2.69-1.45,10.21,10.21,0,0,1,3.2-.49,12.79,12.79,0,0,1,2.41.23A20,20,0,0,1,99,22.1a22,22,0,0,1,2,.79c.64.29,1.21.56,1.72.82Z"/><path class="cls-3" d="M111.33,21.45H117L124.82,44h-6.3l-1.37-4.42h-6L109.8,44h-6.33Zm4.84,14-2-7-2.1,7Z"/><path class="cls-3" d="M126.7,44V21.45h6.21V38.63h10.24V44Z"/><path class="cls-3" d="M151.17,21.45h5.67L164.66,44h-6.3L157,39.62h-6L149.64,44h-6.33Zm4.84,14-2-7-2.1,7Z"/><path class="cls-3" d="M172.75,44V21.45h8.69a12.61,12.61,0,0,1,4.93.89,10,10,0,0,1,5.73,6,13.1,13.1,0,0,1,.73,4.37,12.76,12.76,0,0,1-.81,4.66,10.1,10.1,0,0,1-2.31,3.57,10.46,10.46,0,0,1-3.6,2.29,12.9,12.9,0,0,1-4.67.81Zm13.78-11.33a7.77,7.77,0,0,0-.35-2.38,5.32,5.32,0,0,0-1-1.85,4.42,4.42,0,0,0-1.6-1.19,5.1,5.1,0,0,0-2.13-.43H179V38.63h2.49a5.18,5.18,0,0,0,2.16-.44,4.49,4.49,0,0,0,1.61-1.25,5.47,5.47,0,0,0,1-1.87A7.74,7.74,0,0,0,186.53,32.71Z"/><path class="cls-3" d="M211.63,38.63V44h-16.1V21.45h15.82v5.41h-9.61V30H210v5h-8.21v3.56Z"/><path class="cls-3" d="M26.49,75.86V53.27H36.87a6.92,6.92,0,0,1,3.05.68,7.7,7.7,0,0,1,2.4,1.79,8.27,8.27,0,0,1,1.58,2.51,7.55,7.55,0,0,1,.57,2.85,7.93,7.93,0,0,1-.86,3.67,7.41,7.41,0,0,1-2.38,2.79L46,75.86H39l-4-6.93H32.7v6.93ZM32.7,63.52h3.91a1.4,1.4,0,0,0,1.07-.64,2.83,2.83,0,0,0,.49-1.78,2.56,2.56,0,0,0-.57-1.8,1.61,1.61,0,0,0-1.15-.62H32.7Z"/><path class="cls-3" d="M53.83,53.27h5.66l7.83,22.59H61l-1.37-4.42h-6L52.3,75.86H46Zm4.84,14-2-7-2.1,7Z"/><path class="cls-3" d="M71.49,53.27l4,9.77,4.14-9.77h6.74L78.62,68.39v7.47H72.45V68.32l-7.67-15Z"/><path class="cls-3" d="M96.82,76.05a10.84,10.84,0,0,1-4.68-1,11.39,11.39,0,0,1-3.59-2.6,11.82,11.82,0,0,1-2.33-3.67,11.4,11.4,0,0,1-.82-4.26,11,11,0,0,1,.86-4.3,11.31,11.31,0,0,1,2.4-3.64,11.66,11.66,0,0,1,3.66-2.52A11.37,11.37,0,0,1,97,53.14a10.84,10.84,0,0,1,4.68,1,11.69,11.69,0,0,1,6.71,10.53,11,11,0,0,1-.86,4.28,11.51,11.51,0,0,1-2.39,3.63,11.7,11.7,0,0,1-3.64,2.53A11.05,11.05,0,0,1,96.82,76.05ZM91.7,64.6A7.43,7.43,0,0,0,92,66.81a5.79,5.79,0,0,0,1,1.89A4.68,4.68,0,0,0,94.58,70a5.41,5.41,0,0,0,4.63,0,4.72,4.72,0,0,0,1.6-1.36,6.06,6.06,0,0,0,.93-1.93,8.15,8.15,0,0,0,.3-2.19,7.79,7.79,0,0,0-.32-2.22,5.29,5.29,0,0,0-1-1.87,4.83,4.83,0,0,0-1.62-1.31,5,5,0,0,0-2.28-.49,4.85,4.85,0,0,0-2.3.51,4.71,4.71,0,0,0-1.61,1.35A5.59,5.59,0,0,0,92,62.42,8,8,0,0,0,91.7,64.6Z"/><path class="cls-3" d="M124.47,60.65a17.46,17.46,0,0,0-2-1,18.19,18.19,0,0,0-1.92-.71,7.08,7.08,0,0,0-2.09-.34,2.89,2.89,0,0,0-1.32.26.88.88,0,0,0-.49.86,1,1,0,0,0,.28.73,2.9,2.9,0,0,0,.83.53,12.3,12.3,0,0,0,1.32.46c.52.14,1.11.33,1.77.54a23.1,23.1,0,0,1,2.81,1,8.58,8.58,0,0,1,2.15,1.35,5.17,5.17,0,0,1,1.37,1.89,6.88,6.88,0,0,1,.48,2.71,7.09,7.09,0,0,1-.75,3.42,6.2,6.2,0,0,1-2,2.21,8.31,8.31,0,0,1-2.77,1.19,13.07,13.07,0,0,1-3.1.37,17.23,17.23,0,0,1-2.55-.19,23.37,23.37,0,0,1-2.59-.54,22,22,0,0,1-2.49-.83,16.8,16.8,0,0,1-2.21-1.08l2.68-5.44a19.06,19.06,0,0,0,2.32,1.24,17,17,0,0,0,2.31.86,9.33,9.33,0,0,0,2.62.38,2.7,2.7,0,0,0,1.42-.27.85.85,0,0,0,.4-.72,1,1,0,0,0-.4-.81,3.74,3.74,0,0,0-1.1-.59c-.47-.17-1-.34-1.61-.51s-1.24-.37-1.92-.6A16.79,16.79,0,0,1,113.4,66a6.8,6.8,0,0,1-1.78-1.34,4.73,4.73,0,0,1-1-1.7,6.68,6.68,0,0,1-.33-2.19,7.64,7.64,0,0,1,.68-3.31A6.8,6.8,0,0,1,112.8,55a8.27,8.27,0,0,1,2.68-1.45,10.25,10.25,0,0,1,3.2-.49,12,12,0,0,1,2.42.24,20.58,20.58,0,0,1,2.28.6c.73.25,1.41.51,2.05.8s1.21.55,1.72.81Z"/><path class="cls-3" d="M141.69,53.27l4.11,7.13,4.1-7.13h6.68L149,64.73l7.29,11.13h-6.68l-3.85-6.81-3.86,6.81h-6.71l7.29-11.13L135,53.27Z"/><path class="cls-3" d="M181.12,70.45v5.41H165V53.27h15.81v5.41h-9.61v3.18h8.21v5h-8.21v3.56Z"/><path class="cls-3" d="M197.7,60.65a18.51,18.51,0,0,0-2-1,18.19,18.19,0,0,0-1.92-.71,7.08,7.08,0,0,0-2.09-.34,2.89,2.89,0,0,0-1.32.26.88.88,0,0,0-.49.86,1,1,0,0,0,.29.73A2.7,2.7,0,0,0,191,61a12.3,12.3,0,0,0,1.32.46c.52.14,1.11.33,1.77.54a23.93,23.93,0,0,1,2.82,1,8.76,8.76,0,0,1,2.15,1.35,5.15,5.15,0,0,1,1.36,1.89,6.88,6.88,0,0,1,.48,2.71,7.09,7.09,0,0,1-.75,3.42,6.11,6.11,0,0,1-2,2.21,8.31,8.31,0,0,1-2.77,1.19,13.07,13.07,0,0,1-3.1.37,17.23,17.23,0,0,1-2.55-.19,23.37,23.37,0,0,1-2.59-.54,21.21,21.21,0,0,1-2.48-.83,15.65,15.65,0,0,1-2.21-1.08l2.67-5.44a19.83,19.83,0,0,0,2.32,1.24,17,17,0,0,0,2.31.86,9.33,9.33,0,0,0,2.62.38,2.67,2.67,0,0,0,1.42-.27.82.82,0,0,0,.4-.72,1,1,0,0,0-.4-.81,3.62,3.62,0,0,0-1.1-.59c-.46-.17-1-.34-1.6-.51s-1.25-.37-1.93-.6a16.79,16.79,0,0,1-2.58-1.1,7,7,0,0,1-1.78-1.34,4.57,4.57,0,0,1-1-1.7,6.42,6.42,0,0,1-.34-2.19,7.5,7.5,0,0,1,.69-3.31A6.66,6.66,0,0,1,186,55a8.22,8.22,0,0,1,2.69-1.45,10.16,10.16,0,0,1,3.2-.49,12,12,0,0,1,2.41.24,20,20,0,0,1,2.28.6c.73.25,1.41.51,2.05.8s1.21.55,1.72.81Z"/><path class="cls-3" d="M221.25,58.68h-6.5V75.86h-6.2V58.68H202V53.27h19.23Z"/><path class="cls-3" d="M227.29,53.27H233l7.82,22.59h-6.3l-1.36-4.42h-6l-1.34,4.42h-6.33Zm4.84,14-2-7-2.1,7Zm-.16-15-3.82-1,1.59-4.52h5.38Z"/><path class="cls-3" d="M42.6,102.28v5.41H26.49V85.09H42.31V90.5H32.7v3.18h8.21v5H32.7v3.57Z"/><path class="cls-3" d="M51.7,96.58v11.11H45.49V85.09h4.84L59.4,96.58V85.09h6.2v22.6H60.67Z"/><path class="cls-3" d="M76.64,107.69V85.09H87a6.79,6.79,0,0,1,3,.69,7.83,7.83,0,0,1,2.41,1.78,8.44,8.44,0,0,1,1.57,2.51,7.62,7.62,0,0,1,.57,2.85,8,8,0,0,1-.86,3.68,7.45,7.45,0,0,1-2.38,2.78l4.77,8.31h-7l-4-6.94H82.85v6.94Zm6.21-12.35h3.91a1.36,1.36,0,0,0,1.07-.64,2.83,2.83,0,0,0,.49-1.78,2.59,2.59,0,0,0-.57-1.8,1.61,1.61,0,0,0-1.14-.62H82.85Z"/><path class="cls-3" d="M114.23,102.28v5.41H98.12V85.09h15.82V90.5h-9.61v3.18h8.21v5h-8.21v3.57Z"/><path class="cls-3" d="M132.11,105.81a8.38,8.38,0,0,1-5.57,2,11.51,11.51,0,0,1-4.2-.78,10,10,0,0,1-3.5-2.28,11.17,11.17,0,0,1-2.39-3.66,12.94,12.94,0,0,1-.89-4.93,11.11,11.11,0,0,1,.89-4.44,11.3,11.3,0,0,1,2.45-3.57,11.84,11.84,0,0,1,8.25-3.26,12.16,12.16,0,0,1,2.92.34,10.51,10.51,0,0,1,2.6,1,10.85,10.85,0,0,1,2.15,1.56,8.23,8.23,0,0,1,1.56,2.06l-4.62,3.53a5.17,5.17,0,0,0-2-2.15,5.39,5.39,0,0,0-2.84-.81,4.6,4.6,0,0,0-3.62,1.68,5.93,5.93,0,0,0-1,1.9,7.64,7.64,0,0,0,0,4.82,5.65,5.65,0,0,0,1.06,1.86,4.8,4.8,0,0,0,1.64,1.21,5.1,5.1,0,0,0,2.13.43,6.33,6.33,0,0,0,4.78-2.23h-3.92V95.66h9.29v12h-5.12Z"/><path class="cls-3" d="M140.29,107.69V85.09h6.2v17.19h10.25v5.41Z"/><path class="cls-3" d="M164.76,85.09h5.67l7.82,22.6H172l-1.37-4.43h-6l-1.34,4.43H156.9Zm4.84,14-2-7-2.1,7Z"/><path class="cls-3" d="M181.21,99.44a11.67,11.67,0,0,1,.07-1.32,4,4,0,0,1,.31-1.24,4,4,0,0,1,.77-1.13,4.83,4.83,0,0,1,1.37-1c.23-.13.56-.3,1-.51a11.06,11.06,0,0,0,1.3-.77,5.22,5.22,0,0,0,1.13-1,1.83,1.83,0,0,0,.48-1.22,1.4,1.4,0,0,0-.57-1.17,2.21,2.21,0,0,0-1.34-.43,2,2,0,0,0-1,.23,2.83,2.83,0,0,0-.72.54,4.27,4.27,0,0,0-.51.65,4.83,4.83,0,0,1-.4.56l-3.85-2.74a6.36,6.36,0,0,1,2.61-3A7.71,7.71,0,0,1,186,84.81a8.69,8.69,0,0,1,2.45.35,6.58,6.58,0,0,1,2.25,1.11,5.63,5.63,0,0,1,1.62,2,6.79,6.79,0,0,1,.62,3,6.64,6.64,0,0,1-.56,2.78,5.22,5.22,0,0,1-2,2.21,10.48,10.48,0,0,1-1.44.83c-.48.23-.93.47-1.35.7a5.36,5.36,0,0,0-1,.73,1.21,1.21,0,0,0-.39.89Zm.1,8.25v-5.22h4.93v5.22Z"/><polyline class="cls-1" points="343.09 280.57 331.42 265.83 324.02 265.83 343.5 290.44 359.81 265.83 352.85 265.83 343.09 280.57"/><polyline class="cls-1" points="343.09 486.8 331.42 472.06 324.02 472.06 343.5 496.67 359.81 472.06 352.85 472.06 343.09 486.8"/><polyline class="cls-1" points="343.09 677.49 331.42 662.75 324.02 662.75 343.5 687.36 359.81 662.75 352.85 662.75 343.09 677.49"/><polyline class="cls-1" points="162.9 221.17 148.16 232.84 148.16 240.24 172.77 220.75 148.16 204.45 148.16 211.41 162.9 221.17"/><polyline class="cls-5" points="148.16 176.51 148.16 211.41 162.9 221.17 148.16 232.84 148.16 265.83"/><polyline class="cls-5" points="294.18 265.83 294.18 300.73 279.44 310.49 294.18 322.16 294.18 355.15"/><polyline class="cls-1" points="162.9 418.76 148.16 430.43 148.16 437.83 172.77 418.35 148.16 402.04 148.16 409 162.9 418.76"/><polyline class="cls-5" points="148.16 355.15 148.16 409.05 162.9 418.81 148.16 430.48 148.16 472.11"/><polyline class="cls-1" points="162.9 618.05 148.16 629.72 148.16 637.12 172.77 617.63 148.16 601.33 148.16 608.29 162.9 618.05"/><polyline class="cls-5" points="148.16 573.43 148.16 608.32 162.9 618.09 148.16 629.76 148.16 662.75"/><polyline class="cls-5" points="294.18 472.11 294.18 516.96 279.44 526.72 294.18 538.39 294.18 573.43"/><text class="cls-6" transform="translate(182.93 219.75)">¿Mi médico responsable es un raiólogo <tspan x="0" y="12">certificado? </tspan><tspan x="0" y="24">¿Mi permiso está vigente?</tspan><tspan x="0" y="36">¿Se encuentra a la vista del público?</tspan></text><text class="cls-7" transform="translate(182.93 191.26)">PERMISO DE RESPONSABLE DE <tspan x="0" y="13.92">OPERACIÓN Y FUNCIONAMIENTO</tspan></text><text class="cls-6" transform="translate(182.93 615.37)">¿El personal ocupacionalmente expuesto <tspan x="0" y="12">cuenta con cursos de capacitación y </tspan><tspan x="0" y="24">certificados médicos anuales?</tspan></text><text class="cls-7" transform="translate(182.93 599.69)">POE</text><text class="cls-6" transform="translate(47.44 306.62)">Es el documento que indica los servicios de <tspan x="0" y="12">Rayos X que se ofrecen en mi establecimiento.</tspan><tspan x="0" y="24">¿Se encuentra a la vista del público?</tspan></text><text class="cls-7" transform="translate(102.64 290.94)">LICENCIA SANITARIA</text><text class="cls-6" transform="translate(182.93 396.01)">Verificación de los blindajes de la sala de <tspan x="0" y="12">Rayos X. </tspan><tspan x="0" y="24">¿Lo realicé cuando se inaguró mi sala?</tspan><tspan x="0" y="36">Si hubo algún cambio estructural en mi </tspan><tspan x="0" y="48">sala o cambié mi equipo de Rayos X, </tspan><tspan x="0" y="60">también debo realizar una verificación.</tspan></text><text class="cls-7" transform="translate(182.93 381.03)">LEVANTAMIENTO DE NIVELES</text><text class="cls-6" transform="translate(38.44 508.63)">Son pruebas que se realizan para garantizar una <tspan x="0" y="12">calidad de imagen óptima y una dosis adecuada </tspan><tspan x="0" y="24">al paciente. </tspan><tspan x="0" y="36">¿Mi ASESOR ESPECIALIZADO realiza estas </tspan><tspan x="0" y="48">pruebas periódicamente?</tspan></text><text class="cls-7" transform="translate(122.92 492.49)">CONTROLES DE CALIDAD</text><path class="cls-5" d="M24.62,252.29V201.66a25.15,25.15,0,0,1,25.15-25.14h343a25.14,25.14,0,0,1,25.14,25.14v39a25.14,25.14,0,0,1-25.14,25.15"/><line class="cls-5" x1="110.98" y1="355.16" x2="392.72" y2="355.16"/><path class="cls-5" d="M392.72,265.84H352.94l-9.76,14.74-11.67-14.74H49.77A25.15,25.15,0,0,0,24.62,291v39a25.15,25.15,0,0,0,25.15,25.15H89.54"/><polyline class="cls-5" points="89.54 355.16 99.31 369.9 110.98 355.16"/><path class="cls-5" d="M392.72,355.16a25.14,25.14,0,0,1,25.14,25.14v39l-.63,33.38a22.13,22.13,0,0,1-5,11.66c-7.15,8.43-18.19,7.84-19.53,7.74"/><polyline class="cls-5" points="392.79 472.11 352.94 472.11 343.18 486.85 331.51 472.11"/><polyline class="cls-5" points="392.72 662.75 352.94 662.75 343.18 677.49 331.51 662.75"/><path class="cls-5" d="M331.51,662.75H49.77A25.15,25.15,0,0,0,24.62,687.9v52a25.14,25.14,0,0,0,25.15,25.14H89.54"/><path class="cls-5" d="M392.72,573.43a25.14,25.14,0,0,1,25.14,25.15v39a25.13,25.13,0,0,1-25.14,25.14"/><line class="cls-5" x1="331.51" y1="662.75" x2="49.77" y2="662.75"/><path class="cls-5" d="M392.72,573.43H111L99.31,588.17l-9.77-14.74H49.77a25.14,25.14,0,0,1-25.15-25.14v-51a25.15,25.15,0,0,1,25.15-25.15H331.51"/><line class="cls-5" x1="110.98" y1="764.86" x2="392.72" y2="764.86"/><path class="cls-5" d="M49.77,854.18,331.51,854h0l11.67,14.74L352.94,854h39.78A25,25,0,0,0,417.86,829V790a25.14,25.14,0,0,0-25.14-25.15"/><polyline class="cls-5" points="89.54 764.86 99.31 779.6 110.98 764.86"/><path class="cls-5" d="M331.51,853.92H49.77a25.15,25.15,0,0,0-25.15,25.14v39a25.15,25.15,0,0,0,25.15,25.15h343"/><circle class="cls-8" cx="24.62" cy="252.29" r="3.58"/><line class="cls-5" x1="417.86" y1="879.06" x2="417.86" y2="918.09"/><path class="cls-5" d="M417.86,918.09a25.14,25.14,0,0,1-25.14,25.15"/><circle class="cls-8" cx="417.86" cy="879.06" r="3.58"/><text class="cls-9" transform="translate(311.39 330.5)">2</text><text class="cls-9" transform="translate(106.27 434.73)">3</text><text class="cls-9" transform="translate(311.39 540.56)">4</text><polyline class="cls-5" points="294.18 662.75 294.18 705.64 279.44 715.41 294.18 727.08 294.18 765.07"/><text class="cls-6" transform="translate(40.12 703.81)">¿Tengo un manual de Protección Radiológica?<tspan x="0" y="12" xml:space="preserve">¿Mi establecimiento  tiene un manual de </tspan><tspan x="0" y="24">Garantía de Calidad actualizado?</tspan><tspan x="0" y="36">¿Tengo un manual de Procedimientos Técnicos?</tspan></text><text class="cls-7" transform="translate(198.88 688.13)">MANUALES</text><text class="cls-9" transform="translate(311.39 731.05)">6</text><polyline class="cls-5" points="294.18 853.97 294.18 888.86 279.44 898.63 294.18 910.3 294.18 943.29"/><text class="cls-6" transform="translate(47.44 895.03)">Todo el POE de mi establecimiento debe <tspan x="0" y="12">contar con un dosímetro y firmar sus reportes </tspan><tspan x="0" y="24">de dosis mensuales y anuales.</tspan></text><text class="cls-7" transform="translate(190.57 879.35)">DOSIMETRÍA</text><text class="cls-9" transform="translate(311.39 922.27)">8</text><text class="cls-9" transform="translate(106.27 639.92)">5</text><polyline class="cls-1" points="162.9 809.48 148.16 821.15 148.16 828.55 172.77 809.07 148.16 792.76 148.16 799.72 162.9 809.48"/><polyline class="cls-5" points="148.16 764.86 148.16 799.75 162.9 809.52 148.16 821.19 148.16 854.18"/><text class="cls-6" transform="translate(182.93 806.8)">¿Cuento con mandil plomado, protector de <tspan x="0" y="12">tiroides, guantes plomados, o los dispositivos </tspan><tspan x="0" y="24">necesarios para mi sala?</tspan></text><text class="cls-7" transform="translate(182.93 791.12)">DISPOSITIVOS DE PROTECCIÓN</text><text class="cls-9" transform="translate(106.27 831.35)">7</text><text class="cls-9" transform="translate(106.27 239.61)">1</text><text class="cls-10" transform="translate(220.24 965.12)"><tspan xml:space="preserve">¿TIENES  MÁS DUDAS? ¡CONTÁCTANOS!</tspan></text><path class="cls-11" d="M226.48,973.42h-5.37a.54.54,0,0,0-.54.54v3.76a.54.54,0,0,0,.54.54h5.37a.54.54,0,0,0,.54-.54V974A.54.54,0,0,0,226.48,973.42Zm-5.37.27h5.43L224,976a.28.28,0,0,1-.2.08.28.28,0,0,1-.19-.08l-2.55-2.33Zm-.27,4V974a.15.15,0,0,1,0-.07l2.13,1.94c-.69.6-1.77,1.62-2.13,2A.15.15,0,0,1,220.84,977.72Zm5.64.27H221c.38-.35,1.46-1.38,2.14-2l.24.22a.55.55,0,0,0,.37.15.55.55,0,0,0,.38-.15l.23-.22c.69.59,1.77,1.62,2.14,2Zm.27-.27s0,0,0,.07c-.36-.34-1.44-1.36-2.14-2l2.13-1.94a.14.14,0,0,1,0,.07Z"/><text class="cls-12" transform="translate(230.36 977.76)">radiomed.contacto@gmail.com<tspan x="0" y="12">/RadioMedPR</tspan></text><path class="cls-13" d="M224.29,986a.42.42,0,0,1,.34-.12,1.92,1.92,0,0,1,.51.08l.14-.79a2.62,2.62,0,0,0-.93-.13,1.51,1.51,0,0,0-.77.17.8.8,0,0,0-.41.42,1.94,1.94,0,0,0-.12.79v.31h-.62v.89h.62v2.82h1.13v-2.82H225v-.89h-.82v-.29A.61.61,0,0,1,224.29,986Z"/><circle class="cls-14" cx="223.79" cy="987.02" r="3.55"/><text class="cls-15" transform="translate(26.19 127.55)">BASADO EN LA NORMA MEXICANA VIGENTE <tspan x="0" y="14">PARA ESTABLECIMIENTOS DE DIAGNÓSTICO </tspan><tspan x="0" y="28" xml:space="preserve">MÉDICO CON RAYOS X: NOM-229-SSA1-2002  </tspan></text><path class="cls-1" d="M397,319.17a3.58,3.58,0,1,1-3.57,3.58A3.58,3.58,0,0,1,397,319.17Z"/><path class="cls-1" d="M390.89,325.06a6.55,6.55,0,0,0,2.58,3.19v1.6H357.18V293.27h48v36.58h-4.61v-1.53l0-.05a6.54,6.54,0,0,0,0-11V297.91H361.82v27.3h28.66Z"/><path class="cls-13" d="M396.89,300.55a1,1,0,1,1-.95,1A1,1,0,0,1,396.89,300.55Z"/><path class="cls-13" d="M365.5,300.55a1,1,0,1,1-.95,1A1,1,0,0,1,365.5,300.55Z"/><path class="cls-13" d="M365.5,320.67a.95.95,0,1,1-.95.95A1,1,0,0,1,365.5,320.67Z"/><polyline class="cls-16" points="393.47 329.85 357.18 329.85 357.18 293.27 405.22 293.27 405.22 329.85 400.61 329.85"/><polyline class="cls-16" points="390.48 325.21 361.82 325.21 361.82 297.91 400.58 297.91 400.58 317.23"/><path class="cls-16" d="M400.58,317.23A6.56,6.56,0,0,1,397,329.31a6.41,6.41,0,0,1-3.57-1.06,6.55,6.55,0,0,1-2.58-3.19,6.8,6.8,0,0,1-.41-2.31,6.57,6.57,0,0,1,6.56-6.57A6.43,6.43,0,0,1,400.58,317.23Z"/><polyline class="cls-16" points="393.47 328.2 393.47 328.25 393.47 329.85 393.47 334.23 397.13 332.31 400.61 334.23 400.61 329.85 400.61 328.32"/><line class="cls-16" x1="367.39" y1="304.67" x2="378.04" y2="304.67"/><line class="cls-16" x1="367.39" y1="309.93" x2="393.05" y2="309.93"/><line class="cls-16" x1="367.39" y1="314.57" x2="393.05" y2="314.57"/><path class="cls-16" d="M400.61,322.75a3.57,3.57,0,1,1-3.57-3.58A3.57,3.57,0,0,1,400.61,322.75Z"/><path class="cls-17" d="M68.39,222.34a13,13,0,1,1,13-13A13,13,0,0,1,68.39,222.34Zm0-2.37A10.67,10.67,0,1,0,57.72,209.3,10.66,10.66,0,0,0,68.39,220Z"/><path class="cls-17" d="M80.24,224.71H56.53a13,13,0,0,0-13,13V252a1.19,1.19,0,0,0,1.19,1.18H92.09A1.18,1.18,0,0,0,93.28,252V237.75A13,13,0,0,0,80.24,224.71Zm-6.65,2.37-5.2,10.39L63.2,227.08ZM56.53,241.31a1.19,1.19,0,1,1-1.18,1.18A1.18,1.18,0,0,1,56.53,241.31Zm34.38,9.48h-45v-13a10.68,10.68,0,0,1,9.48-10.61v12a3.56,3.56,0,1,0,2.37,0V227.08h2.83l6.78,13.57a1.18,1.18,0,0,0,2.12,0l6.79-13.57h4a11.71,11.71,0,0,1,1.19.06,10.69,10.69,0,0,1,9.48,10.61Z"/><path class="cls-17" d="M88.54,242.13v5.1a1.19,1.19,0,0,1-1.19,1.19H85a1.19,1.19,0,0,1,0-2.37h1.19v-3.92A3.53,3.53,0,0,0,85,239.51c-2.14-1.95-3.77-2.91-4.77-2.94h0c-1,0-2.61,1-4.74,2.93a3.54,3.54,0,0,0-1.14,2.6v4H75.5a1.19,1.19,0,1,1,0,2.37H73.13a1.19,1.19,0,0,1-1.19-1.19V242.1a5.93,5.93,0,0,1,1.89-4.33,13.41,13.41,0,0,1,5.23-3.41v-7.28h1.18a11.71,11.71,0,0,1,1.19.06v7.24a14.23,14.23,0,0,1,5.18,3.38A5.91,5.91,0,0,1,88.54,242.13Z"/><path class="cls-18" d="M57.72,242.49a1.19,1.19,0,1,1-1.19-1.18A1.19,1.19,0,0,1,57.72,242.49Z"/><path class="cls-17" d="M363.56,500.42v50.51h50.51V500.42Zm31.8,1.87h1.87v1.87h-1.87Zm-.17,11.22h2a1.86,1.86,0,0,0,1.85-1.67l.95.19a8.17,8.17,0,0,1,4.17,13.78L401,529v3.19a5.62,5.62,0,0,1-11.23,0v-1.94a6.56,6.56,0,0,0,5.61-6.48,6.48,6.48,0,0,0-.8-3.11,4.58,4.58,0,0,0-.48-5.76A2.81,2.81,0,0,0,395.19,513.51Zm.17-1.87v-1.87h1.87v1.87Zm-11.22-9.35h9.35v2.8a.94.94,0,0,1-.93.94h-7.49a.94.94,0,0,1-.93-.94Zm0,6.54a.93.93,0,0,1,.93-.93h7.49a.93.93,0,0,1,.93.93v3.75a.93.93,0,0,1-.93.93h-7.49a.93.93,0,0,1-.93-.93Zm2.72,6.55h3.91a2.72,2.72,0,0,1,1.51,5l-3.47,2.31-3.46-2.31a2.72,2.72,0,0,1,1.51-5Zm-2.37,6.67,4.32,2.88,4.33-2.89a4.8,4.8,0,0,1,.35,1.76,4.68,4.68,0,1,1-9-1.75Zm-.94-7.12a4.58,4.58,0,0,0-1.28,3.17,4.53,4.53,0,0,0,.8,2.59,6.48,6.48,0,0,0-.8,3.11,6.56,6.56,0,0,0,5.61,6.48v1.94a5.62,5.62,0,0,1-11.23,0V529l-3.22-3.22A8.17,8.17,0,0,1,377.6,512l.94-.19a1.87,1.87,0,0,0,1.85,1.67h2.05A2.81,2.81,0,0,0,383.55,514.93Zm-3.16-3.29v-1.87h1.88v1.87Zm0-9.35h1.88v1.87h-1.88Zm-11.22,46.77h-3.74V502.29h13.09v1.87a1.87,1.87,0,0,0,1.87,1.87h2.05a2.6,2.6,0,0,0,.56.93,2.64,2.64,0,0,0-.56.94h-2.05a1.87,1.87,0,0,0-1.87,1.87v.17l-1.29.26a10,10,0,0,0-5.12,16.93l1.78,1.78-1.14.28A7.2,7.2,0,0,0,369.17,541Zm5.61,0H371v-7.48h3.74Zm.79-9.39-.07,0h-5a5.31,5.31,0,0,1,2.67-8.7l1.58-.4v1.61a7.82,7.82,0,0,0,.2,1.69l-1.72-.69-.7,1.74,2.87,1.15a2,2,0,0,1,.14,3.56ZM401,549.06H376.65v-7.85a3.82,3.82,0,0,0,1.8-2.56,7.45,7.45,0,0,0,10.36-2.81,7.46,7.46,0,0,0,10.37,2.81,3.82,3.82,0,0,0,1.8,2.56Zm5.61,0h-3.74v-7.48h3.74Zm-4.46-9.35-.07,0a2,2,0,0,1,.14-3.56l2.87-1.15-.7-1.74-1.72.69a7.82,7.82,0,0,0,.2-1.69v-1.61l1.57.4a5.3,5.3,0,0,1,2.67,8.7Zm10.07,9.35h-3.74v-8a7.2,7.2,0,0,0-3.58-11.83l-1.14-.28,1.78-1.78a10,10,0,0,0-5.13-16.93l-1.29-.26v-.17a1.87,1.87,0,0,0-1.87-1.87h-2a2.64,2.64,0,0,0-.56-.94,2.6,2.6,0,0,0,.56-.93h2a1.87,1.87,0,0,0,1.87-1.87v-1.87h13.1Z"/><path class="cls-17" d="M391.62,532.22a3.74,3.74,0,0,0,7.48,0v-1.87h-7.48Zm5.61,0a1.87,1.87,0,0,1-3.74,0Z"/><path class="cls-17" d="M382.26,536a3.75,3.75,0,0,0,3.75-3.74v-1.87h-7.49v1.87A3.75,3.75,0,0,0,382.26,536Zm1.87-3.74a1.87,1.87,0,0,1-3.74,0Z"/><path class="cls-13" d="M415,496.67H362.62a2.81,2.81,0,0,0-2.81,2.81v52.39a2.81,2.81,0,0,0,2.81,2.8H415a2.8,2.8,0,0,0,2.8-2.8V499.48A2.8,2.8,0,0,0,415,496.67Zm.93,55.2a.93.93,0,0,1-.93.93H362.62a.93.93,0,0,1-.93-.93V499.48a.94.94,0,0,1,.93-.94H415a.94.94,0,0,1,.93.94Z"/><path class="cls-19" d="M414.81,498.74h-52a.94.94,0,0,0-.93.94v52a.93.93,0,0,0,.93.92h52a.92.92,0,0,0,.92-.92v-52A.93.93,0,0,0,414.81,498.74Zm-.74,52.19H363.56V500.42h50.51Z"/><path class="cls-20" d="M66.53,812.48a.86.86,0,0,0-.6-.25H50.53a.85.85,0,0,0-.85.84v11.32a.83.83,0,0,0,.54.79,21.22,21.22,0,0,0,16,0,.86.86,0,0,0,.54-.78V813.08A.82.82,0,0,0,66.53,812.48Zm-1.46,11.33a19.47,19.47,0,0,1-13.7,0v-6.3H65.08Zm0-8H51.38v-1.89h13.7Z"/><path class="cls-20" d="M82.65,819.6l2,2.37A.85.85,0,1,0,86,820.86l-2-2.37a3.23,3.23,0,0,0-2.41-1.1A1.49,1.49,0,0,1,80,815.9v-1a3.17,3.17,0,0,0-.94-2.26l-2.58-2.58v-4.14a.84.84,0,0,0-.84-.85c-5.88,0-9.13-3.5-9.17-9.87a.36.36,0,0,0,0-.11v-5.86a6.07,6.07,0,0,0-6.06-6.06H56a6.07,6.07,0,0,0-6.06,6.06v5.86s0,.08,0,.11c0,6.37-3.28,9.87-9.16,9.87a.85.85,0,0,0-.85.85v4.14l-2.58,2.58a3.2,3.2,0,0,0-.93,2.26v1a1.49,1.49,0,0,1-1.5,1.49,3.2,3.2,0,0,0-2.4,1.1l-2.06,2.37a.85.85,0,0,0,.09,1.2.84.84,0,0,0,.55.21.81.81,0,0,0,.64-.3l2.06-2.37a1.49,1.49,0,0,1,1.12-.51,3.19,3.19,0,0,0,3.19-3.19v-1a1.5,1.5,0,0,1,.44-1.06l1.38-1.38v24.17a2.48,2.48,0,0,0,2.47,2.47H74.05a2.47,2.47,0,0,0,2.46-2.47V812.45l1.39,1.38a1.49,1.49,0,0,1,.43,1.06v1a3.19,3.19,0,0,0,3.19,3.19A1.53,1.53,0,0,1,82.65,819.6Zm-31-30.38A4.36,4.36,0,0,1,56,784.86h4.47a4.37,4.37,0,0,1,4.37,4.36v5H51.63Zm-10,17.52c6-.34,9.71-4.31,10-10.81H64.82c.29,6.5,4,10.47,10,10.81v24.45H41.63Zm32.42,30.65H42.41a.77.77,0,0,1-.78-.77v-3.74H74.82v3.74A.77.77,0,0,1,74.05,837.39Z"/><path class="cls-21" d="M65.08,817.51v6.3a19.47,19.47,0,0,1-13.7,0v-6.3Z"/><rect class="cls-21" x="51.38" y="813.92" width="13.7" height="1.89"/><path class="cls-13" d="M399.05,701.14h-22.4a.71.71,0,0,0-.71.71v19.79a.71.71,0,0,0,.71.71h22.4a.71.71,0,0,0,.71-.71V701.85A.71.71,0,0,0,399.05,701.14Zm-.71,19.79h-21V702.56h21Z"/><path class="cls-13" d="M394.07,708.68a.71.71,0,0,1-.71.72h-11a.72.72,0,0,1,0-1.43h11A.71.71,0,0,1,394.07,708.68Z"/><path class="cls-13" d="M394.07,714.81a.71.71,0,0,1-.71.71h-11a.72.72,0,0,1,0-1.43h11A.71.71,0,0,1,394.07,714.81Z"/><path class="cls-13" d="M405.3,690H366.75a.71.71,0,0,0-.71.72v2.13h-1.26a.71.71,0,1,0,0,1.42H366V697h-1.26a.71.71,0,0,0,0,1.42H366v2.73h-1.26a.71.71,0,0,0,0,1.42H366v2.73h-1.26a.71.71,0,1,0,0,1.42H366v2.72h-1.26a.72.72,0,0,0,0,1.43H366v2.72h-1.26a.71.71,0,1,0,0,1.42H366v2.73h-1.26a.71.71,0,0,0,0,1.42H366v2.73h-1.26a.71.71,0,0,0,0,1.42H366V726h-1.26a.71.71,0,1,0,0,1.42H366v2.73h-1.26a.71.71,0,1,0,0,1.42H366v2.73h-1.26a.71.71,0,1,0,0,1.42H366v2.73h-1.26a.71.71,0,0,0,0,1.42H366v2.72h-1.26a.72.72,0,0,0,0,1.43H366v2.13a.71.71,0,0,0,.71.71H405.3a4,4,0,0,0,4-4V694A4,4,0,0,0,405.3,690Zm2.58,52.9a2.58,2.58,0,0,1-2.58,2.58H367.46v-1.42h1.26a.71.71,0,0,0,0-1.42h-1.26V739.9h1.26a.71.71,0,0,0,0-1.42h-1.26v-2.73h1.26a.71.71,0,1,0,0-1.42h-1.26V731.6h1.26a.71.71,0,0,0,0-1.42h-1.26v-2.73h1.26a.71.71,0,0,0,0-1.42h-1.26V723.3h1.26a.71.71,0,0,0,0-1.42h-1.26v-2.73h1.26a.71.71,0,0,0,0-1.42h-1.26V715h1.26a.71.71,0,1,0,0-1.42h-1.26v-2.72h1.26a.72.72,0,0,0,0-1.43h-1.26v-2.72h1.26a.71.71,0,0,0,0-1.42h-1.26v-2.73h1.26a.71.71,0,0,0,0-1.42h-1.26v-2.73h1.26a.71.71,0,0,0,0-1.42h-1.26v-2.73h1.26a.71.71,0,1,0,0-1.42h-1.26v-1.42H405.3a2.57,2.57,0,0,1,2.58,2.58Z"/><path class="cls-1" d="M377.36,702.56v18.37h21V702.56Zm16,13h-11a.72.72,0,0,1,0-1.43h11a.72.72,0,0,1,0,1.43Zm0-6.12h-11a.72.72,0,0,1,0-1.43h11a.72.72,0,0,1,0,1.43Z"/><rect class="cls-3" x="271.72" y="19.1" width="137.88" height="137.88"/><path class="cls-22" d="M409.6,29.11c-5,6.29-12.25,13.51-19.15,12.61-8.67-1.14-16.1-14.25-18-18.75a8.56,8.56,0,0,0-3.23-3.87h-9.42a7.66,7.66,0,0,0-.85.61H322.39a7.66,7.66,0,0,0-.85-.61h-9.42A8.56,8.56,0,0,0,308.89,23c-1.92,4.5-9.35,17.61-18,18.75-6.9.9-14.2-6.32-19.15-12.61V53c5.84,4,11.8,6,17.84,6a26,26,0,0,0,3.63-.24c7.29-1,13.32-4.78,18.1-9.33-1.93,24.12.74,52.21.74,52.21l2.53,53H334.1V111.78h13.12v42.88h19.54l2.53-52.95S372,73.62,370,49.5c4.78,4.55,10.81,8.36,18.1,9.33a26,26,0,0,0,3.63.24c6,0,12-2,17.84-6Z"/><path class="cls-23" d="M340.66,72a8.27,8.27,0,0,1-3.67-.79,2.16,2.16,0,1,1,1.94-3.86,4.6,4.6,0,0,0,3.46,0,2.16,2.16,0,0,1,1.94,3.86A8.27,8.27,0,0,1,340.66,72Z"/><path class="cls-23" d="M340.66,78.26a8.41,8.41,0,0,1-3.67-.79,2.16,2.16,0,1,1,1.94-3.86,4.6,4.6,0,0,0,3.46,0,2.16,2.16,0,0,1,1.94,3.86A8.41,8.41,0,0,1,340.66,78.26Z"/><path class="cls-23" d="M340.66,84.47a8.27,8.27,0,0,1-3.67-.79,2.16,2.16,0,1,1,1.94-3.86,4.6,4.6,0,0,0,3.46,0,2.16,2.16,0,1,1,1.94,3.86A8.27,8.27,0,0,1,340.66,84.47Z"/><path class="cls-23" d="M340.66,90.68A8.41,8.41,0,0,1,337,89.9,2.16,2.16,0,1,1,338.93,86a4.6,4.6,0,0,0,3.46,0,2.16,2.16,0,0,1,1.94,3.86A8.41,8.41,0,0,1,340.66,90.68Z"/><path class="cls-23" d="M325,155v-11.5a2.78,2.78,0,0,0-5.55,0V155Z"/><path class="cls-23" d="M322.25,139.5a2.78,2.78,0,0,1-2.78,2.77h0a2.77,2.77,0,0,1-2.78-2.77V102.23a2.77,2.77,0,0,1,2.78-2.78h0a2.78,2.78,0,0,1,2.78,2.78Z"/><path class="cls-23" d="M361.85,155v-11.5a2.78,2.78,0,0,0-5.55,0V155Z"/><path class="cls-23" d="M359.08,139.5a2.77,2.77,0,0,0,2.77,2.77h0a2.77,2.77,0,0,0,2.78-2.77V102.23a2.77,2.77,0,0,0-2.78-2.78h0a2.77,2.77,0,0,0-2.77,2.78Z"/><path class="cls-23" d="M342.85,62.25a2.19,2.19,0,0,1-2.19,2.18h0a2.19,2.19,0,0,1-2.19-2.18V32.05a2.19,2.19,0,0,1,2.19-2.19h0a2.19,2.19,0,0,1,2.19,2.19Z"/><path class="cls-23" d="M340.75,99.16a9.3,9.3,0,1,1-9.3-9.29A9.3,9.3,0,0,1,340.75,99.16Z"/><path class="cls-23" d="M359.17,99.16a9.3,9.3,0,1,1-9.3-9.29A9.3,9.3,0,0,1,359.17,99.16Z"/><rect class="cls-23" x="331.45" y="99.45" width="18.42" height="9.01"/><path class="cls-23" d="M337.81,30.17h-6c-3.5,0-5.15-1-6.55-2.38A5.73,5.73,0,0,0,321,26.38h-5a1.62,1.62,0,0,1,0-3.24h5a8.94,8.94,0,0,1,6.55,2.38c.78.8,1.6,1.41,4.24,1.41h6a1.62,1.62,0,1,1,0,3.24Z"/><path class="cls-23" d="M343.51,30.17h6c3.5,0,5.15-1,6.55-2.38a5.73,5.73,0,0,1,4.24-1.41h5a1.62,1.62,0,1,0,0-3.24h-5a8.94,8.94,0,0,0-6.55,2.38c-.78.8-1.59,1.41-4.24,1.41h-6a1.62,1.62,0,0,0,0,3.24Z"/><path class="cls-23" d="M355.89,70a16.89,16.89,0,0,1-12-5,1.62,1.62,0,0,1,2.29-2.29,13.71,13.71,0,0,0,19.38,0,1.64,1.64,0,0,1,2.3,0,1.61,1.61,0,0,1,0,2.29A16.86,16.86,0,0,1,355.89,70Z"/><path class="cls-23" d="M356,58.78a26.37,26.37,0,0,1-11.56-2.44,1.62,1.62,0,0,1,1.45-2.9c5.57,2.8,14.64,2.8,20.22,0a1.62,1.62,0,0,1,1.45,2.9A26.37,26.37,0,0,1,356,58.78Z"/><path class="cls-23" d="M355.35,47a32,32,0,0,1-10.85-1.77,1.62,1.62,0,0,1,1.12-3,31,31,0,0,0,19.47,0,1.62,1.62,0,0,1,1.12,3A32,32,0,0,1,355.35,47Z"/><path class="cls-23" d="M363.49,36H345.06a1.62,1.62,0,0,1,0-3.24h18.43a1.62,1.62,0,1,1,0,3.24Z"/><path class="cls-23" d="M325.43,70a16.86,16.86,0,0,1-12-5,1.61,1.61,0,0,1,0-2.29,1.62,1.62,0,0,1,2.29,0,13.71,13.71,0,0,0,19.38,0A1.62,1.62,0,0,1,337.41,65,16.88,16.88,0,0,1,325.43,70Z"/><path class="cls-23" d="M325.29,58.78a26.51,26.51,0,0,1-11.56-2.44,1.62,1.62,0,1,1,1.46-2.9c5.57,2.8,14.64,2.8,20.21,0a1.62,1.62,0,0,1,1.46,2.9A26.59,26.59,0,0,1,325.29,58.78Z"/><path class="cls-23" d="M326,47a32.09,32.09,0,0,1-10.86-1.77,1.62,1.62,0,1,1,1.12-3,31.16,31.16,0,0,0,19.47,0,1.62,1.62,0,1,1,1.12,3A32,32,0,0,1,326,47Z"/><path class="cls-23" d="M336.26,36H317.83a1.62,1.62,0,0,1,0-3.24h18.43a1.62,1.62,0,1,1,0,3.24Z"/><path class="cls-23" d="M313.21,27.1a2,2,0,0,1,2.88,0h0a2,2,0,0,1,0,2.88L296.77,49.3a2,2,0,0,1-2.88,0h0a2,2,0,0,1,0-2.88Z"/><path class="cls-23" d="M293.63,49a2.87,2.87,0,1,1,0,4.06A2.87,2.87,0,0,1,293.63,49Z"/><path class="cls-23" d="M290.15,45.49a2.87,2.87,0,1,1,0,4.07A2.87,2.87,0,0,1,290.15,45.49Z"/><path class="cls-23" d="M289.07,57.58a3.07,3.07,0,0,1-2.2-.91L267.54,37.35a3.13,3.13,0,0,1,0-4.41,3.19,3.19,0,0,1,4.41,0l19.32,19.32a3.1,3.1,0,0,1,0,4.41A3.07,3.07,0,0,1,289.07,57.58ZM269.75,34.19a1,1,0,0,0-.68,1.63l19.32,19.33a1,1,0,0,0,1.64-.68,1,1,0,0,0-.28-.68L270.42,34.47A1,1,0,0,0,269.75,34.19Z"/><path class="cls-23" d="M268.63,33.45a2.87,2.87,0,1,1-4.06,0A2.87,2.87,0,0,1,268.63,33.45Z"/><path class="cls-23" d="M272.11,30a2.87,2.87,0,1,1-4.06,0A2.87,2.87,0,0,1,272.11,30Z"/><path class="cls-23" d="M368.11,27.1a2,2,0,0,0-2.88,0h0a2,2,0,0,0,0,2.88L384.55,49.3a2,2,0,0,0,2.88,0h0a2,2,0,0,0,0-2.88Z"/><path class="cls-23" d="M387.69,49a2.87,2.87,0,1,0,0,4.06A2.87,2.87,0,0,0,387.69,49Z"/><path class="cls-23" d="M391.17,45.49a2.87,2.87,0,1,0,0,4.07A2.87,2.87,0,0,0,391.17,45.49Z"/><path class="cls-23" d="M390.05,56.67a3.1,3.1,0,0,1,0-4.41l19.32-19.32a3.19,3.19,0,0,1,4.41,0,3.13,3.13,0,0,1,0,4.41L394.46,56.67a3.13,3.13,0,0,1-4.41,0Zm20.85-22.2L391.57,53.79a1,1,0,0,0-.28.68,1,1,0,0,0,1.64.68l19.32-19.33a1,1,0,0,0-.68-1.63A1,1,0,0,0,410.9,34.47Z"/><path class="cls-23" d="M412.69,33.45a2.87,2.87,0,1,0,4.06,0A2.87,2.87,0,0,0,412.69,33.45Z"/><path class="cls-23" d="M409.21,30a2.87,2.87,0,1,0,4.06,0A2.87,2.87,0,0,0,409.21,30Z"/><path class="cls-1" d="M411.25,13.86H270.07A6.16,6.16,0,0,0,263.91,20V153.74a6.16,6.16,0,0,0,6.16,6.17H411.25a6.16,6.16,0,0,0,6.16-6.17V20A6.16,6.16,0,0,0,411.25,13.86ZM406,150.61H275.38V23.15H406Z"/><path class="cls-13" d="M40,608.19a4.86,4.86,0,1,0,4.78,4.86A4.78,4.78,0,0,0,40,608.19Zm0,8.52a3.66,3.66,0,0,1-3.49-3.66,3.46,3.46,0,0,1,3.49-3.5,3.53,3.53,0,0,1,3.5,3.58A3.59,3.59,0,0,1,40,616.71Z"/><path class="cls-13" d="M62.93,636.4a5,5,0,0,0-5-5,5,5,0,1,0,0,10A5,5,0,0,0,62.93,636.4Zm-8.78,0a3.75,3.75,0,1,1,3.75,3.75A3.78,3.78,0,0,1,54.15,636.4Z"/><path class="cls-13" d="M75.54,636.4a5,5,0,0,0-5-5,5,5,0,1,0,0,10A5,5,0,0,0,75.54,636.4Zm-8.77,0a3.75,3.75,0,1,1,3.75,3.75A3.78,3.78,0,0,1,66.77,636.4Z"/><path class="cls-13" d="M70.52,641.68a10.24,10.24,0,0,0-6.31,2.3,9.77,9.77,0,0,0-16,6.56.66.66,0,0,0,.6.69H79.47a.6.6,0,0,0,.59-.69A9.52,9.52,0,0,0,70.52,641.68Zm-21,8.35a8.47,8.47,0,0,1,16.7,0Zm18,0a9.51,9.51,0,0,0-2.38-5.11A8.43,8.43,0,0,1,78.87,650Z"/><path class="cls-13" d="M80.83,595.49H26.28a.58.58,0,0,0-.6.59v34.1a.68.68,0,0,0,.69.68h.68l-.77,2.81a2.19,2.19,0,1,0,4.26,1l2.39-9.29.6-.35v23.19a2.73,2.73,0,1,0,5.45,0V637.76a1,1,0,0,1,1-1,1.11,1.11,0,0,1,1,1v10.57a2.73,2.73,0,1,0,5.45,0V630.78H80.83a.68.68,0,0,0,.68-.69v-34A.65.65,0,0,0,80.83,595.49ZM46.31,624.72a.67.67,0,0,0-.68-.17.64.64,0,0,0-.43.6v23.18a1.45,1.45,0,0,1-2.9,0V637.76a2.3,2.3,0,0,0-4.6,0v10.57a1.45,1.45,0,0,1-2.9,0V624a.66.66,0,0,0-.93-.6l-1.79.94a.86.86,0,0,0-.34.43l-2.48,9.63a.89.89,0,0,1-1.1.68.91.91,0,0,1-.69-1.11l2.73-10.65C36.51,620,35,620.55,37,620.55l2.22,6.13a.63.63,0,0,0,.59.43.64.64,0,0,0,.6-.43l2.22-6.13h1.79a1.07,1.07,0,0,1,.59.34l3.67,3.66a.65.65,0,0,0,.85.09l4.26-3,.6.85.51.68-6,4.09Zm33.92,4.78H46.48v-2.82l1.88,1.88a.66.66,0,0,0,.85.08l6.9-4.77a.65.65,0,0,0,.17-.85l-.51-.68,7.5-5.29a.61.61,0,0,0-.68-1l-7.5,5.2-.6-.85a.65.65,0,0,0-.85-.17l-4.35,3.06L46.05,620c-.85-1-1.79-.77-3.75-.77a.64.64,0,0,0-.59.42l-1.79,4.95-1.79-4.95a.65.65,0,0,0-.6-.42c-2.81,0-1.28-.51-8.1,3.07a.84.84,0,0,0-.34.42l-1.7,6.82H27V596.77H80.23Z"/><path class="cls-1" d="M27,596.77v32.81h.43l1.7-6.82a.84.84,0,0,1,.34-.42c6.82-3.58,5.29-3.07,8.1-3.07a.65.65,0,0,1,.6.42l1.79,4.95,1.79-4.95a.64.64,0,0,1,.59-.42c2,0,2.9-.26,3.75.77l3.24,3.23,4.35-3.06a.65.65,0,0,1,.85.17l.6.85,7.5-5.2a.61.61,0,0,1,.68,1l-7.5,5.29.51.68a.65.65,0,0,1-.17.85l-6.9,4.77a.66.66,0,0,1-.85-.08l-1.88-1.88v2.82H80.23V596.77ZM40,617.9a4.86,4.86,0,1,1,4.78-4.85A4.78,4.78,0,0,1,40,617.9Zm36.57-5.45H52.62a.68.68,0,1,1,0-1.36H76.57a.62.62,0,0,1,.68.68A.67.67,0,0,1,76.57,612.45Zm0-8H52.62a.6.6,0,0,1-.68-.6.67.67,0,0,1,.68-.68H76.57a.6.6,0,0,1,.68.6A.67.67,0,0,1,76.57,604.44Z"/><path class="cls-13" d="M77.25,603.76a.67.67,0,0,1-.68.68H52.62a.6.6,0,0,1-.68-.6.67.67,0,0,1,.68-.68H76.57A.6.6,0,0,1,77.25,603.76Z"/><path class="cls-13" d="M77.25,611.77a.67.67,0,0,1-.68.68H52.62a.68.68,0,1,1,0-1.36H76.57A.62.62,0,0,1,77.25,611.77Z"/><circle class="cls-24" cx="75.52" cy="393.27" r="6.21"/><path class="cls-24" d="M88.52,400.1h-26a3.33,3.33,0,0,0-3.33,3.33v1.46H52.36v-6.62a2.76,2.76,0,0,0-2.76-2.76H29.86a2.75,2.75,0,0,0-2.76,2.76v51.21a2.76,2.76,0,0,0,2.76,2.76H49.6a2.77,2.77,0,0,0,2.76-2.76V407.83h6.83v12.82A3.33,3.33,0,0,0,62.52,424h5.54v25.14a3.41,3.41,0,0,0,6.82,0V424.2h1.28v24.92a3.42,3.42,0,0,0,6.83,0V424h5.53a3.33,3.33,0,0,0,3.33-3.33V403.43A3.33,3.33,0,0,0,88.52,400.1Zm-39,16a2.76,2.76,0,0,1-2.76,2.76H32.69a2.76,2.76,0,0,1-2.77-2.76V404.52a2.76,2.76,0,0,1,2.77-2.76H46.77a2.76,2.76,0,0,1,2.76,2.76Zm40.32,4.54a1.32,1.32,0,0,1-.77,1.2,1.18,1.18,0,0,1-.56.13h-26a1.26,1.26,0,0,1-.43-.08,1.32,1.32,0,0,1-.9-1.25V403.43a1.32,1.32,0,0,1,.9-1.25,1.26,1.26,0,0,1,.43-.08h26a1.22,1.22,0,0,1,.43.08.29.29,0,0,1,.13.05,1.32,1.32,0,0,1,.77,1.2Z"/><path class="cls-25" d="M89.85,403.43v17.22a1.32,1.32,0,0,1-.77,1.2,1.18,1.18,0,0,1-.56.13h-26a1.26,1.26,0,0,1-.43-.08,1.32,1.32,0,0,1-.9-1.25V403.43a1.32,1.32,0,0,1,.9-1.25,1.26,1.26,0,0,1,.43-.08h26a1.22,1.22,0,0,1,.43.08.29.29,0,0,1,.13.05A1.32,1.32,0,0,1,89.85,403.43Z"/><path class="cls-13" d="M85.33,407.15a10.54,10.54,0,0,0-2.14-2.26h0l0,0a.8.8,0,0,0-.13-.13l0,0a3.45,3.45,0,0,0-1.59-.65,11.58,11.58,0,0,0-2-.15,27.13,27.13,0,0,0-2.89.18l-.31,0v-1.93H74.87v1.93l-.31,0a27.16,27.16,0,0,0-2.9-.18,9.61,9.61,0,0,0-2.61.29,2.7,2.7,0,0,0-1,.51l0,0-.13.13v0h0a10.3,10.3,0,0,0-2.15,2.26c-1.3,1.83-2.84,5.14-2.84,10.51a32.94,32.94,0,0,0,.3,4.32h1.12a31.55,31.55,0,0,1-.32-4.32c0-4.07.9-7.39,2.65-9.87a9,9,0,0,1,.72-.91l.26-.29.19.34a2.26,2.26,0,0,0,.16.26l0,.07v.07l0,.33a7.53,7.53,0,0,0,.72,2l0,.05v.06a10.2,10.2,0,0,0,.9,3.84l.1.23c.17.42.41,1.12.41,1.12a11.72,11.72,0,0,0,.36,3,4.45,4.45,0,0,0,.82,1.72,2.21,2.21,0,0,0,1.73.85,3.36,3.36,0,0,0,1.35-.34l.4-.19v2h1.31v-2l.39.18a3.42,3.42,0,0,0,1.39.34,2.19,2.19,0,0,0,1.7-.86,5.63,5.63,0,0,0,1-2.63,13.52,13.52,0,0,0,.17-2.06s.21-.51.44-1.11.45-1.18.57-1.59a11.57,11.57,0,0,0,.4-2.5v-.06l0-.05a7.51,7.51,0,0,0,.71-2c0-.14,0-.26.05-.34v-.08l0-.06a2.94,2.94,0,0,0,.17-.26l.19-.34.25.29a9.09,9.09,0,0,1,.85,1.09,17,17,0,0,1,2.52,9.69,33.26,33.26,0,0,1-.31,4.32h1.11a33.14,33.14,0,0,0,.31-4.32C88.18,412.29,86.63,409,85.33,407.15ZM74.87,418.68l-.12.08a3.2,3.2,0,0,1-1.64.67,1.06,1.06,0,0,1-.87-.44,4.77,4.77,0,0,1-.78-2.12l-.06-.46-.07-.59.5.33a6.08,6.08,0,0,0,2.79,1l.25,0Zm0-2.63h-.08l-.24,0a5,5,0,0,1-2.19-.83,4.85,4.85,0,0,1-1.49-1.7,6.89,6.89,0,0,1-.51-1.17l-.26-.8.68.48a7.69,7.69,0,0,0,3.83,1.32l.26,0Zm0-3.83-.31,0a5.84,5.84,0,0,1-4.48-2.47,5.16,5.16,0,0,1-.44-.77l-.3-.62.65.25a13.85,13.85,0,0,0,3.1.74c.49.07,1,.12,1.52.16l.26,0Zm0-3.83-.3,0-.17,0a16.49,16.49,0,0,1-3.79-.72,4.63,4.63,0,0,1-1.5-.79,1.28,1.28,0,0,1-.49-1v-.19l.11-.07.22-.16.17-.09h0l.06,0,0,0h0a3.06,3.06,0,0,1,.56-.14,10.12,10.12,0,0,1,1.8-.14h0a24.86,24.86,0,0,1,2.59.16l.37,0,.25,0Zm4.78,8a9.3,9.3,0,0,1-.24,1.27A3.72,3.72,0,0,1,78.8,419a1.07,1.07,0,0,1-.89.44,3.16,3.16,0,0,1-1.61-.67l-.12-.08v-1.53l.24,0a6.08,6.08,0,0,0,2.8-1l.5-.33Zm1-4.11a7.71,7.71,0,0,1-.34.86l-.18.32c-.28.46-.69,1-.69,1l-.3.31s-.32.28-.5.4a5,5,0,0,1-2.19.83l-.23,0h-.08v-2.72l.25,0A7.76,7.76,0,0,0,80.27,412l.68-.48Zm.72-3.34a6.2,6.2,0,0,1-.61,1,5.9,5.9,0,0,1-4.32,2.23l-.3,0V409.5l.26,0a21.54,21.54,0,0,0,2.93-.41,11.48,11.48,0,0,0,1.69-.49l.65-.25Zm1-3.09c0,.49-.27.86-.9,1.26a10.79,10.79,0,0,1-3.72,1.09c-.43.06-.88.11-1.33.15l-.3,0v-3.16l.24,0,.38,0a24.83,24.83,0,0,1,2.58-.16h0a8.85,8.85,0,0,1,2.25.25l.09,0,0,0,0,0,.05,0a3,3,0,0,1,.41.26l.11.07v.18Z"/><rect class="cls-26" x="364.26" y="911.3" width="31.41" height="3.97" rx="1.99"/><circle class="cls-26" cx="393.09" cy="905.45" r="2.58"/><line class="cls-27" x1="365.07" y1="905.9" x2="386.67" y2="905.9"/><path class="cls-28" d="M403.51,925.69H356.56a3.26,3.26,0,0,1-3.26-3.26v-29.3a3.26,3.26,0,0,1,1.93-3l9.2-4.09a3.22,3.22,0,0,1,1.33-.29h25.78a3.39,3.39,0,0,1,1.1.19l12,4.28a3.26,3.26,0,0,1,2.17,3.07v29.12A3.26,3.26,0,0,1,403.51,925.69Z"/><rect class="cls-29" x="358.27" y="894.74" width="43.54" height="27.44" rx="1.69"/><rect class="cls-29" x="372.67" y="888.37" width="14.73" height="3.97" rx="1.99"/></svg>